<svg xmlns="http://www.w3.org/2000/svg" xmlns:xlink="http://www.w3.org/1999/xlink" viewBox="0 0 199 196"><defs><style>.cls-1{fill:url(#radial-gradient);}.cls-2{fill:none;}.cls-3{isolation:isolate;}.cls-4{opacity:0.1;}.cls-5{clip-path:url(#clip-path);}.cls-6{opacity:0.51;}.cls-7{fill:#fff;stroke:#fff;stroke-miterlimit:10;}.cls-8{opacity:0.82;mix-blend-mode:hard-light;}.cls-9{clip-path:url(#clip-path-2);}.cls-10{mask:url(#mask);}.cls-11{fill:url(#radial-gradient-2);}.cls-12{mix-blend-mode:overlay;}.cls-13{fill:url(#radial-gradient-3);}.cls-14{opacity:0.72;mix-blend-mode:multiply;}.cls-15{fill:#ddd;}</style><radialGradient id="radial-gradient" cx="61.92" cy="97.93" r="138.24" gradientUnits="userSpaceOnUse"><stop offset="0.66"/><stop offset="0.8" stop-color="#fff"/></radialGradient><clipPath id="clip-path"><circle class="cls-2" cx="95.03" cy="97.74" r="80.34"/></clipPath><clipPath id="clip-path-2"><path class="cls-2" d="M156.61,150.87a81.07,81.07,0,1,1-8.47-114.34A81.07,81.07,0,0,1,156.61,150.87Z"/></clipPath><mask id="mask" x="-76.32" y="-40.31" width="276.48" height="276.48" maskUnits="userSpaceOnUse"><path class="cls-1" d="M166.62,188.19a138.24,138.24,0,1,1-14.44-195A138.24,138.24,0,0,1,166.62,188.19Z"/></mask><radialGradient id="radial-gradient-2" cx="-3468.74" cy="3005.85" r="122.45" gradientTransform="matrix(0.76, 0.65, -0.65, 0.76, 4681.51, 27.62)" gradientUnits="userSpaceOnUse"><stop offset="0.07" stop-color="#fff"/><stop offset="0.37" stop-color="#fdfdfd"/><stop offset="0.53" stop-color="#f5f5f5"/><stop offset="0.66" stop-color="#e7e7e7"/><stop offset="0.77" stop-color="#d4d4d4"/><stop offset="0.87" stop-color="#bbb"/><stop offset="0.94" stop-color="#a3a3a3"/></radialGradient><radialGradient id="radial-gradient-3" cx="-3427.99" cy="3047.85" r="81.07" gradientTransform="matrix(0.76, 0.65, -0.65, 0.76, 4681.51, 27.62)" gradientUnits="userSpaceOnUse"><stop offset="0.9" stop-color="gray"/><stop offset="1" stop-color="#c4c4c3"/></radialGradient></defs><title>planet separados</title><g class="cls-3"><g id="Capa_2" data-name="Capa 2"><g class="cls-4"><g class="cls-5"><g class="cls-6"><path class="cls-7" d="M104.12,84.6c.33.14-.2.58-.15.91.25-.26.27.17.65-.49.09.06-.07.37-.14.57.33-.2.8.34,1-.47l0-.06,0,0c.89-.36.87,1,1.55,1l-.12.22c.45-.08.77.23,1.26-.12.09,0,0,.53-.19.77.33,0,.49-.27.63.29-.45.26-.1.39-.4.15.21.36.08.77.75.33-.42.52-.15.85.09.75v-.52a.6.6,0,0,1,.46.26l-.48.71c.16,1.26,2-1,1.67.83.45-.44-.16-.55.32-1.09.24.25,0,1.5.08,1.55.2.64,1-.91,1.23-.4.09-.3.41-1.06.85-1.15.25.25-.21,1.33-.51,1.45-.08,0-.07-.11,0-.21a.45.45,0,0,0-.37.46l.18-.25c0,.35.43.54.11.93.36-.14.32-.39.23-.62.18.59.59.32.85.79,0-.18.11-.54.17-.5.41.63.52-.39,1-.32,0,.52-.57,1,0,.8.1.4-.31.75-.51.93.62-.36.51.67.67.87l-.3.13a.36.36,0,0,1,.37,0l.16-.61c.06.15.16.2,0,.43.29-.31.35-1,.82-1.34,0,.35.6-.09.3.67-.35-.47-.3.76-.76.69.12,0,.22,0,.28.15a.25.25,0,0,1-.14.17c.15.87.61-.73,1.07-.49-.26.38-.26.83-.14.78-.19-.1.23-.73.55-1,.15.47.44-.08.58,0l-.11-.23c.26-.39.38-.26.65-.3a.39.39,0,0,1-.14.2c.36-.2.09,1.08.59.78,0,.35-.35.79-.3,1,.61-.37.13.76.72.49.14-.61.06-.48.58-.9l-.81.1.77-.62c-.18-.1-.56.16-.63,0,.4-.37.32-.24.44-.74-.12,1,.73-.25.78.45l-.63,1.38c.18.82,1.13-.36,1.57.25l-.08-.33c.32-.52.4.08.69-.06a2.4,2.4,0,0,0-.22,1c.14-.35.42.22.88-.69v.73c.37.46,1.12-1.09,1.51-.74-.36.45-.29.87-.75,1.1.15.08.25.22.39-.1,0,.33.7-.45.65.06.15-.18.38-.66.53-.55a1,1,0,0,1-.09.23c.09-.23.4-.2.46-.78-.14,1.68,1.37.44,1.28,1.86a4.54,4.54,0,0,1,1.19.07c-.07.14-.09.24-.13.17.25.6.8-1.26,1.09-.58-.05.86-.42.32-.38.67-.54,1.58.67,0,.64,1l-.11.06c0,.63.83-.35,1.2-.08a1,1,0,0,0-.09.24,2.32,2.32,0,0,1,1.68-.82c-.35.57-.3.25-.46.91.21,0,.32-1,.74-1.07a3.68,3.68,0,0,1-.07,1.44l-.35-.08c-.15.92.44.12.56.33l-.16.37c.57.06.92-.89,1.44-.63l0-.3c.64-.84.06.62.61,0l-.25,1a5.56,5.56,0,0,1,1.44-.73,5.13,5.13,0,0,1-1.4,1.18.78.78,0,0,0,1-.27c-.11.07-.3.27-.32.09.5-.67.95-.93,1.33-.77-.71,1.84.86.83.66,2.38.94-.46,1.31.74,2.17.89.18-1.55.26,0,.68-1.48.22,0,.29,0,.28.11l0-.08,0,.09h0l.29,1.08c0,.48-.28.27-.37.62.39.24,0,.69.13,1.18.11-.56.39-.73.57-.45l-.13-.8c.84-.61.12,1.43,1,.82l-.33.41c.39-.18,1.13.37,1.78-.75,0,.19,0,.62-.21.69.69.4,2-.84,2.37.07l-.16.35c.16-.07.43-.63.5-.21,0,.15-.16.36-.1.4s.54-.55.66-.29l-.27.38c.59.68,1.38-.72,2-.81a1.74,1.74,0,0,0,.42,1.86l0,.16c.81.37,1.67-.56,2.55-.8.19,1.31,1.52.89,2.14,1.74a1.3,1.3,0,0,1,.38-.93c.13.27.68-.65.42.36l-.06,0c-.09,1,.35.85.64,1l.34-1.31c.35,2.11,2.17-.3,2.23,1.52.25-.3.48-.25.73-.54l-.15.71a2,2,0,0,0,1.4.38l-.23.49c.35.12.85-2,1.19-2l-.1,1.09c.63.11,1.1,1.18,1.9.3,0,.15-.11.46-.22.49.29.07,1,.91,1.17-.58-.15,1,.64.2,1.05-.17l-.17.7c.43-.86.48-1.1.92-1.29.07.09,0,.44-.06.42.23.25.33-.65.63-.23l-.21.43c.32.1.33-.14.59-.64.25-.26.59.27.54.92.1-.38.36-.88.52-.66a.82.82,0,0,1-.14.45c.47.58.92-.69,1.2,0a1.06,1.06,0,0,0,0,.43l-.22,0h0l.11-.26c-.06.15-.13.16-.21.16l0,.09c-.28-.06-.47-.12-.44-.16a1.1,1.1,0,0,0,0,.25s0,0,0,0h0s0,0,0,0a2.46,2.46,0,0,0,0,.28s0,0-.05,0a.39.39,0,0,1,0-.22c-.42-.68-.05.93-.4,1,0-.46-.18-.85-.23-.74.15,0,.16.75.07,1.11-.27-.33-.22.29-.34.27l.15.14c0,.46-.12.42-.26.58,0-.35.12-.26,0-.41-.09.82-.48-.77-.67-.21-.14-.3-.1-.86-.22-1.06-.21.62-.35-.6-.59-.09a1.37,1.37,0,0,1,0,1.07l.44-.47-.22.92c.14,0,.26-.41.36-.32a1.16,1.16,0,0,0,0,.86c-.29-.9-.34.57-.63,0l-.13-1.52c-.4-.64-.54.83-1,.49l.16.25c0,.6-.26.1-.39.36a3.4,3.4,0,0,0-.22-1c0,.38-.32,0-.29,1l-.24-.65c-.38-.24-.31,1.48-.67,1.33.07-.56-.11-.9.09-1.31-.11,0-.22-.08-.2.27-.09-.32-.27.71-.41.23,0,.22,0,.75-.15.72a1.59,1.59,0,0,1,0-.25c0,.25-.18.35,0,.9-.44-1.56-1,.16-1.37-1.19a2.32,2.32,0,0,1-.77.41c0-.16,0-.26,0-.21-.34-.45-.14,1.47-.53,1-.21-.82.18-.45.06-.76-.11-1.67-.43.25-.7-.72l0-.1c-.19-.56-.43.66-.73.54a1.19,1.19,0,0,0,0-.25,2.08,2.08,0,0,1-.87,1.37,2.29,2.29,0,0,0,.07-1c-.13.09,0,1.07-.21,1.25a4.72,4.72,0,0,1-.31-1.38l.24,0c-.13-.92-.31,0-.44-.13v-.4c-.37.13-.37,1.14-.78,1.07l0,.3c-.22,1-.18-.56-.41.18l-.06-1a5.24,5.24,0,0,1-.79,1.17,6.57,6.57,0,0,1,.66-1.58c-.14,0-.48.07-.57.57.06-.1.14-.34.19-.19-.18.8-.42,1.19-.71,1.18.08-2-.75-.52-.92-2.06-.52.71-1-.35-1.58-.25.15,1.54-.17,0-.2,1.61-.13.09-.18.06-.2,0h0l-.38-1c-.07-.46.15-.34.15-.7-.29-.13-.09-.67-.27-1.09,0,.56-.14.8-.3.58l.2.73c-.46.82-.29-1.33-.75-.52l.16-.49c-.23.29-.79-.06-1.08,1.18a1.31,1.31,0,0,1,.05-.72c-.5-.23-1.24,1.25-1.59.45l.07-.38c-.1.1-.22.7-.31.31,0-.16.07-.38,0-.41-.06.13-.31.66-.42.42l.15-.42c-.46-.54-.86,1-1.32,1.22a2,2,0,0,0-.42-1.74l0-.16c-.57-.21-1.09.82-1.68,1.2-.2-1.26-1.08-.65-1.53-1.39a1.86,1.86,0,0,1-.24,1c-.1-.24-.46.74-.3-.29l0,0c.05-1-.25-.8-.44-.86l-.23,1.35c-.24-2-1.5.5-1.52-1.3-.18.32-.34.29-.52.61l.12-.72a.91.91,0,0,0-.94-.25l.17-.5c-.23-.09-.66,2-.9,2l.12-1.09c-.43-.06-.69-1.09-1.29-.2,0-.15.1-.46.18-.49-.19-.07-.63-.87-.84.61.18-1-.43-.18-.74.19l.17-.69c-.37.86-.43,1.1-.75,1.3,0-.09,0-.44.08-.42-.14-.24-.29.65-.47.25l.19-.43c-.21-.1-.24.14-.47.64-.2.26-.39-.26-.29-.9-.11.38-.34.88-.44.66a1.26,1.26,0,0,1,.16-.45c-.27-.56-.73.69-.83-.06a2.6,2.6,0,0,0,0-.43c.29.09.51.18.48.23.14-.65-.07-.82.31-1.66-.29.44-.85,1.42-1,1.06a1.06,1.06,0,0,1,0-.23l0-.07c0-.07-.1,0-.17.07-.05-.12-.08-.21-.15-.23.1-.54-.2-.36-.31-.41-.15.71-.28.56-.27,1.17,0,0,0-.07.12-.09a.1.1,0,0,0,.07-.06l0,.06.3,0c-.17.33-.34.61-.38.19-.17.43-.35.88-.43,1.1.06-1-.12-1.63,0-2.24-.45.31-.9.06-1.46,1.32-.15.15,0-.4,0-.62s.16-.08.24-.26c-.29.29-.64,0-.93.89-.15-.49.36-.81,0-.75l.12-.27c-.3-1.66-1.75,2-2-.07a.69.69,0,0,1,0,.35c-.64-1.08-2,.3-2.52-1.29-.16-.34-.36.23-.65.62l.18-.76-.52.78c-.56.51,0-2-.88-1l-.11.52c-.13-.15-.61.12-.4-.44,0,.09-.22.5-.2.22l.12-.39-.62.54c-.22-.38.56-1.52.13-1.74a3,3,0,0,0-.88,1.25c.06,0,.09.29,0,.68l-.22.15a7.77,7.77,0,0,0-.81,3.17l.51-.61-.09.58-.25,0c0,.56.2.13.4-.16a1.83,1.83,0,0,0-.09.65l.63-1c-.12.45-.41.84-.31,1.15.29-.47.2-1,.52-1.31,0,.56-.21,1,.09.58a1.41,1.41,0,0,1-.27.59c.25-.31.41,0,.67-.62-.06.68.52,0,.16,1.06.13-.25.51-.77.65-.78-.63,1.22.45.23,0,1.6.53-1.11.78-.32,1.28-.88,0,.09-.14.27-.15.2.15.15.09.52.13.78a5.87,5.87,0,0,1,1-1.67c-.07,1-.46,1.1-.66,2,.22-.79.59-.68.71-1.35a3.23,3.23,0,0,1-.09,1.14c.38-1.2.21-.16.56-.87.06.66-.27,1.15.1.85a1.23,1.23,0,0,1-.34.78c.26.09.38-.87.58-1.38.39-.17,0,.72-.07,1.22.27-.19.65-1,.79-.92a1.1,1.1,0,0,1-.11.4c.41-.67.63.14,1.11-.72a.88.88,0,0,1,0,.24c.09-.47.21-.94.3-1.27.12,0,.37-.52.26.09-.07,0-.14.2-.22.38l.19-.22c-.12.89-.25.25-.42.89.32-.22.78-.86.9-.56-.19.85-.5.16-.46,1l-.2-.4c-.13,1.4-.14-.14-.32,1.34.31.35.53-.31.84,0,.21-.45.15-.7.36-1.15.74-.72-.12,2.23.56,1.19.24-.54.54-1.6.68-1l-.33.94c.35.18.55-1.33.77-.6-.16.36-.36.25-.33.38.06.82.3-.5.49-.46l-.16.86c.42,0,1-.56,1.45-.61a1.74,1.74,0,0,0-.17.78c.64-.3,1.13.39,1.56,1l.36-.7a.77.77,0,0,1-.06.49c.14.32.1-.47.26-.74.13,0,.07.45,0,.66.5-.55,1.3-1.15,1.53-.28l-.12.21c.25.36.63-1.46.77-.71l-.07.12c.58.44,1.41-.09,1.71,1.11.28-1.06.57.58.86-.91.25.8.1,1,.54,1.63.13.09.36-.9.56-1l-.12.78.36-.78,0,1,.19-.17a1.18,1.18,0,0,1,0-.6c.31-.32.54.64.49,1l.69-.57a1,1,0,0,1-.2.47c.29-.4-.11.92.26.28a3.06,3.06,0,0,1,.12-.63c.08.5.41.56.69.39l-.12.53c.43.19,1-.15,1.48-.08a1.72,1.72,0,0,1,.17-1.28l0,.84c.15-.51-.12-.34.15-.94.17.11,0,1-.13,1.22l.27-.27c0,.25-.09.38-.14.69.15-.5.3.89.54,0l0,.25c.51.07.77-.19,1.18-.19.09-.72.23-.54.41-1.1.28.26.56.86.93.82.29-.34.13-.6.28-1,0,.66.33.62.1,1.08a1.82,1.82,0,0,0,1.16-.58,1.49,1.49,0,0,1,0-.62c.11-.1.2.3.16.61l0,.07c.68-.94,1.3,2,1.89.69l0,.07.56-.69c.23.13-.17.49,0,.91.61-1.08.87.19,1.36-.52.27,1.95,1.26-.09,1.69,1.16v-.45c.13-.45.14.26.23.37,0-.35-.12-.41,0-.66,1.05-.5,2.14.7,3.23,1.11.4.13.21-2.37.71-1.27l-.13.85c.78-1,1.62,0,2.38-.87,0,.2,0,.45-.11.45.18.62.61,0,.59-.49.12.05,0,.45.13.7s.38-.8.49-.19a.37.37,0,0,1-.07.25c.1-.3.51,0,.37-.65.31.32.55-.34.8.07.11-.8.51.36.5-.77,0,1.17.56.92.71.37,0,.35.19.35.14.84.21,0,.39-.26.32-.85.48,1.35.69-1.18,1,.58a6.62,6.62,0,0,1,1.65-1.46c.08,1.16-.61.16-.48,1.38.49-.52.7-1.54,1.25-1.31.15.15,0,.51-.06.71.49-.51,1,0,1.44-.67a.71.71,0,0,1-.07.32c.09,0,.24.14.17-.38l-.08.15c-.23-.74.19-1.63.16-2,0,1.53.5.33.47,2.26a1.35,1.35,0,0,0,0-.72c.1.09.16.29.11.71.3-.33.12-.87.41-.9a4.94,4.94,0,0,1,0,.66c.09-.51.18-1,.46-.84,0,.16.06.35,0,.36.43-.13.57-1.41,1.1-1,0,1.12.21.34.37,1.29l.21-.31-.17-.45c.23,0,.33-.74.56-.46l-.11.42.39-.25-.29-.32c.15-.53-.2-1.2.13-1,0,.1.22,0,.42.52h0c.07-.32.13-.66.33-.45s.13,1.06.19,1.25c0-.81.48-.3.48-1.17a3.4,3.4,0,0,0,.09.8v-.65a1.13,1.13,0,0,1,.22.68c.32.07-.3-1.18.15-.73a1.58,1.58,0,0,1,0,.26c.41.21.63-.52,1-.26.27.94-.25.28,0,1.07.46-.26.81-1.3,1.31-1.18l-.1-.09c-.2-1.35.47.59.58-.09a2.06,2.06,0,0,0,.06.61c.36.15.59-.47,1-1l0,.36c.25.27.53.07.76.19,0-.36.12-.33-.06-.81.5.85.74.62,1,.29a11.19,11.19,0,0,0,.7,1.18c-.11.39-.5-.51-.85-.86,0,.31.33,1.12.19,1.16a1.33,1.33,0,0,1-.22-.34c.24.75-.47.35-.17,1.28l-.14-.18c.28.38.53.79.71,1.09-.09.08.13.63-.23.12.07,0-.06-.24-.13-.42l0,.3c-.56-.71,0-.36-.37-.92,0,.37.11,1.16-.18,1-.47-.73.21-.48-.39-1l.4.14c-.89-1.07.19,0-.73-1.17-.43,0-.1.61-.55.55.18.46.39.61.56,1.07,0,1-1.44-1.72-1.2-.53.21.55.71,1.54.19,1.15l-.4-.91c-.35.08.51,1.34-.13.94-.13-.38.08-.42,0-.5-.58-.58.12.57,0,.66l-.45-.76c-.26.3-.32,1-.62,1.4a1.88,1.88,0,0,0-.36-.72c-.25.65-1,.4-1.71.13l.15.76s-.22-.28-.24-.43c-.29-.18.19.44.23.75-.08.09-.31-.34-.34-.57,0,.72-.34,1.66-1,1.06l0-.23c-.37-.17.32,1.55-.2,1v-.14c-.67,0-1.07.84-1.92-.07.3,1-.74-.26-.25,1.18-.59-.59-.59-.87-1.22-1.19-.14,0,.13,1,0,1.17l-.26-.75.06.86-.42-.86-.08.25a1,1,0,0,1,.3.51c-.11.42-.72-.33-.85-.71-.1.27-.21.55-.33.81a1.33,1.33,0,0,1,0-.51c-.06.49-.29-.87-.33-.14a3.48,3.48,0,0,1,.17.61c-.28-.42-.58-.35-.74-.09l-.11-.54c-.44,0-.77.49-1.22.6a1.85,1.85,0,0,1,.33,1.25l-.27-.79c.05.52.22.26.21.93-.2,0-.36-.89-.34-1.18l-.13.33c-.07-.23-.06-.38-.13-.69,0,.53-.56-.72-.45.19l-.07-.23c-.45.1-.58.46-.94.58.16.7,0,.57,0,1.17-.33-.17-.76-.67-1.07-.54-.16.4.06.61,0,1-.15-.64-.47-.51-.4-1-.37.18-.47.23-.88.86a1.41,1.41,0,0,1,.19.58c-.07.13-.26-.23-.3-.54v-.07c-.41,1.09-1.62-1.63-1.86-.24l0-.07-.37.77c-.23-.09.06-.51-.16-.89-.36,1.15-.82-.06-1.15.72-.54-1.89-1.13.28-1.69-.89l.06.45c-.07.46-.16-.25-.25-.35,0,.36.16.41.11.66-.92.6-2-.56-3-.92-.35-.1-.12,2.38-.61,1.31l.1-.85c-.7,1.07-1.48,0-2.19.82,0-.19.05-.45.12-.44-.15-.62-.56,0-.57.46-.11,0,0-.45-.08-.71s-.4.78-.46.17a.44.44,0,0,1,.07-.25c-.1.3-.45-.08-.38.63-.25-.34-.53.31-.72-.11-.18.8-.44-.39-.55.72.08-1.16-.41-1-.62-.45.08-.34-.12-.37,0-.85-.19,0-.39.2-.39.8-.25-1.42-.81,1-.87-.74a6,6,0,0,1-1.76,1.18c.15-1.16.59-.07.7-1.28-.54.42-.94,1.41-1.4,1-.11-.18.14-.49.2-.68-.55.4-.92-.25-1.45.31a.76.76,0,0,1,.14-.3c-.09,0-.17-.2-.24.32l.1-.13c0,.78-.58,1.53-.66,1.93.38-1.47-.38-.44.15-2.29a1.39,1.39,0,0,0-.22.67c-.07-.11-.06-.32.08-.71-.35.24-.33.81-.61.76a5.7,5.7,0,0,1,.2-.64c-.23.47-.46.94-.66.69,0-.15.05-.35.12-.33-.41,0-.94,1.21-1.3.63.35-1.06-.08-.39.09-1.34l-.3.23v.48c-.21-.07-.53.58-.65.23l.24-.35-.43.09.14.4c-.31.44-.23,1.2-.45.87.08-.08-.22-.06-.2-.64h0c-.17.28-.35.57-.46.3s.27-1,.29-1.24c-.28.76-.54.11-.87.91a3.76,3.76,0,0,0,.22-.78l-.24.62a1.31,1.31,0,0,1,.08-.72c-.27-.18-.2,1.21-.42.62a1.5,1.5,0,0,1,.13-.23c-.29-.34-.78.25-1-.13.15-1,.34-.17.43-1-.5.07-1.23.85-1.62.5l.06.13c-.44,1.29-.15-.75-.55-.2a2,2,0,0,0,.23-.56c-.24-.3-.7.14-1.29.41l.16-.32c-.08-.35-.41-.31-.55-.52-.17.31-.26.23-.35.73,0-1-.35-.87-.72-.66s-.75.42-.73-.46c.07,0,.25-.23.2-.25l-.54.14a2.52,2.52,0,0,0-.13.83c-.17.31-.39.52-.5.48.33-.3.32-.9.35-1.24,0,.17-.15.35-.2.53.14-1.08-.46,1.1-.52.31l.12-.28c-.17.1-.43.45-.52.32.19-.67.24-.26.45-.78-.19,0-.82,1.08-.74.38.15-.15.26-.11.4-.26.12-.82,0-.64-.06-.81v0l-.17-.46v.23c-.88,1.59-.57.14-1.31,1.11.71-.92.29-.58.6-1.29a1.44,1.44,0,0,1,.11-.69c-.38.53,0-.54-.6.23.09-.23-.14-.08.14-.64-.25.1-.13.42-.26.7-.62.66-.23-1.25-1.09-.35-.53.28-.94,1-1.44,1.26a1.59,1.59,0,0,1,.47-.79c0-.42-.18-.42-.46-.23a2.05,2.05,0,0,0,.24-.65c-.16,0-.48.79-.49.37.15-.23.38-.62.56-.85-.25.14-.6.49-.86.62a2.38,2.38,0,0,1,.56-.78,1.45,1.45,0,0,0-1,.74v.21a2.15,2.15,0,0,1,.33-.58c.39-.41.11.32,0,.55l-.18.1c-.52,1.38.56,0,.75.18l-.55.92.61-.69c-.07.27-.28.83-.47.92,0,.56.31-.27.21.33a.24.24,0,0,1-.09.16l.3-.21c-.12.19-.29.7-.32.51,0,.7.8-.51.58.28l0,0c.56-.14.36-.7,1-1.4l-.58,1.87.36-.7c0,.05.09.14-.05.42.37-.42.11-.33.4-.75-.08.75.68,0,.25,1.11.3-.52,0-.5.36-.8-.45,1.27.35-.11.3.53-.32.62-.37.21-.41.86.56-1,.28.38.53.23.35-.86.49-.22.88-.41-.13.29.33.67.46,1.09l-.06.14c.38-.86.58-.6.83-.71a2.3,2.3,0,0,1-.5.92l.18.07c.15-.27.26-.4.41-.46l-.28.65c.26.06.76-.6.91,0,.23-.61.36-1.82.82-2.12a3.44,3.44,0,0,1-.42,1s.2-.24.2-.08l-.32.52c0,.3.23-.44.33-.35-.17.48,0,.37-.18.75-.05,0,0-.23-.14-.06a1.2,1.2,0,0,1,.09.84c.08-.28.21-.65.33-.68s-.11.6,0,.9c.17-.32.22.07.46-.65.07,0,0,.37-.07.57.24-.28.63.09.73-.72l0-.06s0,0,0,0c.64-.59.73.67,1.24.49l-.07.24c.32-.2.59,0,.91-.47.08,0,0,.5-.06.78.24-.13.33-.4.49.09-.3.37,0,.4-.28.25.19.29.14.7.59.11-.26.6,0,.83.15.67l-.06-.49a.34.34,0,0,1,.36.1l-.28.82c.28,1.13,1.36-1.51,1.34.27.27-.55-.18-.47.1-1.13.21.17.18,1.42.25,1.44.23.54.58-1.15.85-.76,0-.3.16-1.11.46-1.33.21.16,0,1.31-.17,1.52-.07,0-.07-.09-.05-.19a.54.54,0,0,0-.2.54l.09-.29c.05.33.39.37.21.85a.5.5,0,0,0,.08-.66c.21.5.47.12.73.48,0-.17,0-.54.05-.52.39.47.31-.52.65-.6.09.49-.27,1.08.12.75a1.47,1.47,0,0,1-.23,1c.4-.54.48.46.63.6l-.2.21a.27.27,0,0,1,.27-.1l0-.61c.07.12.15.13.1.38a9.6,9.6,0,0,1,.38-1.52c.07.32.41-.27.32.53-.33-.33-.09.81-.43.89.08-.08.15-.07.23,0a.37.37,0,0,1-.07.21c.25.77.31-.88.68-.8-.12.44,0,.87,0,.78-.15,0,0-.77.24-1.09.18.39.3-.22.41-.16l-.11-.19c.11-.44.22-.37.41-.48,0,.35-.19.22-.15.38.29-.77.3.89.63.39.08.33-.1.85,0,1.08.36-.54.23.67.6.23a1.34,1.34,0,0,1,.24-1l-.55.35.43-.83c-.15,0-.36.33-.44.21a1.08,1.08,0,0,0,.17-.84c.09,1,.47-.46.63.18l-.18,1.51c.28.7.73-.72,1.15-.3l-.12-.28c.12-.59.3-.06.47-.29a3.46,3.46,0,0,0,0,1c0-.38.35.06.48-.94l.15.68c.36.31.55-1.41.89-1.2-.15.54,0,.91-.28,1.29.12,0,.22.11.25-.24,0,.32.38-.65.46-.16.07-.22.12-.75.25-.7a1,1,0,0,1,0,.25c0-.25.23-.32.15-.89.28,1.63,1,0,1.29,1.31a2.39,2.39,0,0,1,.84-.36c0,.15,0,.25-.05.2.32.47.23-1.46.59-.93.18.83-.21.45-.09.76,0,1.67.46-.22.7.76l-.06.09c.19.58.48-.62.79-.5a1.9,1.9,0,0,0,0,.25,2.15,2.15,0,0,1,.91-1.35,2.29,2.29,0,0,0-.06,1c.13-.1-.06-1.06.2-1.26a4.63,4.63,0,0,1,.35,1.36l-.26,0c.15.91.33,0,.47.11v.4c.39-.15.36-1.16.78-1.12l-.05-.3c.18-1,.21.56.41-.2l.12,1a5.88,5.88,0,0,1,.73-1.22,5.45,5.45,0,0,1-.58,1.62.59.59,0,0,0,.57-.6c-.06.1-.12.35-.19.2.14-.81.35-1.22.65-1.21.09,2,.81.45,1.16,2,.48-.76,1.1.18,1.72,0-.39-1.5.18-.07,0-1.63.13-.11.19-.1.21,0l0-.06,0,.07h0l.56.88c.16.44-.1.36,0,.71.34.08.22.64.49,1-.12-.55,0-.81.22-.62l-.36-.69c.33-.89.57,1.26.91.38l-.07.51c.19-.32.87-.1.9-1.38.06.18.19.59.1.72.6.09,1-1.56,1.55-.88l0,.39c.09-.13,0-.75.25-.39,0,.15,0,.38.08.39s.14-.71.32-.52l0,.45c.64.39.61-1.2,1-1.54a1.94,1.94,0,0,0,1,1.52l0,.15c.66,0,.83-1.18,1.28-1.76.66,1.1,1.32.17,2.08.68a1.7,1.7,0,0,1-.17-1c.2.18.14-.85.42.15h-.05c.39.95.59.61.81.58L166,122.7c1.16,1.73,1.19-1.18,2.05.4,0-.37.19-.42.2-.79l.24.69a1.09,1.09,0,0,0,1-.26l.09.52c.27-.05-.42-2.08-.21-2.2l.46,1c.44-.17,1.25.55,1.29-.56.06.15.17.44.11.52.21-.07,1.08.32.42-1,.39.89.48-.11.54-.6l.25.67c-.17-.92-.27-1.15-.11-1.51.09,0,.24.38.18.39.26.11-.14-.69.25-.47l.1.45c.24,0,.12-.26,0-.8,0-.32.48,0,.8.56-.14-.37-.25-.9-.05-.79a1,1,0,0,1,.16.45c.58.28.17-1,.72-.5a1.57,1.57,0,0,0,.23.36c-.29.14-.53.22-.54.16.29.59.58.58.8,1.49,0-.54-.2-1.68.16-1.52a1.22,1.22,0,0,1,.13.19v.07c.08,0,.1,0,.1-.17.12.06.2.11.27.08.28.47.4.12.53.08-.35-.64-.14-.61-.56-1.07,0,0,0,.09,0,.16a.24.24,0,0,0,0,.09l0-.06a1.58,1.58,0,0,1-.26.2c-.08-.38-.13-.7.18-.41-.15-.44-.31-.9-.38-1.12.62.81,1.18,1.13,1.51,1.65.16-.54.7-.68.25-2,0-.2.3.28.44.45s-.06.16,0,.35c0-.41.52-.43.09-1.28.46.24.3.83.56.52l.1.27c1.44.9-.23-2.73,1.5-1.52a.7.7,0,0,1-.26-.23c1.27.19,1.2-1.69,2.73-1.14.37.06,0-.45-.1-.92l.51.59-.31-.89c-.09-.76,1.68,1.11,1.33-.18l-.37-.38c.21,0,.26-.59.61-.09,0-.09-.29-.47-.07-.3l.26.32-.08-.81c.45,0,1,1.29,1.42,1a2.7,2.7,0,0,0-.56-1.4c-.08,0-.32-.08-.58-.39v-.27c-.46-.59-.91-1.2-1.38-1.69a7.67,7.67,0,0,1,.2-1.52h0a1.56,1.56,0,0,1,.16.9.91.91,0,0,0,.13.1c0,.31.07.58.36.62a.68.68,0,0,0,.24-.26l0,0a.19.19,0,0,0,0-.12l.14-.25c0,.26.09.56.1.78.1-.27.13-.77.24-1a2.3,2.3,0,0,1,.11,1,1.41,1.41,0,0,0,.25-1.21l-.15-.15a1.81,1.81,0,0,1,.14.64c0,.57-.31-.15-.39-.39l.08-.19c-.16-.4-.27-.53-.34-.52a1.42,1.42,0,0,1,0-.39l.24-.2c.07-1.19.28-2.41-.26-3.27l-.41.71-.11-.59.33,0c-.16-.55-.3-.07-.44.25a1.61,1.61,0,0,0-.14-.65l-.43,1.13c0-.47.21-.92,0-1.19-.2.52.14,1.06-.18,1.39-.16-.55-.09-1-.33-.54a1,1,0,0,1,.13-.63c-.21.36-.52.13-.65.76-.16-.68-.67.14-.59-1-.08.27-.39.87-.57.91.4-1.34-.67-.11-.5-1.56-.31,1.21-.9.5-1.37,1.16,0-.1.09-.29.12-.23-.24-.11-.28-.48-.42-.73-.1,1-.49,1.2-.74,1.81-.22-1,.27-1.17.24-2.11,0,.82-.57.77-.52,1.46a2.84,2.84,0,0,1-.23-1.15c-.13,1.25-.22.19-.47,1-.28-.65,0-1.18-.38-.83a1,1,0,0,1,.22-.82c-.36,0-.25.91-.37,1.45-.46.23-.14-.71-.25-1.21-.29.23-.58,1.08-.78,1a1,1,0,0,1,0-.41c-.35.73-.85,0-1.28.89a1.06,1.06,0,0,1,0-.24,8.3,8.3,0,0,1-.08,1.3c-.16,0-.36.57-.36,0,.1,0,.13-.22.2-.41l-.2.25c-.07-.9.26-.29.33-.94-.37.25-.84,1-1.07.68,0-.87.63-.24.37-1l.36.37c-.16-1.4.24.11.1-1.38-.49-.29-.62.4-1.11.08-.17.47,0,.72-.21,1.19-.84.77-.34-2.26-1-1.17-.21.56-.39,1.65-.71,1l.25-1c-.49-.16-.46,1.37-.91.65.14-.37.44-.28.38-.4-.25-.82-.31.52-.58.49l.06-.87c-.55.07-1.23.62-1.85.71a1.3,1.3,0,0,0,.11-.8c-.81.35-1.58-.33-2.22-1l-.39.7c-.06,0-.06-.35,0-.49-.24-.33-.09.47-.27.75-.17,0-.14-.47,0-.68-.59.56-1.63,1.14-2,.26l.14-.21c-.35-.36-.72,1.46-1,.7l.1-.12c-.83-.45-1.93,0-2.38-1.22-.33,1-.78-.65-1.12.83-.36-.84-.16-1.08-.76-1.71-.18-.11-.47.87-.74,1l.16-.78-.49.75,0-1-.26.16a.79.79,0,0,1,0,.6c-.42.29-.72-.7-.64-1.1-.31.17-.63.33-.94.48a.86.86,0,0,1,.28-.44c-.39.36.17-.9-.34-.32a2,2,0,0,1-.17.61.64.64,0,0,0-.9-.5l.18-.52c-.56-.27-1.3,0-2-.2.17.3-.1,1.21-.32,1.25l.12-.83c-.25.47.13.35-.28.91-.22-.16.06-1,.27-1.2l-.37.21a5.27,5.27,0,0,1,.23-.66c-.24.47-.31-.94-.71-.11l0-.24c-.65-.17-1,0-1.57,0-.19.69-.36.48-.67,1-.34-.33-.63-1-1.12-1.07-.43.25-.26.56-.52.94.15-.65-.34-.72,0-1.11a2.79,2.79,0,0,0-1.63.25c0,.28.06.42-.05.62s-.22-.35-.12-.65l.06,0c-1.09.72-1.34-2.36-2.36-1.25l.06-.05-.87.47c-.27-.2.33-.41.22-.87-1,.82-1.08-.51-1.88,0,.13-2-1.66-.38-1.89-1.75l-.11.45c-.29.37-.11-.31-.19-.45-.09.34,0,.45-.13.65-1.51,0-2.53-1.6-3.74-2.46-.45-.29-1.09,2.12-1.34.88l.47-.74c-1.36.62-2-.81-3.3-.37.13-.16.22-.4.32-.36,0-.65-.75-.32-.94.15-.13-.12.13-.44.14-.72s-.81.53-.69-.08c0-.1.13-.16.18-.19-.24.22-.59-.32-.73.39-.23-.45-.81,0-1-.48-.49.66-.48-.6-1,.42.47-1.07-.27-1.14-.71-.74.21-.29-.06-.42.22-.83-.26-.1-.59,0-.77.57.06-1.49-1.41.61-1-1.14a9.28,9.28,0,0,1-2.71.27c.5-1.05.81.22,1.28-.91-.85.15-1.65.91-2.18.35-.1-.22.31-.41.44-.57-.84.13-1.2-.69-2-.39a.63.63,0,0,1,.26-.22c-.13,0-.19-.28-.4.2l.17-.08c-.14.78-1.14,1.24-1.33,1.59.84-1.27-.41-.61.72-2.19a1.05,1.05,0,0,0-.46.56c-.06-.15,0-.35.27-.66-.53.07-.62.64-1,.46a4.14,4.14,0,0,1,.4-.54c-.4.36-.81.72-1,.38.09-.13.14-.33.23-.28-.57-.19-1.5.76-1.88,0,.67-.91,0-.43.37-1.31l-.44.1-.09.48c-.26-.16-.82.35-.91-.06l.38-.25-.59-.1.12.48c-.5.3-.52,1.1-.76.67.11-.05-.27-.15-.16-.73h0c-.27.2-.56.41-.65.09.08-.3.53-.92.58-1.12-.5.65-.74-.13-1.3.54a2.76,2.76,0,0,0,.41-.69l-.41.52c0-.25,0-.35.2-.7-.32-.3-.44,1.14-.65.44.06,0,.09-.12.21-.17-.33-.48-1.08-.09-1.34-.59.33-.91.47,0,.72-.81-.69-.14-1.79.35-2.25-.17l0,.15c-.73,1.16-.1-.83-.7-.42a1.91,1.91,0,0,0,.37-.49c-.29-.41-1-.16-1.77-.12l.25-.26c-.08-.4-.52-.5-.69-.78-.25.26-.37.13-.53.63.22-2.16-2,.1-1.84-1.75.08,0,.35-.15.28-.19l-.73-.07c-.26.54-.11.35-.23.82-.25.26-.55.4-.69.31.46-.18.48-.82.54-1.17a4.8,4.8,0,0,1-.3.48c.25-1.09-.66,1-.71.14l.19-.26c-.24,0-.59.32-.71.14.29-.63.33-.18.63-.65-.25-.11-1.13.83-1,.12.2-.1.35,0,.54-.12.19-.83.06-.67,0-.89v0l-.2-.55,0,.25c-1.23,1.35-.76-.08-1.77.68,1-.71.41-.51.85-1.15,0-.24,0-.54.15-.7-.52.42,0-.61-.79,0,.12-.22-.18-.14.19-.65-.34,0-.17.4-.36.66-.83.49-.29-1.43-1.44-.78-.71.12-1.25.78-1.9.85.08-.42.62-.69.62-.69,0-.45-.24-.51-.61-.41a1.26,1.26,0,0,0,.31-.61c-.2-.06-.61.68-.64.23a7.19,7.19,0,0,1,.73-.73c-.33.06-.79.32-1.12.37.19-.4.49-.47.72-.66a1.46,1.46,0,0,0-1.28.46l0,.31c-.11,0,.28-.53.41-.59.51-.32.16.39,0,.61l-.23,0c-.67,1.33.73.2,1,.46l-.72.82.8-.54c-.09.27-.37.8-.61.84-.07.58.4-.19.27.42a.23.23,0,0,1-.11.15l.38-.13c-.16.16-.37.66-.42.44,0,.77,1-.27.75.51l-.07,0c.73,0,.48-.63,1.37-1.14l-.78,1.8.48-.63c0,.06.11.18-.07.44.49-.33.14-.31.53-.67-.12.78.9.19.3,1.28.41-.45,0-.55.5-.72-.64,1.19.45,0,.36.67-.44.55-.48.09-.56.77.77-.91.34.51.67.44.5-.79.65-.06,1.16-.11-.18.25.39.83.54,1.32l-.09.12c.55-.77.79-.41,1.13-.43a1.84,1.84,0,0,1-.72.78l.23.13a.77.77,0,0,1,.57-.32l-.42.57c.32.15,1-.34,1.18.3.36-.56.62-1.77,1.25-1.9-.16.32-.45.85-.63.91.06,0,.27-.18.27,0l-.47.42c0,.34.35-.37.46-.24-.26.43-.07.37-.3.71-.06,0,0-.25-.17-.11a1.14,1.14,0,0,1,0,.91C103.75,84.92,104,84.59,104.12,84.6ZM129,110.88h-.14l.14,0Zm.3,0c0-.25.11-.49.16-.47s0,.33.06.55A.72.72,0,0,0,129.3,110.89Zm.33-4.85a.42.42,0,0,0-.15.06l0,.08c0-.13.07-.26.11-.35S129.65,105.9,129.63,106Zm37,3.06c-.15-.29-.31.38-.44-.42.15.09.16,0,.13-.21l.27-.34A2.86,2.86,0,0,1,166.61,109.1Zm6.46,6.93c0-.16-.22-.24-.38-.39a.46.46,0,0,0,.21-.08C173,115.78,173.12,116,173.07,116Zm.06-.64h0l.09-.1A.48.48,0,0,1,173.13,115.39Zm2.67,3.86a2.68,2.68,0,0,1,.14.33c0,.14-.12,0-.2-.1a.49.49,0,0,0,.09-.15Zm6.28-11.59a2.45,2.45,0,0,1,.09.88l-.36-.87A.63.63,0,0,1,182.08,107.66Zm-.37,2a.62.62,0,0,1,.07.19l-.17-.15A.13.13,0,0,1,181.71,109.66Zm-.17-1.67,0,0,0-.26A1.09,1.09,0,0,1,181.54,108Zm-1.25-.56a1.69,1.69,0,0,1,.26.37c0,.15-.09.3-.24.07A1.41,1.41,0,0,1,180.29,107.43Zm-.14-.07c0,.08-.07.08-.12,0A.15.15,0,0,1,180.15,107.36Zm.33,1.21c0,1.06.09.72.24,1.24-.1.07-.17.16-.57-.39a2.17,2.17,0,0,1,.28,1c-.2-.39-.32-.51-.41-.53C179.94,108.63,180.46,109.69,180.48,108.57Zm-1-1v.12l-.08,0S179.46,107.6,179.48,107.55Zm-.94,2.75c-.06-.17-.07-.38-.12-.55.49,1-.24-1.18.26-.57l0,.31c.09-.19.11-.62.26-.56.22.65-.05.34.07.89.18-.08.06-1.35.4-.73,0,.2-.14.24-.18.42l-.08-.11c.59,1.08-.15.79,0,1.52,0-.08-.13-.27-.08-.23-.18,0-.44-.25-.66-.39a5.58,5.58,0,0,1,.71,1.76,4.62,4.62,0,0,1-.92-1.45l.08-.09c-.17-.57-.15-.34-.35-.76,0-.36,0-.66.16-.69C178,109.51,178.37,110,178.54,110.3Zm-.41-2.5c-.07.19-.21.21-.29.35a4,4,0,0,1-.09-.46A1.82,1.82,0,0,1,178.13,107.8Zm-.6-.13-.05.09,0-.09Zm.45,3c-.07,0-.09.34,0,.33l.29-.31c.17.4.06.61.41,1a3.68,3.68,0,0,1-.81-.82c.68,1.06,0,.25.32,1-.54-.4-.7-1-.7-.5a1.39,1.39,0,0,1-.36-.67C177.32,110.28,177.52,109.89,178,110.62Zm-1.29-2.9c.15.65.61,1.64.38,2.12a3.8,3.8,0,0,1-.18-1.1c0,.05,0,.31-.12.17v-.61c-.2-.23,0,.5-.09.47-.11-.5-.17-.33-.24-.73,0-.06.15.18.15,0a.81.81,0,0,1-.28-.26Zm-.51,0c0,.15,0,.27,0,.31s-.17-.11-.22-.3Zm-.54,0c0,.07,0,.16.05.29s-.1-.15-.16-.3Zm-3,.65,0,0h.07l0,0a.65.65,0,0,0,.22-.11l0,.11,0-.11c.66-.47,1.37-1.9,2-.49a.55.55,0,0,1-.11-.34,1.49,1.49,0,0,0,.52.26c-.15.16-.39.21-.16.8l.05,0,0,0c-.26.82-.94-.25-1.28.15l0-.24c-.18.33-.5.28-.58.85-.07,0-.25-.42-.28-.73-.15.23-.12.51-.46.14A.61.61,0,0,0,172.59,108.41Zm-.67-1.44c.34.47-.3.84.24.75l-.1.28a.8.8,0,0,0,.19.26,1.14,1.14,0,0,0-.08.3c0-.65-.33-.78-.41-.57l.25.43c-.11.12-.24.08-.36,0l-.08-.85A.92.92,0,0,0,171.92,107Zm-1,0c.17-.14.14.35.16.59a.59.59,0,0,0,0,.08c-.09.07-.17.08-.23.24a.62.62,0,0,1,.17-.11c-.16.44-.3.93-.65.11A2,2,0,0,0,170.94,107Zm-.62.94c0,.46.33.31.32,1-.15-.05-.37-.5-.53-.85A1.13,1.13,0,0,0,170.32,108Zm-.67.29c0,.3-.06.57-.23.45a2.37,2.37,0,0,1,.05,1.42c-.25-.07-.47-1.22-.36-1.48,0,0,.09,0,.1.16a.57.57,0,0,0,.06-.41A2.46,2.46,0,0,1,169.65,108.25Zm-.43.16v.11a.24.24,0,0,0-.06-.08Zm-1.44-5.06.18,0-.18,0Zm.49,4c.15-.45.31-.91.39-1.12.11,1,.5,1.61.49,2.23-.16-.17-.39-.17-.39-.61a.51.51,0,0,0,.15.64c-.27-.29-.39-.11-.59-.12.09-.39.22-.38.1-.9,0,.06,0,.09-.16.1s-.06,0-.08.07l0-.07a3.35,3.35,0,0,1-.45,0C167.94,107.18,168.12,106.89,168.27,107.31Zm-.25.78q0,.21-.09.36c-.13.08-.15-.06-.15-.21a.76.76,0,0,0,.21-.06Zm-.29.15c0,.5.3.37.49.38,0,.08,0,.14,0,.14-.5-.32-.12.6-.4.77-.24-.44-.09-1.11-.34-.69a1.07,1.07,0,0,1-.14-.73.35.35,0,0,0,.12-.1C167.57,108.13,167.63,108.21,167.73,108.24Zm-.36-4.89c0,.25-.07.51-.15.48.07-.16-.08-.32-.16-.54A.9.9,0,0,0,167.37,103.35Zm-.1,4.43a1,1,0,0,1,0,.18c-.1.08-.21,0-.32-.19C167.08,107.7,167.19,107.68,167.27,107.78Z"/><path class="cls-7" d="M211.38,105c-.09.07-.49,0-1-.31l-.13-.38c-1.51-1-3-2.2-4.38-2.42l.69,1-.81-.38.15-.31c-.81-.31-.26.2.08.6a3.15,3.15,0,0,0-.91-.41l1.21,1.3c-.62-.36-1.07-.94-1.55-.94.56.61,1.43.75,1.69,1.31-.8-.31-1.32-.74-.87-.15a2,2,0,0,1-.74-.64c.34.48-.12.57.62,1.21-1-.42-.18.73-1.58-.29.3.29.9,1.08.84,1.28-1.48-1.5-.5.5-2.24-.89,1.36,1.31.15,1.23.72,2.22-.11-.11-.32-.33-.22-.31-.26.12-.76-.17-1.14-.26a8.35,8.35,0,0,1,1.83,2.24c-1.36-.68-1.3-1.27-2.48-2.07,1,.76.63,1.18,1.52,1.74a5.5,5.5,0,0,1-1.56-.82c1.48,1.24.12.37.91,1.26-1-.33-1.46-1.06-1.24-.41a2.06,2.06,0,0,1-.89-.92c-.26.27,1,1,1.58,1.63,0,.61-1-.52-1.63-.88.12.46,1,1.49.82,1.61a1.83,1.83,0,0,1-.48-.39c.68,1-.53.72.34,1.94a1.42,1.42,0,0,1-.3-.2,19.44,19.44,0,0,1,1.53,1.27c-.09.15.48.86-.28.28.09-.07-.19-.32-.38-.56l.19.42c-1.12-.78-.19-.51-.95-1.17.11.56.68,1.63.22,1.59-1-.85.07-.79-1-1.3h.65c-1.78-1.15.27-.09-1.6-1.36-.64.15.13.93-.54,1,.46.59.83.71,1.3,1.3.42,1.47-2.89-1.84-2-.23.55.72,1.73,1.92.79,1.6l-1-1.14c-.47.27,1.35,1.72.23,1.42-.35-.49-.07-.65-.25-.72-1.11-.57.44.78.24,1l-1-.89c-.24.54,0,1.67-.27,2.3a2.75,2.75,0,0,0-.86-.87c-.06,1.07-1.32,1.06-2.42,1l.56,1c-.06,0-.45-.3-.54-.51-.52-.13.48.55.67,1-.07.17-.61-.35-.76-.67.27,1.06.27,2.57-1,2l-.15-.33c-.62-.08,1.17,2.12.17,1.57l-.07-.21c-1,.26-1.18,1.72-2.84.78.92,1.39-1.19,0,.18,1.84-1.13-.59-1.26-1-2.32-1.18-.22,0,.63,1.34.57,1.69l-.72-1,.48,1.22-1-1.06v.39c.12,0,.48.32.67.62,0,.66-1.2-.15-1.56-.66,0,.45-.06.91-.11,1.34a1.69,1.69,0,0,1-.27-.73c.12.74-.82-1.13-.55-.06a4.88,4.88,0,0,1,.52.82c-.6-.49-1-.24-1.12.2l-.41-.72c-.64.16-.89,1.05-1.5,1.42.43.19,1.16,1.44,1.05,1.67l-.75-1c.31.74.44.29.72,1.26-.3,0-.92-1.14-1-1.57l0,.55a9.85,9.85,0,0,1-.51-1c.31.75-1.14-.79-.57.49l-.22-.32c-.6.37-.62.95-1.1,1.28.55.95.23.85.53,1.71-.56-.1-1.41-.63-1.81-.3-.05.65.36.87.54,1.52-.52-.87-.92-.54-1-1.3a2.64,2.64,0,0,0-.9,1.66,2.36,2.36,0,0,1,.56.76c-.05.21-.49-.22-.7-.65v-.11c-.1,1.77-3.11-1.63-2.81.5v-.11l-.19,1.29c-.38,0-.14-.77-.64-1.22,0,1.84-1.22.29-1.34,1.57-1.66-2.5-1.53.93-2.88-.53l.3.63c.11.71-.34-.28-.52-.39.22.5.42.52.46.9-1.07,1.3-3.23.12-4.82,0-.56,0,.91,3.53-.29,2.2l-.24-1.3c-.53,1.89-2.17.62-2.81,2.21,0-.31-.14-.68,0-.7-.49-.84-.82.19-.61.93-.19,0-.23-.65-.44-1-.38-.47-.22,1.32-.6.46a.67.67,0,0,1,0-.4c0,.48-.7.09-.27,1.09-.53-.38-.62.7-1.11.17.11,1.24-.82-.37-.46,1.3-.41-1.73-1.05-1.24-1.1-.37-.05-.54-.36-.49-.43-1.23-.28.08-.47.46-.21,1.34-1-2-.7,1.91-1.59-.68a9.21,9.21,0,0,1-2,2.52c-.31-1.75.83-.37.43-2.19-.58.87-.72,2.5-1.55,2.17-.24-.21,0-.77,0-1.08-.62.83-1.46.06-2,1.11a1.15,1.15,0,0,1,.07-.49c-.13.07-.35-.21-.21.58l.09-.24c.4,1.13-.15,2.49-.08,3.11-.12-2.32-.76-.47-.83-3.41a2.39,2.39,0,0,0,0,1.09c-.15-.14-.23-.45-.19-1.07-.41.5-.12,1.33-.55,1.37-.05-.39,0-.55,0-1-.11.79-.23,1.57-.63,1.3,0-.23-.09-.53,0-.54-.61.2-.82,2.2-1.6,1.52,0-1.7-.3-.54-.5-2l-.32.46.23.7c-.33,0-.51,1.08-.84.63l.18-.62-.58.32.4.53c-.26.78.21,1.84-.27,1.47.08-.15-.34,0-.58-.84h0c-.13.48-.25,1-.53.64-.1-.46-.08-1.62-.14-1.93-.07,1.24-.74.4-.85,1.72a6.67,6.67,0,0,0,0-1.23l-.06,1a1.78,1.78,0,0,1-.23-1.07c-.46-.15.27,1.84-.33,1.09,0-.09,0-.23.09-.39-.57-.38-1,.71-1.55.26-.21-1.46.42-.39.19-1.62-.69.34-1.41,1.8-2.13,1.47l.14.16c-.05,2.09-.55-1-.88,0a3.71,3.71,0,0,0,.07-.93c-.48-.33-1,.52-1.69,1.19l.09-.54c-.29-.48-.75-.27-1-.51-.09.54-.27.45-.17,1.23-.46-1.52-.9-1.11-1.35-.63s-.89.95-1.26-.34c.1,0,.25-.45.17-.46l-.72.45a3.74,3.74,0,0,0,.19,1.27c-.12.53-.34.94-.52.92.35-.58.06-1.45-.05-2,0,.27,0,.58,0,.86-.3-1.63-.16,1.82-.62.7l0-.47c-.2.23-.42.85-.62.7,0-1,.24-.48.3-1.34-.29,0-.7,2-.89.89.14-.28.32-.28.46-.56-.21-1.25-.26-.94-.46-1.14l0,0-.44-.59.1.34c-.56,2.71-.77.45-1.41,2.21.62-1.66.16-1,.3-2.15a2.17,2.17,0,0,1-.17-1c-.31.94-.3-.78-.75.6,0-.38-.24-.05-.1-1-.32.26,0,.67-.06,1.14-.59,1.25-.9-1.72-1.74,0-.65.66-.91,1.93-1.53,2.5a2.52,2.52,0,0,1,.32-1.37c-.22-.6-.44-.52-.77-.12a2.74,2.74,0,0,0,.05-1c-.22.07-.33,1.36-.54.76.11-.41.27-1.08.43-1.49-.3.32-.65,1-1,1.3a3.77,3.77,0,0,1,.46-1.4,2.23,2.23,0,0,0-1.1,1.53l.1.3a3.44,3.44,0,0,1,.22-1c.38-.79.31.41.27.79l-.22.22c-.13,2.25.82-.25,1.17-.08l-.38,1.6.58-1.29a3,3,0,0,1-.26,1.56c.17.84.32-.54.45.38a.58.58,0,0,1,0,.28l.33-.44c-.09.33-.1,1.15-.23.89.38,1,.94-1.11,1,.14l-.06.1c.75-.46.21-1.19.87-2.52l0,3,.2-1.18c.06.05.19.15.12.63.34-.78,0-.53.24-1.28.22,1.14,1-.38.87,1.51.21-.9-.26-.72.16-1.33-.08,2.05.45-.33.68.63-.19,1.05-.44.48-.21,1.44.34-1.78.58.43.88.1.12-1.42.62-.56,1.09-1-.06.47.78.83,1.17,1.37l0,.24c.16-1.44.57-1.14.89-1.42a3.56,3.56,0,0,1-.31,1.57H130a1.32,1.32,0,0,1,.39-.84l-.12,1.07c.4,0,.84-1.22,1.32-.47,0-1-.31-2.83.22-3.47a5.32,5.32,0,0,1-.14,1.69c.05-.06.17-.44.25-.2l-.23.9c.22.42.14-.75.32-.66,0,.77.12.55.08,1.17-.05.07-.15-.32-.23,0a1.85,1.85,0,0,1,.51,1.18c0-.44,0-1,.17-1.14.39-.06.12.93.34,1.33.11-.54.35,0,.37-1.15.12,0,.13.55.17.86.21-.51,1-.15.73-1.38l0-.09s0,0,0-.05c.65-1.16,1.37.65,2,.14v.39c.38-.45.86-.27,1.11-1.11.12,0,.3.71.26,1.17.29-.29.31-.73.76-.09-.27.67.13.59-.29.49.41.33.53,1,.9-.11-.1,1,.35,1.22.52.91l-.3-.69c.2-.16.38-.08.57,0l0,1.31c.91,1.52,1.28-2.82,2.07-.21.15-.93-.48-.61-.37-1.69.28.11.65,1.16.87,1.68-.19.08-.42.09-.22.57-.46-.26-.67.46-1.06.12-.05.82-.73-.24-.58.88-.2-1.15-.85-.81-1-.23,0-.35-.28-.32-.27-.81-.27.06-.49.32-.33.9-.77-1.28-.83,1.29-1.44-.42a8.82,8.82,0,0,1-2.11,1.72c-.16-1.15.8-.26.57-1.45-.63.59-.87,1.66-1.62,1.49-.21-.13,0-.52.05-.72-.63.57-1.38.09-1.92.81a.49.49,0,0,1,.09-.33c-.12.05-.32-.13-.23.39l.1-.16c.32.73-.26,1.65-.23,2.06,0-1.53-.68-.29-.61-2.23a1,1,0,0,0-.07.72c-.14-.08-.2-.28-.14-.7-.4.35-.17.88-.57.93a4,4,0,0,1,0-.67c-.13.53-.27,1.05-.65.88,0-.15-.06-.34,0-.35-.58.15-.83,1.46-1.54,1.07.05-1.13-.27-.34-.42-1.29l-.31.32.19.45c-.3,0-.49.74-.79.45l.18-.41-.55.24.36.33c-.25.52.18,1.2-.26,1,.07-.11-.31,0-.54-.52h0c-.11.32-.24.66-.49.45-.09-.3-.07-1.06-.13-1.26-.06.81-.69.3-.79,1.17a2.9,2.9,0,0,0,0-.81l-.06.66c-.16-.19-.19-.29-.21-.69-.44-.07.26,1.2-.3.73,0-.06,0-.15.08-.26-.54-.22-1,.52-1.45.25-.22-.95.39-.28.16-1.07-.66.25-1.3,1.27-2,1.1l.13.09c0,1.37-.54-.63-.82,0a1.68,1.68,0,0,0,0-.61c-.46-.18-.88.41-1.53.88l.06-.35c-.29-.3-.71-.13-1-.27-.06.36-.23.31-.1.81-1-1.92-1.62,1.2-2.49-.44.09,0,.2-.32.13-.31l-.65.34c.08.6.1.36.27.82-.07.35-.25.63-.41.64.28-.41,0-.95-.2-1.28a5.33,5.33,0,0,1,0,.57c-.4-1.05,0,1.2-.51.5v-.31c-.17.17-.32.58-.52.5-.11-.68.18-.33.17-.89-.27.05-.49,1.32-.76.65.11-.2.28-.21.38-.4-.3-.8-.32-.59-.52-.71h0l-.47-.34.13.21c-.28,1.81-.68.35-1.1,1.55.41-1.13,0-.65.07-1.43-.13-.21-.31-.45-.27-.67-.19.64-.36-.48-.64.45,0-.25-.23,0-.2-.65-.27.21.08.44.06.75-.41.87-1-1-1.63.16-.52.48-.61,1.33-1.11,1.75a1.19,1.19,0,0,1,.13-.91c-.27-.37-.48-.3-.73,0a1.33,1.33,0,0,0-.08-.69c-.21.07-.13.92-.41.55a7.26,7.26,0,0,1,.21-1c-.24.23-.48.7-.73.93-.07-.44.15-.67.24-.95a1.44,1.44,0,0,0-.82,1.09l.14.19a1.55,1.55,0,0,1,.07-.66c.24-.55.34.23.36.49l-.18.16c.18,1.47.72-.24,1.07-.16l-.14,1.07.36-.89c.08.28.14.88,0,1,.26.53.23-.38.45.21a.22.22,0,0,1,0,.18l.25-.32c0,.23,0,.76-.11.6.46.62.72-.8.9,0l0,.06c.62-.36,0-.78.5-1.71l.35,1.94,0-.79c.07,0,.2.09.18.4.23-.54,0-.34.08-.85.33.72.85-.34,1,.9.1-.6-.31-.45,0-.87.13,1.34.38-.25.68.36-.07.69-.35.34-.05,1,.14-1.19.57.23.8,0,0-.94.51-.41.91-.74,0,.31.78.48,1.17.8V156c0-1,.43-.78.7-1a1.71,1.71,0,0,1-.17,1.05h.27a.78.78,0,0,1,.29-.59l0,.71c.35,0,.67-.86,1.15-.41,0-.65-.46-1.81,0-2.27a2.63,2.63,0,0,1,0,1.11c0-.05.13-.3.22-.15l-.16.6c.22.26.08-.5.25-.46,0,.51.14.36.14.76,0,0-.15-.2-.21,0a1.09,1.09,0,0,1,.54.74c0-.29,0-.69.09-.76.35-.07.16.6.38.84.07-.35.32,0,.27-.77.11,0,.15.35.2.56.16-.35.85-.16.59-1l0,0,0,0c.54-.8,1.28.34,1.85,0l0,.25c.33-.31.77-.23,1-.79.11,0,.29.44.27.75.25-.21.26-.5.69-.11-.24.46.13.38-.25.34.37.19.49.6.8-.13-.07.66.35.79.5.57l-.29-.43a.6.6,0,0,1,.52,0v.86c.83,1,1.13-1.9,1.86-.23.13-.62-.44-.38-.34-1.09.34.08.82,1.26.93,1.25.51.42.28-1.29.8-1-.1-.29-.25-1.1.07-1.42.34.08.56,1.23.38,1.49-.08,0-.13,0-.14-.16a.45.45,0,0,0-.05.58v-.3c.2.29.66.21.61.72.21-.32,0-.51-.16-.65.48.39.67-.06,1.15.19-.09-.16-.2-.51-.13-.52.69.31.21-.61.63-.8.3.43,0,1.12.44.67.3.27.16.79.08,1.06.33-.64.8.27,1.05.35l-.18.27a.4.4,0,0,1,.32-.19l-.21-.58c.14.08.25.07.28.32.07-.41-.24-1-.06-1.57.21.29.46-.4.63.4-.56-.2.17.79-.25,1,.07-.11.17-.12.31,0a.28.28,0,0,1,0,.22c.6.64.1-1,.62-1,0,.46.24.84.31.73-.21,0-.21-.74-.07-1.11.38.3.32-.32.5-.3l-.22-.14c0-.46.17-.42.38-.6.07.35-.17.28-.07.42.14-.83.7.74,1,.15.21.28.14.85.32,1,.31-.64.53.56.88,0-.22-.59-.22-.44,0-1.08-.21.19-.41.35-.62.53l.3-.94c-.21,0-.38.44-.52.35.14-.52.14-.37,0-.86.43.87.48-.6.9-.05l.23,1.5c.61.58.75-.92,1.45-.66l-.25-.22c0-.61.38-.16.54-.44a2.28,2.28,0,0,0,.38,1c-.08-.37.47-.05.35-1.06l.4.61c.57.18.33-1.53.85-1.45,0,.57.25.89,0,1.34.16,0,.33,0,.27-.31.15.29.33-.76.57-.31,0-.23,0-.76.14-.75a1,1,0,0,1,0,.25c0-.25.23-.39,0-.91.81,1.47,1.38-.39,2.09.85a3.71,3.71,0,0,1,1-.6c0,.15.05.24,0,.21.54.36,0-1.49.58-1.08.44.74-.17.49.06.76.42,1.62.56-.36,1.11.52l-.06.12c.39.5.5-.76,1-.73a1,1,0,0,0,.05.24,2.42,2.42,0,0,1,.95-1.61c0,.67-.11.38.12,1,.16-.13-.29-1,0-1.29a3.61,3.61,0,0,1,.73,1.24l-.33.12c.38.85.44-.14.65,0l.07.39c.5-.26.27-1.24.86-1.31l-.13-.28c.07-1.05.39.48.52-.32l.34,1a6,6,0,0,1,.79-1.41,5.26,5.26,0,0,1-.51,1.76.77.77,0,0,0,.66-.76c-.06.12-.1.39-.22.26.05-.84.28-1.3.68-1.39.43,1.93,1.18.22,1.87,1.62.53-.89,1.5-.1,2.3-.45-.71-1.39.23-.11-.25-1.61.15-.14.23-.14.28-.07v0h0l.85.74c.26.4-.09.38,0,.72.46,0,.37.59.77.91-.22-.53-.08-.82.22-.68l-.54-.6c.35-1,.88,1.12,1.25.15l-.05.53c.22-.37,1.14-.32,1.07-1.62.11.16.3.55.2.7.79,0,1.21-1.81,2-1.25l.07.38c.1-.15,0-.76.3-.45,0,.15.06.38.13.38,0-.15.15-.75.4-.6l0,.46c.87.25.76-1.36,1.26-1.8a1.74,1.74,0,0,0,1.37,1.32l.05.16c.87-.13,1.08-1.39,1.68-2.07.88,1,1.76-.1,2.75.27a1.29,1.29,0,0,1-.2-1c.26.15.21-.92.55.07h-.07c.49.91.76.52,1.06.44l-.45-1.29c1.46,1.58,1.65-1.44,2.7,0,0-.38.27-.47.32-.85l.26.67a1.93,1.93,0,0,0,1.38-.45l.08.53c.36-.09-.38-2.11-.09-2.28l.52,1c.58-.26,1.57.37,1.75-.8,0,.15.16.44.08.53.29-.1,1.37.19.66-1.13.4.88.65-.19.78-.72l.25.67c-.11-.95-.21-1.18.06-1.58.1,0,.25.36.18.38.32.08-.09-.72.4-.54l.06.47c.32-.08.19-.3.13-.85.07-.35.65-.1,1,.47-.13-.38-.19-.93.07-.84a.87.87,0,0,1,.12.46c.72.21.39-1.09,1-.63a1.48,1.48,0,0,0,.24.36c-.39.18-.73.29-.72.23.28.6.65.56.79,1.5.05-.57,0-1.77.46-1.64l.14.18v.09c.1,0,.13-.07.15-.2.14,0,.24.09.34,0,.28.48.5.08.67,0-.34-.64-.08-.64-.53-1.08,0,0,0,.09-.09.17s0,.05,0,.1l0-.06-.37.24c0-.39,0-.74.31-.46-.13-.46-.25-.94-.3-1.16.66.8,1.32,1.08,1.66,1.61.3-.61,1-.81.71-2.18.05-.22.33.27.48.44,0,.16-.12.19-.07.38.11-.45.75-.52.38-1.4.54.21.2.87.61.5l.07.29c1.64.85.35-3,2.28-1.78a.66.66,0,0,1-.27-.23c1.56.11,2-2,3.78-1.46.46,0,.19-.49.15-1l.46.63-.12-1c.13-.84,1.78,1.16,1.74-.26l-.34-.41c.26,0,.51-.66.79-.13,0-.09-.22-.5,0-.32l.22.34.16-.9c.55,0,.77,1.41,1.41,1.12a2.26,2.26,0,0,0-.22-1.56c-.1,0-.36-.08-.58-.42l.09-.3a6.84,6.84,0,0,0-1.8-2.46c.56-.44,2.06.23,1.62-1.41.15.2.44.58.4.71.28-.19,1.72,0,.14-1.67,1,1.12.66-.38.51-1.12l.68.86c-.68-1.27-.93-1.56-.85-2.14.15,0,.51.43.44.48.43,0-.52-1,.15-.81l.35.62c.33-.18.06-.44-.34-1.17-.13-.47.7-.25,1.41.44-.37-.48-.77-1.2-.42-1.13a1.71,1.71,0,0,1,.43.58c1,.15-.21-1.52.82-1a2.55,2.55,0,0,0,.51.42c-.36.33-.68.56-.71.47.69.74,1.1.59,1.83,1.82-.28-.78-1.06-2.36-.46-2.29l.28.21,0,.11c.14,0,.13-.12.06-.29.2,0,.35.06.44,0,.62.56.64,0,.81-.12-.8-.77-.49-.83-1.31-1.3.08,0,.07.12,0,.25a.25.25,0,0,0,0,.14l-.06-.08a3,3,0,0,1-.28.4c-.29-.51-.51-1,.07-.68L200.17,118c1.27.9,2.23,1.11,3,1.72,0-.87.71-1.31-.55-3-.07-.3.57.27.86.45.08.21,0,.27.16.51-.15-.6.55-.86-.46-1.9.77.14.81,1.07,1.05.49l.27.36c2.51.65-1.58-3.87,1.49-2.9a1.16,1.16,0,0,1-.49-.21c1.94-.31,1-3,3.46-2.91.57-.08-.14-.68-.56-1.3l1,.64-.85-1.16c-.48-1.07,3,.85,1.86-.88l-.71-.38c.28-.14.11-1,.84-.41-.11-.11-.64-.54-.23-.4l.52.35-.5-1.15c.67-.17,2,1.44,2.55.88A4.07,4.07,0,0,0,211.38,105Zm-67.51,42.42c0-.21,0-.46.07-.47-.35-.56-.8.14-.7.63-.17,0-.13-.44-.28-.67a.11.11,0,0,0-.16,0c.09-.54.16-1.19.46-.95a3.47,3.47,0,0,1,.07-2.16c.37.14.63,1.91.43,2.3-.08,0-.14-.1-.15-.25a.86.86,0,0,0-.05.88v-.47c.19.39.58.39.67.84A1.45,1.45,0,0,0,143.87,147.42Zm.49-.41a.84.84,0,0,0-.29-.63c.54.63.74,0,1.26.36A2.7,2.7,0,0,0,144.36,147Zm2.2-.78a2,2,0,0,1-1.21.51c-.11-.26-.23-.77-.16-.77.78.51.22-.89.67-1.17.36.67.11,1.7.52,1A.93.93,0,0,1,146.56,146.23Zm3.33-.58c0-.15.06-.32.15-.31l-.26-.21c0-.7.16-.64.38-.9a.59.59,0,0,1,0,.36c.19-.52.83,1.34,1.06.55a1.67,1.67,0,0,1,.16.43A3.37,3.37,0,0,1,149.89,145.65Zm2.15-.54,0-.25,0,.08C152.1,145.08,152.07,145.12,152,145.11Zm.61-.36a.56.56,0,0,1-.53-.1l0-.14a.17.17,0,0,0-.11.06l-.08-.06,0,.1a1.82,1.82,0,0,0-.15.23.46.46,0,0,0-.14-.16,1,1,0,0,0,.1.21c-.07.11-.13.19-.2.14a1.75,1.75,0,0,0-.13-1.31c.56,1.33.46-.88,1,0Zm2.17-.17a.57.57,0,0,0-.33.35,2,2,0,0,0-.37-.49c0-.56.42,0,.56-.41A4,4,0,0,0,154.82,144.58Zm.72-.06a3.51,3.51,0,0,0-.07-.63l.29.51A.53.53,0,0,1,155.54,144.52Zm1.37-.9a.75.75,0,0,0-.11.31l0-.08-.46.88-.09,0c.25-.49,0-2.16.48-2.05A5.63,5.63,0,0,0,156.91,143.62Zm4.46-1.2-.06,0c-.21.45.1.61.09,1.07-.23-.62-.68-.41-.59-.94a4.21,4.21,0,0,0-.6.38h0a3.17,3.17,0,0,0-.39.41l-.1-.31a1.28,1.28,0,0,0,0,.42,1.73,1.73,0,0,0-.15.2c.16.23.28.31.3.54s-.37-.17-.45-.47v-.08c-.29.69-1,.19-1.67-.09,0-.38-.13-1,.05-.94a1.75,1.75,0,0,1,.09.37c-.09-.37.19-.58-.19-1.37,1.15,2.24,1.47-.54,2.48,1.31a4,4,0,0,1,1-.9c0,.23.1.37,0,.31Zm.56-.53a5.89,5.89,0,0,0,.23.61,1.48,1.48,0,0,0-.67-.11c.18-.31-.41-2.15.23-1.64C162.36,141.87,161.62,141.49,161.93,141.89Zm.91.83-.21-.06c.07-.13.14-.28.23-.32A1.36,1.36,0,0,0,162.84,142.72Zm2.26-1.43a5.8,5.8,0,0,1-.17-.69c0,.31-.22.07-.42,0a3.89,3.89,0,0,1,.49-.85c.16.88,0,.64.26,1.24Zm.73.61-.36-.76c.05.53.3.22.27.91-.24,0-.44-.65-.45-1l.08.18c.15-.2-.57-1.51-.28-1.92.22.34.51.62.8,1.13a2.52,2.52,0,0,1-.49.25C165.71,140.83,166,141.74,165.83,141.9Zm1.45-1.6-.08-.3a.34.34,0,0,1,.21-.14l-.22-.41c-.2-1.56.57.7.51-.49l.54,1.21A.64.64,0,0,0,167.28,140.3Zm1.3-.08a.86.86,0,0,1,0-.53c0,.16-.09.15-.14.07a4.72,4.72,0,0,1,.41-1.48,5.11,5.11,0,0,1,0,1.39C168.79,139.85,168.69,140,168.58,140.22Zm1.67-.36c-.19.47-1-.19-1.15-.57l-.06.11c0-.77.12-1.22.46-1.33a4.56,4.56,0,0,0,.49,1.05l-.12.27C170,139.4,170.17,139.65,170.25,139.86Zm.26.07-.45-.71a.74.74,0,0,0,.44.3Zm.29-.16-.1-.24h.15A.68.68,0,0,1,170.8,139.77Zm3.84-1.5a1.52,1.52,0,0,0-.54-1.09,9.05,9.05,0,0,1,.36,1.17,2.08,2.08,0,0,1-.32.12c.07-.08.09-.27-.35-1.2.13-.23.22-.23.31-.11l-.09-.07.09.09h0l1,.88Zm5.91-1.75c0-.17-.25-.22-.44-.36l.22-.09a.38.38,0,0,1,.1,0C180.54,136.29,180.61,136.5,180.55,136.52Zm3,3.2,0-.09a2.44,2.44,0,0,1,.12.35c-.06.14-.16,0-.24-.09A1.47,1.47,0,0,0,183.59,139.72Zm-1.24-5.15c-.09-.39.21-.47.09-.55l-.11-.07a.83.83,0,0,1,.1-.29c0,.1.11.17.16.26C182.64,134.31,182.87,134.81,182.35,134.57Zm3.92-.61c.09,0,0-.26-.07-.45l0,.32c-.56-.72.06-.39-.25-1-.15.39-.16,1.15-.45,1.16,0-.33.08-.66.13-1h0l0-.05a2.64,2.64,0,0,1,.13-.52l.11.08a.76.76,0,0,0,.08.11s0,0,0-.07l.19.13a.57.57,0,0,0,0,.13,1.25,1.25,0,0,1-.15-.19,9.75,9.75,0,0,1,.66,1.13C186.46,133.89,186.61,134.48,186.27,134Zm2.33-3.34s.1,0,.19.17Zm1-.24-.3-.45.24.17A1.57,1.57,0,0,1,189.6,130.38Zm2.25-.95a2.2,2.2,0,0,0-.13-.35l.2.07A.47.47,0,0,1,191.85,129.43Zm.6-.68a1.36,1.36,0,0,0,0-.42l.29.4A.25.25,0,0,0,192.45,128.75Zm2-1.68.05.83-.15-.16c-.07-.11-.13-.22-.19-.33l.19-.14c-.21-.17-.29-.16-.3-.07-.33-.58-.61-1.11-.5-1.22l1.11,1.22ZM196.55,117c-.14-.21-.42-.24-.73-.39a.64.64,0,0,0,.27-.21C196.37,116.64,196.62,116.94,196.55,117Zm-.2-1,0,0c0-.07.07-.14.09-.18A2,2,0,0,0,196.35,116Zm5.64,4.39c.14.16.27.31.36.43s-.17.09-.34-.06a.68.68,0,0,0,.07-.26Z"/></g></g></g><g class="cls-8"><g class="cls-9"><g class="cls-10"><path class="cls-11" d="M156.61,150.87a81.07,81.07,0,1,1-8.47-114.34A81.07,81.07,0,0,1,156.61,150.87Z"/><g class="cls-12"><path class="cls-13" d="M156.61,150.87a81.07,81.07,0,1,1-8.47-114.34A81.07,81.07,0,0,1,156.61,150.87Z"/></g><g class="cls-14"><path class="cls-15" d="M167.35,67.39c0-.18-.32-.8-.33-1,.08,0,1.11,0,1.15.2-.08-.23-.52-.14-.59-.29-.17-.9-.2-2.37-1-1.93-.1-1.24-.53.34-2-2.32-.18.16-.82-3.19-2.27-5.24-.56-1-1.25-1.06-1.93-1.51-.92,1.35-.09,2.39.39,3.7-1.35.67-1.91,1.46-1.06,3,.31-.11.54.31.73.24a10.73,10.73,0,0,0-.7,2.77c1.69-.79,1.28,1.32,2.07,2.49.44.68,2.06.54,2.47,1.08s-.09,1.76.35,2.39a17.28,17.28,0,0,1,2.26,3.84c.53,1.24,1.18,3.49,1.88,4.4,1.1-1,.52-4.26-.17-6.71,0,0,1-.24,1.06-.22s-1.15.16-1.2.07c-.07-.26-.1-.62-.19-.87s1.51-.07,1.81,0c-.23-.38-1.53-1.08-1.8-1.72.08-.07.37-.08.44-.21C169.24,68.66,168.19,67.91,167.35,67.39Z"/><path class="cls-15" d="M158.24,56.76s-.13.09-.12.07,0,.47,0,.54c.5.58-.16,2,1.27,1.72-.31-1.5-1.56-3.29-2.25-4.65,0,0,.79-.42.78-.43s-.51,0-.55-.07a9.43,9.43,0,0,0-2.15-2.89c.22-.1,1.3-1,1.59-1.07.1.24.23.6.35.85.14-.14.3.36.3.17a3,3,0,0,0,.71-.57c-.3-.5-1.93-.3-2.34-.67.15-.06,1.64-.75,1.73-.77-.25-.4-1.84-1-2.77-1.88-.08-.1-.18-.17-.26-.26a4.15,4.15,0,0,0-.53-.32A5.73,5.73,0,0,0,151.58,45s-.2-.77-.19-.76-.08-.16-.18-.2.44-.8.44-.79c-.23-.15-.51.26-.77.21.82,1.31-.39,2.25-2,.78.25.79.42.68.62,1.18-.05.07.92.5.88.58s-.18-.67-.21-.67c-.39-.91-.78-1.71-1.33-1.88-.31-.28-1.26.93-1.54,1-.59-.34-.82-.73-.71-.4-.05,0,.53-.77.48-.8-.47-.28-1.54.24-2,0-.84-.5-4.43-2.25-5.21-2a13.94,13.94,0,0,0,2.9,2.69,14.9,14.9,0,0,0,3.28,1.67c1.28.56,5,1.34,3.54,3.51.83.75.76,1.93,1.95,1,.77,1.19,1.55,3.36,3,3.08.34,1.43,1.29,1,2.24,1.7.23.37-.19,1.37,0,1.52s.24.85.56,1.08C157.4,57.54,158.18,56.69,158.24,56.76Z"/><path class="cls-15" d="M132.14,63c-.28,2.11-.83,2,1.07,3.75,1.62,1.52,2.47.8,4.33,1.1,1.53.25,2.56,2,4.24.91s0-2,0-3.08c.15-.13.79.7.93.56.25.24,1.41,0,1.62.2,0-.39.12-1.07.16-1.48.39-.45-.14-2.22.16-2.69.64.38.92,1.42,1.29,2.08,1.23-1.17.88-1.67.43-2.79a6,6,0,0,0,.7-.18,3.54,3.54,0,0,0-.55-.68c0-.13.11.34.1.2s-.27-.29-.25-.48c.3-.54.86-1.08.17-2.1-.3-.44-1.47-.16-2-.42-.26-1.49,2.23-1.57,1.1-2.84-2.45-3.7-4.39.31-4.68,1.16-.69-2.91-1.72-5.34-4.26-5.6-.7-.45-1.68-.17-2.88-.16-1.38,0-4.77-.84-5.73.1.75,1.49,2.28.54,3.44,1,0,0-.89,1.22-.88,1.23l.42-.3c.14.09.17.3.33.39.49.4,1.07.28,1.89.14.19.09,1,0,1.16.1.45,1.12.66,3.51,1.82,3.1.63.69.37.29.54,1.37-.61.19-2.26-1.34-2.32-1.41,0,.13-.66-.08-1.09,1-.27-.3,0,.24-.16.18s0-.57-.12-.81a3.16,3.16,0,0,0-.77-2,12,12,0,0,0-.68-1.39c-.35.28-.7,1.61-1,1.32-.09.07.32-.35.27-.26-.82-.07-1.32-.07-1.39.84-.1,1.24,3.49,1.88,3.19,3.38-.1.13-.92-.08-1,0-.59,0-1.11-1.53-1.94-.69a34.33,34.33,0,0,0-1.64,3.5A3,3,0,0,0,132.14,63Z"/><path class="cls-15" d="M153.61,68a2.26,2.26,0,0,1-.31.23c.36.78,1.31,1.11,1.79,1.76,0,0-.5.28-.53.25.14.19.13,1.18.33,2.2,0,0,.89.13.88.14-.55,2.18-1.63.37-3.19,0-.36,1.42,1.16,1.54,1.6,2.59.34.78.46,1.84.82,2.73a10.5,10.5,0,0,1-1.3.65c-1.62-2.1-1.16-2.81-1.78-2.23-.61.27-1.53-.71-1.84-.16a2.06,2.06,0,0,0-2.76-.07c-2.78-.2-6.7,1.52-5.37,2.67a3,3,0,0,1-1.41-.48c.15-.19.3-.34.31-.51s1-.78.33-1.29c0,.12-.42,1.47-.44,1.56-.81-.28-2.67-.51-2.46,1a9.54,9.54,0,0,1,2.45,2.73c.34.8,1.1,1.22,1.14,1.92,0,.16.45.88.36,1-.24,0-.8-.43-.65-.21,0,0-.72.1-.75.13,0-.46.34-.94.12-1.33-.17-1,0-1.74-1.08-.29a3.2,3.2,0,0,0,.86,4c0,.12-.7-.26-.69-.14a3.18,3.18,0,0,0,0,2.17c0,.07,1.07-1,1.06-1-.38-.19-1.3.78-1.61.59a9.29,9.29,0,0,1-1.36-.85c-.95-2,.47-6.24.06-7.85-1.12.93-1.2,1.22-1.17.37-.1.06-3.39,3.46-3.75,4,.16-.25.86-.7.82-1.29a2.68,2.68,0,0,0,.15-1.1l-1.67.34a20.83,20.83,0,0,0-.49-2.31c.23.14,1.29-.09,1.4-.1.84,0,.62-.85,1.55-1-.17-.51-.16-.8-.41-1-.08-.15-.55-.26-1.31-.48,1.25-.81,1.09,1.94,1.48-1.27,0-.17.46-.34.46-.5s.39-.25.39-.33l-1,.13c-.14-.76-.89-.83-1.65-1.64-.59.38-.58,1.37-.77,2.06a11,11,0,0,1-2-1.45A3.65,3.65,0,0,1,129,73c-1,.32-2,1.45-1.63,2.45-.07,0,.49-.9.43-.88a2.23,2.23,0,0,1-1.29-1A4.74,4.74,0,0,0,125.15,72s.64-.08.63-.05c-.31-.64-1.48-.91-1.76-1.82-1.47.64-.47,1.9-.61,2-1.51-1-3.21.87-3.44.77.09-.06.78,1.8,1.18,2.18-2.4-1.68-1.83,2.3-1.54,2.88-.84-.19-1.62-1-1.14.31-2.23-.77-2.91.2-4.19.21.13-.11-.2-.14-.06-.19-.11-1.35-.47-3.11-1.73-1.08-.42-.17-.06-.2-.19-.48.25-.07-.35-.62-.4-1,1.54-.86-.76-2.45-1.47-3.38a6.63,6.63,0,0,0-1.09,1.52c-.35-.81.07-2.07-.32-2.83-1.32.26-.47-2.06-1-2.85-.79-1.19-2.06-.7-3.48-1.21a4.87,4.87,0,0,1,1.57-1.62c-.51-1.61-1.09-.57-2.11-.68-.86-.08-2-1.47-3-1.15.1.34.93,1.65,1,2-.12,0-.21,0-.29-.08-.17.43-.87.58-1.22.88-.54-.67.25-2.11.78-2.75-.75-.13-1.44.64-1.64,1.27a5.79,5.79,0,0,1-1.42-2.58c-.92.33.61,2.94-1.53,1.36,1.64-5.87-.91-.92-2,2.45-.47-.61-1-1.45-1.45-2.12-.44.39-1.1.7-1.42,1.29-.15-.29-1.28-1.09-1.41-1.39-.24.86.53,4.32-1.09,3.87s-.23-2.6-.29-3.69c-1,.74-2.52.37-3.37.68-.19-1.08.16-2.76-.93-2.51.7,1.68-.59,2.87-1,4.58,0,0,.32-.39.31-.33-.55.15-.9.9-1.77.48-.07.46-1.11.94-1.25,2.31-.74.4-.3,1.44-.56,1.73-.7.82.37,1.84-1.48,1.75-.89,0-1.08-1.51-2.16-.91-1.92,1.06,3.88,3.13,4.21,4.21-.68.57-1.83,2.4-1.11,3.37,0,0,.32-.41.26-.29.1.15.14-.26.16-.34s0,.8.08.81.9-.29,1-.21c0,.54-1.21,1.5-1.18,1.68-.65-1.19.22.55.21.57,0-.65.57,0,1.45.28-.7.53-1.87,1.76-1.07.86a4.67,4.67,0,0,1,3.2,1.82l-1.72.6c.43,1.34-1.12,1.36-.71,2.64s2.48.57,3.36.31c.63,2.22,1.08,4.2,3.48,4-1.52.32-2,2.51-3.85,3.53.49,1.42.4,1.54,2.4,2.07.73-2.86,1.48-3.11,3-3.17-.06.11.22-.07.15,0,.47.65.29.12,1-.28,0,0,1,1.4,1,1.38-.18.64-.9,1-1.48,1.37.47,1.27,1.86,2.08,2.92,2.75-.38-1-.29-2.21.71-2.29a1.82,1.82,0,0,1-.32-2.23c1.19-.27,2.49.58,3.81.07.76,1.24-5.5,1,.53,3.09-.62.57-.36.89-.55,1.46-.24,0-.61-.45-.86-.52-.5-.94-1-1.11-1.81-.24.46.64.15,1,0,1.67-.32-.13-.3-.9-.73-1-.59-.33-1.22-.37-1.87-.68-.1-.14-.47.17-.57,0-.07.06-.31.87-.41.91s-.07-.95-.26-1c-.13-.73-.91-.84-1.57-.62.35-.4-.56-.58-.7-.28-.09,0,.08.23,0,.2-.17-.65.35-1,.2-1.63-.27.41-1.62-.11-1.72.38-.16.25.66.87.52,1.09-1.5-.45-2.79-1-3.4-.58-.16-.22,0,.65-.11.39-1.28.68-2.33-.78-3.49,0,.83,0,1,0,1.34.94-.17.09,0-.36-.22-.24.7.19.42,1.14.87,1.5-.06.29-.2,1-.27,1.42-.72-.21-1.75-.33-2.26.23.44.45.73,1.25,1,1.37,0,.09,0-.48,0-.47-.17.35.26,1,.23,1.46-.26.06,1.28-.24,1.48.3-.39.25-.5,1.46.08,1.68-.21,0-.34-.84-.71-.93,0,0,.48.12.5.09s-.21-.69-.36-.48c.06.07-.11.44,0,.51-.13,0-.36-.38-.4-.44a1.49,1.49,0,0,0,.53,2.07c-.13.35.1-.58-.09-.45s.13.18,0,.19-.37.93-.51.81c0,.09.1.39,0,.47a18.12,18.12,0,0,0-2,.23c0-.35-.15-1.31.14-.68-.16,0-.51-.22-.67-.16-.32-.21-.82.72-1.05.31-.59.32-.87.47-1.46.81-.16-.09-1.17-.6-1.34-.64-.24-1.38,1.38-3.28,1-4.66a25.88,25.88,0,0,0-3.32,3.37s-.72-.29-.72-.32c.17-.51,1.55-.89,1.69-1.74.17-.14-.14-.36-.09-.52a1.39,1.39,0,0,0,.58-1.67c1.79,1.22,1.51-.93,1.92-1.91s1.88-1.36.35-2.63c-.21.38-.76.66-.9,1.18-.45-.58-.36-.73-.83-1.26,1-1-1.06-2.17-2.1-1.27-1.52,1.33,0,1.33-2.62,1.63-1.35.15-2.79.82-3.74-.45-1.21-1.61.7-1.77,1.43-3.18-2.14-1.73-.61-1.93.11-3.92.13-.36-.08-1.07,0-1.49a7.62,7.62,0,0,0,.27-1.52c.06-1.1-.56-.79-1.55-.49l-.64-1.19c.85-.81.29-1.72-.77-1.6-.41-.46-.45-2-.5-2.62-.06-.92.33-.74-.34-1.65-1.11,1.26-1.12,2.37-.69,4a20.13,20.13,0,0,1-.06,2.64c-.47-.39-.51-1.12-1-.82.28-.85-.44-1.26-.91-1.86,0-.17,1.15-2,1-1.88.08.05-1.82-.7-1.81-.66-1.07-1.25-1,.24-1.14,0,.25-.19-1.06-1.88-.76-3a10.12,10.12,0,0,0,.87-1.43c.09-.08.77.18.88.13-.08,0,0-.06-.09-.06.13-.31-.44.28-.42.13.2.23.47-.45.62-.17-.16-1.09-.52-.93-1.21-.59,0,0-.71.14-.72.12s.67-.16.6-.06.08.47,0,.56c.42-.39-.09-1.51-.39-2.17-.5-1.09-.48-.3-1.24.21,0-.2-.21-.93-.21-1.13-3,.58-2.87-3.2-4.82-4.4-.08.69,1,3.77-.18,3.7.08-.1.09-.45.21-.57-.16-.2-.69-.16-1.09-.17-.45-1.17-1.08-4.18-2.62-2.67,0,.18,1.08.33,1.15.5.31,0,0,1.45.3,1.39-.15.38,1.11.38,1.19.8-.07.07-1.54.61-1.56.71S52,72.78,52,72.8c.14.51-.36,1.16-.19,1.67,0,.71.88,2.19-.87,1.79a19.77,19.77,0,0,1-1.21-4c-.43.43-.8.31-1.22.75a15.55,15.55,0,0,0-.65-3.12c-.33.57-.47.72-.78-.2-1.22.31-3.59,4.35-3.43,3.14-2,1.64,3.22.71,3.6.42,1,1.6-3.8,2.29-4,2.06-.15.17.23.41.13.57-.54.44-.14-.21-.1.41.08-.07-.46.11-.39.06-.13.62-.42,1.74-.55,2.4-.54-.72-.79-1.39-1.29-2.13-.11,1-.21.79-1.16,1.2-.8-1-.75-2.52-2.11-2s.16,2.08.39,3c0,.17,0-.26.08,0-.39-.38-1.25.48-2.14,1.34A3.54,3.54,0,0,1,35.33,79c.12-.14-.72.11-.61,0-.41-.76-1-1.88-1.69-.75-.37.63.4,2,.75,2.07a6.92,6.92,0,0,0-.19,1.62c-.75,1-.15,2.68.91,4.15a36.08,36.08,0,0,0,2.19,4.08,4.84,4.84,0,0,1-.36.72c-1.44-1-1.69-5.24-3.59-5.23.48.77,1.35,2.61,1.21,3.55-.22,1.47-.58.73-1.11-.45-2.76,1.48.64,2.19.9,3,0,.15.68-.31.53-.07a3.77,3.77,0,0,0-3.44.55,4.9,4.9,0,0,0,2,2c0,.7,1.7,1.44,1.57,2.16-.37-.22-.77-1-1.15-1.49-.13,0-.22-.35-.36-.37s-.69,1-.79.92-.07-.17-.1-.12c-.66-.22-1.22-.62-1.76-.13-1,.87.65,2.5,1.67,1.77.09.08,0-.42,0-.46.11.33-.65.92-.72,1.42.22-.09,1.62-1.15,1.86-1.26a4.91,4.91,0,0,1,1,2.24s-.31-.05-.35,0c-.14-.41-.7-.1-1.27-.27-.19.16-.33-1-.5-.87-.24-.17-.85-.34-1-.56a2.25,2.25,0,0,1-1.35,1c-.15-.08.23-.08.11-.13s-.11.57-.14.49c.4-1.93-.66-4-1.37-6,.17-1-.54-1.39-1.72-2.9.79-.46,2.41-1.41,2.27-2.39-1.74,0-2.18-2-2.13-3.46l-.38.11c1.08,0,.67-1.82,1.31-2.33.17-.08.65-.52.84-.59,1.09-.13,1.49,2.5,2.34.92.14.25,1.25,1.09,1.38,1.37,1.4-2.29-1.75-3.35-2.54-4.94s-2-1.51-1-2.62c.54-.61,3-1.09,1.95-2.35-1.17.2-2.1,1.45-2.93,2.1-.2-.1.42-.29.35-.35s-.37.94-.39.93c3.32-1.46-.79-5.51-2.93-2.13-.4.63-.66,3.53-1.71,3.33-1.5-.27.47-3.32.79-4-.33.31-1.24.45-1.58.75,0-.14.4-.92.54-1.27-.27.17-.51,0-.78.16-.75-1.23.61-1.58.86-2.76S21.25,67,21.4,65.9a23.49,23.49,0,0,0-1.11,4.18c-.19,1.16.95,2,.48,3.16-.91,2.21-2.52,3.91-2.15,6.27-.16-.13.11-.18-.05-.31-.62.45-.33,1.1-.45,1.74-.8,2.13-.9,5.08-1.09,7.87-.19.53-.78,1.09-.93,1.62-.38,1.4.64,2,.7,3,0,.49-1.16.9-1.18,1.25s.75.81.66,1.16l-1.41-.42c0,.07.36.26.35.32s-.36.19-.4.35c-.32,1.12-.2,5.72,1.53,5.3,0,.88,1.33,1.58.92,2.5a15.67,15.67,0,0,1-1.77-.19s-.36-.42-.37-.42c0-.18,1.21-1.34,1.15-1.5.38.31.48,1.31-.49.21-.18.1-.78-.57-.8-.46,0,0,1.34.8,1.3.75-.11.39-.46.64-.44,1.12-.17.08-1.1.14-1.2.23.21.62,1,1.26,1.41,2a4,4,0,0,0,1.34,2.28s.4.7.65.48l-.95-1.18s1.15.78,1.18.75c.88-2.82,1.69-4.68,2.58-2.42.26.1-.27,1-.21,2.13a3.54,3.54,0,0,0,.42,1.94c0,.15.33.12.37.26,0-.08.51.38.54.29s-1.27-.38-1.24-.37c0,.82,1,.78,1.39.1.35.33,2,2.64,1.77,3.85-.25.2-1.34-.55-1.95-.84a19.75,19.75,0,0,1-2.89-2.12c.13.46.54.38.61.92-1-2.2-3-1.39-3.93-3.9-.05.47.71,1.07.74,1.81-.06,0-1.37,0-1.44,0,.08.12,1.56.09,1.62.22.14,2.35-.32,5.58.29,6.92,0,0,.49-.68.62-.71s1.56,2.63.86,2.92c-.71-1,.17-1-.34-1.58a2,2,0,0,0-.7,1.21l1.13.17c-.39,2.36,1.2,6,2.1,8.3.17.44-.85,2.83-.54,3.09,0,0,.64-.68.68-.66.37.87.7,1.41.76,1.64.41-.39.37.42.47,1.64-.2-.1.46-.06.26-.15s.2-.65,0-1c.1.21-.79.86-.69,1.06-.07,0-.12-.61-.18-.65-.58,1,.48,2.67,1.36,3.12.13.29.11.17.21.39.28.94,1.61,1.56,2,2.51s1.18,3.31,1.26.89c.11.07.8,0,1,.08s0,.48.06.69c0-.11-.2.24-.16.11.26.22.46.29.74.56.6,1.31.94,2.58.93,1.62.08.18.33.54.28.64.26.55,2.14.81,3.33,1.6.12.15-.23.9-.1,1.06s.54,0,.7.09c.76.48.77,1.26,1.13,1.95,0,.32.26.44-.12.74.46.69,1.91.44,2.42,1,0,.19-.24.76-.06.88.19.37-.46,1.06-.25,1.44.69,1.29,2.32,1.74,3.66,2.72-.1-.23-.72-.29-.76-.53.51-.22.92.54.53-.67,0-.18.22-1.06.27-1.22a7.65,7.65,0,0,1,2.31,3.66s-.68-.2-.7-.17a7.6,7.6,0,0,0-.72.43s1.61-.11,1.64-.08-.61.19-.43.34-.42.92-.3,1.14a.45.45,0,0,0,.18-.41c1.43.89,5.32,2.51,8.33,3.94h-.5c.59.79,1.11,2.4,2.58.75-.14-.22.05.82-.07.6.55.33,2.17-.59,2.47-.27-.47-.8-3.16-1.26-3.48-2.37.19-.19,1-.12,1.13-.17s.07.24.17.23c.78.38,1.06,1.39,2.07,1.34,0-.1.4,0,.43-.16a5.1,5.1,0,0,0,.82.61c-.06-.08-.67.25-.77.13.07-.26.19-1.19.22-1.42.48.44,1.32,1.34,1.78,1.81,0,.11-.67.78-.74.89-.37,0-.34-.29-.81-.21.92,1,.88,1.86,1.16,2.13.11,0,.64.84.76.85s-.24-1.24-.2-1.27a13,13,0,0,0,1.58.64c.52.21,2.61.89,3.38,1.1-.75-1.19-2.94-1.54-3.62-2.91,0-.13,0-.27,0-.46.57.1,0-.66.41-.71-.44-.6,0-.88-.5-1.41.84,0,1.55.8,2.34.93.3-.84,0-1.89.42-2.25-.22,2.6,6.42-.93,3.14,2.57.84.06,6.94-.76,4.6,1.74-.95,1-3.28-.1-2.47,2.21.27.76,1.41,1.24,2,1.71.65.8,2.33.77,3.28,1.56a10.11,10.11,0,0,0,4.64,3.25c1.19.38,2.51,2,3.52,2.27s2-.73,3.07-.57a7.16,7.16,0,0,1-1.29-.88c.22-.22.84.43,1.12.38a.52.52,0,0,0,.43-.08,15.39,15.39,0,0,0,3.56-.29c-.31-.74-2-1.55-2.73-1.77a1.13,1.13,0,0,0-.5-2.05c.55-1.34,1.8-.57,2.68-1,.54-.3.55-1.36,1.07-1.79-.56.06-.25-.26-.86-.48-.11,0,0-1.35-.42-1.47s-1.52,1.75-2,1.65c-3-.66-1.41-2.29.19-3.35-.71-1.34-4.25,2.69-6.2,1.74-3.52-1.71.17-3.17,1.07-4.57.51-.36,1.07-.33,1.33-.54.22,0,.59-.39.79-.35-.19-.56-.86-.12-1.42-.39-.06,0-.13-.64-.19-.63.13-.11,1.19-.22,1.3-.33-.2-.27-1.32-.12-1.72-.24,0-.05.07-.3.06-.35-.19,0-.27-.8-.38-.79s0,.07-.2.05c-.12-.19-.09.07-.21-.12s-.63-.86-.6-1.13c.77.45.94,1.34,1.83,1.37a1.44,1.44,0,0,0-.78-1.77c0-.16-.25-.9-.17-1.06,1.56-.21,2.42.24,4,1.53,1.22,1,2.73,2.88.89,3.59.17,1.89.57-.29,1.44-.63,1.46-.56,2.31-.28,3.88.22.85.26,2.1.13,1.13,1.54-.2.28-.53,1.58-1,1.54-.9-.43-1.1-1.25-1.48-1,0,0-.47-1.33-.44-1.31s.34.75.25.75c.51,1.4,1.33,1.38,2.54,1.5.26.05.43.82.7.84s.89-.72,1.13-.62c.25.33.09,1.17.46,1.32-.12,0-.17-.23-.29-.2.06.26.34.73.67.64.54.51,1.1.27,1.78-.11.4,0,0-.24,0-.57,0,0,.07.45.08.45.21.42,1.23-.33,1.41.09.65-.95,1.73-1,2.5-1.65.84-.39,1.37-1.47,2.19-1.94.25-.08.85.56,1.12.5,2-.51,5.24-1.28,6.07-3.57-.66.67-.15.37-.68-.2.29-.24-.16-.26-.08-.36-.7-.9-.22-.88-.42-1.33a17.59,17.59,0,0,1,.43-2.7c-.67,0-1.7,1.66-2,2.45-1.71-.89.29-4,.17-5.5-.13-1.69-1.64-2.85-2.86-4.13-1.88,1-1.82,3.06-4.21,1.14-.18.77-.67.21-1.43.35-.57,0-1.66.31-2,.27.43-.25,3.35-2.51,3.32-2.79-.1-1.12-1.55-.86-2.11-.3a1.79,1.79,0,0,1-.14-.13c-.22.21-1-.05-.88,0-.1.14.57.05.51.24-.54-.63-.75-1.58-1.31-2-.21-.15-1,.3-1.17.33-1.18-1.53-1.9-3.34-3.44-3.61,0,0-.77.87-.74.82-.44-1-.57-1.15-1.22-.41,0,0-.49.63-.5.63-1-.78-1.24-2-2.26-1a6.71,6.71,0,0,1,.74,2c0,.14,1.24.15,1.26.29s-.4.24-.4.33c-.12,1.34-1.49.75-.31,1.87.57.54.14,1.5.61,1.63.28.38.45.71.83,1.24a1.6,1.6,0,0,0,.5,1c.13.15,1-.38,1.27-.35,1.56,2.25,3.06,4.35,1,2.61.11-.73-1.37-.46-2.27-.85,0-.26.1-.6-.57-.34,0,0-.21.08-.2.1-.65-.19-1.54.15-2.21,0,0-.1.09-.17,0-.11a14.19,14.19,0,0,1-3.08-1.08c0-3.25-7.34.8-8.38-3.43,1.12-.68,3.63-.1,2.61-1.68-.14,0-.33-.82-.44-.83,1.16-1.53-1.51-2.48-3.24-3.27.29-2.33-1.27-1.33-2.76-1.62a5,5,0,0,0,2.06,1.34c.09.12.42,0,.6.19-.29.32-.64.66-.93,1a2.25,2.25,0,0,0-2.77-.61c.3.67,1.73,1.28,2.2,1.75,0,.05-.16.47-.15.52-.56,0-1.88-.93-2.21-.75-1,.51.64,1.73,1.43,1.72-1.12,1.52-2.65-.71-4-.87-.75-.09-1.55,1.81-2.4,1.72-.65-.06-1.52-1.23-2.2-1.38s-2.16-.47-3.1-.73c-.23-.12-.23-.33-.43-.46-.51-.51-.63-.24-.45-.59.22.11.27-.28.38-.31-.16-.13-.21-.12-.32-.21.3-.34,1,.08,1.61.15-.14-.29-.83-.43-1-.67-.29.14-1.27,0-1.56.15-.41-1,1-2.15,1.73-2.73-.77-1.5-2-.57-2.88.09,0,0,.44,1.05.43,1.06s-.52-.78-.63-.68c-.42.2.19.55-.22,1.28-.2.34-.47.49-.45.82-.21.13.55,0,.65.6,0,0-1.4,0-1.42,0-.31.57-1.69,2.44-2.35,2.28-2-.49.31-1.89.41-2.69-2.15,0-1.91,1-3.2,1-.53-.29-1.57.55-2,.26-.13-.67,2-2.24,1.55-3.2-.86,0-2,1-2.62,1.54-.45-.33-1.4-.68-1.5-.89,2-1.82,1.49-.4.52-.44.05-.25,0-.2-.06-.37-.26.06-.32,0-.62.12-.07-.1-.31-.1-.33-.27,1.5.74,1.54-.74,2.74-1.06-.37-.24-3.09-3.16-3.26-4a12.05,12.05,0,0,0,3.43.61,12.27,12.27,0,0,0-.31-4.1c2.84,2.27,2.38,2.59,4.92,5.87-.26,3.47,10.35-.65,9.37-2.33-1.15-1.05-3,1.45-3.25,2.11a4.3,4.3,0,0,0-1.89-.78c.38-.41,1.45-1,.5-.71-.43-1,2.92-.75-.33-1.7-1.67,1-.36.87-2.2,1.32-.27-.64,1.55-3.15,1.54-3.11-.2-.13-5.57-2.72-2.3-2.69-.16-.65-4.43-2-4.71-2.2,3.9,2,1.23-3.51.44-4.11.23.08.14.69.34.76,0,0,.21-.2.23-.15s.37-1,.38-1.07a7.14,7.14,0,0,1,3.27,1.81c1.45-1.53.46-3.5,1.25-4.27.54.59.69.73.31.9,0,0-.73-1-.73-1,.22-.21,1.72.29,2.32.28-.5-.77-.54-1.09.08-.62-1.15-3.17-2.07,3.71-2.68-2.34.59,2-.07.31-.22-.32,1.08,1.27,3,3,3,1.09a3.57,3.57,0,0,1,2.42.86c4.76-.17,1-.45-.66-3.21.49-.44.75-.5-.18-.33-.19.34-1.4.42-1.49.63-.47-1,.23-3.13,1.12-4.75.8,1.6,4.46,7.61,5.6,7.67a28.52,28.52,0,0,1,.57,2.81c1.7.63.75-5.35-1-5.09-.13.34,1,1.72,1.07,1.85a15,15,0,0,0-2.13.89c-.77-1.14-.59-4-.36-5.24,1.88.76-.19,2.62,1.94,2.28a51.48,51.48,0,0,0-2.33-5.51c1.4,1.14,2.61,3.33,2.34,4a14.39,14.39,0,0,0,.64-1.55c.68-.09,1.08,5.4,2.1,4.19.19.36.68-2.73,1-4.6,0,0-1.3-.53-1.26-.51.07-.15,1,.09.92,0,.15-.62-.25-1.1,0-1.29,2.36,4-.2.36.75,2.91,1-.87.71.41,1.2.85.74-2.34,2.42.33,2.83-.58-.37-1.21-2.41-3.42-.86-5,.17-.08-.15-.61-.16-.72.18-.15-.15.19.1.07,0,.63.56,5.38,2.19,5.12-.55.63-.62,1.09-1.08,1.16.39.09.07-.78.43-1,0,.08.82,1.17.82,1.26s-1-.17-1.2-.08c.19.14.84.16.93.27s.33.9.34,1.07c-.37.35-2.83.06-3.33.17.58.51,2,1.74,3,1.42.8-.28,1-1.54,1.82-2.08.13,0-.14-1,0-.9.21-.16.71,1,1,.94.09.1-.16-.07-.1,0s.94-.17,1-.07c.25.69-.84,1.49-1.37,2,.3,0,1.4-.35,1.73-.31,0,.08-1,.76-1,.9-.19.33.72,1.54.72,1.89-2.19.3-.33,1.83,1.63,3,.07.09-.43-.48-.41-.45-3.06,2.36,2.7,5.64,2.15,6.19-.75-.23-1.34.27-1.92.79a6.65,6.65,0,0,1,2.17.9c-.47.24-2,1.66-2.43,1.9a3.16,3.16,0,0,1-.62-1.33c-1.53.39-1.21-.28.23.63-.33-.22-.84.21-1.18.2-.3-.34-1.1,0-1.22-.39.09-.23.56-.4.3-.34a5.11,5.11,0,0,1-.63-1c1.32-1,3.5-3.38,2.6-2.65-.23-.27-1.22,0-1.7,0-1.26-1.16-2.24-2.82-4.18-2.27a4.27,4.27,0,0,1,1.06,1.61c-1.4.19-1.86.91-3.29.45-.71,1.24-.08,3.09,1.16,3.31.71.45,2-1.52,2.09,0-.15.08.31,1.08.2,1.2-.19,0-.32-1-.19-.88a4.23,4.23,0,0,0-.86.37c.36.41-.07,1.4.38,1.91-.18,0,.45-.78.31-.75-1,.25-1.51,0-2.27.65,1,1.67,2.82.32,3.85,2.11.59-.67.85.06,1.5.31.16.15.67-.95.79-1s-.39,1.55-.25,1.62a2.09,2.09,0,0,0,1.14.3s.73-.9.77-.89c.64.83,1.1,2.05,2,2.16-.12-.51-.81-.85-1-1.37l1-.72c.7.31,1.08.51,1.8.18,0-.15.3-.37.28-.52.28.11.42.54.71.63-.06-.83-1.05-1.63-1.61-2.16a2.52,2.52,0,0,1,3.65.51c.3-.36.14-.8.13-1.29-.4-.14.1-.42-.16-.55,2-.92,2.15-2.36,1.74-4.13.35.29,5.56,2.24,3-.26-.23.19.42.61.24.83a4,4,0,0,1,.06-1.16c.07-.09,0-.28-.07-.42.41-1.55,1.67-4.28-1-3.16-.31.14-.35,1-.51,1.21a19.22,19.22,0,0,1-3,.39c.41-.12.72-.89-.28-.44-.14-.05-.23,0-.36-.08-.46-1.08.49-1.35,1-1.39a21.74,21.74,0,0,0-1.65-1.53c-.08-.29-.34-.88-.38-1.13a3.41,3.41,0,0,1,1.67-.12c.07-.64-.71-.52-.6-1-.62-1-2,.41-3.15,1.05,0,0,.43-1.14.4-1.2a7.49,7.49,0,0,1-.23-.77c.07-.06-.62.48-.52.46s.66-.89.88-.68c0-.17-.11.53-.13.4.76.06.92-.42,1.35-1.37-.09-.24.66-.07.48-.39.4-.07.11-.86.62-.93,2.29-.33,1.24-.31.69-2.42,1-.31,2.45,1.48,3.35,2,.16-.89-1.45-3-2-4,.13,0,.26,0,.42,0,.57.12,1.3-.33,1.81-.47a22.32,22.32,0,0,1,5.28,2c-.08-.31,2.23-2.42,2.37-2.27-1.73,1.17,3.63-.42,2.93-1.25-.4-.1-1.16-.15-1,.28a4.89,4.89,0,0,1,.85-2.74c-.06.25.35.63.44,1,1.37-.31,1.2-1.18.89-1.82.33.5.5.76,1.67,0-1.4-2.49.53-5.11-.82-7.67a1.29,1.29,0,0,1-1.62-.77c2.25-.39,1.2-1.64-.54-2.34-.06,0-.22.2-.32.21-.85-.28-2.22-1-2.83-.35,0,0,0-.32-.11-.23a5.41,5.41,0,0,0-1.14,1.06l1.53,1.08c.26-.47-.6-1.14-.61-1.2s-.48-1.35-1-1.62c1.41,0,4.77.44,7.43-.71.19,0-.08-.55.08-.58.28.47.51,1.67.94,2,1.48.94,1.31-.83,1.45-1.08.3-.52-.25-1.68.17-2.07.11,0,.22.09.46-.27a1.21,1.21,0,0,1,0-.19c.49-.39,1.45-.15,2-.54a3.18,3.18,0,0,1,.82-.27c-.53.53.24.52,1.21.5-.94.37.09,2-.08,3.14a7.8,7.8,0,0,0-1.1-.49c-.15-1-1.54-1.14-2.54.11.48.46,1,1.94,2.1,2.55-.12,1.58-1.77.37-1.8.41.48.45-1.11,3-1.1,3a10.48,10.48,0,0,1,4,1.21c-.86,1.2,3.8,4.81,4.07,4.35-.83.83-.2.49-1.51,1.17.77,1.43,1.07,0,.87,1.45-.25.12,1,.51,1,.81a7.62,7.62,0,0,0,.85,2.84c.39-.75.45-2.42,1-3.17,1.06,1.14,1.18,1.73,2.46,1.78.7.74,1.56,1.35,1.48,1.19.45-.1.87-1,1.29-1.12.41.68.2,1.18,1.45,1,.93-.13,1.71-1.24,2.92-.2.16,0,0,.16.15.18,1.2,1.75,2.65,1.27,1.9-.66-.12-.32.65-1.62,0-2.08a8.47,8.47,0,0,1,1.39,1.1c-.36-.88-1.71-2.26-1.51-3.17.37.61,1.68,4,2.79,4.81,1,.94,3.62.48,3.31-1.5-.1-.66-1.13-1.14-1.66-1.69,0-.09.26-.63.18-.72s-.12.21-.15.23.18-.08.14-.21.43,0,.43-.1c.07-.27-.87-1.72-.38-2,.25.16.89,1.43,1.12,1.54.76-1.08,0-2.55-.63-3.24-.15-.17-.65.06-.9-.18,0-2.28.35-4.31,0-5.19.84-3.07,6.54,2,6-3,.93.29,3.2.34,4.12.89-.54-2.06-3.15-.68-2.48-2.84a1.9,1.9,0,0,0,1.64.77A12.83,12.83,0,0,1,138.3,89c.12-.17.17.18.22,0,.13.2-.51.24-.35.63.14.59.93.59,1.12.5.45,1.09.88,1.59,1.56,1.56.31,0,.92.17,1.16-.09,1.42,1.93,2.61,3.76,3.62,5.46,0,.27-.35.61-.31.94.11,1-.16,3.85,1.26,2.65.26-.23.66-.07.67-.49,1.26-.77,2.32-1.82,3.36-1.19.62,1.14-.37,3.58.58,4.68.71-.31.2-1.74,0-2.36,0-.06,1-.42,1-.48.81.62,2.07,1.06,3.08,1.66.5-1.07.14-2.83-.65-3.14a11.12,11.12,0,0,1-1-2.26c.61.71,1.46,3.36,2.8,2.18a29.27,29.27,0,0,1-.24-6.32c.27,0,0,.58.2.63a4.36,4.36,0,0,0,1.22-.08,1.29,1.29,0,0,0,1.22-1.87c-.26-.83-2.34-1.15-3.2-2a9.76,9.76,0,0,1,.78-2.12c.66.51,1,1.19,1.74,1.37a11.85,11.85,0,0,1,.09-1.54c.33-.65,1.5-1.4,1.42-2.47.14-.14-.4-.25-.41-.15a2.1,2.1,0,0,0-1.39-2.26c-.24-.93.14-2.38-.23-3.31,0-.26-.38-.21-.39-.48-.05.08.42-.64.37-.54-.06-.14.35.42.29.28s-.31-.81-.47-.82c-.14-.31-.68-.16-.83-.46a2,2,0,0,1,.28-.73,1.32,1.32,0,0,0,1.17-2c.18,0-.11.51-.05.57.05-.55-.87-1.51-1.34-2.48C156.65,70.85,154.26,69,153.61,68ZM80.7,79s0-.2,0-.22.58.18.6.2Zm16.09,23.48-.12-.09s.26-.45.26-.46ZM93.35,92.27l-.13-.22c.14,0,.77.32.8.36S93.4,92.23,93.35,92.27Zm18.57,12.4a3.18,3.18,0,0,1,.34-.31A1.27,1.27,0,0,1,111.92,104.67Z"/></g><g class="cls-14"><path class="cls-15" d="M173.23,101.58c.68-1.11.41-10.23-2-13.8-5.38,3.74-2.73,18.62-.87,25.27,1.29-.46,2.21-7.46,3.3-6.11-1.08,0-1.41-.37-1-1.26a5.05,5.05,0,0,1,1.67.63c-.2-1.14-.37-3.72-1.1-4.73C173.33,101.42,173.81,102.37,173.23,101.58Z"/><path class="cls-15" d="M168.7,88.34c-.62.3-.73,2.4.26,2.61.92-5.29.15-4.56-.93-9,1.42,0,2.12,1.08,2.92.51a12.85,12.85,0,0,0-1.9-1.47c.62,0,1.24-.07,1.86-.08-.69-3.65-4.33-4.07-3.39-7.55-1.53-2.15-2.77,2.66-2.16,2.09-1.91-1.11-3.22-8.07-7.87-8.29,1.59,7,9.52,16.26,11.21,21.2C168.72,88.33,168.67,88.25,168.7,88.34Z"/><path class="cls-15" d="M142.63,84.55c-2.34,4.3,5.94,11.85,7.83,6a3.24,3.24,0,0,0,2.06,1.64,25,25,0,0,1,1.79-3.76c4.22,5.58,3.41-12.5-1.21-7,.49-3.56-4.79-12.1-9.74-10a4,4,0,0,0,2.78,2.2l-1.24.82c2.84,0,4.49,4.11,3.91,6.74,1.22.11-4.49-3.11-3.16-1.57-.05-1.46.19-3,.06-4.46-.08,0-2.88,1.57-2.6,1a22.33,22.33,0,0,1,1.71,4.32c-.57.33-2.85-3.2-3.15-1-.09.65-4.53,6,1,5.07C141.62,86.41,141.18,84.78,142.63,84.55Z"/><path class="cls-15" d="M160.46,97.09c.13,0,.31,5.08.34,5q-2,1.32-2.92-1.17c-1.12,1.59,3.05,6.39-1.11,6-1.9-6.67-9.27-2.27-11.92-5.1.32-.2,1.59-.84,1.22-1.44-1.06,2.51-3.06-.79-3.55,1.29-.23-.31,2.59,6,1.58,6.72a1.47,1.47,0,0,0-1.25-.58,4.46,4.46,0,0,0,.79-2.25c0,.06-3.14,5.31-3,6.07l1.31-.53c-3.24-3.66-.5-2.58.24-8.61-1,.77-1.41.75-1.19-.08-1.65.71-3.27,1.49-4.85,2.32a3,3,0,0,0,1.73-1.87c-2.1-.05-1.5-.38-1.26-2.61a3.18,3.18,0,0,0,3.08.07,1.57,1.57,0,0,0-1-2c.68-.13,2.16.32,2.88-1.09-1.63-.55-5-1.24-5.27-4.57a2.1,2.1,0,0,0-2.36,1.68c1-.16-1.25-5.54-1.22-6.1-1.44,0-5.66.72-4.38,3.53-1.43-2.21-2.53,1.15-2.43,2.11-1.48-1-3.95-2.81-4.8-3.53s-1.66-5.92-3.11-4.1c-.15-4.63,1.76-4.89-1.92-8.17,1.8-1.24,1.3-4.23-2-4.51-.31,3.4,1.22,1.49-1.41,2.41a2.77,2.77,0,0,1,1.69-2.27c-2.14,1.34-2.91.56-2.33-2.35-5.91-.15,4.68.84-.49-1.65a15.63,15.63,0,0,0-4.09,3.9c-1-3.33-3.07-.89-3.12-3.64a3.44,3.44,0,0,1-2.38,3.2A3.13,3.13,0,0,1,103,69.59c-9.28,2.32.1-2.76-3.28-3.28,0,.8-2.47,4.19-2.15,3.69-2.57-.28-6.75,2.1-8.5,2.32,3.44-.45.15,8.31.12,8.19a1.2,1.2,0,0,0,.61-.43c-.49.8-.23,1.12.77,1,0-.1-1.7,1.5-1.74.92.1,1.49,2.52,1.06-.07,2.1q1.07-1.65,2.34,2.78c-1.3,0-3.26.23-3.38,2.12,0-.52,4.6,6.49,4.7,6.52-2.76-.47-6.69,2.13-3.32,4.67,1.74-2.46,3.17-1.36,5-1.66.2,3.63-3.53.73.24,6,0-4.28,3.2-2.61,5.42-2.59a4.84,4.84,0,0,1-2.51.72c2.24,1.22,2.53,2.38.87,3.5-2.14-.87-1-2.72-2.77-.14-1.79-1.75-1-2-3-2-1.45-1.53-1.11-2.79-.94-4-.59.43-1.22.63-1.62.93-.63-.51-5.09-3-6.31-2.79,3.93,1.81-1.54,3.22-1.87,3.38.62,1.49,1.84,4.75.76,4,.89-.11,0,.28-.17-.4-.32,2.25-.38,2.81-.18,1.66-.72-.26-2.39,2.6-2.53.08a8.73,8.73,0,0,1-4.24-1.37q1.36-1.94,2.58-4-3,3.75-4.78,1.34c1.14-1.39,8.47-3.68,7.09-6.23.65-.56-5.1-2-5.12-2-3.94-5.33-1.74.28-2-6.44-.13-4.37,3.9-6.73,2.35-12.6-3.16,1.63-1.07,4.47-3.08,5.94-1.2-2.24-1.76-9.89.81-9.93-.89-.44.17.18.14-.06a1.71,1.71,0,0,0-1.59-1.15c.65,0,.75.2.32.67,1.39-.57-2.92-8.76-3.4-9.42A4.43,4.43,0,0,1,67,65c-.16.09-.15-5.25-2-4.46C65,61,66.59,63.39,66.49,64a15.76,15.76,0,0,0-1.68.09c.65.54.54,4-1,2.86C70,59.87,57.1,61.38,58,62a9,9,0,0,0,3.49.88c-.29-1.49-5.75,2.14-6.48,3.3-.07-.28-2.12-4.39-3.12-4.4-1.54,0-.63,2.45-.62,2.92.58,1.31-4.92-2.21-4.55-2.52-2.19,1.77-.45,12.63-1.5,13a14.34,14.34,0,0,0-1.41-6.18q1.24,3-.84,4.3.31-2.53-1.58-.6s1.08,3,1.66,2.49c-6.42-5.47-.93,3.42-1.55,4.43-.59-.79-1.49-3.36-3.37-2.64,0,0,.28,2.21-.11,2.89,1.66,0,3.23-1.93,2.26,2-1.9-.26-1.65-2-3.86-2.32.27-.19.22-.09-.16.32,3.18-5,.19-11.88,2.19-14.86,1.17.54,5.13-4.17,5.59,1.58,2-1.53-.82-6-.8-7.82,0-.58,8.16-3.71-.52-1.1.7-.38.62-.21-.25.52,9-.34-8.2-2.84-4.67-.59A3.59,3.59,0,0,1,40,54c-2.27.91-.81-5.15.52-7.58C34,54.1,30.35,65.2,25.09,72.39L24,71.49c-1,1.53.23,7.69-.83,8.75a1.67,1.67,0,0,1-1.73-1.36c.07-.36,2.47-1.39,1.59-.28l-1.1-1.39c-.05-.31-1,7.94.35,7.48-.14-.48-.29-1-.44-1.45.87,2,1.9,1.58,3.09-1.28.82-.49-.05,6.18.31,5.83-1.57-2.1,1.73,1.87.47,4-2.31.69-2.33-6.7-3.13-3.46a36.74,36.74,0,0,1-2.19-5.07q.93,3-1.3,1.45c.06.28-.36,9.94-.25,9.94a7.76,7.76,0,0,1,.26-1.59c.36-.09-3.18,11.79-2.75,12.6-.5-1,1.46,3.46,1.1,3.1-.18-1.89.22.33-.62-.88-2.48,2,8.63,25.43,8.38,26.56,1,0,.5-.19,1.4-1.47,3.27,5.25,1.26,4.08-.59,4l1.53.53a1.34,1.34,0,0,0-1.2,1.1c-.46.09,10.12,8.81,10.23,9.07a17.11,17.11,0,0,1-2.34-3.48c1.39-.64,2.56,2.94,3.56,3.42-1.09,0-1.1-.46,0-1.4.69,1.46-2,4.91,0,5.87.92-2.07,2.48.91,4.19,2.19-.2-1.07-1.09-5.65-1.4-6.45,4.07,1.46,5.16,1.25,9.11,5.22-3.8-3.81-.07,7.29,0,7.56,2.17,4.76,4.57,6.46,8.48,8.73-1.79-2.38,1.83.47,3.8.6a12.31,12.31,0,0,1,.54-4.9c-.08.37,3.62-2,1.84-3.38a18.59,18.59,0,0,0-2.38.82c-1.63-1.82-1.18-2.83,1.38-3-.12-1-9.07,1.12-7.06-2.74.54-1,4.5-2.64,5.63-1.83.11-2.78-3,.07.21-1.38-.6-2.1-4.13-3.09-.69-1.57a6,6,0,0,1,.15-3c2.73.7,5.09,5.65,2.89,7.22,1.55-1.11,4.63.18,5.79,1.7a3.19,3.19,0,0,1-2,2.14c-2.14-2.36-.15-1.07-.94-2.82,2.91,1.67,2.17,5.13,5.14,6.49.59.27,13,.54,14.58-1.3-1.9.87,1.28-4.9,1-4.54a4.07,4.07,0,0,0-2.69,1.54c1.41,1.66-.76-11.74-.19-9.51a60.76,60.76,0,0,1-6.48-1.62,19.24,19.24,0,0,0,4-1.37c.44-1.56-2.07-.84-2.7-1.57.85-.6-4.92-9.39-7.47-8.37-.63,1.46-.3,2.42,1,2.89-1.94,4.86.41,4.56,1,9.5-.49-4.51-14.69-6.64-14-12,5.16-.88,2.79-5.92-.85-8.29a5.92,5.92,0,0,0,1.88,2.41c-2.6,1.28-1-1.62-3.52-1,.29,6.07,2.49,1-.69,1.35-.6.89-.37,1.6.7,2.13-3,1.87-13.23-8.83-9-6.51A2.12,2.12,0,0,0,46.73,126a3,3,0,0,1,2.55-1.9c-.35-3.47-3.79,1-4,1.81.55-.59-4.55.51-4.25.73-.49-1.25-.05-2,1.33-2.35-.93-.4-4.53.11-5.22-.81a11.89,11.89,0,0,0,2.56-2.4c-1.92,1.19-3.25.89-4-.92,3.36-1.33-.5.35-.1-1.07a2.72,2.72,0,0,0,2.87,0A16.91,16.91,0,0,1,37,114.2a11.73,11.73,0,0,0,2.9,1.83,12.13,12.13,0,0,0,1.19-3.92c1.78,3.15,1.45,7.12,4,9.2.85.7,8.09,1.27,7.8-.65.16.34-5-.65-5.17-.66.14-.07,2.06-1,2.1-1.06.62-1.64-3.3-.66-3.57-.7-.09-3.29,2.23-.48.91-4.47-.55-1.67-1.5-2.14-3-5,3.3,3.82.7-3.86,1.91-2.83-.71-1.69,2.84,1.15,3.34,2a15.64,15.64,0,0,0,2.66-3.5c0,1.34-.08,1.27-.36-.24-.13,0,3,1.61,2.32.57.09-4-3.51,3.75-1.61-3.15q-.27,1.86-.09-.39c.17.51,5.33,5.43,6.47,4.39,0,0-1.4-6-3.31-4.14a6.75,6.75,0,0,1,2.72-4c.4,4.35,2,7.84,1.89,12,.74.67,3.16-4.56.9-5.1a6.29,6.29,0,0,0,.32,2.11,14.2,14.2,0,0,0-2.26,0,9.24,9.24,0,0,1,1.55-5,3.37,3.37,0,0,0,1,2.83c-.15-2,.08-4-.16-6a6,6,0,0,1,.72,4.53c3.62-2,.44,4.08,1.57,3.47-.19-1.94,3.67-2.55,1.63-4.83.85.61,1.3.31,1.33-.9,0,.2.25,7.64,3.23,4.71a24,24,0,0,1,1.14-5.74c-1,.31-.68,5.62-.41,5.55-1.22,2.35.68.08-.08,2.68a15.48,15.48,0,0,1-3.11-1.08c1.07,2.1,6,2.84,4.9.3-.16,0,2.7,1.49-.6,2.87.7.35.6,4.8.6,5.64-4.27,1.26,1.77,5-2.28,6.57a6.43,6.43,0,0,1,1.66,1.63c-1,.27-1.94.56-2.89.88-.47-1.12-1.49-2.7-.11-.8a2.5,2.5,0,0,1-2.12-1.06c.87-.92,1.22-2.11,3.49-2.83-.1-.26-4.12-4.26-4.56-4.31,1.12,2.67-1.31,2.32-2.77,1.09-2.81,2.32,3.07,4.72,1.53,5.49.82.63-3-4.07-1.11,1,1.17-.92.58-1.19-1.75-.81.48,3.12,3.79,3.27,5.08,3.61.71,1-.36,2.88,2.16,4.3.34-2.55,1.63-1.95,3.18-.65-.27.9,1.14-6.93,2.46-.78,1-.58,3.5-3.61,3.69-4.92a8.79,8.79,0,0,0,2.8,2.19c-.85-.19,1.28-2.28,2.06-4.08-2.54,5.84-8.17-8.88-3.42-5.32,1.21-2.33-3.37-1.36-3.43-1.35-.7-1.33,2.33-1.22.21-1.54,1.18,1.16,5.36-2.48,5.49-3.58a6.81,6.81,0,0,1,2.32,3.14A11.71,11.71,0,0,0,83.5,109c.14,0,13.12,4.92,12.43,2.82,5,3.54,4.73-20.51,1.65-12.49a11.6,11.6,0,0,0-.45-3.21c2.55,1.07,5.36,1.17,7.32,1.57q-.81,2.44,1.32,2.52c3-3,2-3.21,5.82-1.76a4.14,4.14,0,0,0-1.2,2.89c-.35-1.34-2-2.38-3.19-1.7,2.58,5.82-2.12,1-2.86,5.26,1.52.24,5.63,7.95,5.4,8.14-2,.91-1.61,3.34-1.15,6.27,4.79-4.21,5.44,4.94,11.08,5.23,2.26.12.08-6.18,2.44-1.9a8.28,8.28,0,0,1-.24-3.5c.3,1.81-.27,6.43,2.66,6.61,3.68.22-1-8.11,2.5-4.17,2.86-1.93-2.13-5.73,2.84-8.66,1.45-.86,7.52,0,8.93,1.83a4.94,4.94,0,0,1-1.26-3.54c.46,4,1.73-.32,1.66-.22.22,1.16,3,9.83,3.3,10.48,2.05,4.69,1.26-.65,4.18,3.23a22.32,22.32,0,0,0-1.14,4.57c3-.12-1.07-6.43,4.16.41,1.81-1.76-.27-3.6.39-5.65a2.51,2.51,0,0,0,1.77,3.06,30.42,30.42,0,0,1,2-6c-.21-.07,2.61,3.68,2.88-.25a14.22,14.22,0,0,0-2.22-3s8.77-10.3,7.67-13.3c-.11,0-1.37-5.72-1.78-7.49C160.37,97.11,160.72,98.2,160.46,97.09ZM89.93,80.47c.12-.2,1.24.39,0,0C90,80.45,90,80.48,89.93,80.47Zm6.31,27.76c-.66-.27,1.58-.7,0,0Zm.51-10.79c0,.27,1.07-.19,0,0C96.75,97.4,96.82,97.43,96.75,97.44Zm12.54,18.36a2.67,2.67,0,0,1,.42-.15A1.4,1.4,0,0,1,109.29,115.8Z"/></g></g></g></g></g></g></svg>