<svg xmlns="http://www.w3.org/2000/svg" xmlns:xlink="http://www.w3.org/1999/xlink" viewBox="0 0 132 129"><defs><style>.cls-1{fill:url(#radial-gradient);}.cls-2{fill:none;}.cls-3{isolation:isolate;}.cls-4{opacity:0.68;fill:url(#Degradado_sin_nombre_52);}.cls-5{opacity:0.4;}.cls-11,.cls-5{mix-blend-mode:multiply;}.cls-6{clip-path:url(#clip-path);}.cls-7{mask:url(#mask);}.cls-8{fill:url(#radial-gradient-2);}.cls-9{mix-blend-mode:overlay;}.cls-10{fill:url(#radial-gradient-3);}.cls-11{opacity:0.72;}.cls-12{fill:#ddd;}</style><radialGradient id="radial-gradient" cx="4866.45" cy="-5545.63" r="120.27" gradientTransform="matrix(0.4, -0.92, 0.92, 0.4, 3261.04, 6660.03)" gradientUnits="userSpaceOnUse"><stop offset="0.65" stop-color="#fff"/><stop offset="0.67" stop-color="#f1f1f1"/><stop offset="0.71" stop-color="#cdcdcd"/><stop offset="0.76" stop-color="#929292"/><stop offset="0.82" stop-color="#424242"/><stop offset="0.87"/></radialGradient><radialGradient id="Degradado_sin_nombre_52" cx="41.52" cy="44.31" r="54.53" gradientUnits="userSpaceOnUse"><stop offset="0" stop-color="#d7ca9b"/><stop offset="0.66" stop-color="#b08f75"/><stop offset="1" stop-color="#b0896a"/></radialGradient><clipPath id="clip-path"><path class="cls-2" d="M113.25,41.14A50.65,50.65,0,1,1,45.56,17.69,50.65,50.65,0,0,1,113.25,41.14Z"/></clipPath><mask id="mask" x="-23.02" y="-125.62" width="240.59" height="240.59" maskUnits="userSpaceOnUse"><path class="cls-1" d="M205.46-57.85a120.26,120.26,0,0,1-55.67,160.72A120.26,120.26,0,0,1-10.92,47.2,120.26,120.26,0,0,1,44.75-113.51,120.26,120.26,0,0,1,205.46-57.85Z"/></mask><radialGradient id="radial-gradient-2" cx="-3262.62" cy="-4400.8" r="76.52" gradientTransform="matrix(0.9, -0.44, 0.44, 0.9, 4890.23, 2584.57)" gradientUnits="userSpaceOnUse"><stop offset="0.07" stop-color="#fff"/><stop offset="0.37" stop-color="#fdfdfd"/><stop offset="0.53" stop-color="#f5f5f5"/><stop offset="0.66" stop-color="#e7e7e7"/><stop offset="0.77" stop-color="#d4d4d4"/><stop offset="0.87" stop-color="#bbb"/><stop offset="0.94" stop-color="#a3a3a3"/></radialGradient><radialGradient id="radial-gradient-3" cx="-3237.16" cy="-4374.56" r="50.66" gradientTransform="matrix(0.9, -0.44, 0.44, 0.9, 4890.23, 2584.57)" gradientUnits="userSpaceOnUse"><stop offset="0.9" stop-color="gray"/><stop offset="1" stop-color="#c4c4c3"/></radialGradient></defs><title>planet separados</title><g class="cls-3"><g id="Capa_2" data-name="Capa 2"><circle class="cls-4" cx="67.5" cy="63.37" r="50.85"/><g class="cls-5"><g class="cls-6"><g class="cls-7"><path class="cls-8" d="M113.25,41.14A50.65,50.65,0,1,1,45.56,17.69,50.65,50.65,0,0,1,113.25,41.14Z"/><g class="cls-9"><path class="cls-10" d="M113.25,41.14A50.65,50.65,0,1,1,45.56,17.69,50.65,50.65,0,0,1,113.25,41.14Z"/></g><g class="cls-11"><path class="cls-12" d="M68,14.31c-.1-.07-.54,0-.66-.06,0,0,.29-.63.4-.61-.15,0-.21.26-.31.27-.56-.13-1.41-.47-1.35.08-.74-.25.06.39-1.82.56,0,.15-2-.32-3.57,0-.7.08-.92.45-1.35.73.55.86,1.35.64,2.22.69.06.95.37,1.46,1.44,1.34,0-.2.3-.23.31-.36a7,7,0,0,0,1.42,1.09c0-1.16,1.07-.41,1.94-.57.5-.09.82-1.05,1.23-1.15s1,.49,1.46.39a10.38,10.38,0,0,1,2.76-.34,17.59,17.59,0,0,0,3,0c-.28-.87-2.31-1.36-3.89-1.57,0,0,.11-.64.14-.66s-.2.69-.26.7-.38-.09-.55-.1.33-.89.43-1c-.28,0-1,.61-1.44.61,0-.07,0-.23,0-.31C69.22,13.54,68.53,14,68,14.31Z"/><path class="cls-12" d="M59.66,16.91s0,.09,0,.08.27.12.33.1c.45-.14,1.09.58,1.3-.29a13.48,13.48,0,0,0-3.23.13s0-.56,0-.56-.12.31-.18.31a5.58,5.58,0,0,0-2.19.52A7.68,7.68,0,0,1,55.43,16c.16,0,.4,0,.58,0,0-.12.27-.09.17-.13a2.05,2.05,0,0,0-.16-.55c-.35.05-.64,1-1,1.17,0-.1,0-1.12,0-1.18-.29.05-1,.82-1.76,1.13a1.43,1.43,0,0,0-.22.08,1.78,1.78,0,0,0-.31.23,3.47,3.47,0,0,0-1.5,1l-.48-.08c-.05,0-.12,0-.16.06s-.35-.45-.35-.45,0,.35-.06.49c.95-.14,1.19.78-.05,1.35.51.05.49-.07.82-.06,0,0,.52-.41.56-.36s-.43-.07-.44-.05c-.62,0-1.17,0-1.41.29-.24.11.22,1,.18,1.13-.34.26-.62.29-.4.31,0,0-.31-.5-.34-.47-.28.2-.25.94-.5,1.12-.49.36-2.38,2-2.42,2.5a8.94,8.94,0,0,0,2.26-1,9.47,9.47,0,0,0,1.77-1.47c.64-.6,2-2.52,2.89-1.16.64-.29,1.3,0,1-.88.87-.15,2.31-.06,2.51-1,.9.16.9-.49,1.53-.87.27,0,.74.45.86.41s.55.06.76-.06S59.61,16.92,59.66,16.91Z"/><path class="cls-12" d="M56.8,33.43c1.14.69.92,1,2.42.31,1.27-.55,1.07-1.21,1.7-2.21.52-.81,1.77-1,1.57-2.21s-1.14-.52-1.77-.75c0-.12.6-.28.56-.4.19-.08.35-.8.51-.87-.23-.1-.59-.34-.81-.46-.16-.34-1.31-.47-1.51-.76.38-.27,1.05-.18,1.52-.23-.37-1-.74-.91-1.5-.93a3.25,3.25,0,0,0,.07-.45,1.87,1.87,0,0,0-.52.15c-.09,0,.22,0,.14,0s-.23.08-.34,0c-.24-.3-.41-.76-1.16-.61-.33.06-.46.8-.74,1-.92-.22-.35-1.67-1.36-1.34-2.73.5-.91,2.6-.49,3-1.84-.33-3.49-.34-4.27,1.06-.43.28-.51.92-.8,1.61s-1.66,2.53-1.37,3.31c1-.06.88-1.17,1.43-1.72,0,0,.49.81.49.81l-.06-.32c.08-.06.21,0,.3-.09.35-.18.43-.55.55-1.05.1-.09.24-.56.34-.64.76,0,2.18.49,2.24-.28.55-.19.25-.14.92,0,0,.39-1.34,1-1.39,1s-.21.35.28.85c-.23.08.13.08.06.14s-.33-.12-.49-.13A2,2,0,0,0,52,31.22a7.9,7.9,0,0,0-1,.05c.08.27.75.8.51.89,0,.07-.12-.27-.08-.22-.24.45-.37.74.14,1,.68.37,1.94-1.53,2.73-1,.05.09-.28.51-.22.59-.15.34-1.15.25-.88.94a22,22,0,0,0,1.6,1.8A1.84,1.84,0,0,0,56.8,33.43Z"/><path class="cls-12" d="M65,22.35a1,1,0,0,1,0,.23c.54,0,1-.48,1.46-.59,0,0,0,.36,0,.37a11.19,11.19,0,0,1,1.34.35s.3-.48.31-.47c1.11.86-.2,1-.8,1.83.73.56,1.18-.28,1.89-.28.53,0,1.17.19,1.77.21a7.23,7.23,0,0,1,0,.91c-1.61.41-1.9,0-1.72.46,0,.42-.79.71-.55,1A1.28,1.28,0,0,0,68.06,28c-.81,1.54-.79,4.22.2,3.74a2.06,2.06,0,0,1-.62.69c-.08-.13-.13-.26-.22-.31s-.2-.76-.66-.5c.07,0,.74.6.79.63-.37.4-1,1.41,0,1.66a5.85,5.85,0,0,1,2.17-.73c.54,0,1-.33,1.39-.18.08.06.61,0,.67,0s-.44.35-.28.32c0,0-.12.43-.11.46-.28-.09-.46-.43-.74-.4-.61-.15-1-.43-.43.55a2,2,0,0,0,2.51.5c.07,0-.32.33-.26.36a2,2,0,0,0,1.26.51s-.34-.87-.3-.85c-.21.17.12.94-.07,1.07a5.09,5.09,0,0,1-.82.57c-1.4,0-3.46-1.81-4.49-2,.26.88.4,1-.07.76,0,.08,1.14,2.81,1.36,3.14-.11-.15-.19-.66-.54-.79a1.7,1.7,0,0,0-.6-.35s-.22,1-.21,1a14.43,14.43,0,0,0-1.45-.3c.14-.09.27-.76.29-.82.18-.5-.33-.57-.18-1.14-.34,0-.5-.1-.69,0s-.29.26-.61.64c-.15-.92,1.38-.15-.36-1.17-.09-.07-.08-.35-.18-.38s0-.29-.09-.31l-.16.59c-.47-.11-.7.31-1.35.54.07.43.64.67,1,1a7.11,7.11,0,0,1-1.32.77,2.3,2.3,0,0,1-1.11.4c-.07.67.33,1.52,1,1.54,0,0-.39-.5-.4-.46a1.41,1.41,0,0,1-.86.5,2.9,2.9,0,0,0-1.22.42s.11-.39.13-.37c-.45,0-.9.62-1.49.56,0,1,1,.74,1,.84-.92.63-.3,2-.41,2.16,0-.07,1.22,0,1.55-.14-1.57,1,.86,1.63,1.27,1.6-.32.43-1,.67-.11.73-1,1.09-.61,1.72-.92,2.46,0-.11-.13.08-.12,0-.8-.27-1.9-.49-1.05.73-.2.2-.13,0-.32,0,0-.16-.45,0-.7,0-.11-1.1-1.59-.17-2.3,0a4.5,4.5,0,0,0,.6,1c-.55,0-1.17-.55-1.7-.51-.18.81-1.3-.25-1.88-.14-.88.16-.92,1-1.56,1.7a3,3,0,0,1-.54-1.3c-1-.11-.6.48-.91,1s-1.33.76-1.4,1.44c.21,0,1.17-.13,1.39-.12,0,.07,0,.13-.12.15.21.21.12.65.2.92-.51.14-1.14-.67-1.38-1.13a1.08,1.08,0,0,0,.32,1.26,3.67,3.67,0,0,1-1.83.17c0,.61,1.84.38.4,1.22-3-2.4-.75.29.91,1.75-.46.12-1.08.22-1.57.3a3.51,3.51,0,0,0,.39,1.14c-.21,0-.94.47-1.15.47.43.35,2.61.76,2,1.58s-1.55-.51-2.19-.75c.17.78-.41,1.54-.44,2.11-.67-.16-1.54-.78-1.67-.09,1.14,0,1.5,1,2.38,1.7,0,0-.15-.28-.12-.25-.05.35.3.73-.16,1.13.25.15.27.87,1,1.29.05.52.76.53.86.74.3.61,1.15.25.64,1.29-.24.5-1.13.24-1.06,1,.14,1.37,2.76-1.45,3.46-1.37.16.53.92,1.64,1.66,1.47,0,0-.15-.28-.1-.22S53,67.05,53,67s.47.18.49.16.05-.59.13-.63c.3.15.56,1.07.66,1.1-.84.07.38,0,.38,0-.37-.15.13-.34.52-.77.14.54.55,1.51.23.83a3,3,0,0,1,1.84-1.39c0,.06-.08,1.09-.08,1.14.87.08.5,1,1.34,1.06s.94-1.28,1-1.85c1.43.19,2.67.42,3.15-1-.19.95.94,1.78,1.07,3.08.94.06,1,.15,1.79-.86-1.47-1.13-1.42-1.62-1.08-2.51,0,.06,0-.14.06-.07.49-.12.14-.14.08-.62l1-.22c.32.26.35.76.41,1.19a4.16,4.16,0,0,0,2.3-1c-.64,0-1.33-.38-1.13-1a1.15,1.15,0,0,1-1.36-.37c.14-.75,1-1.28,1-2.16.9-.13-.81,3.39,1.91.46.17.49.42.42.7.67-.06.14-.41.24-.51.36-.67.06-.9.33-.59,1,.48-.11.63.16,1,.42-.16.15-.59-.06-.74.17-.34.26-.52.61-.86.91-.1,0,0,.31-.12.33s.42.39.42.46-.56-.2-.66-.11c-.45-.1-.7.32-.74.75-.14-.3-.47.18-.34.33,0,0,.16,0,.11.06-.41-.06-.48-.44-.88-.51.17.25-.46.9-.21,1.08.1.15.66-.17.75,0-.62.75-1.25,1.35-1.17,1.81-.17,0,.37.15.2.15.07.91-1,1.15-.89,2,.23-.47.27-.57.87-.54,0,.12-.22-.06-.19.07.28-.35.76,0,1.07-.13l.75.51c-.29.36-.62.92-.42,1.35.36-.14.89-.11,1-.25,0,0-.28-.11-.26-.15.16.19.61.09.9.24,0,.16.18-.8.53-.78,0,.29.72.65,1,.37-.08.11-.57,0-.72.18,0,0,.19-.25.18-.27s-.44,0-.36.09c.06,0,.22.17.28.15a.77.77,0,0,1-.35.12.91.91,0,0,0,1.31.21c.18.16-.3-.2-.27-.06s.13,0,.1.06.44.44.34.49.25,0,.28.1a10.87,10.87,0,0,0-.37,1.22c-.21-.07-.79-.24-.35-.25,0,.1-.26.23-.27.34-.19.13.21.65-.07.68,0,.42,0,.62.1,1a8.27,8.27,0,0,0-.7.61c-.85-.21-1.54-1.6-2.43-1.73a15.89,15.89,0,0,0,1.12,2.73s-.35.34-.37.34c-.25-.22-.12-1.11-.57-1.4,0-.13-.25,0-.33-.08-.1-.37-.17-.59-.81-.75,1.14-.72-.16-1.09-.62-1.57s-.31-1.41-1.43-.85c.17.21.2.6.46.8-.45.12-.51,0-.93.17-.34-.85-1.51.07-1.25.89.39,1.2.77.32.29,1.91-.25.81-.22,1.8-1.18,2-1.23.29-.85-.85-1.47-1.61-1.52.79-1.26-.13-2.23-1-.17-.16-.63-.22-.85-.38a4.44,4.44,0,0,0-.8-.53c-.61-.31-.59.12-.66.76l-.85.07c-.25-.68-.91-.59-1.11,0a4,4,0,0,1-1.62-.36c-.55-.2-.34-.38-1-.22A2.4,2.4,0,0,0,52,77.51a12.64,12.64,0,0,1,1.5.69c-.34.17-.77,0-.71.35-.42-.37-.83-.06-1.3.07-.08-.06-.83-1.15-.83-1s-.84.87-.82.88c-1,.3-.1.61-.28.65-.05-.18-1.34.15-1.94-.31a6,6,0,0,0-.6-.86c0-.07.29-.39.29-.47s0,0-.06,0c-.14-.15.05.32,0,.27.18-.06-.15-.38,0-.4-.66-.18-.66.07-.64.55,0,0-.09.44-.11.44s.08-.42.12-.36.29.07.31.17c-.12-.33-.89-.32-1.34-.31-.75,0-.3.2-.19.76-.12,0-.59-.11-.71-.16-.42,1.9-2.54.85-3.71,1.68.38.22,2.39.39,2.08,1,0-.08-.24-.17-.28-.27s-.26.36-.36.59c-.78,0-2.67-.41-2.19.84.11,0,.46-.54.58-.54,0-.18.82.39.87.18.18.18.49-.54.75-.49,0,.06,0,1,0,1.07s0-.7,0-.74c.33,0,.58.49.91.53s1.48,0,.81.94A12.74,12.74,0,0,1,41.72,83c.14.35,0,.54.13.89a10,10,0,0,0-2-.41c.24.34.3.45-.31.4-.12.78,1.61,3.14,1,2.75.45,1.54,1.2-1.67,1.12-2,1.18-.19.38,2.74.19,2.82.06.12.29,0,.36.06.12.42-.16,0,.21.16,0-.06,0,.29-.06.24.32.22.9.67,1.24.91-.54.13-1,.11-1.54.21.52.3.4.32.4,1-.74.21-1.63-.2-1.67.71s1.24.42,1.81.51c.11,0-.16,0,0,0-.32.13,0,.84.24,1.56a2.25,2.25,0,0,1-.88.16c0-.11-.12.44-.18.34-.53,0-1.33.13-.84.78.27.37,1.22.26,1.37.09.19.23.52.28.88.51.37.66,1.5.74,2.61.5a23.43,23.43,0,0,0,2.88-.24,2.92,2.92,0,0,1,.32.38c-.94.57-3.42-.33-3.89.77a4.63,4.63,0,0,1,2.34.18c.79.49.27.51-.54.53.17,1.95,1.42.17,2,.23.1,0,0-.47.1-.32a2.33,2.33,0,0,0-.54,2.11,3.06,3.06,0,0,0,1.64-.67c.42.15,1.25-.62,1.63-.36a6.06,6.06,0,0,1-1.14.29c0,.08-.25,0-.3.11s.4.64.34.68-.12,0-.1,0c-.29.32-.66.55-.51,1,.26.77,1.6.25,1.43-.52.07,0-.24-.1-.27-.12.22,0,.38.6.64.77,0-.15-.26-1.22-.26-1.38a3.09,3.09,0,0,1,1.54,0s-.11.16-.12.19c-.27,0-.23.38-.47.66,0,.15-.67-.06-.62.07-.16.1-.4.41-.58.46a1.42,1.42,0,0,1,.26,1c-.08.07,0-.15-.05-.09s.3.2.25.2c-1-.71-2.49-.62-3.8-.71-.5-.33-.93,0-2.08.27-.08-.57-.21-1.73-.81-1.89-.42,1-1.68.76-2.51.37l0,.24c.3-.61-.87-.84-1-1.33a6.39,6.39,0,0,1-.13-.63c.2-.66,1.8-.23,1.11-1.11.17,0,.93-.45,1.12-.46-1-1.37-2.35.18-3.46.24s-1.35.74-1.74-.08c-.23-.46.11-2-.87-1.7-.18.72.31,1.56.48,2.2-.11.09-.07-.32-.12-.29a6.2,6.2,0,0,0,.44.45c0-2.26-3.36-.91-2,1.16.26.38,1.86,1.25,1.49,1.81-.53.79-1.79-1.09-2.13-1.46.1.26,0,.82,0,1.09-.07-.05-.43-.46-.59-.62,0,.19-.13.29-.11.49-.88.12-.75-.75-1.37-1.18S31.6,98,31,97.68a14.87,14.87,0,0,0,2.12,1.67c.62.4,1.39,0,1.94.5,1,1.07,1.61,2.42,3.06,2.79-.11.06-.08-.1-.19,0,.11.47.55.47.89.69a18.56,18.56,0,0,0,4.24,2.58c.26.24.43.71.7.93.71.56,1.3.12,1.91.35.27.13.23.88.42,1s.65-.23.83-.09l-.59.71s.24-.15.27-.12,0,.25.1.31c.57.46,3.23,1.53,3.42.43.51.21,1.24-.37,1.67.1-.07.05-.44.91-.55,1l-.34.11c-.1,0-.46-1-.57-1,.27-.14.87,0,0,.33,0,.13-.52.31-.46.35s.79-.57.75-.56c.19.16.25.42.53.53,0,.12-.19.66-.16.74.41,0,1-.28,1.48-.31a2.47,2.47,0,0,0,1.64-.21s.5-.05.44-.25l-.92.25s.74-.47.73-.49c-1.4-1.2-2.27-2.13-.75-2.08.12-.13.53.42,1.17.64a2.23,2.23,0,0,0,1.21.25c.1,0,.16-.16.25-.15s.34-.2.3-.24l-.52.62c.48.18.7-.4.4-.77a4.33,4.33,0,0,1,2.65-.06c0,.19-.65.63-1,.91a12.39,12.39,0,0,1-1.93,1.13c.3,0,.35-.22.68-.12-1.52,0-1.53,1.35-3.21,1.28.26.15.79-.13,1.22,0,0,0-.32.8-.34.83s.43-.87.53-.87c1.38.5,3.12,1.56,4,1.54,0,0-.27-.44-.25-.53s1.89-.24,1.88.23c-.74.17-.55-.35-1-.19a1.32,1.32,0,0,0,.52.7l.38-.61c1.26.81,3.72.79,5.29.85.28,0,1.41,1.19,1.63,1.08,0,0-.23-.54-.21-.55.59,0,1-.06,1.13,0-.12-.33.33-.11,1.06.14-.11.09.08-.28,0-.18s-.33-.28-.58-.23c.15,0,.3.67.43.66,0,0-.38-.08-.41-.06.43.58,1.65.39,2.13,0,.2,0,.12,0,.27,0,.61.07,1.29-.54,1.94-.55s2.2.15.83-.5c.06,0,.16-.47.28-.53s.27.13.41.14c0,0,.09.17,0,.12.19-.09.29-.19.51-.29.9,0,1.71.1,1.16-.13.12,0,.39-.06.43,0,.38,0,1-1,1.75-1.52.11,0,.46.36.58.32s.12-.31.22-.38c.47-.31.92-.13,1.4-.16.19.07.32,0,.4.25.51-.09.72-1,1.19-1.13.12,0,.37.32.49.25s.49.53.76.5c.91-.08,1.58-.9,2.47-1.43-.16,0-.34.34-.49.31,0-.35.53-.4-.26-.47-.09-.06-.55-.39-.63-.46a4.77,4.77,0,0,1,2.68-.42s-.29.34-.28.36a4.34,4.34,0,0,0,.07.52s.33-1,.36-1,0,.4.09.33.42.47.58.46c0-.07-.1-.2-.19-.21.86-.6,2.76-2.43,4.32-3.8l-.12.28c.6-.14,1.65,0,1.07-1.29-.17,0,.48.17.32.19.33-.24.2-1.39.46-1.49-.58.08-1.5,1.5-2.22,1.42-.06-.16.17-.6.18-.7s.16,0,.18,0c.41-.35,1.06-.26,1.28-.86-.06,0,.07-.23,0-.28a3,3,0,0,0,.55-.32c-.06,0,0,.45-.11.48s-.64-.41-.76-.49c.37-.16,1.09-.42,1.47-.57.06.06.29.58.33.65-.09.22-.25.12-.32.41a5.47,5.47,0,0,1,1.51-.13c0-.07.64-.17.68-.23s-.78-.17-.78-.2a8.9,8.9,0,0,0,.76-.75c.25-.25,1.16-1.28,1.47-1.67-.87.14-1.62,1.31-2.57,1.36-.08,0-.14-.09-.25-.13.19-.31-.39-.16-.31-.42-.45.11-.51-.21-.93-.06.19-.49.84-.69,1.11-1.11-.4-.38-1.09-.44-1.18-.8,1.43.77,1-3.91,2.24-1.17.25-.46,1.29-4.17,2.14-2.21.35.8-.87,1.86.66,2,.5,0,1.06-.5,1.48-.74.62-.17,1-1.14,1.71-1.49a6.32,6.32,0,0,0,3-1.86c.51-.59,1.79-.93,2.17-1.46s.07-1.31.44-1.9a5.09,5.09,0,0,1-.83.53c-.07-.19.46-.38.5-.56a.32.32,0,0,0,.06-.26,9.71,9.71,0,0,0,.71-2.11c-.5,0-1.39.77-1.69,1.12a.71.71,0,0,0-1.3-.22c-.63-.65.12-1.17.06-1.8,0-.38-.64-.65-.76-1-.1.33-.21.08-.49.37,0,.06-.77-.33-.94-.12s.62,1.3.46,1.53c-1.11,1.53-1.66.24-1.87-.94-1,.08.48,3.11-.55,4-1.84,1.6-1.77-.88-2.35-1.75-.08-.37.07-.69,0-.89s-.07-.44,0-.54c-.37,0-.29.46-.58.72,0,0-.4-.09-.41,0s.17-.74.13-.83c-.2.05-.4.73-.56.93L97.58,87c0,.11-.53,0-.56,0s0,0,0,.13,0,.06-.11.09-.66.15-.8.07c.44-.33,1-.21,1.23-.71a.89.89,0,0,0-1.2,0c-.08-.05-.58-.07-.66-.16.27-.95.75-1.33,1.88-1.93.87-.46,2.33-.86,2.28.37,1.13.37,0-.4,0-1a3.14,3.14,0,0,1,1.08-2.17c.36-.42.6-1.18,1.17-.27.11.19.77.7.63,1-.47.41-1,.32-.92.61,0,0-.88-.06-.86-.07s.52,0,.49,0c.93,0,1.12-.43,1.49-1.09.1-.14.58,0,.66-.19s-.2-.7-.08-.81.69.24.87.07c0,.07-.17,0-.18.11.16,0,.5,0,.53-.22.43-.19.42-.56.38-1,.12-.22-.14,0-.33-.13l.27.07c.29,0,.12-.79.41-.79-.39-.61-.18-1.25-.34-1.85s-.5-1.14-.57-1.73c0-.16.54-.35.56-.52.22-1.3.57-3.32-.54-4.36.23.54.18.18-.28.34-.07-.23-.19,0-.23-.05-.69.18-.55-.09-.86-.08a12.31,12.31,0,0,1-1.45-.92c-.18.38.54,1.39.92,1.75-.94.76-2.21-1.16-3.11-1.46s-2,.23-3.08.62c.12,1.33,1.3,1.8-.39,2.7.4.29,0,.43-.16.9s-.23,1-.35,1.24a11.93,11.93,0,0,0-.78-2.6c-.66-.21-.87.68-.69,1.14l-.11,0c.07.18-.27.54-.22.5s.17-.32.26-.24c-.5.16-1.09,0-1.45.27-.14.09-.07.64-.1.75-1.17.3-2.38.27-2.92,1.08,0,0,.31.66.29.63-.69,0-.8,0-.54.6,0,0,.24.44.24.45-.7.38-1.45.21-1.16,1a4.37,4.37,0,0,1,1.35.08c.08,0,.4-.67.48-.65s0,.29.09.31c.74.4.06,1,1,.64.46-.19.9.29,1.09.06.29-.07.52-.09.92-.17a1,1,0,0,0,.68,0c.11,0,0-.69.11-.81,1.68-.34,3.26-.69,1.74.09-.39-.25-.6.66-1.05,1.09-.15-.08-.32-.21-.34.24,0,0,0,.14,0,.14-.27.33-.3.92-.53,1.27,0,0-.07-.09-.07,0A8.69,8.69,0,0,1,92.25,83c-1.85-.82-1.35,4.41-4,4-.11-.81.84-2.11-.32-1.91,0,.08-.55,0-.58,0-.59-1-1.8.26-2.68,1-1.26-.74-1.08.4-1.61,1.18a3,3,0,0,0,1.28-.85c.09,0,.08-.25.26-.29.11.24.21.53.34.78a1.39,1.39,0,0,0-1,1.44c.46,0,1.16-.68,1.55-.84,0,0,.23.22.26.22-.12.33-1,.85-1,1.08.06.68,1.16.06,1.35-.39.59,1-1.07,1.35-1.49,2.08-.24.42.65,1.34.39,1.81s-1.08.57-1.34.92-.8,1.12-1.19,1.6c-.12.1-.24,0-.37.13-.41.17-.29.3-.45.11.12-.1-.09-.22-.08-.29s-.12.09-.2.12c-.12-.25.3-.56.49-.88-.21,0-.46.37-.65.44,0,.2-.32.72-.3.93-.7,0-1-1.09-1.13-1.67-1.06.07-.83,1-.67,1.68h.72c0,.07-.58.11-.55.19,0,.29.36,0,.68.45.15.2.17.39.36.46,0,.15.13-.32.51-.22,0,0-.37.79-.35.81.25.32,1,1.57.72,1.91-.79,1-1-.64-1.44-.9-.56,1.22.11,1.35-.25,2.07-.3.24-.08,1-.36,1.24-.41-.09-.8-1.67-1.45-1.68a3.7,3.7,0,0,0,.23,1.88c-.3.18-.73.64-.88.65-.55-1.59.14-1-.12-.41-.13-.09-.12,0-.23-.06,0,.17-.1.18-.08.38-.08,0-.13.16-.24.13.8-.68,0-1.07.07-1.83a10.55,10.55,0,0,1-3.1.87,7.28,7.28,0,0,0,1.2-1.81,7.47,7.47,0,0,0-2.42-.83c2-1.07,2.07-.73,4.58-1.38,1.93,1,2.19-6.1,1-5.95-.89.4.1,2.06.41,2.39a2.68,2.68,0,0,0-.92.89c-.14-.32-.2-1.07-.28-.47-.7,0,.29-1.85-1-.23.13,1.2.41.43.21,1.59-.44,0-1.43-1.67-1.41-1.65s-2.93,2.52-2.11.65c-.41-.06-2.23,2.06-2.43,2.16,2.12-1.74-1.71-1.57-2.25-1.27.1-.11.44.09.52,0s-.06-.18,0-.17-.51-.47-.52-.49a4.54,4.54,0,0,1,1.85-1.43c-.52-1.2-1.89-1.12-2.14-1.77.47-.16.59-.21.59.05l-.74.17c-.06-.18.59-.91.74-1.26-.57.1-.76,0-.34-.2-2.11-.12,1.61,2.11-2,1,1.31.16.15.11-.24.05,1-.31,2.43-1,1.37-1.46A2.25,2.25,0,0,1,68,88.74c1.08-2.77,0-.68-2-.42-.13-.38-.1-.55-.23,0,.15.2-.1.91,0,1-.71,0-1.74-.91-2.45-1.82,1.12-.07,5.47-.68,5.79-1.32a17.44,17.44,0,0,1,1.75.37c.79-.82-2.88-1.75-3.16-.68.16.16,1.24-.16,1.32-.15a9.65,9.65,0,0,0,0,1.44c-.84.16-2.41-.64-3.09-1.1.9-.88,1.45.76,1.78-.54a31.07,31.07,0,0,0-3.73,0c1-.52,2.55-.67,2.84-.36-.09-.2-.54-.52-.73-.76.12-.41,3.37.72,2.93-.16.25,0-1.4-1.07-2.39-1.74,0,0-.62.61-.6.59s.3-.54.2-.53c-.32-.25-.69-.13-.73-.34,2.88-.36.15.21,1.85.3-.24-.82.41-.31.78-.48-1.15-1,.79-1.31.37-1.77-.78-.09-2.55.53-3.11-.76,0-.12-.38-.07-.45-.09s.07.13.06,0c.38.13,3.23,1,3.48,0,.23.47.48.63.4.91.15-.2-.42-.23-.48-.5,0,0,.88-.18.93-.16s-.36.55-.35.67c.13-.08.3-.44.39-.47s.6,0,.7.07c.1.3-.67,1.64-.73,2,.44-.21,1.5-.72,1.55-1.36s-.65-.93-.74-1.55c0-.07-.61-.17-.53-.21s.76-.15.78-.32c.07,0-.08.08,0,.07s.14-.58.2-.58c.46,0,.65.85.81,1.28.08-.17.15-.89.25-1.07.06,0,.18.8.26.82.15.19,1.07,0,1.27.05-.37,1.33,1,.65,2.11-.19.07,0-.38.12-.35.12.59,2.34,3.9-.15,4.08.3-.32.37-.18.83,0,1.3a4.07,4.07,0,0,1,1-1c0,.33.45,1.58.5,1.86a2,2,0,0,1-.92,0c-.15,1-.46.62.42,0-.21.14-.09.53-.18.73-.27.08-.24.64-.53.6-.11-.11-.09-.42-.12-.26a2.87,2.87,0,0,1-.7.13c-.25-1-1.07-2.84-.88-2.15-.21.06-.33.69-.44,1-1,.43-2.17.58-2.33,1.84A2.56,2.56,0,0,1,76,83.07c-.24.86.07,1.3-.56,2a1.44,1.44,0,0,0,2.19.16c.44-.3-.37-1.55.53-1.2,0,.11.7.09.74.19s-.65-.07-.55-.11a2.3,2.3,0,0,0,0,.58c.32-.1.78.39,1.18.26,0,.09-.33-.46-.35-.37-.1.63-.35.88-.19,1.46,1.21-.14.89-1.53,2.17-1.68-.24-.51.24-.47.55-.79.12,0-.38-.62-.36-.68s.79.6.87.54a1.24,1.24,0,0,0,.45-.58s-.33-.64-.31-.66c.63-.16,1.44-.13,1.71-.59-.32,0-.68.25-1,.25,0,0-.15-.73-.15-.76.34-.32.56-.49.54-1-.07-.06-.14-.26-.23-.28.14-.14.41-.11.54-.26-.49-.17-1.19.2-1.64.39a1.58,1.58,0,0,1,1.2-2c-.13-.26-.42-.28-.71-.39-.18.2-.21-.16-.36,0,0-1.4-.82-1.82-1.94-2,.26-.14,2.67-2.64.61-1.81,0,.18.45-.09.54.07a2.84,2.84,0,0,1-.65-.33c0-.06-.18,0-.26-.06-.79-.62-2-2-2.06-.21,0,.21.48.45.56.59a11,11,0,0,1-.51,1.82c0-.27-.34-.63-.33.05-.06.07,0,.14-.13.19-.74,0-.66-.62-.55-.91a13.23,13.23,0,0,0-1.29.57c-.19,0-.59,0-.74-.06a2.06,2.06,0,0,1,.34-1c-.35-.2-.48.28-.73.09-.74.11-.26,1.24-.18,2.07,0,0-.55-.53-.59-.53a4.26,4.26,0,0,1-.5-.06,3,3,0,0,0,.14.42c.1-.1-.35-.6-.18-.68-.1,0,.28.2.2.18.23-.43,0-.63-.45-1.11-.16,0,.12-.4-.1-.38.06-.25-.47-.27-.39-.58.38-1.4.13-.79-1.21-1,.06-.63,1.45-1,2-1.42-.48-.31-2.09.09-2.83.17,0-.08,0-.16.08-.25.21-.29.13-.83.18-1.16a13.71,13.71,0,0,1,2.45-2.53,4.66,4.66,0,0,1-.72-1.93c.24,1.29.66-2.18,0-2-.15.21-.37.63-.09.65,0,.1-1.32-.84-1.36-1.17.13.09.45-.05.68,0,.16-.86-.38-1-.82-1,.37-.07.56-.1.43-1-1.77.19-2.8-1.57-4.6-1.43.06.38-.48.8-.84.74.33-1.39-.65-1.09-1.48-.27,0,0,.06.17,0,.23-.37.42-1.14,1-.9,1.55,0,0-.19-.06-.16,0a3.89,3.89,0,0,0,.32.92l1-.61c-.21-.27-.81.06-.84,0s-.89-.06-1.17.16a11.27,11.27,0,0,0,1.42-4.44c0-.12-.33-.09-.31-.19.34,0,1.09.12,1.35-.05.91-.62-.15-1-.26-1.1-.22-.3-1-.28-1.14-.61,0-.06.1-.11,0-.33l-.12,0c-.1-.37.28-.86.19-1.27a1.83,1.83,0,0,1,0-.55c.17.44.35,0,.58-.57,0,.63,1.16.44,1.79.83-.11,0-.52.49-.56.51-.6-.16-1,.6-.56,1.48.38-.16,1.37-.12,2-.57.88.46-.23,1.1-.21,1.13.37-.16,1.42,1.37,1.46,1.38a6.63,6.63,0,0,1,1.68-2c.48.79,3.7-1,3.51-1.25.27.68.23.23.29,1.15,1-.08.25-.62,1-.14,0,.17.54-.44.71-.37a4.69,4.69,0,0,0,1.84.22c-.33-.41-1.27-.86-1.57-1.35.91-.32,1.28-.25,1.63-1,.59-.22,1.16-.56,1-.55.06-.29-.34-.74-.32-1,.49-.07.73.18.94-.59.15-.56-.29-1.28.6-1.72,0-.1.09.05.14,0,1.3-.26,1.39-1.21.1-1.25-.22,0-.77-.78-1.2-.53a5.64,5.64,0,0,1,1-.52c-.59,0-1.72.42-2.2.08.45-.06,2.73,0,3.46-.41s1.17-2,0-2.27c-.41-.11-.94.36-1.38.53-.05,0-.3-.3-.38-.28s.1.12.1.15,0-.13-.08-.14.11-.24,0-.27-1.2.08-1.25-.28c.15-.11,1-.16,1.16-.26-.43-.71-1.46-.64-2-.45-.14.05-.13.4-.34.48a20.74,20.74,0,0,0-3-1.31c-1.56-1.24,2.76-3.26-.26-4.22a15.62,15.62,0,0,1,1.53-2.15c-1.31-.19-1.17,1.65-2.24.73.39,0,.66-.4.85-.76a5.56,5.56,0,0,1-1-.17c-.07-.11.15,0,0-.14.14,0,0,.36.27.36s.56-.38.56-.52c.74,0,1.13-.11,1.28-.5.07-.19.33-.49.24-.69,1.46-.34,2.8-.57,4-.73.16,0,.26.35.46.41.61.19,2.17,1.05,1.83-.07-.06-.2.12-.39-.11-.5-.13-.92-.47-1.78.14-2.22.81-.07,2,1.1,2.84.82,0-.48-1-.54-1.36-.58,0,0,0-.67,0-.7a20.69,20.69,0,0,0,1.71-1.36c-.49-.55-1.59-.78-2-.4a7.66,7.66,0,0,1-1.56,0c.57-.17,2.29,0,2-1.06A19,19,0,0,1,79.86,27c.06-.17.34.15.42,0a2.79,2.79,0,0,0,.25-.72.8.8,0,0,0-.77-1.16c-.54-.06-1.24,1.05-1.91,1.35-.55-.32-.77-.8-1-1,.46-.25.92-.25,1.22-.66a6.27,6.27,0,0,1-.86-.43c-.29-.35-.44-1.2-1.07-1.42,0-.12-.24.16-.19.19a1.33,1.33,0,0,0-1.64.24c-.59-.09-1.32-.67-2-.69-.17,0-.22.17-.37.11a3.37,3.37,0,0,1-.22-.35c-.1,0,.33-.09.23-.09a.74.74,0,0,0-.58.06c-.22,0-.27.36-.48.37a1.45,1.45,0,0,1-.35-.35c.4-.66-.4-1.33-.87-1.17,0-.1.26.19.31.17-.3-.17-1.08.12-1.76.15C67.36,21.3,65.67,22.21,65,22.35ZM53.24,66.91l-.12-.06s.25-.29.26-.3S53.24,66.89,53.24,66.91ZM70.7,63.49l-.08,0-.2-.26ZM64,62.93h-.16c0-.08.38-.36.41-.36S64,62.89,64,62.93Zm11.71-7.59a1.43,1.43,0,0,1-.09-.27A.78.78,0,0,1,75.68,55.34Z"/></g><g class="cls-11"><path class="cls-12" d="M89.09,19.4c-.47-.66-5.77-2.77-8.42-2.26.82,4,10,6.17,14.29,6.75.05-.85-3.74-3.11-2.7-3.4-.24.63-.56.71-1,.25a3.25,3.25,0,0,1,.77-.8,8.92,8.92,0,0,0-3-.54C89,19.3,89.68,19.27,89.09,19.4Z"/><path class="cls-12" d="M80.37,18.72c0,.43,1.19,1,1.56.5-2.8-1.84-2.58-1.21-5.4-1.7.32-.83,1.14-.95,1-1.55a7.63,7.63,0,0,0-1.32.72c.13-.36.27-.72.41-1.08-2.26-.51-3.4,1.48-5.17.08-1.61.34.84,2.24.67,1.75-1.11.82-5.43-.15-6.71,2.46,4.41.82,11.69-1.43,14.94-1.18C80.37,18.7,80.31,18.72,80.37,18.72Z"/><path class="cls-12" d="M71.74,32.74c1.89,2.41,8.27-.48,5.41-3A2,2,0,0,0,78.6,29a14.91,14.91,0,0,1-1.71-2c4.24-1-6.33-5.05-4.31-1-1.92-1.17-8.13-.25-8.15,3.11A2.56,2.56,0,0,0,66.38,28c.06.3.11.61.17.91.68-1.63,3.47-1.55,4.83-.57.36-.67-2.89,1.8-1.68,1.42-.86-.33-1.65-.84-2.55-1.14,0,.05.19,2.05-.07,1.74a14.1,14.1,0,0,1,2.9.09c0,.41-2.54.84-1.38,1.55.35.21,2.29,4.07,3.14.7C72.56,33.78,71.52,33.63,71.74,32.74Z"/><path class="cls-12" d="M83.35,25.62c0-.09,3,1.07,3,1.05.18,1-.28,1.43-1.39,1.39.63,1,4.42-.17,3.14,2.11-4.29-.56-3.59,4.76-5.87,5.57,0-.23-.09-1.11-.53-1.05,1.18,1.23-1.21,1.56-.14,2.35-.23.06,4.09,0,4.25.76a.92.92,0,0,0-.64.57,2.72,2.72,0,0,0-1.1-1s2.27,3.11,2.73,3.24c0-.29,0-.59,0-.88-2.9,1-1.6-.35-4.88-2.27.2.77.08,1-.34.66,0,1.12,0,2.24.13,3.36A1.89,1.89,0,0,0,81.07,40c-.55,1.2-.59.77-1.82.08a2,2,0,0,0,.81-1.75,1,1,0,0,0-1.43.09c.09-.43.72-1.16.09-1.93-.72.8-2,2.57-3.93,1.89a1.31,1.31,0,0,0,.38,1.77c.15-.61-3.49-.65-3.8-.81-.33.84-1,3.43.94,3.39-1.62.27,0,1.74.61,1.92-1,.59-2.59,1.57-3.21,1.88s-3.81-.51-3.13.76c-2.69-1.06-2.37-2.22-5.16-.91-.27-1.35-2.11-1.8-3.08,0,1.87,1,1.15-.33,1,1.4a1.71,1.71,0,0,1-.88-1.53q.36,2.34-1.92.75c-1.56,3.36,1.63-2.47-1.08-.12a10,10,0,0,0,1.23,3.31c-2.15-.27-1.27,1.54-2.86.89a2.15,2.15,0,0,1,1.25,2.16,2,2,0,0,1-1.77-1.49c-1,5.9-1.56-.74-2.7,1.07A9.21,9.21,0,0,1,52.23,55c-.8,1.4-.47,4.39-.77,5.45.59-2.09,4.8,2,4.72,2a.83.83,0,0,0-.09-.46c.33.48.58.41.74-.2,0-.05.44,1.35.09,1.22.89.32,1.23-1.18,1.19.56-.45-.67.27-.89,2.17-.65-.32.75-.67,1.93.38,2.46-.28-.14,4.87-1,4.91-1.08-1,1.47-.43,4.37,1.86,3.07-1-1.61,0-2.16.28-3.26,2.12.78-.46,2.2,3.49,1.34-2.45-1.06-.7-2.48-.14-3.75a3,3,0,0,1-.21,1.62c1.26-1,2-.86,2.23.37-1,1-1.8-.13-.77,1.56-1.45.59-1.41.08-1.89,1.23A2.45,2.45,0,0,1,67.9,66c.1.45.06.86.13,1.16-.44.24-3,2.17-3.16,2.94,2-1.81,1.46,1.67,1.47,1.9,1,0,3.19.12,2.46.55.16-.54.16.08-.27,0,1.22.74,1.52.91.91.51-.33.35.9,2-.58,1.47A5.43,5.43,0,0,1,67,76.64c-.51-.85-1-1.67-1.63-2.47q1.42,2.63-.41,3.08c-.52-1,0-5.77-1.82-5.61-.16-.52-2.39,2.44-2.42,2.44-4,.94-.26,1.07-4.17-.48-2.54-1-2.9-3.89-6.65-4.46.15,2.22,2.3,1.72,2.64,3.24-1.58.13-6.1-1.44-5.49-2.93-.47.4.14,0,0-.09A1.07,1.07,0,0,0,46,70c.15-.38.31-.39.47,0,0-.94-5.75-.5-6.25-.38a2.73,2.73,0,0,1,1.57,1.69c0,.11-3-1.22-3,0,.22.16,2-.18,2.36,0a8.94,8.94,0,0,0-.37,1c.47-.24,2.41.67,1.38,1.31-2.52-5.34-4.85,2.45-4.3,2.08a5.66,5.66,0,0,0,1.37-1.78c-.93-.21-.2,3.82.29,4.53-.18,0-3,.13-3.3.7-.39.88,1.25,1,1.52,1.08.9,0-2.49,2.28-2.57,2,.48,1.69,7.14,3.39,7.07,4.06a8.87,8.87,0,0,0-3.9-.71c1.36,0,2.11.53,2.26,1.54-.92-.54-1.16-.28-.74.76,0,0,2,.11,1.84-.33-4.73,2.33,1.73,1.38,2.16,2-.6.15-2.3,0-2.35,1.28,0,0,1.34.39,1.63.78.4-1-.3-2.33,1.69-.81-.61,1-1.54.46-2.29,1.64,0-.2,0-.15.15.17-2.06-3-6.77-3-8-4.94.59-.53-1.13-4,2.28-2.81-.38-1.52-3.66-1-4.68-1.48-.33-.15-.11-5.6-.76,0q-.06-.75.24.27c2-5.23-3.66,4-1.49,2.53a2.23,2.23,0,0,1-1.46-2.1c0,1.53-3.15-.81-4.22-2.17,2.8,5.6,8.27,10.45,11.09,15.25l-.8.42c.62,1,4.46,1.78,4.81,2.65a1,1,0,0,1-1.21.66c-.19-.13-.18-1.77.24-1l-1.07.29c-.19,0,4.32,2.52,4.38,1.65l-.94-.1c1.36,0,1.37-.7,0-2.1-.07-.59,3.54,1.56,3.43,1.27-1.6.38,1.5-.53,2.43.73-.18,1.5-4.42-.32-2.76.94a23.51,23.51,0,0,1-3.46,0c1.31.14,1.48.51.52,1.11.17,0,5.61,2.66,5.64,2.6a4.38,4.38,0,0,1-.85-.54c0-.23,6,4.74,6.55,4.69-.68,0,2.34,0,2,.14-1.13-.37.24,0-.66.14.53,1.91,16.72,1.34,17.31,1.76.23-.57,0-.33-.49-1.16,3.82-.58,2.65.28,2.13,1.32l.68-.75a.84.84,0,0,0,.34,1c-.06.29,7.56-3.62,7.74-3.61a10.76,10.76,0,0,1-2.58.47c0-1,2.32-.74,2.84-1.19q-.39.94-.81-.33c1,0,2.33,2.34,3.37,1.45-1-1,1.13-1.19,2.29-1.86-.66-.15-3.51-.77-4-.79,1.84-2,2-2.65,5.24-3.94-3.12,1.24,4.17,1.85,4.35,1.85,3.27-.07,4.84-1,7.11-2.7-1.81.44.72-.94,1.29-2a7.51,7.51,0,0,1-2.68-1.52c.19.14-.23-2.56-1.48-1.89a10.25,10.25,0,0,0-.12,1.56c-1.45.49-1.92,0-1.41-1.54-.61-.18-1.6,5.48-3.32,3.38-.46-.58-.39-3.24.35-3.69-1.57-.75-.7,1.73-.74-.46-1.35-.17-2.79,1.6-1.07,0a4,4,0,0,1-1.68-.82c1.08-1.4,4.5-1.53,4.87.12-.26-1.16,1.24-2.61,2.4-2.9a2,2,0,0,1,.73,1.68c-1.88.64-.65-.18-1.85-.16,1.68-1.26,3.49,0,5-1.34.3-.27,3.53-7.33,2.87-8.69,0,1.31-2.5-1.94-2.38-1.68a2.6,2.6,0,0,0,.22,1.93c1.3-.4-6.92-2.47-5.5-2.24a37.48,37.48,0,0,1-2.53,3.31,11.81,11.81,0,0,0,.21-2.65c-.79-.64-1,1-1.57,1.16-.13-.64-6.61.49-6.65,2.21.68.72,1.32.77,1.9.14,2.31,2.32,2.72.9,5.69,1.81-2.71-.83-7.45,6.79-10.33,5.08.77-3.18-2.71-3.07-5-1.56a3.65,3.65,0,0,0,1.85-.49c.09,1.81-1.17.15-1.45,1.77,3.56,1.34,1.18-1.18.61.73.36.57.82.62,1.39.13.35,2.16-8.34,5.41-6,3.57a1.3,1.3,0,0,0-1.37.89,1.85,1.85,0,0,1-.46-1.93c-2.08-.66-.38,2.41.06,2.72-.21-.46-.83,2.74-.64,2.62-.83,0-1.17-.47-1-1.34-.45.43-1,2.63-1.75,2.8a7,7,0,0,0-.75-2.07c.22,1.39-.29,2.08-1.51,2.07.07-2.26.07.37-.64-.21a1.71,1.71,0,0,0,.72-1.64,10.79,10.79,0,0,1-3.2-.33,7.44,7.44,0,0,0,1.77-1.22,7.82,7.82,0,0,0-2-1.65c2.26-.24,4.45.93,6.27,0,.61-.31,2.74-4.33,1.56-4.63.23,0-1.61,2.71-1.66,2.8a13.65,13.65,0,0,0-.09-1.47c-.78-.76-1.19,1.73-1.28,1.87-1.91-.76.28-1.39-2.34-1.62-1.1-.1-1.6.33-3.61.51,3-.94-2-1.35-1.15-1.79-1.14,0,1.36-1.34,2-1.43a9.88,9.88,0,0,0-1.35-2.39c.78.31.71.36-.23.14,0,.09,1.66-1.29.91-1.18-2.26-1,1.28,2.94-2.21.14.66.41.58.39-.24,0,.33,0,4.42-1.71,4.11-2.62,0,0-3.8-.68-3.19.87a4.17,4.17,0,0,1-1.62-2.55c2.59.85,5,.77,7.36,1.89.56-.25-1.84-2.94-2.71-1.78a4.12,4.12,0,0,0,1.29.35,8.64,8.64,0,0,0-.53,1.3,5.73,5.73,0,0,1-2.49-2.13,2.15,2.15,0,0,0,1.86.16c-1.18-.41-2.26-1-3.47-1.39a3.79,3.79,0,0,1,2.78.71c-.25-2.58,2.45.76,2.38,0-1.16-.37-.56-2.74-2.37-2.13q.84-.51-.18-1c.12,0,4.44,1.75,3.5-.69a14.84,14.84,0,0,1-3-2.07c-.08.66,3.05,1.78,3.08,1.61,1,1.28.21-.37,1.51.71a9.44,9.44,0,0,1-1.38,1.52c1.47-.1,3.11-2.75,1.38-2.74,0,.1,1.52-1.18,1.5,1,.37-.32,2.91.85,3.39,1-.34,2.77,3.32.23,3.2,2.94a4,4,0,0,1,1.35-.55c-.09.62-.16,1.25-.22,1.88-.75,0-1.91.18-.48-.14a1.57,1.57,0,0,1-1.13,1,4.11,4.11,0,0,1-.77-2.71,20.81,20.81,0,0,0-3.59,1.55c1.8,0,1,1.33-.06,1.86.63,2.18,3.46-.59,3.52.48.57-.32-3.06.69.33.9-.24-.9-.54-.63-.9.8,1.91.5,2.82-1.36,3.33-2,.75-.16,1.57.92,3-.17-1.37-.83-.71-1.42.42-2,.45.38-3.7-2.37.16-1.6a7.17,7.17,0,0,0-1.91-3.34,5.62,5.62,0,0,0,2-1.06c-.32.44-1-1.3-1.83-2.2,2.72,2.91-7.12,2.49-3.9.65-1-1.27-1.61,1.59-1.62,1.64-.94.06-.13-1.64-.83-.51,1-.39-.1-3.69-.7-4a4.18,4.18,0,0,1,2.38-.56,7.34,7.34,0,0,0-2.7-.88c.06-.07,6.07-6.31,4.7-6.43,3.27-2-10.6-7.8-6.76-4a7.25,7.25,0,0,0-1.95-.54,22.76,22.76,0,0,0,2.71-3.81c.8.71,1.39.67,1.77-.13-1-2.47-1.35-1.94.43-3.78a2.62,2.62,0,0,0,1.36,1.4c-.85-.12-1.86.57-1.76,1.41,4,0,.06,1.47,2.31,3,.52-.82,6-1.27,6-1.08,0,1.39,1.52,1.74,3.31,2.2C82,57.08,87.44,59,89,55.81c.62-1.26-3.53-1.57-.49-1.87a4.9,4.9,0,0,1-2.07-.73c1.11.28,3.62,1.75,4.45.11,1-2-4.89-1.46-1.78-2.46-.39-2.12-3.81-.2-4.26-3.77-.13-1.05,1.86-4.32,3.26-4.67a3.11,3.11,0,0,1-2.34-.16c2.41.73.24-1.07.28-1,.72.16,6.39.7,6.83.7,3.2,0-.06-.88,2.89-1.59a13.62,13.62,0,0,0,2.34,1.78c.67-1.75-4-1,1.26-2.28-.56-1.48-2.12-.74-3.14-1.62a1.58,1.58,0,0,0,2.2-.27,18.78,18.78,0,0,1-2.92-2.64c-.09.1,2.76-.59.57-1.72a8.83,8.83,0,0,0-2.27.53s-3.74-7.58-5.73-7.69c-.06.05-3.62-.63-4.74-.83C83.34,25.67,84.05,25.74,83.35,25.62ZM56.36,62c-.09-.12.53-.61,0,0Zm17.48,3.26c-.31.31,0-1.08,0,0Zm-6.06-3c.16,0,.16-.65,0,0C67.76,62.24,67.79,62.21,67.78,62.25Zm13.64-2.64a2.71,2.71,0,0,1,0-.29A.72.72,0,0,1,81.42,59.61Z"/></g></g></g></g></g></g></svg>