<svg xmlns="http://www.w3.org/2000/svg" xmlns:xlink="http://www.w3.org/1999/xlink" viewBox="0 0 344 231"><defs><style>.cls-1{fill:url(#radial-gradient);}.cls-2{fill:none;}.cls-3{isolation:isolate;}.cls-4{mix-blend-mode:soft-light;fill:url(#radial-gradient-2);}.cls-5{opacity:0.82;mix-blend-mode:hard-light;}.cls-6{clip-path:url(#clip-path);}.cls-7{mask:url(#mask);}.cls-8{fill:url(#radial-gradient-3);}.cls-9{mix-blend-mode:overlay;}.cls-10{fill:url(#radial-gradient-4);}.cls-11{opacity:0.72;mix-blend-mode:multiply;}.cls-12{fill:#ddd;}</style><radialGradient id="radial-gradient" cx="13368.89" cy="-8645.85" r="138.24" gradientTransform="matrix(-1.31, -0.29, -1.5, -1.2, 4709.87, -6413.17)" gradientUnits="userSpaceOnUse"><stop offset="0.66"/><stop offset="0.8" stop-color="#fff"/></radialGradient><radialGradient id="radial-gradient-2" cx="415.17" cy="135.36" r="29.91" gradientTransform="matrix(-0.82, 0.57, 0.57, 0.82, 435.25, -186.87)" gradientUnits="userSpaceOnUse"><stop offset="0.11" stop-color="#fff"/><stop offset="1" stop-color="#393939"/></radialGradient><clipPath id="clip-path"><path class="cls-2" d="M12,30C4.34,1.3,58.11,11.39,146.3,56.19s171.63,97.24,184.31,129.54c8.33,21.21-15.48,29.15-58.83,22.62-21.57-3.24-44.36-18.1-80.56-36.2-47.38-23.69-90.86-58.55-124.91-85.08C34.27,62.1,15.62,43.62,12,30Z"/></clipPath><mask id="mask" x="-62.36" y="-46.32" width="550.26" height="341.09" maskUnits="userSpaceOnUse"><path class="cls-1" d="M-59.52-14.11C-81.15-69.19,23.23-51.9,173.61,24.5s289.83,183,311.45,238.06-82.76,37.79-233.14-38.62S-37.9,41-59.52-14.11Z"/></mask><radialGradient id="radial-gradient-3" cx="3673.19" cy="-15049.66" r="122.45" gradientTransform="matrix(-1.97, -1, -0.28, -0.72, 3232.09, -6995.32)" gradientUnits="userSpaceOnUse"><stop offset="0.07" stop-color="#fff"/><stop offset="0.37" stop-color="#fdfdfd"/><stop offset="0.53" stop-color="#f5f5f5"/><stop offset="0.66" stop-color="#e7e7e7"/><stop offset="0.77" stop-color="#d4d4d4"/><stop offset="0.87" stop-color="#bbb"/><stop offset="0.94" stop-color="#a3a3a3"/></radialGradient><radialGradient id="radial-gradient-4" cx="3726.39" cy="-15006.05" r="75.73" gradientTransform="matrix(-1.97, -1, -0.28, -0.72, 3232.09, -6995.32)" gradientUnits="userSpaceOnUse"><stop offset="0.9" stop-color="gray"/><stop offset="1" stop-color="#c4c4c3"/></radialGradient></defs><title>proyecs-01</title><g class="cls-3"><g id="luz_blanca" data-name="luz blanca"><polygon class="cls-4" points="173.63 157.64 174.67 146.75 171.81 157.48 154.83 136.93 168.2 160 157.15 158.95 167.72 161.75 147.37 178.58 170.41 165.21 169.35 176.47 172.21 165.7 189.01 186.03 175.78 163.21 186.87 164.26 175.94 161.36 196.47 144.39 173.63 157.64"/><g class="cls-5"><g class="cls-6"><g class="cls-7"><path class="cls-8" d="M9.57,33.54C-3.11,1.25,58.11,11.39,146.3,56.19S316.27,163.51,329,195.8,280.41,218,192.22,173.15,22.26,65.84,9.57,33.54Z"/><g class="cls-9"><path class="cls-10" d="M9.57,31.73C-3.11-.56,58.11,9.58,146.3,54.38S274.48,158.86,287.16,191.16s-6.84,26.7-95-18.11S22.26,64,9.57,31.73Z"/></g><g class="cls-11"><path class="cls-12" d="M120.8,130.61c.23.21,1.63,1.06,1.94,1.3a9.77,9.77,0,0,1-1.8-.57c.44.29.88.32,1.21.52,1.57,1.13,3.81,2.9,4.16,2.59,2,1.53.19-.26,6.07,3.35,0-.14,5.85,4.06,10.84,6.94a35.79,35.79,0,0,0,4.79,2.37c-.84-1.36-3.47-2.84-6.06-4.55.75-.42.29-1.21-3-3.24-.25,0-1.17-.52-1.31-.49a35.36,35.36,0,0,0-3.24-3.12c-1,.45-3.66-2-6.45-3.59-1.59-.94-3.49-1.23-4.84-2s-2.53-2.08-4-3c-3.58-2.08-4.81-2.76-8.71-5.26-2.55-1.63-6.78-4.52-9.07-5.82,0,.84,5.71,5,10.29,8.1-.08,0-1,0-1,0,.24.14,1.27.15,1.47.27.48.33,1.06.77,1.54,1.09.2.19-1.85-.34-2.3-.47.87.52,3.62,1.73,4.94,2.58,0,.06-.36,0-.27.12C116.42,128.54,118.93,129.74,120.8,130.61Z"/><path class="cls-12" d="M148.67,146s0-.07,0,0c-.17-.09-.69-.56-.88-.66-1.51-.84-2.75-2.32-4.23-2.43,2.65,1.89,7,4.39,9.92,6.23,0,0-.41.27-.38.29.2.13.64.12.84.25,3,2,5.72,3.25,7.15,4.08-.15.05-.13.88-.48.82l-1.75-1.12c0,.14-.92-.51-.64-.29a.48.48,0,0,0-.07.49c1.13.67,3,.9,4.05,1.46-.1,0-1,.44-1.1.43.93.55,3.86,1.69,6.45,3.05.25.15.49.26.73.39.42.22.79.35,1.17.53A40.38,40.38,0,0,0,175,162l1.39,1c.17.07.34.21.52.28,0,0,.64.84.62.83.52.24.27-.17.68,0-3-1.8-2.86-2.58,1.45-.36-1.5-1-1.56-.94-2.56-1.59-.06-.07-1.95-.86-2-1s1.24.86,1.29.87a32.81,32.81,0,0,0,4.54,2.63c.83.43.26-.75.56-.73,1.28.58,2.16,1.11,1.52.69.1,0,.46.76.57.81,1,.48,1.65.16,2.59.59,1.84.83,9.16,4,9.78,3.86-2.24-1.3-5.35-2.84-7.83-4.06s-4.6-2-6.8-2.95c-2.52-1-8.51-3-9.9-5.23-2.2-1.13-3.88-2.52-4-1.7-2.79-1.66-7.06-4.48-8.55-4.56-2.59-1.81-3.22-1.59-5.48-2.69-.86-.5-1.82-1.59-2.24-1.81-.74-.4-1.59-1.09-2.35-1.46C148.58,145.28,148.84,146.08,148.67,146Z"/><path class="cls-12" d="M173.38,146c-2.81-2.45-1.87-2.12-7-4.81-4.39-2.29-4.43-1.67-7.31-2.56-2.36-.73-6.32-3.12-6.89-2.3s3,2.39,4.63,3.69c0,.11-2.08-1.07-2.07-.95-.67-.34-1.86-.42-2.4-.69.59.47,1.45,1.25,2,1.73.15.43,3.51,2.7,3.82,3.18-1.4-.64-3.34-2-4.82-2.87.16,1,1.36,1.75,3.64,3.23a3.43,3.43,0,0,0-.65,0c.35.21,1.49.87,1.74,1s-.66-.43-.44-.27.79.43,1.05.65c.42.56.51,1.06,2.93,2.47,1.06.62,2.18.62,3.26,1.09,2.55,1.85-.57,1.24,2.82,3.09,8.74,5.13,5.26.88,4.37-.05,5.27,3.69,10.26,6.9,14,7.94a14.47,14.47,0,0,0,4,1c1.79.38,7.5,2.38,7.36,1.53-3.22-2-3.81-1.31-6-2.2,0,0-.68-1.21-.7-1.22l-.11.24c-.32-.15-.67-.42-1-.57a5.62,5.62,0,0,0-2.68-.7c-.39-.17-1.26-.28-1.66-.46-2.28-1.48-6.14-4.4-7.05-4.24a12.44,12.44,0,0,1-2.76-1.81c.52,0,5,2.27,5.16,2.37-.21-.16,1,.28,0-.84.79.43-.32-.28,0-.17.42.27.88.69,1.36,1a29.63,29.63,0,0,0,4,2.6c.95.63,3,1.86,3,1.87,0-.25-1.51-1.74-.7-1.31,0,0,.11.33,0,.23,1.19.33,1.83.47.56-.6-1.72-1.46-7.39-3.27-9.24-5-.06-.13,1.33.36,1.23.23.77.16,3.74,2.15,3.57,1.37,0,0-2.75-3.47-3.11-3.72C178.38,147.18,173.92,145.41,173.38,146Z"/><path class="cls-12" d="M137.83,133.81c0-.05,0-.16.07-.18-1.64-1-3.39-1.71-5-2.63.08,0,.24-.19.32-.15-.47-.27-1.94-1.45-3.73-2.73,0,0-1.36-.41-1.37-.43-2.54-2.45,1.59,0,4.18.92-1.67-1.6-3.83-2.18-6-3.56-1.61-1-3.37-2.35-5.17-3.52,0-.1.61-.4.72-.4,5.27,3,5.74,3.7,5.67,3.18.39-.15,3.06,1.29,2.64.72,2.41,1.26,3.62,1.36,3.72.88,3.93,1,6.47.1,3-1.66a18.62,18.62,0,0,1,2.55,1,1.19,1.19,0,0,0,.36.53c.31.31-.13.65,1.51,1.45-.17-.14-1.66-1.64-1.77-1.74,1.48.57,4.26,1.38,1.76-.47-1.33-.61-4.59-2.34-7.3-4-1.65-1.07-3.27-1.78-4.39-2.64-.19-.18-1.9-1.19-2-1.32.33.08,1.67.73,1.15.43,0,0,.78.08.79.06a17.16,17.16,0,0,0,1.84,1.57c1.71,1.23,2.61,2.08,1.85.65-.59-1.09-4.6-3.86-7.13-5-.19-.14,1.3.52,1.11.38a18.65,18.65,0,0,0-3.31-2.62c-.09-.08.18,1,.11.88.77.33.52-.56,1.22-.24.5.23,2.26,1,3,1.4,4.29,2.71,8.75,7.35,11.7,9.4.08-.79-.25-1.12,1-.11a22.56,22.56,0,0,0-1.08-3.71c.17.26-.07.59.87,1.32a11.46,11.46,0,0,0,1.46,1.28l1.67.07c1.19.87,3,2.13,4.09,2.9a6.82,6.82,0,0,0-1.68-.28c-1-.18.47.84-.54.74a23.18,23.18,0,0,0,2.08,1.36,22.24,22.24,0,0,0,2.45,1c-.43.61-4.33-2.64,0,1.09.21.2-.08.28.17.48.1.08-.14.19,0,.28l1.07.11a42.28,42.28,0,0,0,4.63,2.45c.2-.28-1.3-1.47-2.08-2.25,1.22.5,3.75,1.83,4.72,2.3a33.93,33.93,0,0,1,3.79,2c.84-.11.44-1.17-1.56-2.48,0,0,.71.94.76.93a19.78,19.78,0,0,1,3.12,1.52c1.41.9,3.28,1.81,4.09,2.22,0,0-.71-.08-.74-.12,1.37.86,3.3,1.52,5,2.69,1-.34-2.24-2.15-2.17-2.2,3.39,1.57,2.9-.12,3.34.07,0,0-3.71-2.38-4.82-3,5.66,2.71-1.05-2.24-2.32-3,1.4.48,3.69,1.71,1,0,4.07,1.57,3.51.6,5.17,1,0,.09.46.22.35.24,2.18,1.65,5.29,3.86,3.89,1.79.79.32.38.26,1,.63-.21,0,1.4.85,2.09,1.36-.72.6,4.66,3.16,7,4.48a4.58,4.58,0,0,0-.85-1.51c1.67,1.07,3,2.47,4.66,3.49,1.34.07,3.7,2.6,5.58,3.7,2.83,1.66,3.74,1.43,6.37,2.45.38.63.7,1.24.39,1.5,3.07,2.07,2.27,1,3.76,1.41,1.26.35,4.76,2.33,5.65,2.24-.64-.43-3.7-2.24-4.35-2.67a1.49,1.49,0,0,1,.51.18c-.43-.47.27-.45.28-.7a7.93,7.93,0,0,1,3.1,3.07c1.18.37.91-.36.24-1.05a60.37,60.37,0,0,1,5.73,3.5c.7-.14-5.2-3.7,0-1.19,6.66,6.57,2.56,1.36-1.07-2.37,1.53.86,3.49,2,5.08,3,0-.35.39-.52-.09-1.14.63.39,3.31,1.67,3.93,2.07-1-1-7.16-5.33-4.39-4.33s4.21,3.19,5.92,4.51c.25-.59,2.74.28,3.39.15,1.87,1.35,3.93,3.27,5,3.28-3.44-2.22-3.53-3.27-5.56-5.2-.07-.07.17.37.1.31.49,0-.18-.83,1.58-.08-.59-.53,0-.81-1.82-2.4.36-.27-1.77-1.65-1.89-1.93-.31-.78-3.23-2.31-.68-1.67,1.23.3,3.67,2.12,4.19,1.71.91-.72-9.76-4.86-11.81-6.25,0-.5-1.22-2.36-3.62-3.73,0,0,.19.39.1.27-.35-.21.21.27.29.36s-1.24-1-1.31-1c-.28-.15-.74.09-1,0-.78-.64-.67-1.46-1-1.67,2.62,1.6-1.13-.73-1.13-.74,1,.77-.72-.14-2.32-.76.11-.44-.21-1.58.11-.72a34.46,34.46,0,0,1-6.92-3.1c.06,0,1.28-.23,1.34-.23-2.57-1.73-.58-1.32-3-3a7,7,0,0,0-4.86-1.33c-4.16-2.85-7.7-5.35-10.54-5.8,1.5,0-1.12-2.43-.26-3.13a19.58,19.58,0,0,0-6.25-3.17c3.34,3.22,2.73,3.3.85,2.94-.09-.11-.19,0-.26-.09-1.59-.91-.56-.23-.84.06l-3.34-1.93c-.72-.72-.33-1-.1-1.22a63.23,63.23,0,0,0-8-4.13c1.92,1.25,3.68,2.72,2.5,2.53a12.16,12.16,0,0,1,3.77,2.77c-1.15,0-4.12-1.41-5.09-1.18-2.85-1.7,5.76.44-5.32-3.85-.06-.51-.88-1-1.48-1.6.31.07,1.47.72,1.9.88,2.07,1.27,3,1.62,2.73.8a9.27,9.27,0,0,1-2.5-2c.62.25,1.74,1.16,2.43,1.38,1.25.56,2.15.8,3.47,1.36.33.19.36-.07.69.12,0-.05-.9-1-.83-1,.38.16,1.51,1.15,1.88,1.31a5.21,5.21,0,0,0,3,1.2c.13.37,1.59.85,1.33.54.18.06-.45-.31-.27-.24,1.2.83,1,1.09,2.19,1.9-.28-.42,2.27.59,1.66,0-.15-.25-2.16-1.23-2.31-1.45,2.63,1,5.13,2,5.32,1.67.54.31-1-.78-.45-.44.64-.45,4.22,1.61,4.62,1a7.46,7.46,0,0,1-3.15-1.51c.09-.06.6.44.64.35-1.2-.43-2.26-1.49-3.39-2l-1.78-1.63c1.26.46,2.78.9,2.61.37-1.24-.66-2.83-1.7-3.41-1.94a7.06,7.06,0,0,1,.64.55c-.3-.36-1.76-1.21-2.48-1.82a6.26,6.26,0,0,1-2.38-.77c.13-.19-1.54-1.61-2.63-2,.34.12,1.71,1.11,2.33,1.33,0,0-.81-.28-.8-.25s1.31.88,1.19.67-.51-.49-.7-.6c.23.09,1.05.57,1.18.64-.1-.44-2.09-1.84-3.79-2.63-.36-.38.74.67.78.56.17,0-.43-.25-.25-.21s-.92-1-.56-.83c-.07-.1-.71-.5-.75-.58.6.11,1.77.28,2.31.31.56.43,2.16,1.62.82.77.15,0,1,.42,1.13.39.73.34,0-.63.89-.08a5.48,5.48,0,0,0,.7-.55c.34.16,2.44,1.06,2.71,1.15,2.39,1.73,3.12,3.54,5.68,5.31a6.82,6.82,0,0,0-.72-3.09c.05,0,1.37.55,1.42.59.55.56-.7.62.4,1.6,0,.12.72.47.9.65,0,.33,0,.55,1.75,1.84-4.17-2-.57.68.36,1.74s-.42,1.09,3.49,3.06c-.3-.4,0-.58-.6-1.17,1.47.84,1.56,1,3,1.76.22,1,4.65,2.91,4.64,2.12,0-1.16-2-1.6,1-1.2a9.82,9.82,0,0,1,5.56,1.61c4,2.29,1.74,1.93,2.9,3.4,5.38,2.69,3.69,2.49,5.75,4.68.37.4,1.7,1.31,2.2,1.78s1.08,1,1.91,1.74c1.57,1.3,1.92,1.11,2.76,1l2.63,1.62c.11.73,2.2,2,3.41,2.14a52.86,52.86,0,0,1,4.58,3.28,13.1,13.1,0,0,0,2.91,2.08c-.43-1.19-2.09-2.52-5.17-4.66-1.4-1.06-3.86-3.13-3.88-3.15,1.2.6,2.36,1.5,2.51,1.27a18.88,18.88,0,0,0,4,2.49c.21.19,1.43,2,1.52,2-.19-.09,3.42,1.35,3.35,1.3,3.28,1.82.91,0,1.48.32,0,.16,4.21,2.57,5.57,3.88a9.86,9.86,0,0,0,1,1.47c0,.06-1.29-.44-1.36-.42.11,0,.12.08.22.11.3.33.15-.21.34,0-.61-.34.06.4-.55,0,1.84,1.35,2.08,1.26,2.46,1.05,0,0,.73,0,.77.07s-.64,0-.7-.1-.81-.59-.78-.67c.05.35,2.39,1.84,3.77,2.72,2.3,1.45,1.08.5,1.31.11.31.24,1.67,1.17,2,1.42,3.11.17,8.55,4.66,12.9,6.66-.94-.81-6.9-4.8-5.33-4.4.05.1.56.52.59.63a6,6,0,0,0,1.66.51c2.35,1.53,7.7,5.33,7.45,4-.3-.22-1.91-.7-2.26-.93-.33,0-2.12-1.73-2.48-1.76-.38-.41-2-.77-2.76-1.3,0,0,1.11-.28,1-.4s-.73.21-.86.16c-.95-.65-1.28-1.29-2.25-2-1.13-.86-4.45-2.88-1.55-1.9-.19-.19,7,4.63,7.52,5.1-.09-.39.58-.14.47-.55.88.72,4.55,3.3,5.53,3.93-.42-.58-.48-.73,1.33.47,1.11,0-1.86-4.19-.25-2.79.12-1.4-5.27-1.78-5.32-1.53-3.75-2.22,1.51-1.66,2.15-1.33,0-.15-.9-.54-1-.71,0-.38.51.29-.48-.46,0,.06.43,0,.41,0-.75-.7-2.06-2-2.88-2.72,1.78,1,3.11,1.89,4.89,2.93-1.29-1.12-.91-.88-.28-1.11,2.46,1.37,4.75,3.24,5.74,3s-3.34-2.55-5-3.68c-.3-.22.42.32-.07,0,1.07.56.91-.22.79-1,.7.36,2.15,1.22,2.82,1.66,0,.14.78.08.85.22,1.68,1,4.18,2.55,3.33,1.38a18.33,18.33,0,0,0-4.08-2.69c-.38-.46-1.32-1.12-2.18-1.89-.49-1-3.84-3.18-7.42-5.24-3.51-2.31-7.47-4.55-9-5.53a8.82,8.82,0,0,1-.61-.76c3.43,1.65,10.07,6.78,12.55,7.31a66.81,66.81,0,0,1-6.91-4.61c-1.92-1.7-.34-.7,2.13.87,1.38-1-4.13-2.82-5.71-3.88-.29-.2-.42.17-.6-.08,1.71.65,3.71,1.06,3.68.33a47.56,47.56,0,0,0-5.64-3c-1.11-.85-4.39-2.22-5.3-3.05.81.38,2.57,1.47,3.74,2.13.11,0,.81.48,1,.54s-.59-1-.35-.88c0,0,.35.23.31.18,1.19.46,2.53,1.1,2.5.66-.05-.77-4.61-3.19-4.84-2.6-.23-.12.64.5.69.55-.64-.42-.54-.92-1.19-1.5-.16,0-.39.92-.54,1a49.21,49.21,0,0,1-4.68-3s.49.16.53.16c.79.52,1.06.31,2.07.69,0-.15,2,1.32,1.94,1.17.57.28,1.62.66,2.21,1-.23-.46-.43-.87.21-.86.33.15-.17,0,.06.14s-.71-.66-.56-.56c2.38,2.21,6.94,5,10.84,7.63,1.2,1.09,2.78,1.82,6.59,4-.34.33-1,1,.62,2.21,2.24.47,5.82,3,8,4.76,0,0,.34,0,.35,0-1.5-.37,1.84,2,1.77,2.42-.09,0-.07.44-.21.47-1.24-.16-5.69-3.42-4.44-1.78-.56-.34-3.27-1.67-3.85-2,1.61,2.34,7.3,4.51,10.73,6.65s4.8,2.37,5.21,3.42c.22.59-2.29.45,1,2.26,1.23.1.58-1.13.69-1.67.4.17-.12.23.06.32s-.92-1-.88-1c-2.15.8,9.3,6.84,7,3.39-.42-.64-4.42-4-2.76-3.51,2.37.76,4.37,3.85,5.05,4.64,0-.28.95-.18.95-.44.15.15.84,1,1.19,1.36.1-.13.66.15.79,0,2.8,1.68,1.55,1.71,3,3.05,1.29,1.2,6.51,4.11,7.92,5.34-1.42-1.5-2.87-2.94-4.83-4.7-1.49-1.34-4.26-2.69-5.37-3.93-2.13-2.39-2.57-4-6.6-6.9.41.2.13.18.54.38.12-.36-1.22-1.22-2-2-2.14-2.32-6.43-5.83-10.37-9.13-.55-.58-.61-1.07-1.22-1.68-1.6-1.56-3.82-2.56-5.45-3.82-.7-.58.16-.75-.33-1.15s-2.2-1.2-2.6-1.59l2.46.91c-.07-.08-.85-.41-.92-.48s.17-.13,0-.31c-1.26-1.25-8.31-6.8-10-6.8-1.34-1.06-4.1-2.27-5-3.27.26.11,2.23.55,2.61.75l1.11.61c.3.21.43,1.25.76,1.47-1-.49-2.6-1.71.31-.12.08-.07,1.89.92,1.74.78.13.08-3-1.34-2.81-1.26-.45-.44-.37-.64-1.12-1.23.09,0,1.23.15,1.22.07-1.2-.8-3.25-1.81-4.81-2.78A40.43,40.43,0,0,0,256,125s-1.57-1-1.58-.76l3,1.69s-2.68-1.27-2.67-1.24c3.08,3.13,4.81,5.13.27,2.17-.49-.2-1.23-1.19-2.94-2.5a29.37,29.37,0,0,0-3.45-2.45c-.26-.19-.61-.24-.87-.42.09.09-1.23-.59-1.15-.51l2.18.81c-1.28-1-2.52-1.23-1.95-.51a69.33,69.33,0,0,1-8.11-5.14,30.91,30.91,0,0,1,3.82,1.57c1.78.75,4.85,2.33,7,3.37-.87-.59-1.29-.61-2.19-1.28,4.67,3,5.95,2.52,11,5.81-.64-.55-2.53-1.48-3.68-2.38.11,0,1.73.34,1.84.38-.3-.18-2.17-.56-2.44-.73-3.72-2.86-8-6.61-10.78-8.39,0,0,.4.68.26.67s-6-3.6-5.5-3.74c2.42,1.39,1.34,1.2,2.81,2,.06-.16-.25-.7-.89-1.25l-1.75-.54c-3-2.72-10.52-7.5-15.2-10.56-.86-.56-3.14-3.15-3.93-3.55-.09,0,.18.63.1.6-1.78-1.15-3-1.89-3.45-2.18.05.35-1.11-.61-3.08-2.11.41.18-.5,0-.11.1A13,13,0,0,0,214,95.15c-.45-.28-.26-.81-.68-1.07.13,0,1.07.76,1.21.83-.74-1-4.65-3.35-6.47-4.14-.61-.39-.4-.23-.86-.53-1.77-1.2-4.44-2.33-6.42-3.59-1.71-1.08-6.51-4.31-3-1.43-.25-.12-1-.17-1.38-.37s-.7-.58-1.11-.85c.13.13-.09-.22.05-.08-.67-.34-1.05-.49-1.81-.89-2.74-1.73-5.1-3.36-3.65-2.21-.38-.24-1.24-.74-1.32-.84-1.16-.73-4-1.59-6.75-2.88-.39-.22-1.06-1-1.46-1.24s-.69-.14-1-.31A37.94,37.94,0,0,1,175,72.88c-.5-.39-1-.6-.95-.85-1.64-1-3.16-1.08-4.71-1.93a9,9,0,0,0-1.24-1c-.8-.51-1-1.15-1.83-1.66-2.84-1.74-5.66-2.76-8.88-4.32.48.3,1.38.56,1.79.86-.33.11-2-.91.32.65.24.2,1.29,1.2,1.48,1.39a80.37,80.37,0,0,1-8.52-5.06s1.2.44,1.18.41.26-.31.29-.32-1.93-.32-2-.37.51-.06.06-.28c-.29-.19-.83-1-1.32-1.29,0,.05.1.26.38.45-3.21-1.48-10.73-4.55-16.79-7.12l.64.14c-1.95-1.11-5-3.2-4.5-1.64.52.31-1.29-1-.8-.69-1.21-.56-2,.07-2.83-.4,1.82,1.1,6,2.42,8.11,3.85,0,.18-1.1-.13-1.23-.12s-.44-.31-.56-.33c-1.59-.68-3.47-2-4.72-2.2.16.13-.46-.07-.32.07-.45-.25-2-1-2-1,.2.1.49-.12.82.06s1.52,1.37,1.83,1.64c-1.29-.67-3.74-2-5-2.68a6.86,6.86,0,0,1-.36-.86c.47.1.87.45,1.38.49-2.75-1.49-4-2.49-4.72-2.89-.15,0-2.11-1.19-2.27-1.24.07.06,2.17,1.56,2.16,1.58-1-.46-2-.78-3-1.22s-4.75-1.82-6.06-2.29c2.76,1.65,6.16,2.7,9.09,4.52.22.18.35.33.65.55-.9-.28,1,.8.53.74,1.46.84,1.33,1.06,2.75,1.82-1-.2-3.22-1.4-4.45-1.78.87.92,2.9,2.28,2.83,2.58-3.61-3-7-.72-7.95-4-1.2-.32-8-1.09-8.63-3.41-.27-.94,4.44,1.06-.1-1.95a49.5,49.5,0,0,0-5.19-2.62c-2-1.15-4.2-1.59-6.63-2.81a83.29,83.29,0,0,0-10.94-5.23c-2.13-.8-6.32-3.16-8-3.74s-1.48.31-3.15-.19c.9.4,2,.91,3,1.42,0,.2-1.74-.76-2-.78s-.43-.09-.43,0a21.64,21.64,0,0,0-4.21-.67A44.6,44.6,0,0,0,74,30.07c.08.67,1.94,2,3.72,2.6,1.29,1.45-1.5.17-1.92.49s1.33,1.48,1.28,1.84c.64.09.72.39,1.85.83a25.64,25.64,0,0,0,2.75,1.88c1,.35-.64-1.67.09-1.42,4.83,1.64,5.27,3.15,4.77,4,3,1.82,1.53-2,5.51-.3,7.15,3,4.51,3.75,5.45,5.18-.13.28-.91.08-.92.27-.26,0-.19.29-.53.18,1.1.73,1.32.39,2.46.88,0,0,1.13.81,1.19.81s-1.23-.08-1.2,0a21,21,0,0,0,2.6.78c.08.05.37.33.44.39.25.05,1.56,1,1.7,1.07.31.1-.11-.09.18,0,.43.26,0-.06.44.2S106,51,106.39,51.26c-1.67-.75-3.23-1.87-4.44-2.16a12.85,12.85,0,0,0,3.66,2.34c.2.18,1.69,1.15,1.83,1.33-1.74-.21-3.54-1-7.57-3-3.09-1.54-7.9-4.24-6.55-4.56-3.06-2.32-.31.18-.94.34-1.06.25-2.6-.33-5.4-1.37-1.5-.56-2.94-.77-3.78-2.18-.17-.28-1.69-1.74-1-1.56,1.82.78,3.31,1.81,3.4,1.59-.08,0,2.6,1.73,2.53,1.69.17.05-1.57-1-1.46-1a15.36,15.36,0,0,0-5.55-2.52c-.43-.14-1.81-1.11-2.19-1.22s-.08.62-.55.42C77.55,39,76.5,38,75.79,37.72c.12,0,.58.33.68.32a6.54,6.54,0,0,0-1.84-1c-1.47-.76-1.83-.63-2.15-.37-.59-.17.36.28.87.68l-.77-.56c-.9-.56-1.11.05-2-.51.59,1-.68.76-.78,1.26-.51.23.41,1.37,0,1.7-.2,0-2-.92-2.2-.91-1.91,0-4.95,0-2.59,2.53-.15-.62-.35-.4,1.2.44,0,.2.59.36.63.45a16.3,16.3,0,0,1,2.55,1.71c1.07.94,2.94,2.54,3.49,3.13.91.22-.28-1.51-1.08-2.38,3.56,1.56,5.59,4.7,8,6.55a79.72,79.72,0,0,0,9.94,5.78c.93-.69-2.2-3.15,3.8-.16-.92-.87.56-.06,1.34,0s1.7.09,2.26.25c-.19.18-.6,2.06-.15,2.4,1.81,1.37,3.31,1.47,3.22,1,.07,0,.3.15.37.2,0-.2,1.33.33,1.17.26s-.83-.22-1-.44c1.66.91,3.35,2.11,4.67,2.73.5.24.83-.08,1-.06,3.84,2.17,7.5,4.55,9.91,5.31,0,0-.29-.81-.27-.77,2.1,1.34,2.48,1.55,2.23.84,0,0-.31-.61-.29-.6,2.49,1.22,4.6,2.74,4.5,1.89-2.52-1.6-2.47-1.57-4-2.65-.22-.16-1.86-.54-2.08-.71s.14-.18,0-.28c-1.86-1.57.82-.47-2.4-2.15-1.56-.82-2.44-1.85-3.24-2.13-1-.54-1.67-1-3-1.73a17,17,0,0,0-2.11-1.31c-.39-.21-.79.16-1.14.05-5.42-3.15-10.54-6.09-5.18-3.41,1,.85,2.47,1,4.24,1.68.37.31.77.69,1.26.57,0,0,.15,0,.1-.07,1.15.43,1.8.28,2.84.6.14.12.14.18.23.15,1.81.56,5.49,2.1,5.65,2.18,4.83,3.89,8.38,1.15,16.1,6.52-.45.49-4.6-.92-.89,1.27.15,0,1.65,1.07,1.81,1.12.78,1.5,5.7,3.4,9.14,4.85,3.13,2.71,3.67,2,6,2.74a41.07,41.07,0,0,0-4.7-2.2,11.34,11.34,0,0,1-1.08-.4,7.47,7.47,0,0,0-.28-.93c2,1.18,4.35,1.91,4.54,1.52-1.4-.88-4.18-2-5.51-2.73-.1-.06-.49-.51-.58-.58.68.12,3.85,1.66,4,1.54.48-.34-3.45-2.27-4.46-2.48-.81-1.5,4.54,1.62,6.54,2.19,1.12.32-.68-1.72.56-1.37.94.26,3.84,1.91,4.94,2.28,1.36.46,3.53,1.19,5.16,1.77.46.21.79.46,1.25.68,1.43.75,1.18.46,1.47.84-.45-.2.06.25,0,.25.42.21.47.21.74.35.12.33-1.46-.39-2.33-.64.62.39,1.74.75,2.38,1.11.16-.1,1.67.36,1.81.26,2.1,1.36,2,2.31,1.83,2.77,3.26,2,3.47,1.27,3.64.73,0,0-2.15-1.39-2.15-1.4s1.85,1.09,1.83,1c.27-.1-1.07-.71-1.62-1.47-.26-.35-.13-.45-.64-.85a12.29,12.29,0,0,1-1.76-.91s1.89.45,1.85.41c-.45-.59-1.45-2.44-.35-2.06,3.41,1.17,2.44,2.18,3.51,3.11,2.87.67.95-.68,2.75-.22,1.14.5,1.24-.2,2.29.27,1.18.85.82,2.14,2.77,3.39,1.14.26,1-.67,1.13-1.08,1.08.52,2.84,1.21,3.29,1.49.16,1.62-1.34.06,0,.38a4.31,4.31,0,0,0,.63.46c.26,0,.48.13.63,0a5.3,5.3,0,0,1,.83.41c-3.06-1.31-.89.45-2,.49.84.39,8.77,4.68,10.24,5.73a42.24,42.24,0,0,0-5.4-1.72c-.44-.23,5.24,4.21,6.56,5-7.11-3.53-7-3.78-15.24-8.45-4.86-4.08-12.55-2.19-8.74.11,3.08,1.59,1.68-.89,1.07-1.6a25.66,25.66,0,0,0,3.65,1.48c.12.38-.43.76.41.71,2.12,1.37-2.69.06,3,2.12.77-.65-.83-.93.91-.94A11.56,11.56,0,0,1,178,90.83c.45.21,11.34,4.85,7,3.89,1.19.82,8.75,3.63,9.45,4-8.1-3.52,3.67,3.87,5.6,4.81-.42-.16-1.23-.87-1.58-1-.12-.06,0,.18-.08.11s1.09,1.16,1.11,1.18a52.74,52.74,0,0,1-7-3.11c.4,1.42,4.65,4.06,4.77,4.76-1.59-.86-2-1.08-1.75-1.16,0,0,2.43,1.39,2.43,1.38a35.84,35.84,0,0,1-3.46-1c1.8,1.06,2.35,1.47.82.72,6.28,4.14-2.84-3.85,7,3.57-3.81-2.6-.36-.34.77.45-3.31-1.83-8.34-4.4-5.55-2.16a19.29,19.29,0,0,1-4.45-1.73c-6-1.16-.61.26,5.68,4,0,.39-.24.38.72.44-.26-.35,1.2-.1,1-.32A24.16,24.16,0,0,1,206.2,115c-3.44-2.14-17.24-10.4-18.84-10.81-3.47-2.35-3.59-2.63-4.94-3.53-3.18-1.24,7,6.2,9,6.39-.34-.36-3.92-2.35-4.17-2.52,0-.06,1.54-.21,1.45-.45a62.74,62.74,0,0,1,8.33,6.39c-3.6-1.46-3.68-3.09-5.95-3.29-1.48-.93,7.69,5,11.3,7.27-3.54-1.77-8.4-4.74-9-5.41.11.25,1.13,1.22,1.48,1.68-.74-.09-9.51-6.79-9-5.64-.77-.47,3.22,3.09,5.54,5.23-.07,0,2.49,1,2.41,1,.13.15-1.43-.39-1.12-.2.73.7,2,1.39,1.9,1.53-9.1-5.48-.26-.36-5.35-3.7,0,.75-1.53-.69-2.83-1.36,2.54,2.6-3.66-1.09-2.84-.12,2.29,1.55,8.28,4.79,8.71,6.31-.12,0,1.11.77,1.29.91,0,.12-.1-.19-.24-.11-1-.77-8.8-6.62-10.54-6.77-.23-.6-.83-1.14-.33-1.08-.65-.23,1.07.9,1,1.1-.1-.09-2.83-1.64-3-1.75s1.61.51,1.68.45c-.46-.23-1.33-.44-1.62-.6s-1.78-1.17-2.06-1.38c0-.31,3.61.74,4.11.75-1.52-.77-5.24-2.66-6-2.54s1.05,1.57.73,2c-.22-.07,1.69,1.25,1.4,1.09,0,.13-2.47-1.43-2.66-1.4-.26-.14.31.13.08,0s-1-.07-1.18-.2c-1.35-.9-1.13-1.54-1.2-2-.42-.11-1.32,0-1.8-.13-.16-.1.23-.61,0-.78-.26-.35-3.26-2.06-3.79-2.48,2.41.27-2.3-2.09-6.6-4-.24-.14,1.28.7,1.2.65.46-2-12-7.54-12.1-8,1.33.5,1.36.07,1.33-.39a36.51,36.51,0,0,1-4.18-1.7c.25-.16.17-1.41.32-1.59a33.11,33.11,0,0,1,2.8,1.77c1.41,0,2,.69-1.24-.82.76.36.78,0,1.23.1.92.5,1.37.26,2.2.83.22.25-.14.31.11.32.07,0,2.27,1.3,2.27,1.33-.22.83.49,3,.57,2.43a7.34,7.34,0,0,0,2.27.53c3.38,1.75,7.16,4,8.87,3.92-1.44-.77-2.34-1.29-3.81-2.24,1.55.18,1.06-.56,3.64.41a18.27,18.27,0,0,0-6.48-4.3c-1.62-.75-.39,1.23-2.78-.63.08-.06-2-1.39-2.06-1.5A7.79,7.79,0,0,1,157.25,87c.08,0,.27,0,.56-.19-1.09-.6-2-1.67-3.35-2.4.27.08.57.8.7.8.92,0,1.93.4,2-.12-3.79-2.29-4.17-1.2-8.2-3.64.24.64-1.2-.32-2.43-.81-.42-.22.55,1,.42.94-.3-.15-1.83-1.76-2.11-1.88a9.63,9.63,0,0,0-1.93-.68c-.08,0,.38.86.31.84a43.92,43.92,0,0,0-5.78-3.15c.92.65,2.33,1.25,3.4,1.94,0,0-.23.56-.26.56-1.36-.56-2.18-.92-2.62-.72.17.16.18.36.43.54-.54-.21-1.36-.76-1.88-1a43.49,43.49,0,0,0,5.34,3c.15.86-2.72,0-5.53-1.65a8.77,8.77,0,0,0,1.77,1.51c.73.28.48.47,1,.71-1.29.51.73,2.21,3.93,4.45-.9-.45-10.65-4.29-3.59-.56,0-.16-1.46-.85-1.56-1.07.27.15,1.37,1.12,1.66,1.38a5.33,5.33,0,0,0,.73.52c1.79,1.75,4.24,4.66,6,4.08.21-.07-1-1.08-1.14-1.3a20.56,20.56,0,0,1,3.32.39c-.35,0,.4.86,1,.6a2.9,2.9,0,0,1,.6.21c2.22,1.43,1.38,1.48.79,1.37,1,.59,3.07,1.59,4.47,2.32.53.37,1.76,1.16,2.19,1.47a5.28,5.28,0,0,1-2-.34c.86.74,1.72.83,2.31,1.39,2.35,1.41,2,.08,2.54-.36.11.06,1.15,1.25,1.28,1.34s1.29.86,1.45,1c0,0,.09-.4,0-.4-.39-.16.48.88-.12.57.3.21-.67-.61-.43-.44-1.1-.3-.58.23.29,1.25.48.32-.77-.11-.06.33-.42,0,1.16,1,.6.94-2.51-.27-1.15,0,2.73,2.71-.79.09-5.43-2.49-7.44-3.42,1.13,1,6.4,4,8.74,5.45-.16,0-.27,0-.48-.07-.93-.31-1.22,0-1.67,0-3.09-.92-9.44-3.73-9.89-3.91.58.41.72,2.27.31,2,.51-.91-4.11-.53-2,.66.66.23,1.74.51.87,0,.27.07,3.22,2.86,3,3-.29-.28-1.4-.86-2.06-1.31-1.32,0,.21,1.07,1.57,1.93-1.19-.7-1.79-1.06-2.24-.54,5.57,3.4,7,6,12.58,9.44.19-.23,2.23.67,3.27,1.39-2.35-.17.91,1.64,4.22,3,.16.09,0-.17.11-.15,1.53.58,4.46,1.88,4.22,1.22,0,0,.54.4.49.32.14-.07.07-.53-.09-.94l-3.65-1.75a14.53,14.53,0,0,0,2.61,1.62c.06,0,2.65,1.75,3.71,2.22-1.87-.42-6.88-1.88-8.63-1.27-.21,0,.92.68.75.67-1.07-.64-3.17-2.15-4.13-2.6-3.37-1.57-.49.61-.3.87.4.54,2.86,2.09,2.89,2.43-.2-.07-.42-.16-.2.2l.31.23c-.06.32-1.67-.24-1.81.07a1.7,1.7,0,0,1-.66.1c-.11-.49-1.09-.7-2.34-1,.67-.18-3.07-2.39-4.6-3.75.33.19,2,.83,2.17.9,1.67,1.22,3.71,1.81,3.16.6-1.33-.69-4.29-2.63-6.59-3.67-2.21-1.86,1.77.07,1.75,0-1.29-.67-3-3.23-3.09-3.3a53.21,53.21,0,0,1-7.05-2.59c-.7-1.21-12.2-6.87-11.85-6.39-.17-.77-.48-.54.21-1-3.15-1.93-1.35-.26-3.31-2,.14-.07-2.07-.9-2.51-1.25-1-.82-3.92-2.78-5.36-3.65.6.78,3,2.77,3.45,3.51-3.08-1.66-4.12-2.4-5.88-2.83a38,38,0,0,0-3.71-1.85c-.44,0,.32.91,0,1-1.57-.93-2-1.47-3.41-1.62-1-.11-.37,1-3.52-.6-.13,0-.21-.18-.46-.25-4.18-2.44-5.37-2.29-1.49.24.64.42,1.58,1.76,3.11,2.5-.63-.24-2.61-1.3-3.47-1.72,1.79,1.16,5.62,3.2,6.74,4.24-1.41-.84-8.25-5.32-10.88-6.58s-5.45-1.61-2.08.85a47.43,47.43,0,0,0,4.72,2.5,6.15,6.15,0,0,0,.85.83s-.17-.23-.17-.25c.32.18-.1.05.14.22s-.59-.15-.4,0,3.71,2.3,3.53,2.54c-.57-.27-3.31-2-3.78-2.18.64,1.09,3.82,3.06,5.68,4.07.47.25.78.12,1.47.49,3.48,2.74,6,5.06,7.74,6.21,3.5,3.44-11.55-4.27-3.32,1.92-1.66-.61-4.71-1.33-6.72-2.24,3.79,2.62,5.14,1.72,7.5,4.11a12.21,12.21,0,0,0-3.31-1.39c.26.15,1.35.93,2.84,2,.09.16-.51-.27-.24,0-.47-.28.31-.14-.48-.66a4.7,4.7,0,0,0-2.23-.92,15.57,15.57,0,0,0-4.36-2.31c-.39-.07-1.46-.47-1.39-.23q-7.12-4.08-12.92-7.59c-.47-.34-.47-.63-1-1-1.67-1.25-5.56-4.57-5.61-3.53,0,.19-.76-.11-.15.39-.49.56-.32,1.51-2.6.47-2.53-1.56-4.9-4.2-7.79-5.79-.45.17,2.35,2,3.54,2.83.06.07-.65.22-.6.29-2-1-4.29-1.87-6.52-2.88a20.78,20.78,0,0,0,5.57,4c1.86,1.14,4.29,2.67,4.74,3-1.86-1-7-4.45-6.93-3.42,2.08,1.48,6.36,4.77,9.8,7.65-.33-.05-.88-.71-1.21-.82a6.66,6.66,0,0,0-1.47-.25c-1.25-.22-.91.46,1.2,1.89,1.59,1.07,4.79,2,7.12,3.27a26.28,26.28,0,0,1,2.18,2.32,43.93,43.93,0,0,0-4.34-2.14c.47.43,1.74,1.35,2.2,1.82.54.68.14,1.25,1.84,2.55,0,.13.89.41.77.31a20,20,0,0,0,5.2,3.11c1.72,1.18,3.38,2.8,5.26,4,.47.33.82.36,1.23.69a5.84,5.84,0,0,1,.34.54c.29.19-1.09-.61-.81-.42a12.81,12.81,0,0,0,1.84,1.11c.65.42,1.15.4,1.79.8a5,5,0,0,1,.73.8c-1.84-.54-.06,1.24,1.52,2.1-.23,0-.61-.57-.78-.66.75.64,3.4,2.06,5.47,3.35C129.59,129.53,135.57,132.5,137.83,133.81Zm78.76,7.71.31.25-1.09-.41Zm-56.27-32.8.28.14.35.48ZM180.19,122l.49.3a12.8,12.8,0,0,1-1.59-.67S180.17,122,180.19,122Zm-42.88-20.21a.49.49,0,0,1,0,.27A.26.26,0,0,1,137.31,101.79Z"/></g><g class="cls-11"><path class="cls-12" d="M61.82,87.91C62.59,89,76.62,100.06,85.15,105c1.41-3-24.38-21.56-36.79-30.07-1,.19,8.31,8.32,4.87,6.39a5.17,5.17,0,0,1,3.17,1.79,28.47,28.47,0,0,1-3.12-1.23c2,1.42,6.07,4.57,8.54,6C61.93,88.08,59.88,86.8,61.82,87.91Z"/><path class="cls-12" d="M87.61,105.1c.35-.19-2.64-2.67-4.26-3.21C90.08,108,90,107.31,98.1,113c-1.79-.35-4.39-1.9-4.59-1.45,1.6.83,3.16,1.6,4.7,2.32-.76-.14-1.53-.28-2.31-.44,6.38,4.57,11.76,6.12,15.76,10,5.23,3-.38-2.4-.32-1.89,4.17,1.88,16.32,10.6,22.73,12.2C121.5,124.9,97.23,111.5,87.61,105.1Z"/><path class="cls-12" d="M127.37,117.12c-3.4-4.49-25.56-15.93-19.3-9.49a28.46,28.46,0,0,0-5.17-2.57,41.28,41.28,0,0,1,3.31,4c-13.88-7.9,14.3,14,12.06,8.72,4.71,4.14,24.42,15.9,27.73,14.8a35,35,0,0,0-6.94-3.44l.39-.63c-3.66-.78-12-6.22-15.22-9.21-1.75-.48,10.54,5,6.49,2.8,2.27,1.77,4.17,3.47,6.62,5.33.07,0,1.4-1.06,1.91-.44q-4.51-2.79-8.71-5.67c.25-.24,8.51,4.65,5.68,2.16-.86-.76-3-5.84-8.85-6.36C125.9,115.18,128.91,117.26,127.37,117.12Z"/><path class="cls-12" d="M85.24,97c-.12,0-8-6.19-8-6.16q.6-1,5.58,2.25c-.93-1.59-13.58-8.55-7.5-6.83,12.48,8.54,15.51,5.37,23.22,9.53-.11.15-.81.55.57,1.38-2.38-2.72,5.18,1.82,2.7-.53.77.44-12.39-7.95-12.15-8.52a9.33,9.33,0,0,0,2.51,1.06,10.92,10.92,0,0,0,2.36,2.47c-.13-.08-3.89-5.48-5.14-6.41l-.93.26C98.16,90.77,93,88.7,101,95.72c.17-.64.73-.49,1.7.44a12.32,12.32,0,0,0,2.84-1.4c-.56.2-.38.79.54,1.75,2.83.67,2.53.88,5.58,3.5-2.14-1-3.51-1.27-4.13-1a13.6,13.6,0,0,0,4.41,2.75c-.68,0-3.29-1-2.13.48a50.23,50.23,0,0,1,13.75,7c1.71.43,1.9,0,.57-1.34-1.07-.09,10,7,10.75,7.68,1.81.35,6.31.75.42-3,5.18,3.05,1.57-.67,0-1.84,3.5,1.68,9.37,4.5,11.55,5.61,2,1,11.06,7.57,10.23,5.81,7.13,5.59,5,5.36,14.78,10.36-.51,1,4.64,4.7,9.37,6-4.69-4-3.83-2.14-1.77-2.48,1.4,1.23,1.8,2,1.18,2.22q1.19-1.48,6.57,3.49c8,1.89-7.36-2.35,3.14,2.14q.76-1.2-.51-3.51c6.25,4.27,5.35,2,9.53,5.25q-3.36-2.85-1.69-3.15c2.65,1.79,4,3.11,3.93,3.94,8.65-.12,4,3.29,9.21,4.88a16.07,16.07,0,0,1-2.73-3.81c3.79,1.08,5.68-.58,7.62-.35-3.82-.45-12.66-10-12.44-9.86-.2,0-.25.14-.16.34a3.12,3.12,0,0,0-2.44-1.37c.09.1,0-1.31.9-.6-2.37-1.82-4.88-2-3.06-2.5q1.08,1.66-7.23-4c1.71.38,3.92.65,1.24-1.58.73.61-15.75-9.1-15.94-9.17,4.33,1.36,5.55-.64-2.66-4.65,1.42,2.45-2.1.72-4,.56-5.7-4.4,3.52.14-9.31-7.26,6.41,5.13-.27,2.21-3.21,1.54.32-.33,1-.38,2.21-.14q-7.14-3.15-6.4-4.45c4.1,1.66,5.34,3.55,3.84,1,5,2.62,4.36,2.72,6.92,3.25a30.67,30.67,0,0,1,7.22,5.07c.13-.35.66-.41.73-.65,1.58.79,11.2,5.1,12.43,5.15-7.85-3.29-2.81-3.41-2.62-3.51-3.06-2-9.54-6.23-6.93-5-1-.13-.4-.33.82.53q-4.45-3.92-2.27-2c1.34.52-.77-2.43,3.2.64a45.38,45.38,0,0,1,7.59,2.86q1.11,1.92,2.57,4-1.77-3.66,4.23-.24c.6,1.34-5.55,2,.09,5.44,0,.49,9.62,3.83,9.69,3.87,13.16,7.53,1.85.16,12.21,8.29,6.73,5.27,5,6.95,15.84,14.44,1.69-1.05-5.31-5.06-4.88-6.24,4.92,3,17.13,12.36,13.84,11.68,1.82.78-.49-.26-.09,0a13.44,13.44,0,0,0,3.8,1.84c-.82-.17-1.3-.47-1.43-.9-1,.28,17,11.34,18.59,12.28q-3.06-2.46-3.13-3.63c.06-.07,8.07,6.34,9.29,5.93-.52-.49-6.33-3.89-7.12-4.6.73.17,1.42.29,2.07.39-1.66-.84-6.66-4.92-2.93-3.14,2.47,6.71,17.08,8.6,15.08,7.67a39,39,0,0,0-5.89-2.06c2.6,1.86,4.29-.93,3.5-2.11.52.36,9.37,5.88,10.69,6.18,2,.46-2.85-2.76-3.58-3.33-2.71-1.73,9.77,4.07,9.73,4.33.21-1.5-18.36-15-17.49-15.12A119.88,119.88,0,0,0,280,164.24c-4.1-2.65-5.89-4.28-5.36-4.91q3.39,2.94,3,1.17s-5.85-3.85-5.91-3.46c16.6,8.4-3.91-3.84-4.63-4.88,2,1.12,7,4.47,8.37,4.14a50.26,50.26,0,0,1-4.19-3.43c-2.13-.45-1.34,1.38-5.92-3,2.87.85,5.11,2.83,8.53,3.89-.07.15-.16,0-.27-.34,3.29,5,17.57,14.2,19.43,17.2-2.33-1-.45,3.54-9.67-3.49-.3,1.26,10.14,7.48,12.77,9.6.86.69-5.09,2.12,2.35,1.48-.36.25-.52.06-.47-.56-11.21-2.16,15,5.76,7,2q3.62,2.88,2.39,3.56c1.59-.45,8.78,6.4,10.7,8.94-3.07-7.35-15-19.63-18.86-26.74l2.84,1.41c-.95-1.54-11.84-9.29-12.06-10.27a13.61,13.61,0,0,1,4.31,2.13c.45.42-1.15,1-1.65-.11l3.52,2c.53.39-10.67-9.25-11.7-9.08l2.76,1.87q-6.21-4-2.11.66c-.34.34-9.21-7.41-9.15-7.09,5.2,3-5.07-2.74-6.68-5,2-.16,13.1,8.71,9.29,5.05q5.36,3.31,10.48,6.72c-3.83-2.59-4-3.05-.48-1.37-.5-.35-14.45-11.82-14.59-11.85.77.64,1.45,1.25,2.05,1.83-.34,0-13.55-13.24-15.33-14.33,2.09,1.29-7.08-4.56-6.08-4,3.06,2.31-.78-.46,2.14,1.23.22-1.69-49.45-33-50.82-34.27-1.25-.25-.38.08.37,1.36-12.16-7.24-7.76-5.25-5.19-4.6l-2.8-1.08c.7.1.67-.23-.09-1,.47,0-26.44-13.47-27-13.82,2.8,1.55,5.56,3.16,8.29,4.86-.87.36-7.76-4.26-9.78-5.12,1.4.29,2.12.86,2.15,1.69-3.11-2-4.82-5.34-8.82-7,1.9,2.21-4.6-1.81-8.76-3.83,1.87,1.34,9.91,7.1,11.5,8.13-7.5-2.91-8.62-3-19.73-8.87,10.69,5.67-10.83-8.72-11.41-9.08a165.07,165.07,0,0,0-24.19-12.91c5.92,3.37-3.09-1.09-5.86-1.81a57,57,0,0,1,6.65,5.73c-.45-.42-1.79,1.31,2.66,3.52a7.67,7.67,0,0,0,1.89-.29q7.29,4,2.77,3.25c1.67,1.25,10.15,1.25,13.33,5.31.86,1.1-1.93,1.87-4.62.58,4,3.3,3.78.76,1.8,1.59,3.94,2.69,10,4.89,3.26,2.08a34.23,34.23,0,0,1,4.28,3.54c-4.63-1.63-15.13-8.24-14.63-9.5-.35.89-6.3-1.54-10.12-3.7-1.13-1.14-1.32-1.81-.59-2,6.35,3.45,1.81,1.33,5.47,3.66-6.31-2.84-10.55-6.79-16.46-9.27-1.18-.49-17.8-4.38-17.11-2.63,1.19-.49,5.7,5.52,5.57,5.18q1.79.19,1.2-1.08c-4.33-2.39,18.61,14.31,14.53,11.47-.09-.06,9.23,3.08,10.88,3.8a7.42,7.42,0,0,0-3.21.49c1.76,1.74,4,1.6,5.88,2.65-.22.47,20.52,12.69,22.32,12.19a14.06,14.06,0,0,0-5.63-3.75c-4.76-5.28-7.38-5.59-15.5-11.67,7.41,5.55,29.17,12.18,36.25,18.36-5.4-.41,5.25,6.31,13.56,10.19A59.58,59.58,0,0,0,163,84.11c1.48-.79,3.67,2.21,6.1,2.21-9.49-7.37-4.72-1.89-1.12-1.42q-.82-1.35-4.11-2.76c1-1.4,30.54,14.39,21.56,10.4a15.77,15.77,0,0,0,5,2.37c1.06,1.21.9,1.73-.49,1.54,5.67,4.27,3.5-.07,2.48-1,.17.55,5.17.69,4.46.35,2.51,1.63,3.1,2.44,1.79,2.43,1.8.75,5.74,1.17,8,2.47a2.41,2.41,0,0,0,.26,2.15c.71-.88,2.91-.14,6.6,2.24-2.4.64.13-.27,1.74,1.32-2.08-.94-3.34-1.22-3.79-.85q5,3.14,9.39,6.33-3.43-1.74-6.55-3a36,36,0,0,0,4.34,4.37c-7.07-4.3-12.59-9-19-12.19-2.14-1.07-12.48-3.84-9.2-1.45-.73-.45,7.5,2.21,7.73,2.27-.08,0-1.24.57-1.14.67,1.65,1.79,5.29,1.74,5.7,1.86,5.06,4-2.19-.06,5.53,5.11,3.23,2.16,5.17,3,11.44,6.84-10-5.53,4.88,4.43,1.76,2.85,3.46,2.23-5.44-2.2-7.33-3.33a9.11,9.11,0,0,0,1.78,3.44q-3.1-2.44.82.38c.09,0-6.27-2.77-3.89-1.35,5.83,4.74-1-3.48,6.84,4.26q-2.43-2.16.69.48c-1-.65-15.09-8-15-7.12,0,0,10.86,7.62,10.53,5.91,2,1.89,2.78,3.23,2.45,4-7-5.33-14.44-10-20.49-14.95-2-1,2.73,4.57,6.48,5.86q-1.6-1.29-3.58-2.62a24.55,24.55,0,0,0,2.89.6,26.26,26.26,0,0,1,5.49,5.56,31.47,31.47,0,0,0-5.5-3.67c3.17,2.43,5.86,4.74,9.17,7.21a46.35,46.35,0,0,1-7.74-5.64c-1.73,1.36-6.7-5-7.25-4.61,3.16,2.38-1,2,5.12,5.32q-3.06-1.45-.4.7c-.35-.25-11.8-9.24-11.3-6.58a93.19,93.19,0,0,1,7.14,6.56c.86-.08-7.55-6.55-7.81-6.55-1.92-2.47-1-.28-3.89-3.18,1.76.6,3.66,1.33,5.67,2.18-4.55-2.83-12.11-5.13-6.86-1.76.15,0-5.75-2.56-3.51-3.27-1.45-.62-8-5.94-9.26-7,3.7-.27-9.86-6.54-6.88-7.22q-2.25-1.07-4.62-2.43c.87,0,1.69-.12,2.47-.23,2.28,1.48,6,3.67,1.34,1a17,17,0,0,1,4.37,1.88c.23.85,1.56,2.18-.31,2.4.51.34,11.76,6.29,12.41,6.47-5.46-3.52-1.77-2.4,2-.51.2-2-11.08-6.54-10.23-7-2-1,10,5.73-.12-.94-.15.76,1,1.25,3.5,1.47a39.26,39.26,0,0,0-12.06-5.79c-2.43-1.41-3.85-3.35-9.27-5.78,3.37,3,.78,1.87-3.19-.13-1-1,8.91,8-2,.23-.49.4.83,3.33,2.56,4.85-2.41-1.33-4.73-2.48-6.95-3.43,1.39.46,1.75,2.36,3.43,4.3-5.45-6.29,24,13,12.45,7.36,1.92,2.45,6.44,2.6,6.51,2.6,2.92,1.81-1.21.8,2,1.79-3.28-1.73-3.27,1.44-1.79,2.72a70.16,70.16,0,0,1-7.74-4.43,83.77,83.77,0,0,0,7.32,5.54c-.26-.1-24.54-9.67-20.48-7-11.85-5.68,24.6,23.25,16.59,14.51,0,.11,4.84,3.67,5.4,4-4.92-2-8.76-2.94-11.92-4A11.56,11.56,0,0,0,152,108.9c.54,2.72,2.22,3.28-4.95.45-.19-.72-1.11-1.76-2.77-3.12,2.46,1.7,6.19,3.43,6.71,3-12.1-7.72,1.25-.61-4.16-5.49-2.35-.73-19.29-11.16-19.27-11.32,1.29-.51-2.92-3.55-7.91-7.19,0,3.67-14.51-7.48-22.34-9.46-3.12-.79,9.18,7.39-.33,1.58a56.69,56.69,0,0,1,5.58,4.28c-3.11-2.26-9.31-7.64-13.4-8.7-5.14-1.32,13.42,10,3,4.29-.85,1.49,11.39,7.49,9.29,9.58-.61.61-9.83-2.17-14.42-4.77a46.67,46.67,0,0,1,7,4.62c-6.62-4.95-1.78-.11-1.84-.21-2-1.46-18.7-12.67-20-13.53-9.71-6.21-.67.41-10.3-5.07q-2.26-2.43-5.37-5.16c-3.73-.71,11,8-6.05-1.68.27,1.59,5.74,4.39,8,6.66a22.5,22.5,0,0,0-6.91-4.18A78.59,78.59,0,0,1,57.73,70c.37.14-8.94-5.17-3.4-.53Q58,71.7,61.74,73.7s4,9.85,9.94,13.76c.21.09,10.37,7.26,13.56,9.5C85.32,97,83.24,95.55,85.24,97Zm117.11,40.17c.15.21-2.2-.82,0,0C202.37,137.16,202.32,137.12,202.35,137.13ZM152.46,102c1.26.51-1,.38,0,0ZM168,114.82c-.46-.34-1.11-.08,0,0C168,114.86,167.91,114.81,168,114.82ZM124,89.19a.73.73,0,0,1-.32.06A.45.45,0,0,1,124,89.19Z"/></g></g></g></g></g></g></svg>