<svg xmlns="http://www.w3.org/2000/svg" xmlns:xlink="http://www.w3.org/1999/xlink" viewBox="0 0 344 231"><defs><style>.cls-1{fill:url(#radial-gradient);}.cls-2{fill:url(#radial-gradient-2);}.cls-3{fill:none;}.cls-4{isolation:isolate;}.cls-5{opacity:0.67;}.cls-6{fill:url(#Degradado_sin_nombre_15);}.cls-7{fill:url(#Degradado_sin_nombre_36);}.cls-8{opacity:0.4;}.cls-14,.cls-8{mix-blend-mode:multiply;}.cls-9{clip-path:url(#clip-path);}.cls-10{mask:url(#mask);}.cls-11{fill:url(#radial-gradient-3);}.cls-12{mix-blend-mode:overlay;}.cls-13{fill:url(#radial-gradient-4);}.cls-14{opacity:0.72;}.cls-15{fill:#ddd;}.cls-16{mix-blend-mode:soft-light;fill:url(#radial-gradient-5);}.cls-17{opacity:0.82;mix-blend-mode:hard-light;}.cls-18{clip-path:url(#clip-path-2);}.cls-19{mask:url(#mask-2);}.cls-20{fill:url(#radial-gradient-6);}.cls-21{fill:url(#radial-gradient-7);}</style><radialGradient id="radial-gradient" cx="4667.68" cy="-9981.94" r="200.88" gradientTransform="translate(10039.77 -4629.34) rotate(-140.1)" gradientUnits="userSpaceOnUse"><stop offset="0.65" stop-color="#fff"/><stop offset="0.67" stop-color="#f1f1f1"/><stop offset="0.71" stop-color="#cdcdcd"/><stop offset="0.76" stop-color="#929292"/><stop offset="0.82" stop-color="#424242"/><stop offset="0.87"/></radialGradient><radialGradient id="radial-gradient-2" cx="14049.68" cy="-9754.74" r="138.24" gradientTransform="matrix(-1.31, -0.29, -1.5, -1.2, 3935.52, -7548.26)" gradientUnits="userSpaceOnUse"><stop offset="0.66"/><stop offset="0.8" stop-color="#fff"/></radialGradient><linearGradient id="Degradado_sin_nombre_15" x1="152.46" y1="1.93" x2="152.46" y2="263.07" gradientUnits="userSpaceOnUse"><stop offset="0" stop-color="#a1775d"/><stop offset="0.51" stop-color="#7a4b40"/><stop offset="1" stop-color="#77473e"/></linearGradient><radialGradient id="Degradado_sin_nombre_36" cx="150.94" cy="116.62" fx="9.229682467338051" fy="29.650928597526487" r="166.26" gradientTransform="matrix(0.97, 0.25, -0.34, 1.28, 44.07, -71.13)" gradientUnits="userSpaceOnUse"><stop offset="0" stop-color="#a1806a"/><stop offset="0.11" stop-color="#9f7d68"/><stop offset="0.18" stop-color="#987461"/><stop offset="0.24" stop-color="#8d6555"/><stop offset="0.29" stop-color="#7e5044"/><stop offset="0.3" stop-color="#7a4b40"/><stop offset="0.94" stop-color="#663a34"/></radialGradient><clipPath id="clip-path"><path class="cls-3" d="M138.12,31.25a84.62,84.62,0,1,1-69.76,97.22A84.62,84.62,0,0,1,138.12,31.25Z"/></clipPath><mask id="mask" x="-144.78" y="-166.19" width="401.82" height="401.82" maskUnits="userSpaceOnUse"><path class="cls-1" d="M23.54-163.5C133-181.5,236.35-107.34,254.35,2.13S198.19,214.94,88.72,232.93-124.09,176.78-142.09,67.31-85.93-145.5,23.54-163.5Z"/></mask><radialGradient id="radial-gradient-3" cx="-3574.52" cy="-10404.08" r="127.8" gradientTransform="matrix(-0.16, -0.99, 0.99, -0.16, 9801.24, -5051.58)" gradientUnits="userSpaceOnUse"><stop offset="0.07" stop-color="#fff"/><stop offset="0.37" stop-color="#fdfdfd"/><stop offset="0.53" stop-color="#f5f5f5"/><stop offset="0.66" stop-color="#e7e7e7"/><stop offset="0.77" stop-color="#d4d4d4"/><stop offset="0.87" stop-color="#bbb"/><stop offset="0.94" stop-color="#a3a3a3"/></radialGradient><radialGradient id="radial-gradient-4" cx="-3531.99" cy="-10360.24" r="84.62" gradientTransform="matrix(-0.16, -0.99, 0.99, -0.16, 9801.24, -5051.58)" gradientUnits="userSpaceOnUse"><stop offset="0.9" stop-color="gray"/><stop offset="1" stop-color="#c4c4c3"/></radialGradient><radialGradient id="radial-gradient-5" cx="710.07" cy="42.79" r="29.91" gradientTransform="matrix(-0.82, 0.57, 0.57, 0.82, 730.15, -279.44)" gradientUnits="userSpaceOnUse"><stop offset="0.11" stop-color="#fff"/><stop offset="1" stop-color="#393939"/></radialGradient><clipPath id="clip-path-2"><path class="cls-3" d="M12,30C4.34,1.3,58.11,11.39,146.3,56.19s171.63,97.24,184.31,129.54c8.33,21.21-15.48,29.15-58.83,22.62-21.57-3.24-44.36-18.1-80.56-36.2-47.38-23.69-90.86-58.55-124.91-85.08C34.27,62.1,15.62,43.62,12,30Z"/></clipPath><mask id="mask-2" x="-62.36" y="-46.32" width="550.26" height="341.09" maskUnits="userSpaceOnUse"><path class="cls-2" d="M-59.52-14.11C-81.15-69.19,23.23-51.9,173.61,24.5s289.83,183,311.45,238.06-82.76,37.79-233.14-38.62S-37.9,41-59.52-14.11Z"/></mask><radialGradient id="radial-gradient-6" cx="3801.74" cy="-16459.27" r="122.45" gradientTransform="matrix(-1.97, -1, -0.28, -0.72, 3085.88, -7883.55)" xlink:href="#radial-gradient-3"/><radialGradient id="radial-gradient-7" cx="3854.94" cy="-16415.66" r="75.73" gradientTransform="matrix(-1.97, -1, -0.28, -0.72, 3085.88, -7883.55)" xlink:href="#radial-gradient-4"/></defs><title>proyecs</title><g class="cls-4"><g id="café_planet" data-name="café planet"><g class="cls-5"><circle class="cls-6" cx="152.46" cy="114.66" r="84.37"/><circle class="cls-6" cx="152.46" cy="114.66" r="84.37"/><path class="cls-7" d="M231.81,143.22a86,86,0,0,1-3.58,8.49c21.46,16.79,34,29,31.93,32.16-3.77,5.76-63.24-18.16-122.77-57.15s-96.55-78.29-92.78-84c2.1-3.21,19,3.73,43.73,17.23a85,85,0,0,1,6.29-6.59C50.54,29.66,17.89,18.15,12.7,26.06,5,37.82,60.65,87.89,137,137.9s144.47,81,152.17,69.27C294.34,199.27,270.89,174.07,231.81,143.22Z"/></g></g><g id="lunares_planet" data-name="lunares planet"><g class="cls-8"><g class="cls-9"><g class="cls-10"><path class="cls-11" d="M138.12,31.25a84.62,84.62,0,1,1-69.76,97.22A84.62,84.62,0,0,1,138.12,31.25Z"/><g class="cls-12"><path class="cls-13" d="M138.12,31.25a84.62,84.62,0,1,1-69.76,97.22A84.62,84.62,0,0,1,138.12,31.25Z"/></g><g class="cls-14"><path class="cls-15" d="M73.64,90.9c-.15.12-.29.86-.4,1-.06-.06-.88-.75-.79-.93-.09.23.32.46.27.63-.46.84-1.42,2-.5,2.2-.75,1.07.65.08,0,3.18.25,0-1.48,3.1-1.69,5.72-.21,1.16.29,1.68.53,2.5,1.64-.47,1.67-1.85,2.17-3.22,1.53.36,2.51.1,2.82-1.66-.32-.12-.23-.6-.42-.68a11,11,0,0,0,2.41-1.75c-1.87-.5-.14-1.91,0-3.38.09-.83-1.3-1.8-1.26-2.51s1.25-1.35,1.32-2.15a17.88,17.88,0,0,1,.76-4.59c.41-1.34,1.39-3.58,1.44-4.78-1.52,0-3.27,3.06-4.36,5.48,0,0-1-.48-1-.53,0,.13,1,.64,1,.75s-.33.57-.43.82-1.25-1-1.47-1.18c-.07.46.5,1.89.29,2.59-.12,0-.35-.18-.5-.13C73,88.61,73.32,89.92,73.64,90.9Z"/><path class="cls-15" d="M73.82,105.51s.16,0,.14,0,.33-.37.32-.47c0-.79,1.45-1.47.14-2.22-.76,1.41-1,3.68-1.31,5.23,0,0-.92-.19-.92-.18s.43.33.4.43a9.65,9.65,0,0,0-.22,3.76,13.58,13.58,0,0,1-2-.21c.08-.26.22-.64.29-.93-.2,0,0-.48-.13-.33a3.35,3.35,0,0,0-1,0c-.09.6,1.35,1.53,1.43,2.1-.16,0-1.82-.49-1.9-.54-.07.49.83,2,1,3.36a2.45,2.45,0,0,0,0,.39,2.51,2.51,0,0,0,.21.6,6,6,0,0,0,.94,2.9s-.36.74-.36.74,0,.17,0,.27l-.89.34c.09.27.58.13.76.34.22-1.59,1.82-1.53,2.13.72.33-.79.12-.82.3-1.35.08,0-.41-1-.32-1.06s-.3.66-.28.68c-.3,1-.52,1.89-.2,2.39.06.44,1.63.11,1.9.26.24.66.16,1.13.29.79,0,0-.94.26-.92.32.2.54,1.39.83,1.57,1.32.33,1,2,4.76,2.85,5.07a14.6,14.6,0,0,0-.53-4.09,16.16,16.16,0,0,0-1.5-3.54c-.66-1.31-3.09-4.4-.49-5.18-.17-1.15.68-2-.92-2.07.18-1.47,1-3.73-.35-4.49.68-1.37-.36-1.68-.66-2.86.06-.45,1.07-1,1-1.19,0-.39.37-.84.28-1.24C75,105.44,73.82,105.6,73.82,105.51Z"/><path class="cls-15" d="M98.91,118c1.64-1.51,2-1,1.66-3.73-.28-2.3-1.45-2.29-2.74-3.78-1-1.22-.71-3.3-2.78-3.56s-1.38,1.58-2,2.47c-.21,0-.16-1.09-.37-1.08,0-.35-1.12-1-1.17-1.23-.26.31-.81.77-1.12,1.08-.61.09-1.37,1.87-1.93,2-.25-.73.22-1.75.37-2.53-1.77.11-1.83.74-2.22,1.95a7.13,7.13,0,0,0-.68-.33,3.56,3.56,0,0,0,0,.92c-.06.12.13-.35,0-.23s0,.41-.12.55c-.6.23-1.41.29-1.54,1.57-.06.55,1.07,1.12,1.32,1.68-.79,1.35-2.84-.24-2.79,1.53-.51,4.6,3.72,2.69,4.53,2.21-1.4,2.79-2.2,5.42-.34,7.33.26.83,1.24,1.26,2.2,2,1.12.91,3.26,3.87,4.66,3.77.39-1.7-1.47-2-2.08-3.11,0,0,1.53-.39,1.53-.4l-.54,0c-.06-.16.07-.35,0-.53-.13-.65-.67-.94-1.43-1.37-.09-.21-.77-.65-.86-.86.4-1.2,1.82-3.26.62-3.71,0-1-.1-.47.49-1.46.61.26.91,2.6.92,2.69.06-.11.47.51,1.5,0,0,.42.19-.17.25,0s-.36.47-.44.72a3.32,3.32,0,0,0-.71,2.11,12.84,12.84,0,0,0-.39,1.56c.47,0,1.64-.82,1.67-.4.12,0-.49.07-.38,0,.6.61,1,.94,1.67.26.91-.93-1.54-3.85-.3-4.84.17,0,.68.68.84.63.47.39-.14,2,1.09,1.84a33.88,33.88,0,0,0,3.65-1.7C101.74,120.54,100.45,118.22,98.91,118Z"/><path class="cls-15" d="M85.06,99.6a2.6,2.6,0,0,1,.4,0c.24-.87-.31-1.77-.26-2.61,0,0,.59.11.6.15a21,21,0,0,1,1.21-2s-.63-.7-.62-.71c1.9-1.37,1.56.81,2.56,2.15,1.24-.9.1-2,.45-3.15.25-.85.86-1.79,1.17-2.74a11.46,11.46,0,0,1,1.48.36c-.11,2.76-1,3-.07,3,.67.19.75,1.59,1.37,1.36a2.13,2.13,0,0,0,2.16,1.9c2.09,2,6.38,3.27,6.09,1.46a3.25,3.25,0,0,1,.8,1.33c-.25.06-.47.07-.59.2s-1.32,0-1.12.81c.08-.09,1.32-.89,1.39-.95.46.77,1.79,2.2,2.63.86a9.9,9.9,0,0,1-.14-3.82c.27-.87-.06-1.72.38-2.31.13-.1.23-1,.39-1,.18.17.36.87.38.6,0,0,.64.4.69.4-.28.39-.9.52-1,1-.53.9-1.16,1.39.67,1,1.4-.34,2.39-2.46,2-3.78.06-.1.38.67.45.58A3.29,3.29,0,0,0,110,91.83c.05,0-1.55.12-1.5.08.17.41,1.55.25,1.68.61a9,9,0,0,1,.51,1.59c-.6,2.26-4.55,4.68-5.3,6.24,1.52,0,1.78-.17,1.18.49.13,0,5-.5,5.68-.69-.3.1-1.15,0-1.52.49a2.75,2.75,0,0,0-.86.79s1.54.83,1.57.84a22,22,0,0,0-1.16,2.17c-.08-.26-1.09-.79-1.19-.86-.7-.52-1.06.27-1.9-.24-.21.52-.41.75-.36,1.1,0,.18.27.57.72,1.27-1.54-.2.43-2.28-2,0-.15.11-.6,0-.7.1s-.48-.06-.54,0l.87.55c-.4.7.16,1.27.23,2.42.72.09,1.37-.71,2-1.13a12.42,12.42,0,0,1,.6,2.47,3.93,3.93,0,0,1,.12,2c1,.42,2.58.18,2.94-.88.08,0-1,.4-.93.42a2.38,2.38,0,0,1,.39,1.63,4.94,4.94,0,0,0,.09,2.15s-.57-.37-.53-.38c-.19.72.56,1.72.18,2.63,1.61.48,1.65-1.21,1.82-1.17.57,1.76,3.15,1.45,3.27,1.68-.11,0,.58-2,.51-2.54.8,3,3-.61,3.16-1.28.54.73.61,1.92,1.12.52,1.28,2.12,2.47,1.8,3.5,2.65-.18,0,.07.24-.08.18-.81,1.16-1.7,2.81.67,2,.21.41-.1.2-.17.51-.25-.11-.14.73-.38,1.1-1.82-.34-1,2.47-1.09,3.69a6.68,6.68,0,0,0,1.89-.49c-.26.89-1.44,1.62-1.63,2.49,1.22.67-1,2-1.12,2.94-.16,1.49,1.18,1.94,2,3.31a5.09,5.09,0,0,1-2.35.24c-.66,1.63.49,1.19,1.24,2s.58,2.49,1.63,2.93c.15-.33.36-1.94.49-2.28.08.09.17.13.17.26.43-.23,1.09.12,1.57.11,0,.9-1.61,1.52-2.47,1.68a1.8,1.8,0,0,0,2.17.08,6.18,6.18,0,0,1-.6,3c1,.35,1.49-2.76,2.15-.07-5.25,3.6.1,1.34,3.24-.62,0,.8-.17,1.83-.27,2.67a5.65,5.65,0,0,0,2-.09c-.07.33.31,1.73.2,2.06.78-.53,2.47-3.81,3.47-2.37s-1.56,2.24-2.24,3.15c1.32.1,2.27,1.39,3.16,1.71-.58,1-2,2.1-.94,2.63.56-1.81,2.39-1.9,3.86-3,.05,0-.51.1-.46.06.54.25,1.32-.12,1.74.79.36-.31,1.51,0,2.54-1,.86.17,1.21-1,1.61-1,1.11-.19.94-1.72,2.36-.41.68.63-.15,1.93,1.11,2.17,2.25.44-1-5.09-.55-6.18.93,0,3.08-.7,3.15-2,0,0-.53.11-.41.06s-.28.11-.35.16.5-.66.47-.7-.91-.37-.93-.5c.38-.42,2-.39,2.07-.55-.28,1.38.19-.59.21-.6-.41.53-.48-.36-1-1.19.93,0,2.68-.17,1.44,0a4.88,4.88,0,0,1-1.35-3.6l1.78.67c.55-1.36,1.81-.34,2.34-1.64s-1.61-2.12-2.48-2.5c1-2.2,1.94-4.07-.11-5.53,1.43.76,3.3-.65,5.44-.24.56-1.47.71-1.51-.53-3.27-2.5,1.81-3.27,1.5-4.52.54.12,0-.22-.1-.09-.14.05-.83-.15-.29-.95-.42,0,0,.12-1.78.14-1.75a3.06,3.06,0,0,1,2.1-.1c.47-1.34-.1-2.91-.5-4.16-.34,1-1.24,2-2.09,1.36a1.92,1.92,0,0,1-1.25,2c-1.13-.58-1.6-2.13-3-2.61.22-1.5,5,2.92,1.64-2.83.88,0,.88-.47,1.41-.8.19.16.18.77.34,1-.23,1.09.1,1.59,1.29,1.41.06-.82.56-.93,1.13-1.34.17.32-.36.92-.07,1.28.25.65.73,1.11,1,1.8,0,.17.49.17.48.35.1,0,.82-.49.94-.45.09.2-.59.8-.49,1-.38.68.17,1.29.84,1.56-.55.08.06.83.37.69.06.09.1-.24.15-.15-.29.64-.94.56-1.25,1.18.5-.16,1.23,1.16,1.63.84.3-.09.06-1.14.31-1.22.91,1.36,1.58,2.66,2.34,2.74,0,.28.43-.53.35-.24,1.48.31,1.35,2.19,2.77,2.37-.64-.59-.79-.71-.44-1.65.19,0-.2.32,0,.34-.43-.62.44-1.2.3-1.78l1.18-1c.44.65,1.18,1.43,2,1.33,0-.65.25-1.49.09-1.79.06-.08-.31.39-.35.34.37-.16.43-.93.8-1.32.24.13-1.19-.67-1-1.23.49.06,1.38-.83,1.07-1.4.14.18-.29.9-.06,1.23a4.46,4.46,0,0,0-.34-.42c-.2,0-.29.7,0,.63,0-.1.39-.28.38-.38a1.67,1.67,0,0,1,0,.62,1.54,1.54,0,0,0,1-2c.34-.19-.47.4-.23.42s0-.23.13-.14.92-.5,1-.31c.1,0,.18-.37.29-.4a20.93,20.93,0,0,0,1.77,1.18c-.21.29-.76,1.15-.57.44.16.08.26.52.43.58.12.38,1.14,0,1,.45.69.14,1,.21,1.71.33.07.18.54,1.27.64,1.41-.73,1.27-3.29,1.7-3.92,3.06a26.73,26.73,0,0,0,4.91-.48s.38.71.37.74c-.48.3-1.84-.33-2.52.26-.23,0-.14.38-.29.48-.63,0-1,0-1.58.95-.62-2.18-1.83-.27-2.81.24s-2.41-.17-2,1.88c.42-.17,1.05,0,1.51-.35,0,.77-.2.82-.18,1.57-1.52.14-.61,2.45.83,2.42,2.11-.05.88-1.08,3.19.45,1.18.78,2.79,1.21,2.7,2.86-.11,2.11-1.75,1-3.28,1.59.56,2.81-.8,2-2.71,3.07-.34.2-.66.91-1,1.17a7.64,7.64,0,0,0-1.23,1c-.79.84-.08,1,.91,1.43l-.29,1.39c-1.22.08-1.39,1.18-.45,1.8,0,.64-1,1.91-1.36,2.42-.56.79-.76.38-.83,1.55,1.73-.26,2.48-1.15,3.27-2.78a19.71,19.71,0,0,1,1.82-2.07c.11.62-.35,1.24.22,1.31-.8.49-.49,1.3-.52,2.1-.14.11-2.24.79-2.05.84,0-.1,1,1.77,1,1.74,0,1.71.92.45.91.75-.33,0-.41,2.22-1.43,3a10.15,10.15,0,0,0-1.66.57c-.13,0-.49-.66-.61-.7.06.06,0,.06,0,.11-.3.17.55.07.43.17,0-.31-.68,0-.61-.27-.6,1-.21,1.09.57,1.28,0,0,.66.37.66.39s-.65-.32-.53-.36.26-.43.42-.42c-.59,0-.94,1.28-1.13,2-.33,1.22.18.57,1.13.67-.14.16-.46.88-.59,1,2.83,1.58.15,4.48.91,6.75.53-.5,1.76-3.65,2.62-2.85-.13,0-.37.3-.55.32,0,.27.45.59.76.86-.42,1.24-1.93,4.07.31,3.9.1-.16-.65-1-.59-1.18-.27-.16,1-1.13.7-1.31.37-.21-.63-1-.42-1.44a17.14,17.14,0,0,0,1.72.48c0-.07-1.12-.36-1.16-.43.23-.5,1.06-.69,1.27-1.21.44-.6.76-2.34,1.9-.85a21.4,21.4,0,0,1-1.69,4c.64-.06.85.29,1.48.22a16.66,16.66,0,0,0-1.57,2.93c.65-.23.86-.27.49.69,1.19.56,5.79-1.09,4.85-.23,2.68,0-2.09-2.72-2.6-2.74.25-2,4.58.71,4.6,1,.23,0,.09-.48.28-.54.72,0,0,.26.35-.26-.11,0,.44.22.35.21.52-.41,1.51-1.12,2.05-1.56-.05.94-.3,1.64-.39,2.57.73-.69.69-.48,1.73-.18,0,1.3-1.09,2.52.36,3s1.26-1.78,1.67-2.64c.08-.17-.16.22-.07,0,.05.56,1.32.45,2.6.36a3.54,3.54,0,0,1-.16,1.48c-.19,0,.65.4.46.44-.18.88-.42,2.2.86,1.73.71-.26,1-1.84.78-2.16.46-.2.7-.71,1.24-1.17,1.24-.28,1.91-2,2.05-3.93a40.15,40.15,0,0,0,1-4.74,5.8,5.8,0,0,1,.76-.33c.47,1.79-2.15,5.33-.62,6.59.13-.94.66-3,1.41-3.65,1.16-1,.94-.19.58,1.11,3.21.65,1-2.19,1.3-3,.06-.16-.75-.21-.47-.31a3.93,3.93,0,0,0,3.13,1.87,5.06,5.06,0,0,0-.29-3c.44-.58-.39-2.29.2-2.78a9.09,9.09,0,0,1-.08,2c.12.05-.06.42,0,.53s1.21-.33,1.25-.21-.06.19,0,.17c.37.62.56,1.31,1.32,1.28,1.35-.05,1.16-2.44-.15-2.53,0-.12-.27.34-.32.36.14-.33,1.15-.3,1.54-.65-.24-.08-2.07-.16-2.33-.24a5.19,5.19,0,0,1,.69-2.47s.21.26.25.28c-.16.42.5.54.84,1.07.27,0-.41,1-.18,1a7.45,7.45,0,0,1,.46,1.15,2.37,2.37,0,0,1,1.77.07c.07.17-.24-.08-.17,0s.46-.39.44-.3c-1.62,1.28-2.18,3.68-2.94,5.74-.78.65-.5,1.47-.56,3.47-1-.16-2.88-.49-3.42.39,1.41,1.15.42,3-.61,4.2l.38.17c-.84-.77-1.76,1-2.62,1-.19,0-.86,0-1.06-.09-1-.63.48-3-1.26-2.31.06-.29-.26-1.71-.19-2-2.65.9-.84,3.85-1.27,5.66s.55,2.51-1,2.75c-.85.14-3.13-1.13-3.13.58,1.07.62,2.65.25,3.74.29.1.2-.53-.05-.51,0s.93-.51.93-.48c-3.63-1.06-3.05,4.94.93,3.66.73-.23,2.89-2.38,3.6-1.52,1,1.22-2.6,2.35-3.35,2.72.47,0,1.3.47,1.77.46-.12.08-.94.46-1.28.65.32,0,.4.34.73.4-.22,1.48-1.55.84-2.54,1.63s-.89,3.43-1.71,4.18a25.19,25.19,0,0,0,3.68-2.6c.94-.81.59-2.25,1.73-2.85,2.21-1.17,4.64-1.45,5.92-3.59,0,.22-.2.08-.17.29.8,0,1-.66,1.53-1.1,2.07-1.16,4.12-3.46,6.14-5.57.51-.29,1.36-.34,1.84-.67,1.23-.86.81-2,1.46-2.89.34-.38,1.52.05,1.77-.21s0-1.15.26-1.37c0,0,.84,1.27.84,1.28s-.11-.45-.06-.49.41.08.55,0c1-.68,4-4.44,2.32-5.27.58-.72,0-2.16.94-2.62.05.13,1.26,1.14,1.28,1.34,0,0,0,.58,0,.58-.09.16-1.86.26-1.92.44-.09-.51.49-1.38.53.15.21,0,.24,1,.33.91S218,164,218,164.08c.35-.24.8-.21,1.11-.61.19.05,1,.63,1.11.62.25-.64,0-1.7.21-2.53a4.24,4.24,0,0,0,.45-2.72s.14-.83-.21-.82l0,1.58s-.39-1.4-.44-1.39c-2.59,1.67-4.48,2.62-3.68.22-.15-.26.92-.67,1.59-1.58a3.59,3.59,0,0,0,1-1.83c.08-.13-.18-.31-.12-.45-.07.05-.15-.64-.24-.6s.77,1.16.75,1.13c.52-.68-.31-1.32-1-1-.06-.51.19-3.44,1.16-4.28.33,0,.71,1.34,1,2a19.87,19.87,0,0,1,.89,3.63c.21-.46-.18-.67.13-1.15-.64,2.47,1.44,3.1.53,5.76.36-.35.16-1.33.62-1.94,0,.05,1.13.88,1.18.94,0-.16-1.19-1.12-1.15-1.26,1.46-2,4-4.27,4.4-5.75a4.08,4.08,0,0,1-1,.16c0-.12.51-3.15,1.27-2.91-.1,1.27-.84.72-.79,1.49a2.1,2.1,0,0,0,1.37-.49l-.79-.9c1.9-1.63,3-5.58,3.88-8.06.15-.45,2.57-1.7,2.5-2.11,0-.05-1,.12-1,.08.29-.95.38-1.6.48-1.82-.59,0,0-.59.73-1.64.09.22-.41-.25-.3-.05,0,.16-.61.39-.64.82.06-.23,1.21-.16,1.26-.38,0,.07-.31.57-.29.64,1.13-.41,1.41-2.47,1-3.41.09-.32,0-.21.1-.45.39-.94-.25-2.33,0-3.37s1.28-3.44-.4-1.56c0-.13-.68-.49-.72-.71s.33-.38.41-.59c-.09.07.32,0,.21,0-.06-.35-.18-.54-.22-.94.4-1.45,1-2.7.34-1.92.06-.2.09-.65.21-.7.15-.61-1.18-2.08-1.6-3.51,0-.21.78-.57.78-.78s-.44-.35-.5-.54c-.28-.9.23-1.53.41-2.32.2-.27.09-.53.59-.51.09-.87-1.23-1.64-1.25-2.45.1-.18.7-.45.63-.66.11-.43,1.09-.55,1.18-1,.3-1.49-.7-3-1.12-4.63-.07.25.39.71.25.93-.55-.16-.37-1-.87.19-.13.12-.88.69-1,.8a8.09,8.09,0,0,1,.6-4.49c.06,0,.41.62.45.61a7.9,7.9,0,0,0,.87.14c0-.06-1.37-1-1.38-1s.62.26.58,0,1-.45,1-.71a.45.45,0,0,0-.42.21c-.55-1.68-2.58-5.58-4-8.73l.4.33c.06-1,.72-2.67-1.56-2.33,0,.27.51-.69.45-.43-.22-.63-2.13-1-2.16-1.44-.15,1,1.69,3.12,1.21,4.23-.28,0-.88-.56-1-.62s.11-.24,0-.3c-.36-.83.09-1.83-.76-2.46-.06.08-.34-.24-.45-.16a5.88,5.88,0,0,0-.24-1c0,.1.7.24.7.41-.23.16-.95.82-1.13,1-.09-.67-.16-2-.21-2.63a11.37,11.37,0,0,1,1.19-.22c.3.24.08.46.51.71-.06-1.44.54-2.08.49-2.48-.09-.08.05-1.11,0-1.19s-.64,1.15-.68,1.15a14.42,14.42,0,0,0-.85-1.57c-.27-.52-1.49-2.47-2-3.15-.2,1.46,1.33,3.21,1,4.75-.08.12-.22.19-.34.35-.4-.46-.43.54-.81.29,0,.77-.57.72-.54,1.46-.69-.54-.71-1.68-1.25-2.31-.8.47-1.23,1.55-1.84,1.52,1.91-1.93-5.77-3.54-.8-4.15-.63-.62-6.06-4-2.52-4.48,1.44-.17,2.56,2.28,3.46-.12.3-.78-.3-1.93-.48-2.72,0-1.07-1.34-2.17-1.58-3.44-.16-2.1-.2-3.59-1.53-5.71-.7-1.1-.65-3.3-1.3-4.17s-2.07-.74-2.84-1.6a7.92,7.92,0,0,1,.45,1.56c-.34,0-.39-.9-.65-1a.51.51,0,0,0-.4-.22,15.61,15.61,0,0,0-3-2.15c-.25.8.58,2.59,1,3.24a1.19,1.19,0,0,0-1,2c-1.33.7-1.82-.75-2.84-1-.64-.12-1.36.73-2.06.72.49.33,0,.38.37,1,.06.11-.91,1.08-.65,1.46s2.39-.39,2.68,0c1.91,2.5-.41,2.78-2.4,2.55-.33,1.56,5.2.7,6.13,2.77,1.67,3.71-2.26,2.41-3.92,2.94-.64-.06-1.08-.46-1.42-.46s-.74-.08-.87-.25c-.22.58.61.67.87,1.26.07,0-.32.6-.26.64-.18,0-1.11-.63-1.27-.61,0,.35,1,1,1.21,1.34,0,0-.24.2-.27.24.16.12-.32.82-.23.89s.06-.06.2.09c0,.23.11,0,.09.24s-.08,1.11-.28,1.31c-.31-.88.15-1.7-.55-2.32a1.49,1.49,0,0,0-.56,1.93c-.13.11-.4.89-.58,1-1.38-.88-1.77-1.82-2.19-3.93-.32-1.61-.27-4.13,1.69-3.47,1.12-1.62-.66-.15-1.58-.46-1.54-.52-2-1.32-3-2.77-.5-.78-1.6-1.51.13-2,.35-.09,1.48-.91,1.83-.56.43.94.05,1.73.54,1.77,0,0-.52,1.37-.53,1.34s.23-.83.3-.77c.53-1.46-.14-2-1-2.9-.18-.22.2-1,0-1.15s-1.2,0-1.32-.26c0-.43.72-1,.52-1.36.11.06,0,.3.1.35.13-.24.22-.81-.11-1-.09-.77-.7-1-1.5-1.1-.29-.3-.15.2-.36.47,0,0,.24-.41.24-.41.11-.48-1.22-.56-1.08-1-1.15.33-2.08-.32-3.11-.35-.93-.25-2.07.26-3,.09-.25-.1-.29-1-.56-1.15-2-1-5.05-2.49-7.25-1.21,1-.1.37-.19.41.62-.39,0,0,.32-.17.34,0,1.19-.41.85-.55,1.34a18.72,18.72,0,0,1-2.16,1.88c.52.47,2.47-.2,3.24-.63.77,1.85-2.91,3-3.82,4.28-1,1.45-.6,3.38-.48,5.23,2.19.44,3.51-1.23,4.14,1.91.66-.5.67.28,1.37.67.45.39,1.54.86,1.82,1.15-.51-.09-4.36-.23-4.53,0-.66,1,.67,1.73,1.49,1.66,0,0,0,.16,0,.2.33,0,.74.68.7.59.18,0-.43-.42-.25-.54,0,.88-.45,1.77-.26,2.46.07.26,1,.42,1.16.51-.08,2-.71,3.95.34,5.19-.06,0,1.2-.17,1.14-.16-.32,1.11-.32,1.31.71,1.15,0,0,.81-.18.82-.16.28,1.3-.35,2.41,1.11,2.33a7,7,0,0,1,.77-2.11c.08-.12-.9-1-.82-1.08s.48.07.54,0c1-1,1.69.39,1.5-1.29-.1-.82.89-1.3.6-1.71,0-.51.12-.88.17-1.56a1.67,1.67,0,0,0,.25-1.11c0-.2-1.08-.39-1.25-.57.25-2.85.46-5.54,1-2.74-.58.51.78,1.28,1.25,2.2-.19.2-.48.41.23.66,0,0,.22.07.22,0,.4.6,1.34.93,1.79,1.46-.07.08-.18.08-.05.12a14.07,14.07,0,0,1,1.75,2.93c-2.2,2.58,6.41,4.27,4.42,8.35-1.36-.2-3-2.35-3.22-.4.13.08-.28.88-.2,1-1.95.45-.45,3,.4,4.78-1.79,1.68.13,1.93,1.13,3.16a5.09,5.09,0,0,0-.75-2.46c0-.15-.36-.26-.36-.55.45-.06,1-.1,1.42-.18a2.33,2.33,0,0,0,1.81,2.34c.21-.73-.53-2.18-.6-2.88,0,0,.45-.26.48-.31.47.35.88,2,1.26,2.09,1.12.23.65-1.82,0-2.35,1.92-.46,1.65,2.36,2.63,3.38.54.58,2.45-.4,3.08.24.47.48.39,2,.83,2.57s1.41,1.82,2,2.67c.1.24-.05.41,0,.65.07.75.34.61,0,.78-.1-.24-.4,0-.5,0,0,.21.08.24.1.38-.46.07-.75-.75-1.17-1.2-.09.33.37.91.38,1.24.33.08,1,.86,1.35.93-.36,1.1-2.22,1.07-3.21,1-.39,1.72,1.22,1.8,2.37,1.86,0,0,.35-1.14.36-1.14s-.11,1,0,1c.47.12.21-.57,1-.88.38-.14.7-.08.9-.35.26,0-.44-.37-.11-.92,0,0,1.09,1,1.13,1,.63-.25,3-.82,3.41-.25,1.31,1.76-1.51,1.31-2.12,1.88,1.68,1.47,2.2.45,3.19,1.38.23.59,1.63.62,1.81,1.16-.34.63-3.06.49-3.38,1.52.68.59,2.28.5,3.13.53a16.56,16.56,0,0,1,.61,1.71c-2.8.15-1.47-.67-.72,0-.21.16-.1.18-.19.34.24.13.23.24.57.31,0,.14.18.29.08.44-.7-1.59-1.72-.44-2.9-1,.14.44.35,4.6-.07,5.37a13.11,13.11,0,0,0-2.32-2.78,12.68,12.68,0,0,0-2.5,3.49c-.76-3.71-.18-3.66,0-8,2.53-2.59-8.73-6.4-9.07-4.4.22,1.61,3.34.82,4,.48a4.49,4.49,0,0,0,1,1.9c-.58.07-1.81-.19-.88.23-.35,1.12-2.84-1.35-.87,1.58,2,.36.87-.46,2.64.42-.21.69-3.35,1.48-3.31,1.46.07.24,2.64,5.9,0,3.69-.3.63,2.23,4.55,2.3,4.91-1.78-4.21-3.34,2-3.11,3-.13-.21.36-.65.24-.83s-.3,0-.28,0-1,.6-1,.6A7.54,7.54,0,0,1,201,126c-2.17.25-2.7,2.49-3.85,2.58,0-.84-.06-1.05.35-.93,0,0-.08,1.28-.07,1.28-.32,0-1.18-1.39-1.67-1.78-.11.95-.3,1.23-.48.44-1.2,3.31,4.14-1.58.58,3.66.89-2,.26-.19,0,.41,0-1.74-.41-4.37-1.67-2.88a3.72,3.72,0,0,1-1.36-2.31c-3.92-3-1.09-.3-1.62,3-.68,0-.93-.1-.08.38.39-.14,1.41.6,1.62.5-.32,1.15-2.28,2.35-4.07,3,.42-1.81,1.51-9.07.64-9.89a28.3,28.3,0,0,1,1.43-2.63c-.94-1.64-4.19,3.78-2.6,4.75.33-.18.33-2.06.38-2.19a15.32,15.32,0,0,0,2.3.71c-.14,1.43-2.18,3.56-3.22,4.44-1-1.87,1.9-2,0-3.12a52.89,52.89,0,0,0-1.82,6c-.36-1.85.14-4.41.77-4.73-.35.07-1.08.62-1.55.81-.61-.38,2.75-5,1.12-4.76.1-.41-2.37,1.74-3.92,3,0,0,.69,1.29.67,1.25s-.73-.74-.76-.58c-.54.4-.54,1-.89,1,.79-4.79.41-.15,1.36-2.83-1.42,0-.31-.8-.4-1.48-2.17,1.37-1.72-1.88-2.66-1.44-.51,1.22-.36,4.35-2.69,4.63-.19-.06-.29.58-.36.68-.24,0,.25-.06,0-.12.38-.54,3.16-4.68,1.68-5.57.86-.14,1.23-.46,1.64-.2-.25-.34-.57.57-1,.53.06-.06.12-1.49.19-1.56s.7.83.9.87c-.06-.24-.57-.69-.56-.84s.34-.94.44-1.09c.53,0,2.3,1.85,2.79,2.1-.13-.8-.45-2.74-1.44-3.12-.82-.32-1.8.59-2.84.44-.09-.11-.56.9-.58.75-.27,0,.12-1.3-.14-1.4,0-.13.08.17.11,0s-.87-.5-.84-.61c.27-.71,1.67-.62,2.43-.68-.22-.21-1.35-.66-1.59-.91,0-.08,1.36.09,1.44,0,.37-.14.45-1.72.68-2,2,1.23,1.49-1.24.7-3.48,0-.12,0,.67,0,.63,4,.16,1.6-6.32,2.42-6.39.45.69,1.25.68,2.07.65a6.61,6.61,0,0,1-1.14-2.16c.54.11,2.75,0,3.22.1a3.05,3.05,0,0,1-.4,1.47c1.49.71.79,1,.25-.65.11.39.8.39,1.07.62,0,.48.91.7.71,1.14-.23.12-.71-.06-.47.07a5.11,5.11,0,0,1-.13,1.19c-1.74-.08-5.06.36-3.86.38,0,.37.94.86,1.34,1.16.24,1.77-.1,3.76,1.83,4.62a4.46,4.46,0,0,1,.23-2c1.25.78,2.1.51,2.94,1.84,1.39-.52,2.12-2.42,1.28-3.42-.27-.84-2.65-.15-1.66-1.42.18,0,.48-1.07.65-1.1.12.17-.41,1-.44.84a4.72,4.72,0,0,0,.93.27c0-.57,1-1.07,1-1.77.13.14-.89.31-.75.38.95.47,1.23,1,2.25,1,.34-2-2-2.14-1.67-4.26-.92.14-.63-.62-1-1.26,0-.22-1.18.31-1.28.25s1.35-1,1.29-1.14a2.31,2.31,0,0,0-.71-1s-1.19.23-1.22.19c0-1.08.5-2.37-.11-3-.24.49.07,1.22-.1,1.79L187.61,99c-.36-.71-.52-1.13-1.33-1.35-.13.09-.48.1-.56.24-.15-.28,0-.72-.15-1-.51.71-.25,2-.16,2.81a2.63,2.63,0,0,1-2.58-2.85c-.48.09-.65.54-1,1,.23.38-.36.26-.24.55-2.25-.64-3.3.44-4.16,2.14-.09-.47-3-5.53-2.6-1.83.31,0,.07-.77.36-.83,0,.14-.65.73-.83.89s-.15.26-.22.39c-1.36,1-4.2,2.31-1.32,3.19.34.1,1-.55,1.22-.62a18.41,18.41,0,0,1,2.66,1.69c-.4-.18-1.17.23-.06.54.07.14.21.12.23.31-.36,1.17-1.3.75-1.72.45,0,.54.22,1.6.3,2.34-.13.28-.32.93-.45,1.15a3.56,3.56,0,0,1-1.42-1c-.48.46.22.9-.2,1.21-.18,1.24,1.87,1,3.22,1.27,0,.06-1.1.63-1.12.7a7.43,7.43,0,0,1-.33.77c-.1,0,.82,0,.73,0-.11-.2-1.13.27-1.17,0-.07.16.45-.36.37-.23-.56-.57-1-.29-2,.19-.09.25-.58-.39-.65,0-.37-.21-.66.62-1.11.34-2.06-1.28-1.21-.58-2.19,1.47-1-.39-1-2.83-1.31-3.87-.72.61-.84,3.37-1.07,4.6-.11-.08-.24-.13-.37-.24-.37-.48-1.26-.61-1.77-.84a23.17,23.17,0,0,1-2.89-5.13c-.14.31-3.4.45-3.42.23,2.18.22-3.18-2.09-3.18-1,.26.35.83.9,1,.44a5.18,5.18,0,0,1-2.52,1.62c.21-.15.14-.73.3-1.08-1.29-.67-1.74.14-1.93.86.08-.63.12-.94-1.3-1.15-.55,2.93-3.85,3.74-4.48,6.69a1.34,1.34,0,0,1,.78,1.7c-2.06-1.19-2.06.52-1.13,2.23,0,.09.3,0,.39,0,.5.8,1.09,2.32,2,2.18,0,0-.18.28-.07.26a6.08,6.08,0,0,0,1.62-.09l-.5-1.9c-.52.21-.28,1.32-.31,1.38s-.53,1.4-.3,2c-1.12-1-3.53-3.54-6.43-4.4-.17-.1-.3.49-.45.4.09-.56.71-1.67.55-2.18-.56-1.75-1.61-.22-1.88-.11-.59.22-.93,1.51-1.52,1.54-.07-.1-.12-.21-.55-.09a1.83,1.83,0,0,1-.13.16c-.64,0-1.25-.84-2-.9a4.66,4.66,0,0,1-.85-.33c.79-.08.16-.58-.63-1.22,1,.33,1.25-1.63,2.17-2.46a9.2,9.2,0,0,0,.55,1.13c-.54.89.47,1.94,2.11,1.61-.07-.69.46-2.25,0-3.45,1.16-1.18,1.66.89,1.72.88-.08-.67,2.87-1.62,2.89-1.68A10.86,10.86,0,0,1,142,107c1.49-.39.17-6.4-.35-6.21,1.22-.11.49-.26,2,.07.35-1.65-.88-.69.28-1.74.27.07-.45-1.07-.25-1.31a8.24,8.24,0,0,0,1.22-2.84c-.81.33-2,1.63-2.91,1.87-.08-1.61.21-2.16-.78-3.06a4.77,4.77,0,0,0-.39-1.94c-.42-.23-1.34.19-1.78,0,.13-.82.63-1.08-.49-1.78-.83-.52-2.2-.15-2.48-1.79-.15-.07.12-.12,0-.24.21-2.2-1.27-2.8-2-.75-.12.34-1.61.86-1.41,1.66a8.64,8.64,0,0,1-.37-1.81c-.31.94-.14,3-.92,3.55.12-.74,1.36-4.35,1-5.73-.17-1.4-2.58-2.8-3.66-1-.36.6.14,1.67.2,2.47-.07.06-.63.32-.62.46s.23-.09.27-.09c0,.16-.2-.05-.25.07s-.33-.3-.42-.2-.44,2-1,1.88c-.09-.3.24-1.75.14-2-1.34.36-1.72,2-1.67,3,0,.25.57.4.6.76-1.49,1.85-3.16,3.21-3.51,4.13-2.72,1.89-3.9-6-6.87-1.6-.56-.86-2.33-2.42-2.71-3.47-.94,2,2.07,2.65.1,3.93a2,2,0,0,0-.81-1.72,10.33,10.33,0,0,1-.75,1.5c-.2.06,0-.26-.2-.12,0-.24.57.16.71-.26.27-.57-.36-1.09-.57-1.16.37-1.16.36-1.86-.2-2.28-.26-.2-.63-.76-1-.71a64.94,64.94,0,0,1,.76-6.8c.14-.24.68-.26.87-.54.59-.89,2.71-3,.76-3-.35,0-.57-.39-.86-.06-1.53-.23-3.08-.11-3.49-1.3.28-1.33,2.7-2.62,2.67-4.14-.77-.22-1.32,1.26-1.57,1.89-.07,0-1.08-.32-1.14-.29-.23-1-.94-2.23-1.35-3.39-1.12.52-2,2.17-1.58,3a12.12,12.12,0,0,1-.69,2.5c0-1,1.08-3.67-.78-3.62a30.82,30.82,0,0,1-4,5.22c-.24-.16.39-.46.26-.64a4.71,4.71,0,0,0-1-.75,1.34,1.34,0,0,0-2.23.68c-.35.84,1.1,2.49,1.25,3.71a10.6,10.6,0,0,1-2,1.18c-.18-.85,0-1.59-.47-2.27-.31.26-.7.93-1.1,1.18-.7.3-2.14.12-2.79,1-.21,0,.15.47.22.4a2.19,2.19,0,0,0-.4,2.74c-.43.91-1.7,1.81-2,2.8-.13.25.17.43,0,.65.1,0-.76.23-.65.18,0,.16,0-.57,0-.42s-.29.86-.17,1c-.1.34.44.59.36.93a2.42,2.42,0,0,1-.72.4,1.38,1.38,0,0,0-2.3.84c-.14-.11.43-.33.42-.41-.4.4-.31,1.79-.58,2.88C84.52,95.29,85.16,98.42,85.06,99.6Zm65.75,40a1.14,1.14,0,0,0-.15.16s-.34-.53-.35-.57S150.8,139.58,150.81,139.6ZM153.65,110l0,.15-.51.19Zm-4.1,10.5s0,.23-.05.26-.4-.77-.39-.82S149.48,120.51,149.55,120.52ZM143,98.16a2,2,0,0,1-.48,0A1.53,1.53,0,0,1,143,98.16Z"/></g><g class="cls-14"><path class="cls-15" d="M91.82,59.59C90.53,60,84.64,67.5,84.19,72,91,72.59,98.84,58.9,101.8,52.33c-1.34-.49-6.76,4.5-6.73,2.69.9.69.88,1.24,0,1.66a5.17,5.17,0,0,1-.91-1.62c-.61,1-2.2,3.23-2.29,4.53C91.63,59.65,91.89,58.57,91.82,59.59Z"/><path class="cls-15" d="M86.58,73.22c.7.18,2.19-1.43,1.54-2.26-4.27,3.62-3.16,3.55-5.29,7.84-1.17-.91-1-2.28-2-2.36a13.72,13.72,0,0,0,.53,2.45l-1.54-1.18c-1.88,3.38.75,6.16-2.33,8.31-.22,2.75,4-.27,3.12-.22.79,2.16-2.82,8.61.76,11.9,3.4-6.66,3.26-19.39,5.21-24.48C86.55,73.22,86.55,73.31,86.58,73.22Z"/><path class="cls-15" d="M104.92,93.71c4.76-1.88,3.18-13.47-2.23-10.08a3.35,3.35,0,0,0-.55-2.69,25.31,25.31,0,0,1-3.94,1.81c.35-7.29-11.11,7.73-3.71,6.4-2.78,2.53-4.27,12.9,1.1,14.53a4.23,4.23,0,0,0-.75-3.63l1.54.17c-2.28-1.87-.84-6.29,1.38-8-.9-.9,1.52,5.5,1.48,3.38-.94,1.21-2.13,2.23-3,3.53.08,0,3.36.67,2.74.95a24.17,24.17,0,0,1,1.52-4.61c.68.12.15,4.47,1.83,3,.51-.46,7.6-1.73,2.62-4.7C107,92.9,106.23,94.5,104.92,93.71Z"/><path class="cls-15" d="M99,71.73c-.13-.06,3.15-4.28,3.11-4.27,1.64.18,2.16,1.14,1.55,2.9,2-.53,1.84-7.16,4.88-4-2.94,6.6,5.91,8,6.13,12-.39,0-1.83-.38-1.94.34,2.53-1.3,1.92,2.68,3.7,1.34,0,.41,2-6.54,3.24-6.44a1.56,1.56,0,0,0,.61,1.31,4.5,4.5,0,0,0-2.13,1.28c0-.07,6.07-2.16,6.49-2.83l-1.4-.46c.14,5.1-1.33,2.41-6,6.73q2,.09.9.87,2.7.81,5.44,1.39a3.15,3.15,0,0,0-2.64.33c1.65,1.45,1,1.31-.74,3a3.3,3.3,0,0,0-2.42-2.12,1.62,1.62,0,0,0-.54,2.32c-.64-.34-1.52-1.69-3-1,.94,1.53,3.17,4.34,1.16,7.18a2.2,2.2,0,0,0,3,.24c-.91-.54-2.7,5.27-3.11,5.7,1.19.93,5,3.21,5.87.11-.33,2.72,2.8.77,3.37-.06.48,1.82,1.28,4.89,1.48,6s-2.63,5.85-.26,5.37c-3,3.8-4.69,2.74-3.93,7.83-2.27-.22-3.87,2.52-1.42,5,2.53-2.51,0-2,2.75-1a2.89,2.89,0,0,1-2.88.68q3.92.54.29,3.44c4.63,4.09-3.18-3.8-.71,1.66a16.51,16.51,0,0,0,5.89-.38c-1.46,3.31,1.86,2.76.06,5a3.58,3.58,0,0,1,4-1,3.25,3.25,0,0,1-3.21,2.12c9,4.36-1.93,2.15.43,4.83.52-.66,4.78-1.71,4.18-1.52,1.88,1.95,6.82,2.84,8.37,3.83-3.06-1.94,5.44-6.75,5.39-6.64a1.3,1.3,0,0,0-.78-.06c.93-.31.94-.74,0-1.29-.09,0,2.37-.06,2,.44.93-1.27-1.31-2.54,1.47-1.64q-2,.6,0-3.79c1,.88,2.77,2,4.13.57-.37.39.66-8.28.6-8.38,1.9,2.23,6.79,2.78,5.79-1.51-3,.81-3.45-1-5.08-2,2.26-3,3.31,1.79,3.82-5-2.87,3.41-4.31-.06-6.07-1.57a5.3,5.3,0,0,1,2.49,1.11c-1-2.48-.44-3.61,1.64-3.39,1.13,2.13-1.06,2.82,2.13,2,.26,2.6-.54,2.3,1.08,3.61.15,2.2-1,3-1.92,3.83.76,0,1.41.31,1.92.34.17.83,2.05,5.84,3.19,6.46-1.94-4.08,3.38-1.54,3.76-1.45.5-1.62,1.71-5,2-3.68-.79-.52.2-.21-.13.43q2.64-2.39,1.26-1.21c.4.69,3.65-.48,2.07,1.63a9,9,0,0,1,2.48,3.94q-2.38.63-4.72,1.44c3.26-.69,4.83,0,4.73,2.12-1.85.35-9.24-2.72-9.85.25-.9,0,2.77,5,2.77,5-.42,6.91,1.57.93-2.76,6.46-2.82,3.58-7.62,2.78-10.32,8.52,3.63.81,3.86-2.87,6.45-2.7-.54,2.59-5.21,9.1-7.3,7.41.42.95,0-.25-.15,0a1.77,1.77,0,0,0,.51,2c-.54-.42-.47-.67.19-.76-1.5-.47-3.53,9-3.58,9.83a4.56,4.56,0,0,1,3.45-1.71c.19,0-3.4,4.3-1.4,4.9.35-.28.67-3.33,1.16-3.76.45.38.92.73,1.4,1.06-.15-.87,2.22-3.54,2.75-1.59-9.74,1.49,1.62,8.92,1.29,7.88a9.23,9.23,0,0,0-2.2-3c-.77,1.38,6,2.13,7.39,1.69-.13.27-1.24,4.93-.44,5.61,1.22,1,2.14-1.54,2.45-1.92.41-1.43,2.46,5.07,1.95,5.06,2.94.05,8.83-9.81,9.88-9.38a15,15,0,0,0-3,5.9q1-3.24,3.55-2.88c-1.3,1.21-1,1.73.87,1.54,0,0,1.11-3.09.34-3.1,1.47,8.68,3-2.11,4.21-2.51-.06,1-1.07,3.69.93,4.37,0,0,1.25-2,2-2.24-1.35-1.09-3.88-.62-.5-3.1,1.35,1.48,0,2.68,1.54,4.45-.34,0-.23-.08.35-.15-5.87,1.84-8.11,9.38-11.71,10.43-.57-1.22-6.9-.1-3.42-5-2.61-.1-3.39,5.39-4.59,6.8-.39.45-9-2.49-.32,1.23-.82-.17-.64-.26.55-.26-7.41-5.72,4.66,7.77,3.34,3.6a3.75,3.75,0,0,1-4.06,1.34c2.43.78-2.8,4.66-5.48,5.72,10.3-1.82,20.67-8.26,29.69-10.49l.3,1.48c1.87-.53,5-6.31,6.53-6.45a1.74,1.74,0,0,1,.48,2.24c-.3.25-2.92-.54-1.47-.83,0,.61,0,1.23-.05,1.85-.16.28,6.09-5.73,4.73-6.24l-.62,1.47q1-3.28-3.33-1c-1-.17,4.18-4.92,3.65-4.88-.15,2.73-.13-2.66,2.33-3.55,2.31,1-2.62,6.93.19,4.87a39.84,39.84,0,0,1-1.64,5.53q1.26-3,2-.29c.14-.27,6.94-7.72,6.85-7.8a7.38,7.38,0,0,1-1.27,1.1c-.35-.16,10.44-7.31,10.64-8.25-.24,1.1,1.14-3.74,1.19-3.21-1.12,1.63.05-.41-.09,1.12,3.32.05,10.11-26.14,11.07-26.88-.82-.64-.52-.19-2.1.24.89-6.4,1.71-4.11,3.13-2.79l-.87-1.45a1.42,1.42,0,0,0,1.7-.08c.43.23-2.21-13.83-2.11-14.11a18.18,18.18,0,0,1-.47,4.35c-1.54-.42-.08-4.06-.56-5.11.88.71.58,1.1-.91,1.14.43-1.64,4.86-2.63,3.93-4.7-2.12,1-1.37-2.39-1.88-4.56-.56,1-2.91,5.26-3.2,6.1-2.28-3.9-3.29-4.46-3.8-10.28.49,5.6,4.94-5.78,5-6.08,1.45-5.27.67-8.24-.94-12.67-.16,3.1-1.16-1.6-2.65-3a13,13,0,0,1-3.7,3.57c.31-.24-4.22-.86-3.75,1.47a22.07,22.07,0,0,0,2.45.94q.15,3.83-3.13,1.51c-.59.9,8,5.17,3.82,6.92-1.14.48-5.37-.9-5.74-2.31-1.94,2.15,2.44,1.94-1.08,1-.93,2.08,1.23,5.23-.5,1.72a6.39,6.39,0,0,1-2.12,2.29c-1.72-2.4-.29-7.93,2.52-7.73-2-.14-3.59-3.23-3.5-5.23a3.34,3.34,0,0,1,3-.38c.13,3.33-.6,1-1.14,2.9-1.21-3.29,1.7-5.57.23-8.64-.29-.62-10.05-9.14-12.55-8.73,2.11.59-4.3,3.08-3.81,3a4.36,4.36,0,0,0,3.2.57c0-2.28-7.27,9.91-6.22,7.74a60.91,60.91,0,0,1,4.1,5.63,19.9,19.9,0,0,0-4.15-1.6c-1.4,1,1.09,2.06,1.12,3.06-1.09-.09-2.36,10.82.37,11.7,1.48-.74,1.86-1.74,1.14-3,4.81-2.6,2.72-3.93,5.6-8.25-2.63,3.94,7.32,15.16,3.21,19-4.72-2.74-6.2,2.88-4.86,7.21a6.19,6.19,0,0,0,.1-3.19c2.93.72-.33,1.93,2.14,3.16,3.85-5.06-1.33-2.45,1.46-.62,1.08-.31,1.37-1,.87-2.17,3.63.47,4.68,15.92,2.87,11.25a2.17,2.17,0,0,0,.78,2.62,3.06,3.06,0,0,1-3.31-.19c-2.05,3,3.67,1.77,4.38,1.22-.83.1,4,2.63,3.89,2.26-.43,1.32-1.31,1.65-2.63,1,.47.94,3.7,2.94,3.64,4.14a11.84,11.84,0,0,0-3.66.21c2.33.33,3.19,1.46,2.59,3.41-3.59-1.19.63.06-.64.93a2.81,2.81,0,0,0-2.29-1.94,17.63,17.63,0,0,1-2.05,5,12.26,12.26,0,0,0-1.1-3.41,12.78,12.78,0,0,0-3.57,2.35c.68-3.72,3.6-6.68,3-10.05-.21-1.12-5.63-6.43-6.68-4.69.1-.38,3.57,3.86,3.7,4-.16,0-2.3-.61-2.39-.56-1.59.9,2.2,2.73,2.39,2.95-2.14,2.69-2.11-1.11-3.72,3-.68,1.71-.23,2.72-.89,6-.08-5.26-3.15,2.62-3.43,1-.55,1.83-1.5-2.82-1.35-3.82a16.12,16.12,0,0,0-4.48,1q1.31-1.66.14.42c.13,0-1.28-3.26-1.48-2-2.73,3.12,5.32-.64-.82,3.61q1.46-1.31-.19.37c.2-.52-.63-7.91-2.24-7.84,0,0-2.9,5.75-.12,5.52a7.11,7.11,0,0,1-4.86,1.39c2.59-3.75,3.61-7.65,6.53-10.88-.14-1-5.58,1.54-4.13,3.48a6.79,6.79,0,0,0,1.16-1.91,14.52,14.52,0,0,0,1.83,1.49,9.75,9.75,0,0,1-4.59,3,3.61,3.61,0,0,0,1.14-2.91c-1.22,1.69-2.72,3.13-3.88,4.89a6.3,6.3,0,0,1,2.46-4.11c-4.24-.82,2.38-3.57,1.07-3.83-1.15,1.68-4.65-.41-4.54,2.78-.28-1.06-.84-1.12-1.67-.18.11-.18,4.92-6.28.57-5.93a25.32,25.32,0,0,1-4.75,3.84c1,.43,4.3-4,4-4.18,2.55-1.06-.5-.51,1.85-2.08a15.66,15.66,0,0,1,1.78,2.94c.54-2.4-2.91-6.3-3.73-3.52.16.07-1.17-3,2.4-1.89-.33-.76,2.74-4.26,3.29-4.93,4.27,1.86,2-5.21,6.23-3.73a7,7,0,0,1-.24-2.42c1,.44,1.93.85,2.91,1.24-.38,1.2-.62,3.15-.45.71a2.65,2.65,0,0,1,1,2.27c-1.32.15-2.39.87-4.69-.07-.1.27.44,6.16.77,6.5.88-2.89,2.59-1,2.94,1,3.8,0,.7-5.83,2.45-5.42-.24-1.05-.36,5.24,1.59-.1-1.55,0-1.26.56.86,1.83,1.71-2.83-.84-5.16-1.65-6.3.11-1.28,2.22-2.07,1.15-4.89-2,1.81-2.61.47-3-1.61.82-.54-5.56,4.79-2.49-1-1.22-.24-5.22.54-6.25,1.47a9.39,9.39,0,0,0-.78-3.63c.56.71-2.55,1-4.38,1.88,5.95-3,.6,12.59-.83,6.55-2.52,1.06,1.79,3.34,1.85,3.38-.33,1.53-2.68-.59-1.2,1.08-.17-1.72-5.95-1.59-6.79-.8a7.08,7.08,0,0,1,.24-4.07,12.21,12.21,0,0,0-2.69,3.9c-.08-.13-7.22-12.73-8.07-10.58-1.63-6.18-17.52,13.26-9.68,8.9a11.78,11.78,0,0,0-1.79,2.86c-1.33-2.55-3.51-4.52-4.81-6.15,1.52-1,1.73-1.91.63-2.9-4.41.37-3.74,1.23-5.84-2.49a4.33,4.33,0,0,0,2.89-1.51c-.61,1.3,0,3.25,1.42,3.49,1.83-6.38,2.38.61,5.82-2.29-1.06-1.22.81-10.14,1.12-10.13,2.24.63,3.52-1.61,5.11-4.26-6.65.16-1-7.59-5.36-11.61-1.73-1.6-4.2,4.9-3.23-.11a8.46,8.46,0,0,1-2.15,3c1-1.65,4.52-5,2.29-7.07-2.79-2.64-4.66,7.13-4.79,1.66-3.58-.37-2.13,6-8.07,5-1.73-.29-6-5-5.92-7.45a5.17,5.17,0,0,1-1.37,3.68c2.32-3.52-1.59-.9-1.48-.93.6-1.08,4.17-9.9,4.38-10.61,1.5-5.12-1.44-.32-1.19-5.38a22.57,22.57,0,0,0,4-2.9c-2.47-1.9-3.44,5.87-3.05-3.11-2.63.2-2.19,3.06-4.09,4.26a2.64,2.64,0,0,0,.63-3.64,30.83,30.83,0,0,1-5.63,3.41c.12.19.37-4.69-2.47-1.73a14.51,14.51,0,0,0-.24,3.89s-13.91,2.38-15,5.52c.06.11-2.73,5.49-3.59,7.18C99.13,71.77,99.58,70.67,99,71.73Zm45.35,60.52c-.24.08-.74-1.14,0,0C144.36,132.26,144.37,132.24,144.39,132.25Zm13.53-26.44c.35.65-1.73-.5,0,0Zm-7.64,8.29c.16-.24-1-.56,0,0C150.26,114.13,150.22,114.07,150.28,114.1ZM152.54,91a3.72,3.72,0,0,1-.44-.16A1.12,1.12,0,0,1,152.54,91Z"/></g></g></g></g></g><g id="luz_blanca" data-name="luz blanca"><polygon class="cls-16" points="173.63 157.64 174.67 146.75 171.81 157.48 154.83 136.93 168.2 160 157.15 158.95 167.72 161.75 147.37 178.58 170.41 165.21 169.35 176.47 172.21 165.7 189.01 186.03 175.78 163.21 186.87 164.26 175.94 161.36 196.47 144.39 173.63 157.64"/><g class="cls-17"><g class="cls-18"><g class="cls-19"><path class="cls-20" d="M9.57,33.54C-3.11,1.25,58.11,11.39,146.3,56.19S316.27,163.51,329,195.8,280.41,218,192.22,173.15,22.26,65.84,9.57,33.54Z"/><g class="cls-12"><path class="cls-21" d="M9.57,31.73C-3.11-.56,58.11,9.58,146.3,54.38S274.48,158.86,287.16,191.16s-6.84,26.7-95-18.11S22.26,64,9.57,31.73Z"/></g><g class="cls-14"><path class="cls-15" d="M120.8,130.61c.23.21,1.63,1.06,1.94,1.3a9.77,9.77,0,0,1-1.8-.57c.44.29.88.32,1.21.52,1.57,1.13,3.81,2.9,4.16,2.59,2,1.53.19-.26,6.07,3.35,0-.14,5.85,4.06,10.84,6.94a35.79,35.79,0,0,0,4.79,2.37c-.84-1.36-3.47-2.84-6.06-4.55.75-.42.29-1.21-3-3.24-.25,0-1.17-.52-1.31-.49a35.36,35.36,0,0,0-3.24-3.12c-1,.45-3.66-2-6.45-3.59-1.59-.94-3.49-1.23-4.84-2s-2.53-2.08-4-3c-3.58-2.08-4.81-2.76-8.71-5.26-2.55-1.63-6.78-4.52-9.07-5.82,0,.84,5.71,5,10.29,8.1-.08,0-1,0-1,0,.24.14,1.27.15,1.47.27.48.33,1.06.77,1.54,1.09.2.19-1.85-.34-2.3-.47.87.52,3.62,1.73,4.94,2.58,0,.06-.36,0-.27.12C116.42,128.54,118.93,129.74,120.8,130.61Z"/><path class="cls-15" d="M148.67,146s0-.07,0,0c-.17-.09-.69-.56-.88-.66-1.51-.84-2.75-2.32-4.23-2.43,2.65,1.89,7,4.39,9.92,6.23,0,0-.41.27-.38.29.2.13.64.12.84.25,3,2,5.72,3.25,7.15,4.08-.15.05-.13.88-.48.82l-1.75-1.12c0,.14-.92-.51-.64-.29a.48.48,0,0,0-.07.49c1.13.67,3,.9,4.05,1.46-.1,0-1,.44-1.1.43.93.55,3.86,1.69,6.45,3.05.25.15.49.26.73.39.42.22.79.35,1.17.53A40.38,40.38,0,0,0,175,162l1.39,1c.17.07.34.21.52.28,0,0,.64.84.62.83.52.24.27-.17.68,0-3-1.8-2.86-2.58,1.45-.36-1.5-1-1.56-.94-2.56-1.59-.06-.07-1.95-.86-2-1s1.24.86,1.29.87a32.81,32.81,0,0,0,4.54,2.63c.83.43.26-.75.56-.73,1.28.58,2.16,1.11,1.52.69.1,0,.46.76.57.81,1,.48,1.65.16,2.59.59,1.84.83,9.16,4,9.78,3.86-2.24-1.3-5.35-2.84-7.83-4.06s-4.6-2-6.8-2.95c-2.52-1-8.51-3-9.9-5.23-2.2-1.13-3.88-2.52-4-1.7-2.79-1.66-7.06-4.48-8.55-4.56-2.59-1.81-3.22-1.59-5.48-2.69-.86-.5-1.82-1.59-2.24-1.81-.74-.4-1.59-1.09-2.35-1.46C148.58,145.28,148.84,146.08,148.67,146Z"/><path class="cls-15" d="M173.38,146c-2.81-2.45-1.87-2.12-7-4.81-4.39-2.29-4.43-1.67-7.31-2.56-2.36-.73-6.32-3.12-6.89-2.3s3,2.39,4.63,3.69c0,.11-2.08-1.07-2.07-.95-.67-.34-1.86-.42-2.4-.69.59.47,1.45,1.25,2,1.73.15.43,3.51,2.7,3.82,3.18-1.4-.64-3.34-2-4.82-2.87.16,1,1.36,1.75,3.64,3.23a3.43,3.43,0,0,0-.65,0c.35.21,1.49.87,1.74,1s-.66-.43-.44-.27.79.43,1.05.65c.42.56.51,1.06,2.93,2.47,1.06.62,2.18.62,3.26,1.09,2.55,1.85-.57,1.24,2.82,3.09,8.74,5.13,5.26.88,4.37-.05,5.27,3.69,10.26,6.9,14,7.94a14.47,14.47,0,0,0,4,1c1.79.38,7.5,2.38,7.36,1.53-3.22-2-3.81-1.31-6-2.2,0,0-.68-1.21-.7-1.22l-.11.24c-.32-.15-.67-.42-1-.57a5.62,5.62,0,0,0-2.68-.7c-.39-.17-1.26-.28-1.66-.46-2.28-1.48-6.14-4.4-7.05-4.24a12.44,12.44,0,0,1-2.76-1.81c.52,0,5,2.27,5.16,2.37-.21-.16,1,.28,0-.84.79.43-.32-.28,0-.17.42.27.88.69,1.36,1a29.63,29.63,0,0,0,4,2.6c.95.63,3,1.86,3,1.87,0-.25-1.51-1.74-.7-1.31,0,0,.11.33,0,.23,1.19.33,1.83.47.56-.6-1.72-1.46-7.39-3.27-9.24-5-.06-.13,1.33.36,1.23.23.77.16,3.74,2.15,3.57,1.37,0,0-2.75-3.47-3.11-3.72C178.38,147.18,173.92,145.41,173.38,146Z"/><path class="cls-15" d="M137.83,133.81c0-.05,0-.16.07-.18-1.64-1-3.39-1.71-5-2.63.08,0,.24-.19.32-.15-.47-.27-1.94-1.45-3.73-2.73,0,0-1.36-.41-1.37-.43-2.54-2.45,1.59,0,4.18.92-1.67-1.6-3.83-2.18-6-3.56-1.61-1-3.37-2.35-5.17-3.52,0-.1.61-.4.72-.4,5.27,3,5.74,3.7,5.67,3.18.39-.15,3.06,1.29,2.64.72,2.41,1.26,3.62,1.36,3.72.88,3.93,1,6.47.1,3-1.66a18.62,18.62,0,0,1,2.55,1,1.19,1.19,0,0,0,.36.53c.31.31-.13.65,1.51,1.45-.17-.14-1.66-1.64-1.77-1.74,1.48.57,4.26,1.38,1.76-.47-1.33-.61-4.59-2.34-7.3-4-1.65-1.07-3.27-1.78-4.39-2.64-.19-.18-1.9-1.19-2-1.32.33.08,1.67.73,1.15.43,0,0,.78.08.79.06a17.16,17.16,0,0,0,1.84,1.57c1.71,1.23,2.61,2.08,1.85.65-.59-1.09-4.6-3.86-7.13-5-.19-.14,1.3.52,1.11.38a18.65,18.65,0,0,0-3.31-2.62c-.09-.08.18,1,.11.88.77.33.52-.56,1.22-.24.5.23,2.26,1,3,1.4,4.29,2.71,8.75,7.35,11.7,9.4.08-.79-.25-1.12,1-.11a22.56,22.56,0,0,0-1.08-3.71c.17.26-.07.59.87,1.32a11.46,11.46,0,0,0,1.46,1.28l1.67.07c1.19.87,3,2.13,4.09,2.9a6.82,6.82,0,0,0-1.68-.28c-1-.18.47.84-.54.74a23.18,23.18,0,0,0,2.08,1.36,22.24,22.24,0,0,0,2.45,1c-.43.61-4.33-2.64,0,1.09.21.2-.08.28.17.48.1.08-.14.19,0,.28l1.07.11a42.28,42.28,0,0,0,4.63,2.45c.2-.28-1.3-1.47-2.08-2.25,1.22.5,3.75,1.83,4.72,2.3a33.93,33.93,0,0,1,3.79,2c.84-.11.44-1.17-1.56-2.48,0,0,.71.94.76.93a19.78,19.78,0,0,1,3.12,1.52c1.41.9,3.28,1.81,4.09,2.22,0,0-.71-.08-.74-.12,1.37.86,3.3,1.52,5,2.69,1-.34-2.24-2.15-2.17-2.2,3.39,1.57,2.9-.12,3.34.07,0,0-3.71-2.38-4.82-3,5.66,2.71-1.05-2.24-2.32-3,1.4.48,3.69,1.71,1,0,4.07,1.57,3.51.6,5.17,1,0,.09.46.22.35.24,2.18,1.65,5.29,3.86,3.89,1.79.79.32.38.26,1,.63-.21,0,1.4.85,2.09,1.36-.72.6,4.66,3.16,7,4.48a4.58,4.58,0,0,0-.85-1.51c1.67,1.07,3,2.47,4.66,3.49,1.34.07,3.7,2.6,5.58,3.7,2.83,1.66,3.74,1.43,6.37,2.45.38.63.7,1.24.39,1.5,3.07,2.07,2.27,1,3.76,1.41,1.26.35,4.76,2.33,5.65,2.24-.64-.43-3.7-2.24-4.35-2.67a1.49,1.49,0,0,1,.51.18c-.43-.47.27-.45.28-.7a7.93,7.93,0,0,1,3.1,3.07c1.18.37.91-.36.24-1.05a60.37,60.37,0,0,1,5.73,3.5c.7-.14-5.2-3.7,0-1.19,6.66,6.57,2.56,1.36-1.07-2.37,1.53.86,3.49,2,5.08,3,0-.35.39-.52-.09-1.14.63.39,3.31,1.67,3.93,2.07-1-1-7.16-5.33-4.39-4.33s4.21,3.19,5.92,4.51c.25-.59,2.74.28,3.39.15,1.87,1.35,3.93,3.27,5,3.28-3.44-2.22-3.53-3.27-5.56-5.2-.07-.07.17.37.1.31.49,0-.18-.83,1.58-.08-.59-.53,0-.81-1.82-2.4.36-.27-1.77-1.65-1.89-1.93-.31-.78-3.23-2.31-.68-1.67,1.23.3,3.67,2.12,4.19,1.71.91-.72-9.76-4.86-11.81-6.25,0-.5-1.22-2.36-3.62-3.73,0,0,.19.39.1.27-.35-.21.21.27.29.36s-1.24-1-1.31-1c-.28-.15-.74.09-1,0-.78-.64-.67-1.46-1-1.67,2.62,1.6-1.13-.73-1.13-.74,1,.77-.72-.14-2.32-.76.11-.44-.21-1.58.11-.72a34.46,34.46,0,0,1-6.92-3.1c.06,0,1.28-.23,1.34-.23-2.57-1.73-.58-1.32-3-3a7,7,0,0,0-4.86-1.33c-4.16-2.85-7.7-5.35-10.54-5.8,1.5,0-1.12-2.43-.26-3.13a19.58,19.58,0,0,0-6.25-3.17c3.34,3.22,2.73,3.3.85,2.94-.09-.11-.19,0-.26-.09-1.59-.91-.56-.23-.84.06l-3.34-1.93c-.72-.72-.33-1-.1-1.22a63.23,63.23,0,0,0-8-4.13c1.92,1.25,3.68,2.72,2.5,2.53a12.16,12.16,0,0,1,3.77,2.77c-1.15,0-4.12-1.41-5.09-1.18-2.85-1.7,5.76.44-5.32-3.85-.06-.51-.88-1-1.48-1.6.31.07,1.47.72,1.9.88,2.07,1.27,3,1.62,2.73.8a9.27,9.27,0,0,1-2.5-2c.62.25,1.74,1.16,2.43,1.38,1.25.56,2.15.8,3.47,1.36.33.19.36-.07.69.12,0-.05-.9-1-.83-1,.38.16,1.51,1.15,1.88,1.31a5.21,5.21,0,0,0,3,1.2c.13.37,1.59.85,1.33.54.18.06-.45-.31-.27-.24,1.2.83,1,1.09,2.19,1.9-.28-.42,2.27.59,1.66,0-.15-.25-2.16-1.23-2.31-1.45,2.63,1,5.13,2,5.32,1.67.54.31-1-.78-.45-.44.64-.45,4.22,1.61,4.62,1a7.46,7.46,0,0,1-3.15-1.51c.09-.06.6.44.64.35-1.2-.43-2.26-1.49-3.39-2l-1.78-1.63c1.26.46,2.78.9,2.61.37-1.24-.66-2.83-1.7-3.41-1.94a7.06,7.06,0,0,1,.64.55c-.3-.36-1.76-1.21-2.48-1.82a6.26,6.26,0,0,1-2.38-.77c.13-.19-1.54-1.61-2.63-2,.34.12,1.71,1.11,2.33,1.33,0,0-.81-.28-.8-.25s1.31.88,1.19.67-.51-.49-.7-.6c.23.09,1.05.57,1.18.64-.1-.44-2.09-1.84-3.79-2.63-.36-.38.74.67.78.56.17,0-.43-.25-.25-.21s-.92-1-.56-.83c-.07-.1-.71-.5-.75-.58.6.11,1.77.28,2.31.31.56.43,2.16,1.62.82.77.15,0,1,.42,1.13.39.73.34,0-.63.89-.08a5.48,5.48,0,0,0,.7-.55c.34.16,2.44,1.06,2.71,1.15,2.39,1.73,3.12,3.54,5.68,5.31a6.82,6.82,0,0,0-.72-3.09c.05,0,1.37.55,1.42.59.55.56-.7.62.4,1.6,0,.12.72.47.9.65,0,.33,0,.55,1.75,1.84-4.17-2-.57.68.36,1.74s-.42,1.09,3.49,3.06c-.3-.4,0-.58-.6-1.17,1.47.84,1.56,1,3,1.76.22,1,4.65,2.91,4.64,2.12,0-1.16-2-1.6,1-1.2a9.82,9.82,0,0,1,5.56,1.61c4,2.29,1.74,1.93,2.9,3.4,5.38,2.69,3.69,2.49,5.75,4.68.37.4,1.7,1.31,2.2,1.78s1.08,1,1.91,1.74c1.57,1.3,1.92,1.11,2.76,1l2.63,1.62c.11.73,2.2,2,3.41,2.14a52.86,52.86,0,0,1,4.58,3.28,13.1,13.1,0,0,0,2.91,2.08c-.43-1.19-2.09-2.52-5.17-4.66-1.4-1.06-3.86-3.13-3.88-3.15,1.2.6,2.36,1.5,2.51,1.27a18.88,18.88,0,0,0,4,2.49c.21.19,1.43,2,1.52,2-.19-.09,3.42,1.35,3.35,1.3,3.28,1.82.91,0,1.48.32,0,.16,4.21,2.57,5.57,3.88a9.86,9.86,0,0,0,1,1.47c0,.06-1.29-.44-1.36-.42.11,0,.12.08.22.11.3.33.15-.21.34,0-.61-.34.06.4-.55,0,1.84,1.35,2.08,1.26,2.46,1.05,0,0,.73,0,.77.07s-.64,0-.7-.1-.81-.59-.78-.67c.05.35,2.39,1.84,3.77,2.72,2.3,1.45,1.08.5,1.31.11.31.24,1.67,1.17,2,1.42,3.11.17,8.55,4.66,12.9,6.66-.94-.81-6.9-4.8-5.33-4.4.05.1.56.52.59.63a6,6,0,0,0,1.66.51c2.35,1.53,7.7,5.33,7.45,4-.3-.22-1.91-.7-2.26-.93-.33,0-2.12-1.73-2.48-1.76-.38-.41-2-.77-2.76-1.3,0,0,1.11-.28,1-.4s-.73.21-.86.16c-.95-.65-1.28-1.29-2.25-2-1.13-.86-4.45-2.88-1.55-1.9-.19-.19,7,4.63,7.52,5.1-.09-.39.58-.14.47-.55.88.72,4.55,3.3,5.53,3.93-.42-.58-.48-.73,1.33.47,1.11,0-1.86-4.19-.25-2.79.12-1.4-5.27-1.78-5.32-1.53-3.75-2.22,1.51-1.66,2.15-1.33,0-.15-.9-.54-1-.71,0-.38.51.29-.48-.46,0,.06.43,0,.41,0-.75-.7-2.06-2-2.88-2.72,1.78,1,3.11,1.89,4.89,2.93-1.29-1.12-.91-.88-.28-1.11,2.46,1.37,4.75,3.24,5.74,3s-3.34-2.55-5-3.68c-.3-.22.42.32-.07,0,1.07.56.91-.22.79-1,.7.36,2.15,1.22,2.82,1.66,0,.14.78.08.85.22,1.68,1,4.18,2.55,3.33,1.38a18.33,18.33,0,0,0-4.08-2.69c-.38-.46-1.32-1.12-2.18-1.89-.49-1-3.84-3.18-7.42-5.24-3.51-2.31-7.47-4.55-9-5.53a8.82,8.82,0,0,1-.61-.76c3.43,1.65,10.07,6.78,12.55,7.31a66.81,66.81,0,0,1-6.91-4.61c-1.92-1.7-.34-.7,2.13.87,1.38-1-4.13-2.82-5.71-3.88-.29-.2-.42.17-.6-.08,1.71.65,3.71,1.06,3.68.33a47.56,47.56,0,0,0-5.64-3c-1.11-.85-4.39-2.22-5.3-3.05.81.38,2.57,1.47,3.74,2.13.11,0,.81.48,1,.54s-.59-1-.35-.88c0,0,.35.23.31.18,1.19.46,2.53,1.1,2.5.66-.05-.77-4.61-3.19-4.84-2.6-.23-.12.64.5.69.55-.64-.42-.54-.92-1.19-1.5-.16,0-.39.92-.54,1a49.21,49.21,0,0,1-4.68-3s.49.16.53.16c.79.52,1.06.31,2.07.69,0-.15,2,1.32,1.94,1.17.57.28,1.62.66,2.21,1-.23-.46-.43-.87.21-.86.33.15-.17,0,.06.14s-.71-.66-.56-.56c2.38,2.21,6.94,5,10.84,7.63,1.2,1.09,2.78,1.82,6.59,4-.34.33-1,1,.62,2.21,2.24.47,5.82,3,8,4.76,0,0,.34,0,.35,0-1.5-.37,1.84,2,1.77,2.42-.09,0-.07.44-.21.47-1.24-.16-5.69-3.42-4.44-1.78-.56-.34-3.27-1.67-3.85-2,1.61,2.34,7.3,4.51,10.73,6.65s4.8,2.37,5.21,3.42c.22.59-2.29.45,1,2.26,1.23.1.58-1.13.69-1.67.4.17-.12.23.06.32s-.92-1-.88-1c-2.15.8,9.3,6.84,7,3.39-.42-.64-4.42-4-2.76-3.51,2.37.76,4.37,3.85,5.05,4.64,0-.28.95-.18.95-.44.15.15.84,1,1.19,1.36.1-.13.66.15.79,0,2.8,1.68,1.55,1.71,3,3.05,1.29,1.2,6.51,4.11,7.92,5.34-1.42-1.5-2.87-2.94-4.83-4.7-1.49-1.34-4.26-2.69-5.37-3.93-2.13-2.39-2.57-4-6.6-6.9.41.2.13.18.54.38.12-.36-1.22-1.22-2-2-2.14-2.32-6.43-5.83-10.37-9.13-.55-.58-.61-1.07-1.22-1.68-1.6-1.56-3.82-2.56-5.45-3.82-.7-.58.16-.75-.33-1.15s-2.2-1.2-2.6-1.59l2.46.91c-.07-.08-.85-.41-.92-.48s.17-.13,0-.31c-1.26-1.25-8.31-6.8-10-6.8-1.34-1.06-4.1-2.27-5-3.27.26.11,2.23.55,2.61.75l1.11.61c.3.21.43,1.25.76,1.47-1-.49-2.6-1.71.31-.12.08-.07,1.89.92,1.74.78.13.08-3-1.34-2.81-1.26-.45-.44-.37-.64-1.12-1.23.09,0,1.23.15,1.22.07-1.2-.8-3.25-1.81-4.81-2.78A40.43,40.43,0,0,0,256,125s-1.57-1-1.58-.76l3,1.69s-2.68-1.27-2.67-1.24c3.08,3.13,4.81,5.13.27,2.17-.49-.2-1.23-1.19-2.94-2.5a29.37,29.37,0,0,0-3.45-2.45c-.26-.19-.61-.24-.87-.42.09.09-1.23-.59-1.15-.51l2.18.81c-1.28-1-2.52-1.23-1.95-.51a69.33,69.33,0,0,1-8.11-5.14,30.91,30.91,0,0,1,3.82,1.57c1.78.75,4.85,2.33,7,3.37-.87-.59-1.29-.61-2.19-1.28,4.67,3,5.95,2.52,11,5.81-.64-.55-2.53-1.48-3.68-2.38.11,0,1.73.34,1.84.38-.3-.18-2.17-.56-2.44-.73-3.72-2.86-8-6.61-10.78-8.39,0,0,.4.68.26.67s-6-3.6-5.5-3.74c2.42,1.39,1.34,1.2,2.81,2,.06-.16-.25-.7-.89-1.25l-1.75-.54c-3-2.72-10.52-7.5-15.2-10.56-.86-.56-3.14-3.15-3.93-3.55-.09,0,.18.63.1.6-1.78-1.15-3-1.89-3.45-2.18.05.35-1.11-.61-3.08-2.11.41.18-.5,0-.11.1A13,13,0,0,0,214,95.15c-.45-.28-.26-.81-.68-1.07.13,0,1.07.76,1.21.83-.74-1-4.65-3.35-6.47-4.14-.61-.39-.4-.23-.86-.53-1.77-1.2-4.44-2.33-6.42-3.59-1.71-1.08-6.51-4.31-3-1.43-.25-.12-1-.17-1.38-.37s-.7-.58-1.11-.85c.13.13-.09-.22.05-.08-.67-.34-1.05-.49-1.81-.89-2.74-1.73-5.1-3.36-3.65-2.21-.38-.24-1.24-.74-1.32-.84-1.16-.73-4-1.59-6.75-2.88-.39-.22-1.06-1-1.46-1.24s-.69-.14-1-.31A37.94,37.94,0,0,1,175,72.88c-.5-.39-1-.6-.95-.85-1.64-1-3.16-1.08-4.71-1.93a9,9,0,0,0-1.24-1c-.8-.51-1-1.15-1.83-1.66-2.84-1.74-5.66-2.76-8.88-4.32.48.3,1.38.56,1.79.86-.33.11-2-.91.32.65.24.2,1.29,1.2,1.48,1.39a80.37,80.37,0,0,1-8.52-5.06s1.2.44,1.18.41.26-.31.29-.32-1.93-.32-2-.37.51-.06.06-.28c-.29-.19-.83-1-1.32-1.29,0,.05.1.26.38.45-3.21-1.48-10.73-4.55-16.79-7.12l.64.14c-1.95-1.11-5-3.2-4.5-1.64.52.31-1.29-1-.8-.69-1.21-.56-2,.07-2.83-.4,1.82,1.1,6,2.42,8.11,3.85,0,.18-1.1-.13-1.23-.12s-.44-.31-.56-.33c-1.59-.68-3.47-2-4.72-2.2.16.13-.46-.07-.32.07-.45-.25-2-1-2-1,.2.1.49-.12.82.06s1.52,1.37,1.83,1.64c-1.29-.67-3.74-2-5-2.68a6.86,6.86,0,0,1-.36-.86c.47.1.87.45,1.38.49-2.75-1.49-4-2.49-4.72-2.89-.15,0-2.11-1.19-2.27-1.24.07.06,2.17,1.56,2.16,1.58-1-.46-2-.78-3-1.22s-4.75-1.82-6.06-2.29c2.76,1.65,6.16,2.7,9.09,4.52.22.18.35.33.65.55-.9-.28,1,.8.53.74,1.46.84,1.33,1.06,2.75,1.82-1-.2-3.22-1.4-4.45-1.78.87.92,2.9,2.28,2.83,2.58-3.61-3-7-.72-7.95-4-1.2-.32-8-1.09-8.63-3.41-.27-.94,4.44,1.06-.1-1.95a49.5,49.5,0,0,0-5.19-2.62c-2-1.15-4.2-1.59-6.63-2.81a83.29,83.29,0,0,0-10.94-5.23c-2.13-.8-6.32-3.16-8-3.74s-1.48.31-3.15-.19c.9.4,2,.91,3,1.42,0,.2-1.74-.76-2-.78s-.43-.09-.43,0a21.64,21.64,0,0,0-4.21-.67A44.6,44.6,0,0,0,74,30.07c.08.67,1.94,2,3.72,2.6,1.29,1.45-1.5.17-1.92.49s1.33,1.48,1.28,1.84c.64.09.72.39,1.85.83a25.64,25.64,0,0,0,2.75,1.88c1,.35-.64-1.67.09-1.42,4.83,1.64,5.27,3.15,4.77,4,3,1.82,1.53-2,5.51-.3,7.15,3,4.51,3.75,5.45,5.18-.13.28-.91.08-.92.27-.26,0-.19.29-.53.18,1.1.73,1.32.39,2.46.88,0,0,1.13.81,1.19.81s-1.23-.08-1.2,0a21,21,0,0,0,2.6.78c.08.05.37.33.44.39.25.05,1.56,1,1.7,1.07.31.1-.11-.09.18,0,.43.26,0-.06.44.2S106,51,106.39,51.26c-1.67-.75-3.23-1.87-4.44-2.16a12.85,12.85,0,0,0,3.66,2.34c.2.18,1.69,1.15,1.83,1.33-1.74-.21-3.54-1-7.57-3-3.09-1.54-7.9-4.24-6.55-4.56-3.06-2.32-.31.18-.94.34-1.06.25-2.6-.33-5.4-1.37-1.5-.56-2.94-.77-3.78-2.18-.17-.28-1.69-1.74-1-1.56,1.82.78,3.31,1.81,3.4,1.59-.08,0,2.6,1.73,2.53,1.69.17.05-1.57-1-1.46-1a15.36,15.36,0,0,0-5.55-2.52c-.43-.14-1.81-1.11-2.19-1.22s-.08.62-.55.42C77.55,39,76.5,38,75.79,37.72c.12,0,.58.33.68.32a6.54,6.54,0,0,0-1.84-1c-1.47-.76-1.83-.63-2.15-.37-.59-.17.36.28.87.68l-.77-.56c-.9-.56-1.11.05-2-.51.59,1-.68.76-.78,1.26-.51.23.41,1.37,0,1.7-.2,0-2-.92-2.2-.91-1.91,0-4.95,0-2.59,2.53-.15-.62-.35-.4,1.2.44,0,.2.59.36.63.45a16.3,16.3,0,0,1,2.55,1.71c1.07.94,2.94,2.54,3.49,3.13.91.22-.28-1.51-1.08-2.38,3.56,1.56,5.59,4.7,8,6.55a79.72,79.72,0,0,0,9.94,5.78c.93-.69-2.2-3.15,3.8-.16-.92-.87.56-.06,1.34,0s1.7.09,2.26.25c-.19.18-.6,2.06-.15,2.4,1.81,1.37,3.31,1.47,3.22,1,.07,0,.3.15.37.2,0-.2,1.33.33,1.17.26s-.83-.22-1-.44c1.66.91,3.35,2.11,4.67,2.73.5.24.83-.08,1-.06,3.84,2.17,7.5,4.55,9.91,5.31,0,0-.29-.81-.27-.77,2.1,1.34,2.48,1.55,2.23.84,0,0-.31-.61-.29-.6,2.49,1.22,4.6,2.74,4.5,1.89-2.52-1.6-2.47-1.57-4-2.65-.22-.16-1.86-.54-2.08-.71s.14-.18,0-.28c-1.86-1.57.82-.47-2.4-2.15-1.56-.82-2.44-1.85-3.24-2.13-1-.54-1.67-1-3-1.73a17,17,0,0,0-2.11-1.31c-.39-.21-.79.16-1.14.05-5.42-3.15-10.54-6.09-5.18-3.41,1,.85,2.47,1,4.24,1.68.37.31.77.69,1.26.57,0,0,.15,0,.1-.07,1.15.43,1.8.28,2.84.6.14.12.14.18.23.15,1.81.56,5.49,2.1,5.65,2.18,4.83,3.89,8.38,1.15,16.1,6.52-.45.49-4.6-.92-.89,1.27.15,0,1.65,1.07,1.81,1.12.78,1.5,5.7,3.4,9.14,4.85,3.13,2.71,3.67,2,6,2.74a41.07,41.07,0,0,0-4.7-2.2,11.34,11.34,0,0,1-1.08-.4,7.47,7.47,0,0,0-.28-.93c2,1.18,4.35,1.91,4.54,1.52-1.4-.88-4.18-2-5.51-2.73-.1-.06-.49-.51-.58-.58.68.12,3.85,1.66,4,1.54.48-.34-3.45-2.27-4.46-2.48-.81-1.5,4.54,1.62,6.54,2.19,1.12.32-.68-1.72.56-1.37.94.26,3.84,1.91,4.94,2.28,1.36.46,3.53,1.19,5.16,1.77.46.21.79.46,1.25.68,1.43.75,1.18.46,1.47.84-.45-.2.06.25,0,.25.42.21.47.21.74.35.12.33-1.46-.39-2.33-.64.62.39,1.74.75,2.38,1.11.16-.1,1.67.36,1.81.26,2.1,1.36,2,2.31,1.83,2.77,3.26,2,3.47,1.27,3.64.73,0,0-2.15-1.39-2.15-1.4s1.85,1.09,1.83,1c.27-.1-1.07-.71-1.62-1.47-.26-.35-.13-.45-.64-.85a12.29,12.29,0,0,1-1.76-.91s1.89.45,1.85.41c-.45-.59-1.45-2.44-.35-2.06,3.41,1.17,2.44,2.18,3.51,3.11,2.87.67.95-.68,2.75-.22,1.14.5,1.24-.2,2.29.27,1.18.85.82,2.14,2.77,3.39,1.14.26,1-.67,1.13-1.08,1.08.52,2.84,1.21,3.29,1.49.16,1.62-1.34.06,0,.38a4.31,4.31,0,0,0,.63.46c.26,0,.48.13.63,0a5.3,5.3,0,0,1,.83.41c-3.06-1.31-.89.45-2,.49.84.39,8.77,4.68,10.24,5.73a42.24,42.24,0,0,0-5.4-1.72c-.44-.23,5.24,4.21,6.56,5-7.11-3.53-7-3.78-15.24-8.45-4.86-4.08-12.55-2.19-8.74.11,3.08,1.59,1.68-.89,1.07-1.6a25.66,25.66,0,0,0,3.65,1.48c.12.38-.43.76.41.71,2.12,1.37-2.69.06,3,2.12.77-.65-.83-.93.91-.94A11.56,11.56,0,0,1,178,90.83c.45.21,11.34,4.85,7,3.89,1.19.82,8.75,3.63,9.45,4-8.1-3.52,3.67,3.87,5.6,4.81-.42-.16-1.23-.87-1.58-1-.12-.06,0,.18-.08.11s1.09,1.16,1.11,1.18a52.74,52.74,0,0,1-7-3.11c.4,1.42,4.65,4.06,4.77,4.76-1.59-.86-2-1.08-1.75-1.16,0,0,2.43,1.39,2.43,1.38a35.84,35.84,0,0,1-3.46-1c1.8,1.06,2.35,1.47.82.72,6.28,4.14-2.84-3.85,7,3.57-3.81-2.6-.36-.34.77.45-3.31-1.83-8.34-4.4-5.55-2.16a19.29,19.29,0,0,1-4.45-1.73c-6-1.16-.61.26,5.68,4,0,.39-.24.38.72.44-.26-.35,1.2-.1,1-.32A24.16,24.16,0,0,1,206.2,115c-3.44-2.14-17.24-10.4-18.84-10.81-3.47-2.35-3.59-2.63-4.94-3.53-3.18-1.24,7,6.2,9,6.39-.34-.36-3.92-2.35-4.17-2.52,0-.06,1.54-.21,1.45-.45a62.74,62.74,0,0,1,8.33,6.39c-3.6-1.46-3.68-3.09-5.95-3.29-1.48-.93,7.69,5,11.3,7.27-3.54-1.77-8.4-4.74-9-5.41.11.25,1.13,1.22,1.48,1.68-.74-.09-9.51-6.79-9-5.64-.77-.47,3.22,3.09,5.54,5.23-.07,0,2.49,1,2.41,1,.13.15-1.43-.39-1.12-.2.73.7,2,1.39,1.9,1.53-9.1-5.48-.26-.36-5.35-3.7,0,.75-1.53-.69-2.83-1.36,2.54,2.6-3.66-1.09-2.84-.12,2.29,1.55,8.28,4.79,8.71,6.31-.12,0,1.11.77,1.29.91,0,.12-.1-.19-.24-.11-1-.77-8.8-6.62-10.54-6.77-.23-.6-.83-1.14-.33-1.08-.65-.23,1.07.9,1,1.1-.1-.09-2.83-1.64-3-1.75s1.61.51,1.68.45c-.46-.23-1.33-.44-1.62-.6s-1.78-1.17-2.06-1.38c0-.31,3.61.74,4.11.75-1.52-.77-5.24-2.66-6-2.54s1.05,1.57.73,2c-.22-.07,1.69,1.25,1.4,1.09,0,.13-2.47-1.43-2.66-1.4-.26-.14.31.13.08,0s-1-.07-1.18-.2c-1.35-.9-1.13-1.54-1.2-2-.42-.11-1.32,0-1.8-.13-.16-.1.23-.61,0-.78-.26-.35-3.26-2.06-3.79-2.48,2.41.27-2.3-2.09-6.6-4-.24-.14,1.28.7,1.2.65.46-2-12-7.54-12.1-8,1.33.5,1.36.07,1.33-.39a36.51,36.51,0,0,1-4.18-1.7c.25-.16.17-1.41.32-1.59a33.11,33.11,0,0,1,2.8,1.77c1.41,0,2,.69-1.24-.82.76.36.78,0,1.23.1.92.5,1.37.26,2.2.83.22.25-.14.31.11.32.07,0,2.27,1.3,2.27,1.33-.22.83.49,3,.57,2.43a7.34,7.34,0,0,0,2.27.53c3.38,1.75,7.16,4,8.87,3.92-1.44-.77-2.34-1.29-3.81-2.24,1.55.18,1.06-.56,3.64.41a18.27,18.27,0,0,0-6.48-4.3c-1.62-.75-.39,1.23-2.78-.63.08-.06-2-1.39-2.06-1.5A7.79,7.79,0,0,1,157.25,87c.08,0,.27,0,.56-.19-1.09-.6-2-1.67-3.35-2.4.27.08.57.8.7.8.92,0,1.93.4,2-.12-3.79-2.29-4.17-1.2-8.2-3.64.24.64-1.2-.32-2.43-.81-.42-.22.55,1,.42.94-.3-.15-1.83-1.76-2.11-1.88a9.63,9.63,0,0,0-1.93-.68c-.08,0,.38.86.31.84a43.92,43.92,0,0,0-5.78-3.15c.92.65,2.33,1.25,3.4,1.94,0,0-.23.56-.26.56-1.36-.56-2.18-.92-2.62-.72.17.16.18.36.43.54-.54-.21-1.36-.76-1.88-1a43.49,43.49,0,0,0,5.34,3c.15.86-2.72,0-5.53-1.65a8.77,8.77,0,0,0,1.77,1.51c.73.28.48.47,1,.71-1.29.51.73,2.21,3.93,4.45-.9-.45-10.65-4.29-3.59-.56,0-.16-1.46-.85-1.56-1.07.27.15,1.37,1.12,1.66,1.38a5.33,5.33,0,0,0,.73.52c1.79,1.75,4.24,4.66,6,4.08.21-.07-1-1.08-1.14-1.3a20.56,20.56,0,0,1,3.32.39c-.35,0,.4.86,1,.6a2.9,2.9,0,0,1,.6.21c2.22,1.43,1.38,1.48.79,1.37,1,.59,3.07,1.59,4.47,2.32.53.37,1.76,1.16,2.19,1.47a5.28,5.28,0,0,1-2-.34c.86.74,1.72.83,2.31,1.39,2.35,1.41,2,.08,2.54-.36.11.06,1.15,1.25,1.28,1.34s1.29.86,1.45,1c0,0,.09-.4,0-.4-.39-.16.48.88-.12.57.3.21-.67-.61-.43-.44-1.1-.3-.58.23.29,1.25.48.32-.77-.11-.06.33-.42,0,1.16,1,.6.94-2.51-.27-1.15,0,2.73,2.71-.79.09-5.43-2.49-7.44-3.42,1.13,1,6.4,4,8.74,5.45-.16,0-.27,0-.48-.07-.93-.31-1.22,0-1.67,0-3.09-.92-9.44-3.73-9.89-3.91.58.41.72,2.27.31,2,.51-.91-4.11-.53-2,.66.66.23,1.74.51.87,0,.27.07,3.22,2.86,3,3-.29-.28-1.4-.86-2.06-1.31-1.32,0,.21,1.07,1.57,1.93-1.19-.7-1.79-1.06-2.24-.54,5.57,3.4,7,6,12.58,9.44.19-.23,2.23.67,3.27,1.39-2.35-.17.91,1.64,4.22,3,.16.09,0-.17.11-.15,1.53.58,4.46,1.88,4.22,1.22,0,0,.54.4.49.32.14-.07.07-.53-.09-.94l-3.65-1.75a14.53,14.53,0,0,0,2.61,1.62c.06,0,2.65,1.75,3.71,2.22-1.87-.42-6.88-1.88-8.63-1.27-.21,0,.92.68.75.67-1.07-.64-3.17-2.15-4.13-2.6-3.37-1.57-.49.61-.3.87.4.54,2.86,2.09,2.89,2.43-.2-.07-.42-.16-.2.2l.31.23c-.06.32-1.67-.24-1.81.07a1.7,1.7,0,0,1-.66.1c-.11-.49-1.09-.7-2.34-1,.67-.18-3.07-2.39-4.6-3.75.33.19,2,.83,2.17.9,1.67,1.22,3.71,1.81,3.16.6-1.33-.69-4.29-2.63-6.59-3.67-2.21-1.86,1.77.07,1.75,0-1.29-.67-3-3.23-3.09-3.3a53.21,53.21,0,0,1-7.05-2.59c-.7-1.21-12.2-6.87-11.85-6.39-.17-.77-.48-.54.21-1-3.15-1.93-1.35-.26-3.31-2,.14-.07-2.07-.9-2.51-1.25-1-.82-3.92-2.78-5.36-3.65.6.78,3,2.77,3.45,3.51-3.08-1.66-4.12-2.4-5.88-2.83a38,38,0,0,0-3.71-1.85c-.44,0,.32.91,0,1-1.57-.93-2-1.47-3.41-1.62-1-.11-.37,1-3.52-.6-.13,0-.21-.18-.46-.25-4.18-2.44-5.37-2.29-1.49.24.64.42,1.58,1.76,3.11,2.5-.63-.24-2.61-1.3-3.47-1.72,1.79,1.16,5.62,3.2,6.74,4.24-1.41-.84-8.25-5.32-10.88-6.58s-5.45-1.61-2.08.85a47.43,47.43,0,0,0,4.72,2.5,6.15,6.15,0,0,0,.85.83s-.17-.23-.17-.25c.32.18-.1.05.14.22s-.59-.15-.4,0,3.71,2.3,3.53,2.54c-.57-.27-3.31-2-3.78-2.18.64,1.09,3.82,3.06,5.68,4.07.47.25.78.12,1.47.49,3.48,2.74,6,5.06,7.74,6.21,3.5,3.44-11.55-4.27-3.32,1.92-1.66-.61-4.71-1.33-6.72-2.24,3.79,2.62,5.14,1.72,7.5,4.11a12.21,12.21,0,0,0-3.31-1.39c.26.15,1.35.93,2.84,2,.09.16-.51-.27-.24,0-.47-.28.31-.14-.48-.66a4.7,4.7,0,0,0-2.23-.92,15.57,15.57,0,0,0-4.36-2.31c-.39-.07-1.46-.47-1.39-.23q-7.12-4.08-12.92-7.59c-.47-.34-.47-.63-1-1-1.67-1.25-5.56-4.57-5.61-3.53,0,.19-.76-.11-.15.39-.49.56-.32,1.51-2.6.47-2.53-1.56-4.9-4.2-7.79-5.79-.45.17,2.35,2,3.54,2.83.06.07-.65.22-.6.29-2-1-4.29-1.87-6.52-2.88a20.78,20.78,0,0,0,5.57,4c1.86,1.14,4.29,2.67,4.74,3-1.86-1-7-4.45-6.93-3.42,2.08,1.48,6.36,4.77,9.8,7.65-.33-.05-.88-.71-1.21-.82a6.66,6.66,0,0,0-1.47-.25c-1.25-.22-.91.46,1.2,1.89,1.59,1.07,4.79,2,7.12,3.27a26.28,26.28,0,0,1,2.18,2.32,43.93,43.93,0,0,0-4.34-2.14c.47.43,1.74,1.35,2.2,1.82.54.68.14,1.25,1.84,2.55,0,.13.89.41.77.31a20,20,0,0,0,5.2,3.11c1.72,1.18,3.38,2.8,5.26,4,.47.33.82.36,1.23.69a5.84,5.84,0,0,1,.34.54c.29.19-1.09-.61-.81-.42a12.81,12.81,0,0,0,1.84,1.11c.65.42,1.15.4,1.79.8a5,5,0,0,1,.73.8c-1.84-.54-.06,1.24,1.52,2.1-.23,0-.61-.57-.78-.66.75.64,3.4,2.06,5.47,3.35C129.59,129.53,135.57,132.5,137.83,133.81Zm78.76,7.71.31.25-1.09-.41Zm-56.27-32.8.28.14.35.48ZM180.19,122l.49.3a12.8,12.8,0,0,1-1.59-.67S180.17,122,180.19,122Zm-42.88-20.21a.49.49,0,0,1,0,.27A.26.26,0,0,1,137.31,101.79Z"/></g><g class="cls-14"><path class="cls-15" d="M61.82,87.91C62.59,89,76.62,100.06,85.15,105c1.41-3-24.38-21.56-36.79-30.07-1,.19,8.31,8.32,4.87,6.39a5.17,5.17,0,0,1,3.17,1.79,28.47,28.47,0,0,1-3.12-1.23c2,1.42,6.07,4.57,8.54,6C61.93,88.08,59.88,86.8,61.82,87.91Z"/><path class="cls-15" d="M87.61,105.1c.35-.19-2.64-2.67-4.26-3.21C90.08,108,90,107.31,98.1,113c-1.79-.35-4.39-1.9-4.59-1.45,1.6.83,3.16,1.6,4.7,2.32-.76-.14-1.53-.28-2.31-.44,6.38,4.57,11.76,6.12,15.76,10,5.23,3-.38-2.4-.32-1.89,4.17,1.88,16.32,10.6,22.73,12.2C121.5,124.9,97.23,111.5,87.61,105.1Z"/><path class="cls-15" d="M127.37,117.12c-3.4-4.49-25.56-15.93-19.3-9.49a28.46,28.46,0,0,0-5.17-2.57,41.28,41.28,0,0,1,3.31,4c-13.88-7.9,14.3,14,12.06,8.72,4.71,4.14,24.42,15.9,27.73,14.8a35,35,0,0,0-6.94-3.44l.39-.63c-3.66-.78-12-6.22-15.22-9.21-1.75-.48,10.54,5,6.49,2.8,2.27,1.77,4.17,3.47,6.62,5.33.07,0,1.4-1.06,1.91-.44q-4.51-2.79-8.71-5.67c.25-.24,8.51,4.65,5.68,2.16-.86-.76-3-5.84-8.85-6.36C125.9,115.18,128.91,117.26,127.37,117.12Z"/><path class="cls-15" d="M85.24,97c-.12,0-8-6.19-8-6.16q.6-1,5.58,2.25c-.93-1.59-13.58-8.55-7.5-6.83,12.48,8.54,15.51,5.37,23.22,9.53-.11.15-.81.55.57,1.38-2.38-2.72,5.18,1.82,2.7-.53.77.44-12.39-7.95-12.15-8.52a9.33,9.33,0,0,0,2.51,1.06,10.92,10.92,0,0,0,2.36,2.47c-.13-.08-3.89-5.48-5.14-6.41l-.93.26C98.16,90.77,93,88.7,101,95.72c.17-.64.73-.49,1.7.44a12.32,12.32,0,0,0,2.84-1.4c-.56.2-.38.79.54,1.75,2.83.67,2.53.88,5.58,3.5-2.14-1-3.51-1.27-4.13-1a13.6,13.6,0,0,0,4.41,2.75c-.68,0-3.29-1-2.13.48a50.23,50.23,0,0,1,13.75,7c1.71.43,1.9,0,.57-1.34-1.07-.09,10,7,10.75,7.68,1.81.35,6.31.75.42-3,5.18,3.05,1.57-.67,0-1.84,3.5,1.68,9.37,4.5,11.55,5.61,2,1,11.06,7.57,10.23,5.81,7.13,5.59,5,5.36,14.78,10.36-.51,1,4.64,4.7,9.37,6-4.69-4-3.83-2.14-1.77-2.48,1.4,1.23,1.8,2,1.18,2.22q1.19-1.48,6.57,3.49c8,1.89-7.36-2.35,3.14,2.14q.76-1.2-.51-3.51c6.25,4.27,5.35,2,9.53,5.25q-3.36-2.85-1.69-3.15c2.65,1.79,4,3.11,3.93,3.94,8.65-.12,4,3.29,9.21,4.88a16.07,16.07,0,0,1-2.73-3.81c3.79,1.08,5.68-.58,7.62-.35-3.82-.45-12.66-10-12.44-9.86-.2,0-.25.14-.16.34a3.12,3.12,0,0,0-2.44-1.37c.09.1,0-1.31.9-.6-2.37-1.82-4.88-2-3.06-2.5q1.08,1.66-7.23-4c1.71.38,3.92.65,1.24-1.58.73.61-15.75-9.1-15.94-9.17,4.33,1.36,5.55-.64-2.66-4.65,1.42,2.45-2.1.72-4,.56-5.7-4.4,3.52.14-9.31-7.26,6.41,5.13-.27,2.21-3.21,1.54.32-.33,1-.38,2.21-.14q-7.14-3.15-6.4-4.45c4.1,1.66,5.34,3.55,3.84,1,5,2.62,4.36,2.72,6.92,3.25a30.67,30.67,0,0,1,7.22,5.07c.13-.35.66-.41.73-.65,1.58.79,11.2,5.1,12.43,5.15-7.85-3.29-2.81-3.41-2.62-3.51-3.06-2-9.54-6.23-6.93-5-1-.13-.4-.33.82.53q-4.45-3.92-2.27-2c1.34.52-.77-2.43,3.2.64a45.38,45.38,0,0,1,7.59,2.86q1.11,1.92,2.57,4-1.77-3.66,4.23-.24c.6,1.34-5.55,2,.09,5.44,0,.49,9.62,3.83,9.69,3.87,13.16,7.53,1.85.16,12.21,8.29,6.73,5.27,5,6.95,15.84,14.44,1.69-1.05-5.31-5.06-4.88-6.24,4.92,3,17.13,12.36,13.84,11.68,1.82.78-.49-.26-.09,0a13.44,13.44,0,0,0,3.8,1.84c-.82-.17-1.3-.47-1.43-.9-1,.28,17,11.34,18.59,12.28q-3.06-2.46-3.13-3.63c.06-.07,8.07,6.34,9.29,5.93-.52-.49-6.33-3.89-7.12-4.6.73.17,1.42.29,2.07.39-1.66-.84-6.66-4.92-2.93-3.14,2.47,6.71,17.08,8.6,15.08,7.67a39,39,0,0,0-5.89-2.06c2.6,1.86,4.29-.93,3.5-2.11.52.36,9.37,5.88,10.69,6.18,2,.46-2.85-2.76-3.58-3.33-2.71-1.73,9.77,4.07,9.73,4.33.21-1.5-18.36-15-17.49-15.12A119.88,119.88,0,0,0,280,164.24c-4.1-2.65-5.89-4.28-5.36-4.91q3.39,2.94,3,1.17s-5.85-3.85-5.91-3.46c16.6,8.4-3.91-3.84-4.63-4.88,2,1.12,7,4.47,8.37,4.14a50.26,50.26,0,0,1-4.19-3.43c-2.13-.45-1.34,1.38-5.92-3,2.87.85,5.11,2.83,8.53,3.89-.07.15-.16,0-.27-.34,3.29,5,17.57,14.2,19.43,17.2-2.33-1-.45,3.54-9.67-3.49-.3,1.26,10.14,7.48,12.77,9.6.86.69-5.09,2.12,2.35,1.48-.36.25-.52.06-.47-.56-11.21-2.16,15,5.76,7,2q3.62,2.88,2.39,3.56c1.59-.45,8.78,6.4,10.7,8.94-3.07-7.35-15-19.63-18.86-26.74l2.84,1.41c-.95-1.54-11.84-9.29-12.06-10.27a13.61,13.61,0,0,1,4.31,2.13c.45.42-1.15,1-1.65-.11l3.52,2c.53.39-10.67-9.25-11.7-9.08l2.76,1.87q-6.21-4-2.11.66c-.34.34-9.21-7.41-9.15-7.09,5.2,3-5.07-2.74-6.68-5,2-.16,13.1,8.71,9.29,5.05q5.36,3.31,10.48,6.72c-3.83-2.59-4-3.05-.48-1.37-.5-.35-14.45-11.82-14.59-11.85.77.64,1.45,1.25,2.05,1.83-.34,0-13.55-13.24-15.33-14.33,2.09,1.29-7.08-4.56-6.08-4,3.06,2.31-.78-.46,2.14,1.23.22-1.69-49.45-33-50.82-34.27-1.25-.25-.38.08.37,1.36-12.16-7.24-7.76-5.25-5.19-4.6l-2.8-1.08c.7.1.67-.23-.09-1,.47,0-26.44-13.47-27-13.82,2.8,1.55,5.56,3.16,8.29,4.86-.87.36-7.76-4.26-9.78-5.12,1.4.29,2.12.86,2.15,1.69-3.11-2-4.82-5.34-8.82-7,1.9,2.21-4.6-1.81-8.76-3.83,1.87,1.34,9.91,7.1,11.5,8.13-7.5-2.91-8.62-3-19.73-8.87,10.69,5.67-10.83-8.72-11.41-9.08a165.07,165.07,0,0,0-24.19-12.91c5.92,3.37-3.09-1.09-5.86-1.81a57,57,0,0,1,6.65,5.73c-.45-.42-1.79,1.31,2.66,3.52a7.67,7.67,0,0,0,1.89-.29q7.29,4,2.77,3.25c1.67,1.25,10.15,1.25,13.33,5.31.86,1.1-1.93,1.87-4.62.58,4,3.3,3.78.76,1.8,1.59,3.94,2.69,10,4.89,3.26,2.08a34.23,34.23,0,0,1,4.28,3.54c-4.63-1.63-15.13-8.24-14.63-9.5-.35.89-6.3-1.54-10.12-3.7-1.13-1.14-1.32-1.81-.59-2,6.35,3.45,1.81,1.33,5.47,3.66-6.31-2.84-10.55-6.79-16.46-9.27-1.18-.49-17.8-4.38-17.11-2.63,1.19-.49,5.7,5.52,5.57,5.18q1.79.19,1.2-1.08c-4.33-2.39,18.61,14.31,14.53,11.47-.09-.06,9.23,3.08,10.88,3.8a7.42,7.42,0,0,0-3.21.49c1.76,1.74,4,1.6,5.88,2.65-.22.47,20.52,12.69,22.32,12.19a14.06,14.06,0,0,0-5.63-3.75c-4.76-5.28-7.38-5.59-15.5-11.67,7.41,5.55,29.17,12.18,36.25,18.36-5.4-.41,5.25,6.31,13.56,10.19A59.58,59.58,0,0,0,163,84.11c1.48-.79,3.67,2.21,6.1,2.21-9.49-7.37-4.72-1.89-1.12-1.42q-.82-1.35-4.11-2.76c1-1.4,30.54,14.39,21.56,10.4a15.77,15.77,0,0,0,5,2.37c1.06,1.21.9,1.73-.49,1.54,5.67,4.27,3.5-.07,2.48-1,.17.55,5.17.69,4.46.35,2.51,1.63,3.1,2.44,1.79,2.43,1.8.75,5.74,1.17,8,2.47a2.41,2.41,0,0,0,.26,2.15c.71-.88,2.91-.14,6.6,2.24-2.4.64.13-.27,1.74,1.32-2.08-.94-3.34-1.22-3.79-.85q5,3.14,9.39,6.33-3.43-1.74-6.55-3a36,36,0,0,0,4.34,4.37c-7.07-4.3-12.59-9-19-12.19-2.14-1.07-12.48-3.84-9.2-1.45-.73-.45,7.5,2.21,7.73,2.27-.08,0-1.24.57-1.14.67,1.65,1.79,5.29,1.74,5.7,1.86,5.06,4-2.19-.06,5.53,5.11,3.23,2.16,5.17,3,11.44,6.84-10-5.53,4.88,4.43,1.76,2.85,3.46,2.23-5.44-2.2-7.33-3.33a9.11,9.11,0,0,0,1.78,3.44q-3.1-2.44.82.38c.09,0-6.27-2.77-3.89-1.35,5.83,4.74-1-3.48,6.84,4.26q-2.43-2.16.69.48c-1-.65-15.09-8-15-7.12,0,0,10.86,7.62,10.53,5.91,2,1.89,2.78,3.23,2.45,4-7-5.33-14.44-10-20.49-14.95-2-1,2.73,4.57,6.48,5.86q-1.6-1.29-3.58-2.62a24.55,24.55,0,0,0,2.89.6,26.26,26.26,0,0,1,5.49,5.56,31.47,31.47,0,0,0-5.5-3.67c3.17,2.43,5.86,4.74,9.17,7.21a46.35,46.35,0,0,1-7.74-5.64c-1.73,1.36-6.7-5-7.25-4.61,3.16,2.38-1,2,5.12,5.32q-3.06-1.45-.4.7c-.35-.25-11.8-9.24-11.3-6.58a93.19,93.19,0,0,1,7.14,6.56c.86-.08-7.55-6.55-7.81-6.55-1.92-2.47-1-.28-3.89-3.18,1.76.6,3.66,1.33,5.67,2.18-4.55-2.83-12.11-5.13-6.86-1.76.15,0-5.75-2.56-3.51-3.27-1.45-.62-8-5.94-9.26-7,3.7-.27-9.86-6.54-6.88-7.22q-2.25-1.07-4.62-2.43c.87,0,1.69-.12,2.47-.23,2.28,1.48,6,3.67,1.34,1a17,17,0,0,1,4.37,1.88c.23.85,1.56,2.18-.31,2.4.51.34,11.76,6.29,12.41,6.47-5.46-3.52-1.77-2.4,2-.51.2-2-11.08-6.54-10.23-7-2-1,10,5.73-.12-.94-.15.76,1,1.25,3.5,1.47a39.26,39.26,0,0,0-12.06-5.79c-2.43-1.41-3.85-3.35-9.27-5.78,3.37,3,.78,1.87-3.19-.13-1-1,8.91,8-2,.23-.49.4.83,3.33,2.56,4.85-2.41-1.33-4.73-2.48-6.95-3.43,1.39.46,1.75,2.36,3.43,4.3-5.45-6.29,24,13,12.45,7.36,1.92,2.45,6.44,2.6,6.51,2.6,2.92,1.81-1.21.8,2,1.79-3.28-1.73-3.27,1.44-1.79,2.72a70.16,70.16,0,0,1-7.74-4.43,83.77,83.77,0,0,0,7.32,5.54c-.26-.1-24.54-9.67-20.48-7-11.85-5.68,24.6,23.25,16.59,14.51,0,.11,4.84,3.67,5.4,4-4.92-2-8.76-2.94-11.92-4A11.56,11.56,0,0,0,152,108.9c.54,2.72,2.22,3.28-4.95.45-.19-.72-1.11-1.76-2.77-3.12,2.46,1.7,6.19,3.43,6.71,3-12.1-7.72,1.25-.61-4.16-5.49-2.35-.73-19.29-11.16-19.27-11.32,1.29-.51-2.92-3.55-7.91-7.19,0,3.67-14.51-7.48-22.34-9.46-3.12-.79,9.18,7.39-.33,1.58a56.69,56.69,0,0,1,5.58,4.28c-3.11-2.26-9.31-7.64-13.4-8.7-5.14-1.32,13.42,10,3,4.29-.85,1.49,11.39,7.49,9.29,9.58-.61.61-9.83-2.17-14.42-4.77a46.67,46.67,0,0,1,7,4.62c-6.62-4.95-1.78-.11-1.84-.21-2-1.46-18.7-12.67-20-13.53-9.71-6.21-.67.41-10.3-5.07q-2.26-2.43-5.37-5.16c-3.73-.71,11,8-6.05-1.68.27,1.59,5.74,4.39,8,6.66a22.5,22.5,0,0,0-6.91-4.18A78.59,78.59,0,0,1,57.73,70c.37.14-8.94-5.17-3.4-.53Q58,71.7,61.74,73.7s4,9.85,9.94,13.76c.21.09,10.37,7.26,13.56,9.5C85.32,97,83.24,95.55,85.24,97Zm117.11,40.17c.15.21-2.2-.82,0,0C202.37,137.16,202.32,137.12,202.35,137.13ZM152.46,102c1.26.51-1,.38,0,0ZM168,114.82c-.46-.34-1.11-.08,0,0C168,114.86,167.91,114.81,168,114.82ZM124,89.19a.73.73,0,0,1-.32.06A.45.45,0,0,1,124,89.19Z"/></g></g></g></g></g></g></svg>