<svg id="café_planet" data-name="café planet" xmlns="http://www.w3.org/2000/svg" xmlns:xlink="http://www.w3.org/1999/xlink" viewBox="0 0 344 231"><defs><style>.cls-1{opacity:0.67;}.cls-2{fill:url(#Degradado_sin_nombre_15);}.cls-3{fill:url(#Degradado_sin_nombre_36);}</style><linearGradient id="Degradado_sin_nombre_15" x1="152.46" y1="1.93" x2="152.46" y2="263.07" gradientUnits="userSpaceOnUse"><stop offset="0" stop-color="#a1775d"/><stop offset="0.51" stop-color="#7a4b40"/><stop offset="1" stop-color="#77473e"/></linearGradient><radialGradient id="Degradado_sin_nombre_36" cx="150.94" cy="116.62" fx="9.229682467338051" fy="29.650928597526487" r="166.26" gradientTransform="matrix(0.97, 0.25, -0.34, 1.28, 44.07, -71.13)" gradientUnits="userSpaceOnUse"><stop offset="0" stop-color="#a1806a"/><stop offset="0.11" stop-color="#9f7d68"/><stop offset="0.18" stop-color="#987461"/><stop offset="0.24" stop-color="#8d6555"/><stop offset="0.29" stop-color="#7e5044"/><stop offset="0.3" stop-color="#7a4b40"/><stop offset="0.94" stop-color="#663a34"/></radialGradient></defs><title>proyecs-01</title><g class="cls-1"><circle class="cls-2" cx="152.46" cy="114.66" r="84.37"/><circle class="cls-2" cx="152.46" cy="114.66" r="84.37"/><path class="cls-3" d="M231.81,143.22a86,86,0,0,1-3.58,8.49c21.46,16.79,34,29,31.93,32.16-3.77,5.76-63.24-18.16-122.77-57.15s-96.55-78.29-92.78-84c2.1-3.21,19,3.73,43.73,17.23a85,85,0,0,1,6.29-6.59C50.54,29.66,17.89,18.15,12.7,26.06,5,37.82,60.65,87.89,137,137.9s144.47,81,152.17,69.27C294.34,199.27,270.89,174.07,231.81,143.22Z"/></g></svg>