<svg xmlns="http://www.w3.org/2000/svg" xmlns:xlink="http://www.w3.org/1999/xlink" viewBox="0 0 344 231"><defs><style>.cls-1{fill:url(#radial-gradient);}.cls-2{fill:none;}.cls-3{isolation:isolate;}.cls-4{opacity:0.4;}.cls-10,.cls-4{mix-blend-mode:multiply;}.cls-5{clip-path:url(#clip-path);}.cls-6{mask:url(#mask);}.cls-7{fill:url(#radial-gradient-2);}.cls-8{mix-blend-mode:overlay;}.cls-9{fill:url(#radial-gradient-3);}.cls-10{opacity:0.72;}.cls-11{fill:#ddd;}</style><radialGradient id="radial-gradient" cx="4832.52" cy="-9527.78" r="200.88" gradientTransform="translate(9874.92 -4175.17) rotate(-140.1)" gradientUnits="userSpaceOnUse"><stop offset="0.65" stop-color="#fff"/><stop offset="0.67" stop-color="#f1f1f1"/><stop offset="0.71" stop-color="#cdcdcd"/><stop offset="0.76" stop-color="#929292"/><stop offset="0.82" stop-color="#424242"/><stop offset="0.87"/></radialGradient><clipPath id="clip-path"><path class="cls-2" d="M138.12,31.25a84.62,84.62,0,1,1-69.76,97.22A84.62,84.62,0,0,1,138.12,31.25Z"/></clipPath><mask id="mask" x="-144.78" y="-166.19" width="401.82" height="401.82" maskUnits="userSpaceOnUse"><path class="cls-1" d="M23.54-163.5C133-181.5,236.35-107.34,254.35,2.13S198.19,214.94,88.72,232.93-124.09,176.78-142.09,67.31-85.93-145.5,23.54-163.5Z"/></mask><radialGradient id="radial-gradient-2" cx="-3320.92" cy="-10105.37" r="127.8" gradientTransform="matrix(-0.16, -0.99, 0.99, -0.16, 9547.65, -4752.87)" gradientUnits="userSpaceOnUse"><stop offset="0.07" stop-color="#fff"/><stop offset="0.37" stop-color="#fdfdfd"/><stop offset="0.53" stop-color="#f5f5f5"/><stop offset="0.66" stop-color="#e7e7e7"/><stop offset="0.77" stop-color="#d4d4d4"/><stop offset="0.87" stop-color="#bbb"/><stop offset="0.94" stop-color="#a3a3a3"/></radialGradient><radialGradient id="radial-gradient-3" cx="-3278.38" cy="-10061.53" r="84.62" gradientTransform="matrix(-0.16, -0.99, 0.99, -0.16, 9547.65, -4752.87)" gradientUnits="userSpaceOnUse"><stop offset="0.9" stop-color="gray"/><stop offset="1" stop-color="#c4c4c3"/></radialGradient></defs><title>proyecs-01</title><g class="cls-3"><g id="lunares_planet" data-name="lunares planet"><g class="cls-4"><g class="cls-5"><g class="cls-6"><path class="cls-7" d="M138.12,31.25a84.62,84.62,0,1,1-69.76,97.22A84.62,84.62,0,0,1,138.12,31.25Z"/><g class="cls-8"><path class="cls-9" d="M138.12,31.25a84.62,84.62,0,1,1-69.76,97.22A84.62,84.62,0,0,1,138.12,31.25Z"/></g><g class="cls-10"><path class="cls-11" d="M73.64,90.9c-.15.12-.29.86-.4,1-.06-.06-.88-.75-.79-.93-.09.23.32.46.27.63-.46.84-1.42,2-.5,2.2-.75,1.07.65.08,0,3.18.25,0-1.48,3.1-1.69,5.72-.21,1.16.29,1.68.53,2.5,1.64-.47,1.67-1.85,2.17-3.22,1.53.36,2.51.1,2.82-1.66-.32-.12-.23-.6-.42-.68a11,11,0,0,0,2.41-1.75c-1.87-.5-.14-1.91,0-3.38.09-.83-1.3-1.8-1.26-2.51s1.25-1.35,1.32-2.15a17.88,17.88,0,0,1,.76-4.59c.41-1.34,1.39-3.58,1.44-4.78-1.52,0-3.27,3.06-4.36,5.48,0,0-1-.48-1-.53,0,.13,1,.64,1,.75s-.33.57-.43.82-1.25-1-1.47-1.18c-.07.46.5,1.89.29,2.59-.12,0-.35-.18-.5-.13C73,88.61,73.32,89.92,73.64,90.9Z"/><path class="cls-11" d="M73.82,105.51s.16,0,.14,0,.33-.37.32-.47c0-.79,1.45-1.47.14-2.22-.76,1.41-1,3.68-1.31,5.23,0,0-.92-.19-.92-.18s.43.33.4.43a9.65,9.65,0,0,0-.22,3.76,13.58,13.58,0,0,1-2-.21c.08-.26.22-.64.29-.93-.2,0,0-.48-.13-.33a3.35,3.35,0,0,0-1,0c-.09.6,1.35,1.53,1.43,2.1-.16,0-1.82-.49-1.9-.54-.07.49.83,2,1,3.36a2.45,2.45,0,0,0,0,.39,2.51,2.51,0,0,0,.21.6,6,6,0,0,0,.94,2.9s-.36.74-.36.74,0,.17,0,.27l-.89.34c.09.27.58.13.76.34.22-1.59,1.82-1.53,2.13.72.33-.79.12-.82.3-1.35.08,0-.41-1-.32-1.06s-.3.66-.28.68c-.3,1-.52,1.89-.2,2.39.06.44,1.63.11,1.9.26.24.66.16,1.13.29.79,0,0-.94.26-.92.32.2.54,1.39.83,1.57,1.32.33,1,2,4.76,2.85,5.07a14.6,14.6,0,0,0-.53-4.09,16.16,16.16,0,0,0-1.5-3.54c-.66-1.31-3.09-4.4-.49-5.18-.17-1.15.68-2-.92-2.07.18-1.47,1-3.73-.35-4.49.68-1.37-.36-1.68-.66-2.86.06-.45,1.07-1,1-1.19,0-.39.37-.84.28-1.24C75,105.44,73.82,105.6,73.82,105.51Z"/><path class="cls-11" d="M98.91,118c1.64-1.51,2-1,1.66-3.73-.28-2.3-1.45-2.29-2.74-3.78-1-1.22-.71-3.3-2.78-3.56s-1.38,1.58-2,2.47c-.21,0-.16-1.09-.37-1.08,0-.35-1.12-1-1.17-1.23-.26.31-.81.77-1.12,1.08-.61.09-1.37,1.87-1.93,2-.25-.73.22-1.75.37-2.53-1.77.11-1.83.74-2.22,1.95a7.13,7.13,0,0,0-.68-.33,3.56,3.56,0,0,0,0,.92c-.06.12.13-.35,0-.23s0,.41-.12.55c-.6.23-1.41.29-1.54,1.57-.06.55,1.07,1.12,1.32,1.68-.79,1.35-2.84-.24-2.79,1.53-.51,4.6,3.72,2.69,4.53,2.21-1.4,2.79-2.2,5.42-.34,7.33.26.83,1.24,1.26,2.2,2,1.12.91,3.26,3.87,4.66,3.77.39-1.7-1.47-2-2.08-3.11,0,0,1.53-.39,1.53-.4l-.54,0c-.06-.16.07-.35,0-.53-.13-.65-.67-.94-1.43-1.37-.09-.21-.77-.65-.86-.86.4-1.2,1.82-3.26.62-3.71,0-1-.1-.47.49-1.46.61.26.91,2.6.92,2.69.06-.11.47.51,1.5,0,0,.42.19-.17.25,0s-.36.47-.44.72a3.32,3.32,0,0,0-.71,2.11,12.84,12.84,0,0,0-.39,1.56c.47,0,1.64-.82,1.67-.4.12,0-.49.07-.38,0,.6.61,1,.94,1.67.26.91-.93-1.54-3.85-.3-4.84.17,0,.68.68.84.63.47.39-.14,2,1.09,1.84a33.88,33.88,0,0,0,3.65-1.7C101.74,120.54,100.45,118.22,98.91,118Z"/><path class="cls-11" d="M85.06,99.6a2.6,2.6,0,0,1,.4,0c.24-.87-.31-1.77-.26-2.61,0,0,.59.11.6.15a21,21,0,0,1,1.21-2s-.63-.7-.62-.71c1.9-1.37,1.56.81,2.56,2.15,1.24-.9.1-2,.45-3.15.25-.85.86-1.79,1.17-2.74a11.46,11.46,0,0,1,1.48.36c-.11,2.76-1,3-.07,3,.67.19.75,1.59,1.37,1.36a2.13,2.13,0,0,0,2.16,1.9c2.09,2,6.38,3.27,6.09,1.46a3.25,3.25,0,0,1,.8,1.33c-.25.06-.47.07-.59.2s-1.32,0-1.12.81c.08-.09,1.32-.89,1.39-.95.46.77,1.79,2.2,2.63.86a9.9,9.9,0,0,1-.14-3.82c.27-.87-.06-1.72.38-2.31.13-.1.23-1,.39-1,.18.17.36.87.38.6,0,0,.64.4.69.4-.28.39-.9.52-1,1-.53.9-1.16,1.39.67,1,1.4-.34,2.39-2.46,2-3.78.06-.1.38.67.45.58A3.29,3.29,0,0,0,110,91.83c.05,0-1.55.12-1.5.08.17.41,1.55.25,1.68.61a9,9,0,0,1,.51,1.59c-.6,2.26-4.55,4.68-5.3,6.24,1.52,0,1.78-.17,1.18.49.13,0,5-.5,5.68-.69-.3.1-1.15,0-1.52.49a2.75,2.75,0,0,0-.86.79s1.54.83,1.57.84a22,22,0,0,0-1.16,2.17c-.08-.26-1.09-.79-1.19-.86-.7-.52-1.06.27-1.9-.24-.21.52-.41.75-.36,1.1,0,.18.27.57.72,1.27-1.54-.2.43-2.28-2,0-.15.11-.6,0-.7.1s-.48-.06-.54,0l.87.55c-.4.7.16,1.27.23,2.42.72.09,1.37-.71,2-1.13a12.42,12.42,0,0,1,.6,2.47,3.93,3.93,0,0,1,.12,2c1,.42,2.58.18,2.94-.88.08,0-1,.4-.93.42a2.38,2.38,0,0,1,.39,1.63,4.94,4.94,0,0,0,.09,2.15s-.57-.37-.53-.38c-.19.72.56,1.72.18,2.63,1.61.48,1.65-1.21,1.82-1.17.57,1.76,3.15,1.45,3.27,1.68-.11,0,.58-2,.51-2.54.8,3,3-.61,3.16-1.28.54.73.61,1.92,1.12.52,1.28,2.12,2.47,1.8,3.5,2.65-.18,0,.07.24-.08.18-.81,1.16-1.7,2.81.67,2,.21.41-.1.2-.17.51-.25-.11-.14.73-.38,1.1-1.82-.34-1,2.47-1.09,3.69a6.68,6.68,0,0,0,1.89-.49c-.26.89-1.44,1.62-1.63,2.49,1.22.67-1,2-1.12,2.94-.16,1.49,1.18,1.94,2,3.31a5.09,5.09,0,0,1-2.35.24c-.66,1.63.49,1.19,1.24,2s.58,2.49,1.63,2.93c.15-.33.36-1.94.49-2.28.08.09.17.13.17.26.43-.23,1.09.12,1.57.11,0,.9-1.61,1.52-2.47,1.68a1.8,1.8,0,0,0,2.17.08,6.18,6.18,0,0,1-.6,3c1,.35,1.49-2.76,2.15-.07-5.25,3.6.1,1.34,3.24-.62,0,.8-.17,1.83-.27,2.67a5.65,5.65,0,0,0,2-.09c-.07.33.31,1.73.2,2.06.78-.53,2.47-3.81,3.47-2.37s-1.56,2.24-2.24,3.15c1.32.1,2.27,1.39,3.16,1.71-.58,1-2,2.1-.94,2.63.56-1.81,2.39-1.9,3.86-3,.05,0-.51.1-.46.06.54.25,1.32-.12,1.74.79.36-.31,1.51,0,2.54-1,.86.17,1.21-1,1.61-1,1.11-.19.94-1.72,2.36-.41.68.63-.15,1.93,1.11,2.17,2.25.44-1-5.09-.55-6.18.93,0,3.08-.7,3.15-2,0,0-.53.11-.41.06s-.28.11-.35.16.5-.66.47-.7-.91-.37-.93-.5c.38-.42,2-.39,2.07-.55-.28,1.38.19-.59.21-.6-.41.53-.48-.36-1-1.19.93,0,2.68-.17,1.44,0a4.88,4.88,0,0,1-1.35-3.6l1.78.67c.55-1.36,1.81-.34,2.34-1.64s-1.61-2.12-2.48-2.5c1-2.2,1.94-4.07-.11-5.53,1.43.76,3.3-.65,5.44-.24.56-1.47.71-1.51-.53-3.27-2.5,1.81-3.27,1.5-4.52.54.12,0-.22-.1-.09-.14.05-.83-.15-.29-.95-.42,0,0,.12-1.78.14-1.75a3.06,3.06,0,0,1,2.1-.1c.47-1.34-.1-2.91-.5-4.16-.34,1-1.24,2-2.09,1.36a1.92,1.92,0,0,1-1.25,2c-1.13-.58-1.6-2.13-3-2.61.22-1.5,5,2.92,1.64-2.83.88,0,.88-.47,1.41-.8.19.16.18.77.34,1-.23,1.09.1,1.59,1.29,1.41.06-.82.56-.93,1.13-1.34.17.32-.36.92-.07,1.28.25.65.73,1.11,1,1.8,0,.17.49.17.48.35.1,0,.82-.49.94-.45.09.2-.59.8-.49,1-.38.68.17,1.29.84,1.56-.55.08.06.83.37.69.06.09.1-.24.15-.15-.29.64-.94.56-1.25,1.18.5-.16,1.23,1.16,1.63.84.3-.09.06-1.14.31-1.22.91,1.36,1.58,2.66,2.34,2.74,0,.28.43-.53.35-.24,1.48.31,1.35,2.19,2.77,2.37-.64-.59-.79-.71-.44-1.65.19,0-.2.32,0,.34-.43-.62.44-1.2.3-1.78l1.18-1c.44.65,1.18,1.43,2,1.33,0-.65.25-1.49.09-1.79.06-.08-.31.39-.35.34.37-.16.43-.93.8-1.32.24.13-1.19-.67-1-1.23.49.06,1.38-.83,1.07-1.4.14.18-.29.9-.06,1.23a4.46,4.46,0,0,0-.34-.42c-.2,0-.29.7,0,.63,0-.1.39-.28.38-.38a1.67,1.67,0,0,1,0,.62,1.54,1.54,0,0,0,1-2c.34-.19-.47.4-.23.42s0-.23.13-.14.92-.5,1-.31c.1,0,.18-.37.29-.4a20.93,20.93,0,0,0,1.77,1.18c-.21.29-.76,1.15-.57.44.16.08.26.52.43.58.12.38,1.14,0,1,.45.69.14,1,.21,1.71.33.07.18.54,1.27.64,1.41-.73,1.27-3.29,1.7-3.92,3.06a26.73,26.73,0,0,0,4.91-.48s.38.71.37.74c-.48.3-1.84-.33-2.52.26-.23,0-.14.38-.29.48-.63,0-1,0-1.58.95-.62-2.18-1.83-.27-2.81.24s-2.41-.17-2,1.88c.42-.17,1.05,0,1.51-.35,0,.77-.2.82-.18,1.57-1.52.14-.61,2.45.83,2.42,2.11-.05.88-1.08,3.19.45,1.18.78,2.79,1.21,2.7,2.86-.11,2.11-1.75,1-3.28,1.59.56,2.81-.8,2-2.71,3.07-.34.2-.66.91-1,1.17a7.64,7.64,0,0,0-1.23,1c-.79.84-.08,1,.91,1.43l-.29,1.39c-1.22.08-1.39,1.18-.45,1.8,0,.64-1,1.91-1.36,2.42-.56.79-.76.38-.83,1.55,1.73-.26,2.48-1.15,3.27-2.78a19.71,19.71,0,0,1,1.82-2.07c.11.62-.35,1.24.22,1.31-.8.49-.49,1.3-.52,2.1-.14.11-2.24.79-2.05.84,0-.1,1,1.77,1,1.74,0,1.71.92.45.91.75-.33,0-.41,2.22-1.43,3a10.15,10.15,0,0,0-1.66.57c-.13,0-.49-.66-.61-.7.06.06,0,.06,0,.11-.3.17.55.07.43.17,0-.31-.68,0-.61-.27-.6,1-.21,1.09.57,1.28,0,0,.66.37.66.39s-.65-.32-.53-.36.26-.43.42-.42c-.59,0-.94,1.28-1.13,2-.33,1.22.18.57,1.13.67-.14.16-.46.88-.59,1,2.83,1.58.15,4.48.91,6.75.53-.5,1.76-3.65,2.62-2.85-.13,0-.37.3-.55.32,0,.27.45.59.76.86-.42,1.24-1.93,4.07.31,3.9.1-.16-.65-1-.59-1.18-.27-.16,1-1.13.7-1.31.37-.21-.63-1-.42-1.44a17.14,17.14,0,0,0,1.72.48c0-.07-1.12-.36-1.16-.43.23-.5,1.06-.69,1.27-1.21.44-.6.76-2.34,1.9-.85a21.4,21.4,0,0,1-1.69,4c.64-.06.85.29,1.48.22a16.66,16.66,0,0,0-1.57,2.93c.65-.23.86-.27.49.69,1.19.56,5.79-1.09,4.85-.23,2.68,0-2.09-2.72-2.6-2.74.25-2,4.58.71,4.6,1,.23,0,.09-.48.28-.54.72,0,0,.26.35-.26-.11,0,.44.22.35.21.52-.41,1.51-1.12,2.05-1.56-.05.94-.3,1.64-.39,2.57.73-.69.69-.48,1.73-.18,0,1.3-1.09,2.52.36,3s1.26-1.78,1.67-2.64c.08-.17-.16.22-.07,0,.05.56,1.32.45,2.6.36a3.54,3.54,0,0,1-.16,1.48c-.19,0,.65.4.46.44-.18.88-.42,2.2.86,1.73.71-.26,1-1.84.78-2.16.46-.2.7-.71,1.24-1.17,1.24-.28,1.91-2,2.05-3.93a40.15,40.15,0,0,0,1-4.74,5.8,5.8,0,0,1,.76-.33c.47,1.79-2.15,5.33-.62,6.59.13-.94.66-3,1.41-3.65,1.16-1,.94-.19.58,1.11,3.21.65,1-2.19,1.3-3,.06-.16-.75-.21-.47-.31a3.93,3.93,0,0,0,3.13,1.87,5.06,5.06,0,0,0-.29-3c.44-.58-.39-2.29.2-2.78a9.09,9.09,0,0,1-.08,2c.12.05-.06.42,0,.53s1.21-.33,1.25-.21-.06.19,0,.17c.37.62.56,1.31,1.32,1.28,1.35-.05,1.16-2.44-.15-2.53,0-.12-.27.34-.32.36.14-.33,1.15-.3,1.54-.65-.24-.08-2.07-.16-2.33-.24a5.19,5.19,0,0,1,.69-2.47s.21.26.25.28c-.16.42.5.54.84,1.07.27,0-.41,1-.18,1a7.45,7.45,0,0,1,.46,1.15,2.37,2.37,0,0,1,1.77.07c.07.17-.24-.08-.17,0s.46-.39.44-.3c-1.62,1.28-2.18,3.68-2.94,5.74-.78.65-.5,1.47-.56,3.47-1-.16-2.88-.49-3.42.39,1.41,1.15.42,3-.61,4.2l.38.17c-.84-.77-1.76,1-2.62,1-.19,0-.86,0-1.06-.09-1-.63.48-3-1.26-2.31.06-.29-.26-1.71-.19-2-2.65.9-.84,3.85-1.27,5.66s.55,2.51-1,2.75c-.85.14-3.13-1.13-3.13.58,1.07.62,2.65.25,3.74.29.1.2-.53-.05-.51,0s.93-.51.93-.48c-3.63-1.06-3.05,4.94.93,3.66.73-.23,2.89-2.38,3.6-1.52,1,1.22-2.6,2.35-3.35,2.72.47,0,1.3.47,1.77.46-.12.08-.94.46-1.28.65.32,0,.4.34.73.4-.22,1.48-1.55.84-2.54,1.63s-.89,3.43-1.71,4.18a25.19,25.19,0,0,0,3.68-2.6c.94-.81.59-2.25,1.73-2.85,2.21-1.17,4.64-1.45,5.92-3.59,0,.22-.2.08-.17.29.8,0,1-.66,1.53-1.1,2.07-1.16,4.12-3.46,6.14-5.57.51-.29,1.36-.34,1.84-.67,1.23-.86.81-2,1.46-2.89.34-.38,1.52.05,1.77-.21s0-1.15.26-1.37c0,0,.84,1.27.84,1.28s-.11-.45-.06-.49.41.08.55,0c1-.68,4-4.44,2.32-5.27.58-.72,0-2.16.94-2.62.05.13,1.26,1.14,1.28,1.34,0,0,0,.58,0,.58-.09.16-1.86.26-1.92.44-.09-.51.49-1.38.53.15.21,0,.24,1,.33.91S218,164,218,164.08c.35-.24.8-.21,1.11-.61.19.05,1,.63,1.11.62.25-.64,0-1.7.21-2.53a4.24,4.24,0,0,0,.45-2.72s.14-.83-.21-.82l0,1.58s-.39-1.4-.44-1.39c-2.59,1.67-4.48,2.62-3.68.22-.15-.26.92-.67,1.59-1.58a3.59,3.59,0,0,0,1-1.83c.08-.13-.18-.31-.12-.45-.07.05-.15-.64-.24-.6s.77,1.16.75,1.13c.52-.68-.31-1.32-1-1-.06-.51.19-3.44,1.16-4.28.33,0,.71,1.34,1,2a19.87,19.87,0,0,1,.89,3.63c.21-.46-.18-.67.13-1.15-.64,2.47,1.44,3.1.53,5.76.36-.35.16-1.33.62-1.94,0,.05,1.13.88,1.18.94,0-.16-1.19-1.12-1.15-1.26,1.46-2,4-4.27,4.4-5.75a4.08,4.08,0,0,1-1,.16c0-.12.51-3.15,1.27-2.91-.1,1.27-.84.72-.79,1.49a2.1,2.1,0,0,0,1.37-.49l-.79-.9c1.9-1.63,3-5.58,3.88-8.06.15-.45,2.57-1.7,2.5-2.11,0-.05-1,.12-1,.08.29-.95.38-1.6.48-1.82-.59,0,0-.59.73-1.64.09.22-.41-.25-.3-.05,0,.16-.61.39-.64.82.06-.23,1.21-.16,1.26-.38,0,.07-.31.57-.29.64,1.13-.41,1.41-2.47,1-3.41.09-.32,0-.21.1-.45.39-.94-.25-2.33,0-3.37s1.28-3.44-.4-1.56c0-.13-.68-.49-.72-.71s.33-.38.41-.59c-.09.07.32,0,.21,0-.06-.35-.18-.54-.22-.94.4-1.45,1-2.7.34-1.92.06-.2.09-.65.21-.7.15-.61-1.18-2.08-1.6-3.51,0-.21.78-.57.78-.78s-.44-.35-.5-.54c-.28-.9.23-1.53.41-2.32.2-.27.09-.53.59-.51.09-.87-1.23-1.64-1.25-2.45.1-.18.7-.45.63-.66.11-.43,1.09-.55,1.18-1,.3-1.49-.7-3-1.12-4.63-.07.25.39.71.25.93-.55-.16-.37-1-.87.19-.13.12-.88.69-1,.8a8.09,8.09,0,0,1,.6-4.49c.06,0,.41.62.45.61a7.9,7.9,0,0,0,.87.14c0-.06-1.37-1-1.38-1s.62.26.58,0,1-.45,1-.71a.45.45,0,0,0-.42.21c-.55-1.68-2.58-5.58-4-8.73l.4.33c.06-1,.72-2.67-1.56-2.33,0,.27.51-.69.45-.43-.22-.63-2.13-1-2.16-1.44-.15,1,1.69,3.12,1.21,4.23-.28,0-.88-.56-1-.62s.11-.24,0-.3c-.36-.83.09-1.83-.76-2.46-.06.08-.34-.24-.45-.16a5.88,5.88,0,0,0-.24-1c0,.1.7.24.7.41-.23.16-.95.82-1.13,1-.09-.67-.16-2-.21-2.63a11.37,11.37,0,0,1,1.19-.22c.3.24.08.46.51.71-.06-1.44.54-2.08.49-2.48-.09-.08.05-1.11,0-1.19s-.64,1.15-.68,1.15a14.42,14.42,0,0,0-.85-1.57c-.27-.52-1.49-2.47-2-3.15-.2,1.46,1.33,3.21,1,4.75-.08.12-.22.19-.34.35-.4-.46-.43.54-.81.29,0,.77-.57.72-.54,1.46-.69-.54-.71-1.68-1.25-2.31-.8.47-1.23,1.55-1.84,1.52,1.91-1.93-5.77-3.54-.8-4.15-.63-.62-6.06-4-2.52-4.48,1.44-.17,2.56,2.28,3.46-.12.3-.78-.3-1.93-.48-2.72,0-1.07-1.34-2.17-1.58-3.44-.16-2.1-.2-3.59-1.53-5.71-.7-1.1-.65-3.3-1.3-4.17s-2.07-.74-2.84-1.6a7.92,7.92,0,0,1,.45,1.56c-.34,0-.39-.9-.65-1a.51.51,0,0,0-.4-.22,15.61,15.61,0,0,0-3-2.15c-.25.8.58,2.59,1,3.24a1.19,1.19,0,0,0-1,2c-1.33.7-1.82-.75-2.84-1-.64-.12-1.36.73-2.06.72.49.33,0,.38.37,1,.06.11-.91,1.08-.65,1.46s2.39-.39,2.68,0c1.91,2.5-.41,2.78-2.4,2.55-.33,1.56,5.2.7,6.13,2.77,1.67,3.71-2.26,2.41-3.92,2.94-.64-.06-1.08-.46-1.42-.46s-.74-.08-.87-.25c-.22.58.61.67.87,1.26.07,0-.32.6-.26.64-.18,0-1.11-.63-1.27-.61,0,.35,1,1,1.21,1.34,0,0-.24.2-.27.24.16.12-.32.82-.23.89s.06-.06.2.09c0,.23.11,0,.09.24s-.08,1.11-.28,1.31c-.31-.88.15-1.7-.55-2.32a1.49,1.49,0,0,0-.56,1.93c-.13.11-.4.89-.58,1-1.38-.88-1.77-1.82-2.19-3.93-.32-1.61-.27-4.13,1.69-3.47,1.12-1.62-.66-.15-1.58-.46-1.54-.52-2-1.32-3-2.77-.5-.78-1.6-1.51.13-2,.35-.09,1.48-.91,1.83-.56.43.94.05,1.73.54,1.77,0,0-.52,1.37-.53,1.34s.23-.83.3-.77c.53-1.46-.14-2-1-2.9-.18-.22.2-1,0-1.15s-1.2,0-1.32-.26c0-.43.72-1,.52-1.36.11.06,0,.3.1.35.13-.24.22-.81-.11-1-.09-.77-.7-1-1.5-1.1-.29-.3-.15.2-.36.47,0,0,.24-.41.24-.41.11-.48-1.22-.56-1.08-1-1.15.33-2.08-.32-3.11-.35-.93-.25-2.07.26-3,.09-.25-.1-.29-1-.56-1.15-2-1-5.05-2.49-7.25-1.21,1-.1.37-.19.41.62-.39,0,0,.32-.17.34,0,1.19-.41.85-.55,1.34a18.72,18.72,0,0,1-2.16,1.88c.52.47,2.47-.2,3.24-.63.77,1.85-2.91,3-3.82,4.28-1,1.45-.6,3.38-.48,5.23,2.19.44,3.51-1.23,4.14,1.91.66-.5.67.28,1.37.67.45.39,1.54.86,1.82,1.15-.51-.09-4.36-.23-4.53,0-.66,1,.67,1.73,1.49,1.66,0,0,0,.16,0,.2.33,0,.74.68.7.59.18,0-.43-.42-.25-.54,0,.88-.45,1.77-.26,2.46.07.26,1,.42,1.16.51-.08,2-.71,3.95.34,5.19-.06,0,1.2-.17,1.14-.16-.32,1.11-.32,1.31.71,1.15,0,0,.81-.18.82-.16.28,1.3-.35,2.41,1.11,2.33a7,7,0,0,1,.77-2.11c.08-.12-.9-1-.82-1.08s.48.07.54,0c1-1,1.69.39,1.5-1.29-.1-.82.89-1.3.6-1.71,0-.51.12-.88.17-1.56a1.67,1.67,0,0,0,.25-1.11c0-.2-1.08-.39-1.25-.57.25-2.85.46-5.54,1-2.74-.58.51.78,1.28,1.25,2.2-.19.2-.48.41.23.66,0,0,.22.07.22,0,.4.6,1.34.93,1.79,1.46-.07.08-.18.08-.05.12a14.07,14.07,0,0,1,1.75,2.93c-2.2,2.58,6.41,4.27,4.42,8.35-1.36-.2-3-2.35-3.22-.4.13.08-.28.88-.2,1-1.95.45-.45,3,.4,4.78-1.79,1.68.13,1.93,1.13,3.16a5.09,5.09,0,0,0-.75-2.46c0-.15-.36-.26-.36-.55.45-.06,1-.1,1.42-.18a2.33,2.33,0,0,0,1.81,2.34c.21-.73-.53-2.18-.6-2.88,0,0,.45-.26.48-.31.47.35.88,2,1.26,2.09,1.12.23.65-1.82,0-2.35,1.92-.46,1.65,2.36,2.63,3.38.54.58,2.45-.4,3.08.24.47.48.39,2,.83,2.57s1.41,1.82,2,2.67c.1.24-.05.41,0,.65.07.75.34.61,0,.78-.1-.24-.4,0-.5,0,0,.21.08.24.1.38-.46.07-.75-.75-1.17-1.2-.09.33.37.91.38,1.24.33.08,1,.86,1.35.93-.36,1.1-2.22,1.07-3.21,1-.39,1.72,1.22,1.8,2.37,1.86,0,0,.35-1.14.36-1.14s-.11,1,0,1c.47.12.21-.57,1-.88.38-.14.7-.08.9-.35.26,0-.44-.37-.11-.92,0,0,1.09,1,1.13,1,.63-.25,3-.82,3.41-.25,1.31,1.76-1.51,1.31-2.12,1.88,1.68,1.47,2.2.45,3.19,1.38.23.59,1.63.62,1.81,1.16-.34.63-3.06.49-3.38,1.52.68.59,2.28.5,3.13.53a16.56,16.56,0,0,1,.61,1.71c-2.8.15-1.47-.67-.72,0-.21.16-.1.18-.19.34.24.13.23.24.57.31,0,.14.18.29.08.44-.7-1.59-1.72-.44-2.9-1,.14.44.35,4.6-.07,5.37a13.11,13.11,0,0,0-2.32-2.78,12.68,12.68,0,0,0-2.5,3.49c-.76-3.71-.18-3.66,0-8,2.53-2.59-8.73-6.4-9.07-4.4.22,1.61,3.34.82,4,.48a4.49,4.49,0,0,0,1,1.9c-.58.07-1.81-.19-.88.23-.35,1.12-2.84-1.35-.87,1.58,2,.36.87-.46,2.64.42-.21.69-3.35,1.48-3.31,1.46.07.24,2.64,5.9,0,3.69-.3.63,2.23,4.55,2.3,4.91-1.78-4.21-3.34,2-3.11,3-.13-.21.36-.65.24-.83s-.3,0-.28,0-1,.6-1,.6A7.54,7.54,0,0,1,201,126c-2.17.25-2.7,2.49-3.85,2.58,0-.84-.06-1.05.35-.93,0,0-.08,1.28-.07,1.28-.32,0-1.18-1.39-1.67-1.78-.11.95-.3,1.23-.48.44-1.2,3.31,4.14-1.58.58,3.66.89-2,.26-.19,0,.41,0-1.74-.41-4.37-1.67-2.88a3.72,3.72,0,0,1-1.36-2.31c-3.92-3-1.09-.3-1.62,3-.68,0-.93-.1-.08.38.39-.14,1.41.6,1.62.5-.32,1.15-2.28,2.35-4.07,3,.42-1.81,1.51-9.07.64-9.89a28.3,28.3,0,0,1,1.43-2.63c-.94-1.64-4.19,3.78-2.6,4.75.33-.18.33-2.06.38-2.19a15.32,15.32,0,0,0,2.3.71c-.14,1.43-2.18,3.56-3.22,4.44-1-1.87,1.9-2,0-3.12a52.89,52.89,0,0,0-1.82,6c-.36-1.85.14-4.41.77-4.73-.35.07-1.08.62-1.55.81-.61-.38,2.75-5,1.12-4.76.1-.41-2.37,1.74-3.92,3,0,0,.69,1.29.67,1.25s-.73-.74-.76-.58c-.54.4-.54,1-.89,1,.79-4.79.41-.15,1.36-2.83-1.42,0-.31-.8-.4-1.48-2.17,1.37-1.72-1.88-2.66-1.44-.51,1.22-.36,4.35-2.69,4.63-.19-.06-.29.58-.36.68-.24,0,.25-.06,0-.12.38-.54,3.16-4.68,1.68-5.57.86-.14,1.23-.46,1.64-.2-.25-.34-.57.57-1,.53.06-.06.12-1.49.19-1.56s.7.83.9.87c-.06-.24-.57-.69-.56-.84s.34-.94.44-1.09c.53,0,2.3,1.85,2.79,2.1-.13-.8-.45-2.74-1.44-3.12-.82-.32-1.8.59-2.84.44-.09-.11-.56.9-.58.75-.27,0,.12-1.3-.14-1.4,0-.13.08.17.11,0s-.87-.5-.84-.61c.27-.71,1.67-.62,2.43-.68-.22-.21-1.35-.66-1.59-.91,0-.08,1.36.09,1.44,0,.37-.14.45-1.72.68-2,2,1.23,1.49-1.24.7-3.48,0-.12,0,.67,0,.63,4,.16,1.6-6.32,2.42-6.39.45.69,1.25.68,2.07.65a6.61,6.61,0,0,1-1.14-2.16c.54.11,2.75,0,3.22.1a3.05,3.05,0,0,1-.4,1.47c1.49.71.79,1,.25-.65.11.39.8.39,1.07.62,0,.48.91.7.71,1.14-.23.12-.71-.06-.47.07a5.11,5.11,0,0,1-.13,1.19c-1.74-.08-5.06.36-3.86.38,0,.37.94.86,1.34,1.16.24,1.77-.1,3.76,1.83,4.62a4.46,4.46,0,0,1,.23-2c1.25.78,2.1.51,2.94,1.84,1.39-.52,2.12-2.42,1.28-3.42-.27-.84-2.65-.15-1.66-1.42.18,0,.48-1.07.65-1.1.12.17-.41,1-.44.84a4.72,4.72,0,0,0,.93.27c0-.57,1-1.07,1-1.77.13.14-.89.31-.75.38.95.47,1.23,1,2.25,1,.34-2-2-2.14-1.67-4.26-.92.14-.63-.62-1-1.26,0-.22-1.18.31-1.28.25s1.35-1,1.29-1.14a2.31,2.31,0,0,0-.71-1s-1.19.23-1.22.19c0-1.08.5-2.37-.11-3-.24.49.07,1.22-.1,1.79L187.61,99c-.36-.71-.52-1.13-1.33-1.35-.13.09-.48.1-.56.24-.15-.28,0-.72-.15-1-.51.71-.25,2-.16,2.81a2.63,2.63,0,0,1-2.58-2.85c-.48.09-.65.54-1,1,.23.38-.36.26-.24.55-2.25-.64-3.3.44-4.16,2.14-.09-.47-3-5.53-2.6-1.83.31,0,.07-.77.36-.83,0,.14-.65.73-.83.89s-.15.26-.22.39c-1.36,1-4.2,2.31-1.32,3.19.34.1,1-.55,1.22-.62a18.41,18.41,0,0,1,2.66,1.69c-.4-.18-1.17.23-.06.54.07.14.21.12.23.31-.36,1.17-1.3.75-1.72.45,0,.54.22,1.6.3,2.34-.13.28-.32.93-.45,1.15a3.56,3.56,0,0,1-1.42-1c-.48.46.22.9-.2,1.21-.18,1.24,1.87,1,3.22,1.27,0,.06-1.1.63-1.12.7a7.43,7.43,0,0,1-.33.77c-.1,0,.82,0,.73,0-.11-.2-1.13.27-1.17,0-.07.16.45-.36.37-.23-.56-.57-1-.29-2,.19-.09.25-.58-.39-.65,0-.37-.21-.66.62-1.11.34-2.06-1.28-1.21-.58-2.19,1.47-1-.39-1-2.83-1.31-3.87-.72.61-.84,3.37-1.07,4.6-.11-.08-.24-.13-.37-.24-.37-.48-1.26-.61-1.77-.84a23.17,23.17,0,0,1-2.89-5.13c-.14.31-3.4.45-3.42.23,2.18.22-3.18-2.09-3.18-1,.26.35.83.9,1,.44a5.18,5.18,0,0,1-2.52,1.62c.21-.15.14-.73.3-1.08-1.29-.67-1.74.14-1.93.86.08-.63.12-.94-1.3-1.15-.55,2.93-3.85,3.74-4.48,6.69a1.34,1.34,0,0,1,.78,1.7c-2.06-1.19-2.06.52-1.13,2.23,0,.09.3,0,.39,0,.5.8,1.09,2.32,2,2.18,0,0-.18.28-.07.26a6.08,6.08,0,0,0,1.62-.09l-.5-1.9c-.52.21-.28,1.32-.31,1.38s-.53,1.4-.3,2c-1.12-1-3.53-3.54-6.43-4.4-.17-.1-.3.49-.45.4.09-.56.71-1.67.55-2.18-.56-1.75-1.61-.22-1.88-.11-.59.22-.93,1.51-1.52,1.54-.07-.1-.12-.21-.55-.09a1.83,1.83,0,0,1-.13.16c-.64,0-1.25-.84-2-.9a4.66,4.66,0,0,1-.85-.33c.79-.08.16-.58-.63-1.22,1,.33,1.25-1.63,2.17-2.46a9.2,9.2,0,0,0,.55,1.13c-.54.89.47,1.94,2.11,1.61-.07-.69.46-2.25,0-3.45,1.16-1.18,1.66.89,1.72.88-.08-.67,2.87-1.62,2.89-1.68A10.86,10.86,0,0,1,142,107c1.49-.39.17-6.4-.35-6.21,1.22-.11.49-.26,2,.07.35-1.65-.88-.69.28-1.74.27.07-.45-1.07-.25-1.31a8.24,8.24,0,0,0,1.22-2.84c-.81.33-2,1.63-2.91,1.87-.08-1.61.21-2.16-.78-3.06a4.77,4.77,0,0,0-.39-1.94c-.42-.23-1.34.19-1.78,0,.13-.82.63-1.08-.49-1.78-.83-.52-2.2-.15-2.48-1.79-.15-.07.12-.12,0-.24.21-2.2-1.27-2.8-2-.75-.12.34-1.61.86-1.41,1.66a8.64,8.64,0,0,1-.37-1.81c-.31.94-.14,3-.92,3.55.12-.74,1.36-4.35,1-5.73-.17-1.4-2.58-2.8-3.66-1-.36.6.14,1.67.2,2.47-.07.06-.63.32-.62.46s.23-.09.27-.09c0,.16-.2-.05-.25.07s-.33-.3-.42-.2-.44,2-1,1.88c-.09-.3.24-1.75.14-2-1.34.36-1.72,2-1.67,3,0,.25.57.4.6.76-1.49,1.85-3.16,3.21-3.51,4.13-2.72,1.89-3.9-6-6.87-1.6-.56-.86-2.33-2.42-2.71-3.47-.94,2,2.07,2.65.1,3.93a2,2,0,0,0-.81-1.72,10.33,10.33,0,0,1-.75,1.5c-.2.06,0-.26-.2-.12,0-.24.57.16.71-.26.27-.57-.36-1.09-.57-1.16.37-1.16.36-1.86-.2-2.28-.26-.2-.63-.76-1-.71a64.94,64.94,0,0,1,.76-6.8c.14-.24.68-.26.87-.54.59-.89,2.71-3,.76-3-.35,0-.57-.39-.86-.06-1.53-.23-3.08-.11-3.49-1.3.28-1.33,2.7-2.62,2.67-4.14-.77-.22-1.32,1.26-1.57,1.89-.07,0-1.08-.32-1.14-.29-.23-1-.94-2.23-1.35-3.39-1.12.52-2,2.17-1.58,3a12.12,12.12,0,0,1-.69,2.5c0-1,1.08-3.67-.78-3.62a30.82,30.82,0,0,1-4,5.22c-.24-.16.39-.46.26-.64a4.71,4.71,0,0,0-1-.75,1.34,1.34,0,0,0-2.23.68c-.35.84,1.1,2.49,1.25,3.71a10.6,10.6,0,0,1-2,1.18c-.18-.85,0-1.59-.47-2.27-.31.26-.7.93-1.1,1.18-.7.3-2.14.12-2.79,1-.21,0,.15.47.22.4a2.19,2.19,0,0,0-.4,2.74c-.43.91-1.7,1.81-2,2.8-.13.25.17.43,0,.65.1,0-.76.23-.65.18,0,.16,0-.57,0-.42s-.29.86-.17,1c-.1.34.44.59.36.93a2.42,2.42,0,0,1-.72.4,1.38,1.38,0,0,0-2.3.84c-.14-.11.43-.33.42-.41-.4.4-.31,1.79-.58,2.88C84.52,95.29,85.16,98.42,85.06,99.6Zm65.75,40a1.14,1.14,0,0,0-.15.16s-.34-.53-.35-.57S150.8,139.58,150.81,139.6ZM153.65,110l0,.15-.51.19Zm-4.1,10.5s0,.23-.05.26-.4-.77-.39-.82S149.48,120.51,149.55,120.52ZM143,98.16a2,2,0,0,1-.48,0A1.53,1.53,0,0,1,143,98.16Z"/></g><g class="cls-10"><path class="cls-11" d="M91.82,59.59C90.53,60,84.64,67.5,84.19,72,91,72.59,98.84,58.9,101.8,52.33c-1.34-.49-6.76,4.5-6.73,2.69.9.69.88,1.24,0,1.66a5.17,5.17,0,0,1-.91-1.62c-.61,1-2.2,3.23-2.29,4.53C91.63,59.65,91.89,58.57,91.82,59.59Z"/><path class="cls-11" d="M86.58,73.22c.7.18,2.19-1.43,1.54-2.26-4.27,3.62-3.16,3.55-5.29,7.84-1.17-.91-1-2.28-2-2.36a13.72,13.72,0,0,0,.53,2.45l-1.54-1.18c-1.88,3.38.75,6.16-2.33,8.31-.22,2.75,4-.27,3.12-.22.79,2.16-2.82,8.61.76,11.9,3.4-6.66,3.26-19.39,5.21-24.48C86.55,73.22,86.55,73.31,86.58,73.22Z"/><path class="cls-11" d="M104.92,93.71c4.76-1.88,3.18-13.47-2.23-10.08a3.35,3.35,0,0,0-.55-2.69,25.31,25.31,0,0,1-3.94,1.81c.35-7.29-11.11,7.73-3.71,6.4-2.78,2.53-4.27,12.9,1.1,14.53a4.23,4.23,0,0,0-.75-3.63l1.54.17c-2.28-1.87-.84-6.29,1.38-8-.9-.9,1.52,5.5,1.48,3.38-.94,1.21-2.13,2.23-3,3.53.08,0,3.36.67,2.74.95a24.17,24.17,0,0,1,1.52-4.61c.68.12.15,4.47,1.83,3,.51-.46,7.6-1.73,2.62-4.7C107,92.9,106.23,94.5,104.92,93.71Z"/><path class="cls-11" d="M99,71.73c-.13-.06,3.15-4.28,3.11-4.27,1.64.18,2.16,1.14,1.55,2.9,2-.53,1.84-7.16,4.88-4-2.94,6.6,5.91,8,6.13,12-.39,0-1.83-.38-1.94.34,2.53-1.3,1.92,2.68,3.7,1.34,0,.41,2-6.54,3.24-6.44a1.56,1.56,0,0,0,.61,1.31,4.5,4.5,0,0,0-2.13,1.28c0-.07,6.07-2.16,6.49-2.83l-1.4-.46c.14,5.1-1.33,2.41-6,6.73q2,.09.9.87,2.7.81,5.44,1.39a3.15,3.15,0,0,0-2.64.33c1.65,1.45,1,1.31-.74,3a3.3,3.3,0,0,0-2.42-2.12,1.62,1.62,0,0,0-.54,2.32c-.64-.34-1.52-1.69-3-1,.94,1.53,3.17,4.34,1.16,7.18a2.2,2.2,0,0,0,3,.24c-.91-.54-2.7,5.27-3.11,5.7,1.19.93,5,3.21,5.87.11-.33,2.72,2.8.77,3.37-.06.48,1.82,1.28,4.89,1.48,6s-2.63,5.85-.26,5.37c-3,3.8-4.69,2.74-3.93,7.83-2.27-.22-3.87,2.52-1.42,5,2.53-2.51,0-2,2.75-1a2.89,2.89,0,0,1-2.88.68q3.92.54.29,3.44c4.63,4.09-3.18-3.8-.71,1.66a16.51,16.51,0,0,0,5.89-.38c-1.46,3.31,1.86,2.76.06,5a3.58,3.58,0,0,1,4-1,3.25,3.25,0,0,1-3.21,2.12c9,4.36-1.93,2.15.43,4.83.52-.66,4.78-1.71,4.18-1.52,1.88,1.95,6.82,2.84,8.37,3.83-3.06-1.94,5.44-6.75,5.39-6.64a1.3,1.3,0,0,0-.78-.06c.93-.31.94-.74,0-1.29-.09,0,2.37-.06,2,.44.93-1.27-1.31-2.54,1.47-1.64q-2,.6,0-3.79c1,.88,2.77,2,4.13.57-.37.39.66-8.28.6-8.38,1.9,2.23,6.79,2.78,5.79-1.51-3,.81-3.45-1-5.08-2,2.26-3,3.31,1.79,3.82-5-2.87,3.41-4.31-.06-6.07-1.57a5.3,5.3,0,0,1,2.49,1.11c-1-2.48-.44-3.61,1.64-3.39,1.13,2.13-1.06,2.82,2.13,2,.26,2.6-.54,2.3,1.08,3.61.15,2.2-1,3-1.92,3.83.76,0,1.41.31,1.92.34.17.83,2.05,5.84,3.19,6.46-1.94-4.08,3.38-1.54,3.76-1.45.5-1.62,1.71-5,2-3.68-.79-.52.2-.21-.13.43q2.64-2.39,1.26-1.21c.4.69,3.65-.48,2.07,1.63a9,9,0,0,1,2.48,3.94q-2.38.63-4.72,1.44c3.26-.69,4.83,0,4.73,2.12-1.85.35-9.24-2.72-9.85.25-.9,0,2.77,5,2.77,5-.42,6.91,1.57.93-2.76,6.46-2.82,3.58-7.62,2.78-10.32,8.52,3.63.81,3.86-2.87,6.45-2.7-.54,2.59-5.21,9.1-7.3,7.41.42.95,0-.25-.15,0a1.77,1.77,0,0,0,.51,2c-.54-.42-.47-.67.19-.76-1.5-.47-3.53,9-3.58,9.83a4.56,4.56,0,0,1,3.45-1.71c.19,0-3.4,4.3-1.4,4.9.35-.28.67-3.33,1.16-3.76.45.38.92.73,1.4,1.06-.15-.87,2.22-3.54,2.75-1.59-9.74,1.49,1.62,8.92,1.29,7.88a9.23,9.23,0,0,0-2.2-3c-.77,1.38,6,2.13,7.39,1.69-.13.27-1.24,4.93-.44,5.61,1.22,1,2.14-1.54,2.45-1.92.41-1.43,2.46,5.07,1.95,5.06,2.94.05,8.83-9.81,9.88-9.38a15,15,0,0,0-3,5.9q1-3.24,3.55-2.88c-1.3,1.21-1,1.73.87,1.54,0,0,1.11-3.09.34-3.1,1.47,8.68,3-2.11,4.21-2.51-.06,1-1.07,3.69.93,4.37,0,0,1.25-2,2-2.24-1.35-1.09-3.88-.62-.5-3.1,1.35,1.48,0,2.68,1.54,4.45-.34,0-.23-.08.35-.15-5.87,1.84-8.11,9.38-11.71,10.43-.57-1.22-6.9-.1-3.42-5-2.61-.1-3.39,5.39-4.59,6.8-.39.45-9-2.49-.32,1.23-.82-.17-.64-.26.55-.26-7.41-5.72,4.66,7.77,3.34,3.6a3.75,3.75,0,0,1-4.06,1.34c2.43.78-2.8,4.66-5.48,5.72,10.3-1.82,20.67-8.26,29.69-10.49l.3,1.48c1.87-.53,5-6.31,6.53-6.45a1.74,1.74,0,0,1,.48,2.24c-.3.25-2.92-.54-1.47-.83,0,.61,0,1.23-.05,1.85-.16.28,6.09-5.73,4.73-6.24l-.62,1.47q1-3.28-3.33-1c-1-.17,4.18-4.92,3.65-4.88-.15,2.73-.13-2.66,2.33-3.55,2.31,1-2.62,6.93.19,4.87a39.84,39.84,0,0,1-1.64,5.53q1.26-3,2-.29c.14-.27,6.94-7.72,6.85-7.8a7.38,7.38,0,0,1-1.27,1.1c-.35-.16,10.44-7.31,10.64-8.25-.24,1.1,1.14-3.74,1.19-3.21-1.12,1.63.05-.41-.09,1.12,3.32.05,10.11-26.14,11.07-26.88-.82-.64-.52-.19-2.1.24.89-6.4,1.71-4.11,3.13-2.79l-.87-1.45a1.42,1.42,0,0,0,1.7-.08c.43.23-2.21-13.83-2.11-14.11a18.18,18.18,0,0,1-.47,4.35c-1.54-.42-.08-4.06-.56-5.11.88.71.58,1.1-.91,1.14.43-1.64,4.86-2.63,3.93-4.7-2.12,1-1.37-2.39-1.88-4.56-.56,1-2.91,5.26-3.2,6.1-2.28-3.9-3.29-4.46-3.8-10.28.49,5.6,4.94-5.78,5-6.08,1.45-5.27.67-8.24-.94-12.67-.16,3.1-1.16-1.6-2.65-3a13,13,0,0,1-3.7,3.57c.31-.24-4.22-.86-3.75,1.47a22.07,22.07,0,0,0,2.45.94q.15,3.83-3.13,1.51c-.59.9,8,5.17,3.82,6.92-1.14.48-5.37-.9-5.74-2.31-1.94,2.15,2.44,1.94-1.08,1-.93,2.08,1.23,5.23-.5,1.72a6.39,6.39,0,0,1-2.12,2.29c-1.72-2.4-.29-7.93,2.52-7.73-2-.14-3.59-3.23-3.5-5.23a3.34,3.34,0,0,1,3-.38c.13,3.33-.6,1-1.14,2.9-1.21-3.29,1.7-5.57.23-8.64-.29-.62-10.05-9.14-12.55-8.73,2.11.59-4.3,3.08-3.81,3a4.36,4.36,0,0,0,3.2.57c0-2.28-7.27,9.91-6.22,7.74a60.91,60.91,0,0,1,4.1,5.63,19.9,19.9,0,0,0-4.15-1.6c-1.4,1,1.09,2.06,1.12,3.06-1.09-.09-2.36,10.82.37,11.7,1.48-.74,1.86-1.74,1.14-3,4.81-2.6,2.72-3.93,5.6-8.25-2.63,3.94,7.32,15.16,3.21,19-4.72-2.74-6.2,2.88-4.86,7.21a6.19,6.19,0,0,0,.1-3.19c2.93.72-.33,1.93,2.14,3.16,3.85-5.06-1.33-2.45,1.46-.62,1.08-.31,1.37-1,.87-2.17,3.63.47,4.68,15.92,2.87,11.25a2.17,2.17,0,0,0,.78,2.62,3.06,3.06,0,0,1-3.31-.19c-2.05,3,3.67,1.77,4.38,1.22-.83.1,4,2.63,3.89,2.26-.43,1.32-1.31,1.65-2.63,1,.47.94,3.7,2.94,3.64,4.14a11.84,11.84,0,0,0-3.66.21c2.33.33,3.19,1.46,2.59,3.41-3.59-1.19.63.06-.64.93a2.81,2.81,0,0,0-2.29-1.94,17.63,17.63,0,0,1-2.05,5,12.26,12.26,0,0,0-1.1-3.41,12.78,12.78,0,0,0-3.57,2.35c.68-3.72,3.6-6.68,3-10.05-.21-1.12-5.63-6.43-6.68-4.69.1-.38,3.57,3.86,3.7,4-.16,0-2.3-.61-2.39-.56-1.59.9,2.2,2.73,2.39,2.95-2.14,2.69-2.11-1.11-3.72,3-.68,1.71-.23,2.72-.89,6-.08-5.26-3.15,2.62-3.43,1-.55,1.83-1.5-2.82-1.35-3.82a16.12,16.12,0,0,0-4.48,1q1.31-1.66.14.42c.13,0-1.28-3.26-1.48-2-2.73,3.12,5.32-.64-.82,3.61q1.46-1.31-.19.37c.2-.52-.63-7.91-2.24-7.84,0,0-2.9,5.75-.12,5.52a7.11,7.11,0,0,1-4.86,1.39c2.59-3.75,3.61-7.65,6.53-10.88-.14-1-5.58,1.54-4.13,3.48a6.79,6.79,0,0,0,1.16-1.91,14.52,14.52,0,0,0,1.83,1.49,9.75,9.75,0,0,1-4.59,3,3.61,3.61,0,0,0,1.14-2.91c-1.22,1.69-2.72,3.13-3.88,4.89a6.3,6.3,0,0,1,2.46-4.11c-4.24-.82,2.38-3.57,1.07-3.83-1.15,1.68-4.65-.41-4.54,2.78-.28-1.06-.84-1.12-1.67-.18.11-.18,4.92-6.28.57-5.93a25.32,25.32,0,0,1-4.75,3.84c1,.43,4.3-4,4-4.18,2.55-1.06-.5-.51,1.85-2.08a15.66,15.66,0,0,1,1.78,2.94c.54-2.4-2.91-6.3-3.73-3.52.16.07-1.17-3,2.4-1.89-.33-.76,2.74-4.26,3.29-4.93,4.27,1.86,2-5.21,6.23-3.73a7,7,0,0,1-.24-2.42c1,.44,1.93.85,2.91,1.24-.38,1.2-.62,3.15-.45.71a2.65,2.65,0,0,1,1,2.27c-1.32.15-2.39.87-4.69-.07-.1.27.44,6.16.77,6.5.88-2.89,2.59-1,2.94,1,3.8,0,.7-5.83,2.45-5.42-.24-1.05-.36,5.24,1.59-.1-1.55,0-1.26.56.86,1.83,1.71-2.83-.84-5.16-1.65-6.3.11-1.28,2.22-2.07,1.15-4.89-2,1.81-2.61.47-3-1.61.82-.54-5.56,4.79-2.49-1-1.22-.24-5.22.54-6.25,1.47a9.39,9.39,0,0,0-.78-3.63c.56.71-2.55,1-4.38,1.88,5.95-3,.6,12.59-.83,6.55-2.52,1.06,1.79,3.34,1.85,3.38-.33,1.53-2.68-.59-1.2,1.08-.17-1.72-5.95-1.59-6.79-.8a7.08,7.08,0,0,1,.24-4.07,12.21,12.21,0,0,0-2.69,3.9c-.08-.13-7.22-12.73-8.07-10.58-1.63-6.18-17.52,13.26-9.68,8.9a11.78,11.78,0,0,0-1.79,2.86c-1.33-2.55-3.51-4.52-4.81-6.15,1.52-1,1.73-1.91.63-2.9-4.41.37-3.74,1.23-5.84-2.49a4.33,4.33,0,0,0,2.89-1.51c-.61,1.3,0,3.25,1.42,3.49,1.83-6.38,2.38.61,5.82-2.29-1.06-1.22.81-10.14,1.12-10.13,2.24.63,3.52-1.61,5.11-4.26-6.65.16-1-7.59-5.36-11.61-1.73-1.6-4.2,4.9-3.23-.11a8.46,8.46,0,0,1-2.15,3c1-1.65,4.52-5,2.29-7.07-2.79-2.64-4.66,7.13-4.79,1.66-3.58-.37-2.13,6-8.07,5-1.73-.29-6-5-5.92-7.45a5.17,5.17,0,0,1-1.37,3.68c2.32-3.52-1.59-.9-1.48-.93.6-1.08,4.17-9.9,4.38-10.61,1.5-5.12-1.44-.32-1.19-5.38a22.57,22.57,0,0,0,4-2.9c-2.47-1.9-3.44,5.87-3.05-3.11-2.63.2-2.19,3.06-4.09,4.26a2.64,2.64,0,0,0,.63-3.64,30.83,30.83,0,0,1-5.63,3.41c.12.19.37-4.69-2.47-1.73a14.51,14.51,0,0,0-.24,3.89s-13.91,2.38-15,5.52c.06.11-2.73,5.49-3.59,7.18C99.13,71.77,99.58,70.67,99,71.73Zm45.35,60.52c-.24.08-.74-1.14,0,0C144.36,132.26,144.37,132.24,144.39,132.25Zm13.53-26.44c.35.65-1.73-.5,0,0Zm-7.64,8.29c.16-.24-1-.56,0,0C150.26,114.13,150.22,114.07,150.28,114.1ZM152.54,91a3.72,3.72,0,0,1-.44-.16A1.12,1.12,0,0,1,152.54,91Z"/></g></g></g></g></g></g></svg>