<svg xmlns="http://www.w3.org/2000/svg" viewBox="0 0 34 53"><defs><style>.cls-1{fill:#7c5851;stroke:#7c5851;stroke-linecap:round;stroke-linejoin:bevel;opacity:0.6;}.cls-2{fill:#fff;}</style></defs><title>pag web full</title><g id="Capa_2" data-name="Capa 2"><path class="cls-1" d="M4.39,27.81A24.81,24.81,0,0,0,11.06,47a2.56,2.56,0,0,0,3.61,0c5.09-5.23,9.33-11.72,9.66-19.19a1.33,1.33,0,0,0-2.47-.67c-1.58,3-3.26,6-5.14,8.93-.19-10-2.13-20-2.41-30a1.45,1.45,0,0,0-2.89,0c-.15,11.22-.52,22.56.38,33.78a27.54,27.54,0,0,1-5-12A1.23,1.23,0,0,0,4.39,27.81Z"/><path class="cls-2" d="M18.91,7.07c-.1,12.48-.27,25.24,1,37.67a1.44,1.44,0,0,0,2.87,0c1.12-12.49-1.68-25.19-1.92-37.67a1,1,0,0,0-1.93,0Z"/><path class="cls-2" d="M11.81,28.8a25.37,25.37,0,0,0,6.86,18.59,1.72,1.72,0,0,0,2.41,0C26,42.28,30,36,30.9,28.8a.89.89,0,0,0-1.64-.45A57.06,57.06,0,0,1,18.67,45h2.41A28.2,28.2,0,0,1,13.45,28.8a.82.82,0,0,0-1.64,0Z"/></g></svg>