<svg xmlns="http://www.w3.org/2000/svg" viewBox="0 0 59 58"><defs><style>.cls-1{fill:#7c5851;}</style></defs><title>pag web full</title><g id="Capa_3" data-name="Capa 3"><path class="cls-1" d="M1.2,27.26a7.87,7.87,0,0,0,.3-1.81C3.52,14,10,6.24,21,2.39a24.79,24.79,0,0,1,12.29-1c11.62,1.89,19.36,8.5,23.23,19.59a26.47,26.47,0,0,1,1.06,12.5,28.18,28.18,0,0,1-7.94,16.12,27.9,27.9,0,0,1-11,6.91c-1.24.43-2.09-.22-2.09-1.58,0-2.45,0-4.91,0-7.36a8.16,8.16,0,0,0-1.06-4.4,11.72,11.72,0,0,0-.81-1c1-.18,2.07-.33,3.07-.55a12.8,12.8,0,0,0,6-2.95,11.11,11.11,0,0,0,3.35-6.28A15.27,15.27,0,0,0,46.93,24a9.84,9.84,0,0,0-1.88-3.22.82.82,0,0,1-.2-.88,10.37,10.37,0,0,0-.33-6.82c-.13-.36-.41-.29-.63-.29a7.36,7.36,0,0,0-2.7.55,19.54,19.54,0,0,0-4,2.12,1.17,1.17,0,0,1-1,.18,26.51,26.51,0,0,0-13.24,0,1,1,0,0,1-.82-.14A17.94,17.94,0,0,0,16.87,13a6.86,6.86,0,0,0-1.81-.23.54.54,0,0,0-.54.43,10.48,10.48,0,0,0-.22,6.88.49.49,0,0,1-.13.54c-2.42,2.76-3,6-2.6,9.56a15.71,15.71,0,0,0,1.28,5.06,10.68,10.68,0,0,0,6,5.52A20.53,20.53,0,0,0,23.69,42l.67.11a6.21,6.21,0,0,0-1.72,3.5.42.42,0,0,1-.26.38c-2.19.85-4.33,1.06-6.35-.45a6.42,6.42,0,0,1-1.62-1.86,6.24,6.24,0,0,0-3.29-2.82,3.22,3.22,0,0,0-1.84-.17c-.61.13-.72.46-.32.93a3.27,3.27,0,0,0,.66.58,8.49,8.49,0,0,1,3.29,4.25A6.57,6.57,0,0,0,19,50.61a12.71,12.71,0,0,0,3.49-.31c0,1.66,0,3.28,0,4.9a1.41,1.41,0,0,1-2.06,1.26,28.71,28.71,0,0,1-8-4.28A28.32,28.32,0,0,1,4.54,42.9a27.72,27.72,0,0,1-3.12-10,1.74,1.74,0,0,0-.22-1v-.66c.08-.07.05-.16.06-.25v-.39c0-.09,0-.18-.06-.25V28.81c.11-.13,0-.29.06-.44V28c0-.1,0-.2-.06-.28Z"/><path class="cls-1" d="M1.3,27.92v.45c0,.05-.06.05-.1,0v-.44C1.23,27.88,1.26,27.88,1.3,27.92Z"/><path class="cls-1" d="M1.2,28.37h.1c0,.15.07.32-.1.44Z"/><path class="cls-1" d="M1.3,27.92H1.2v-.22C1.34,27.73,1.31,27.83,1.3,27.92Z"/><path class="cls-1" d="M1.2,30.36c.11.05.11.13.09.23s-.06,0-.09,0Z"/><path class="cls-1" d="M1.2,30.59h.09v.22c0,.05-.06,0-.09,0Z"/><path class="cls-1" d="M1.2,30.81h.09V31s-.06,0-.09,0Z"/><path class="cls-1" d="M1.2,31h.09c0,.09.05.19-.09.22Z"/></g></svg>