<svg xmlns="http://www.w3.org/2000/svg" viewBox="0 0 58 58"><defs><style>.cls-1{fill:#7c5851;}</style></defs><title>pag web full</title><g id="Capa_3" data-name="Capa 3"><path class="cls-1" d="M29.08,2.25A26.67,26.67,0,1,1,2.41,28.92,26.67,26.67,0,0,1,29.08,2.25m0-1.25A27.92,27.92,0,1,0,57,28.92,28,28,0,0,0,29.08,1Z"/><path class="cls-1" d="M19.08,14.51a4.09,4.09,0,1,0,0,8.15c2.6,0,4.41-1.67,4.41-4.06v0a4.11,4.11,0,0,0-4.38-4.06ZM36,22.05a9.18,9.18,0,0,0-5,1.39,1.25,1.25,0,0,0-1.15-.76H25.32a1.24,1.24,0,0,0-1.24,1.25V42.09a1.23,1.23,0,0,0,1.24,1.24h5a1.23,1.23,0,0,0,1.24-1.24V31.17a2.72,2.72,0,0,1,.1-.94,2.37,2.37,0,0,1,2.09-1.33C35.12,28.9,36,30,36,31.58V42.09a1.24,1.24,0,0,0,1.25,1.24h5a1.24,1.24,0,0,0,1.25-1.24V30.77c0-5.54-2.74-8.72-7.52-8.72Zm-14.43.63h-5a1.25,1.25,0,0,0-1.24,1.25V42.09a1.24,1.24,0,0,0,1.24,1.24h5a1.24,1.24,0,0,0,1.25-1.24V23.93a1.25,1.25,0,0,0-1.25-1.25Z"/></g></svg>