<svg xmlns="http://www.w3.org/2000/svg" xmlns:xlink="http://www.w3.org/1999/xlink" viewBox="0 0 284 194"><defs><style>.cls-1{fill:url(#radial-gradient);}.cls-2{fill:url(#radial-gradient-2);}.cls-3{fill:none;}.cls-4{isolation:isolate;}.cls-5{opacity:0.67;}.cls-6{fill:url(#Degradado_sin_nombre_15);}.cls-7{fill:url(#Degradado_sin_nombre_36);}.cls-8{opacity:0.4;}.cls-14,.cls-8{mix-blend-mode:multiply;}.cls-9{clip-path:url(#clip-path);}.cls-10{mask:url(#mask);}.cls-11{fill:url(#radial-gradient-3);}.cls-12{mix-blend-mode:overlay;}.cls-13{fill:url(#radial-gradient-4);}.cls-14{opacity:0.72;}.cls-15{fill:#ddd;}.cls-16{mix-blend-mode:soft-light;fill:url(#radial-gradient-5);}.cls-17{opacity:0.82;mix-blend-mode:hard-light;}.cls-18{clip-path:url(#clip-path-2);}.cls-19{mask:url(#mask-2);}.cls-20{fill:url(#radial-gradient-6);}.cls-21{fill:url(#radial-gradient-7);}</style><radialGradient id="radial-gradient" cx="16512.46" cy="-3754.35" r="200.88" gradientTransform="translate(15123.3 7725.8) rotate(-140.1)" gradientUnits="userSpaceOnUse"><stop offset="0.65" stop-color="#fff"/><stop offset="0.67" stop-color="#f1f1f1"/><stop offset="0.71" stop-color="#cdcdcd"/><stop offset="0.76" stop-color="#929292"/><stop offset="0.82" stop-color="#424242"/><stop offset="0.87"/></radialGradient><radialGradient id="radial-gradient-2" cx="16929.71" cy="352.32" r="138.24" gradientTransform="matrix(-1.31, -0.29, -1.5, -1.2, 22857.8, 5384.16)" gradientUnits="userSpaceOnUse"><stop offset="0.66"/><stop offset="0.8" stop-color="#fff"/></radialGradient><linearGradient id="Degradado_sin_nombre_15" x1="143.37" y1="-18.19" x2="143.37" y2="242.96" gradientUnits="userSpaceOnUse"><stop offset="0" stop-color="#a1775d"/><stop offset="0.51" stop-color="#7a4b40"/><stop offset="1" stop-color="#77473e"/></linearGradient><radialGradient id="Degradado_sin_nombre_36" cx="141.85" cy="96.5" fx="0.1394488364977633" fy="9.535787763811499" r="166.26" gradientTransform="matrix(0.97, 0.25, -0.34, 1.28, 37.02, -63.15)" gradientUnits="userSpaceOnUse"><stop offset="0" stop-color="#a1806a"/><stop offset="0.11" stop-color="#9f7d68"/><stop offset="0.18" stop-color="#987461"/><stop offset="0.24" stop-color="#8d6555"/><stop offset="0.29" stop-color="#7e5044"/><stop offset="0.3" stop-color="#7a4b40"/><stop offset="0.94" stop-color="#663a34"/></radialGradient><clipPath id="clip-path"><path class="cls-3" d="M129,11.14a84.61,84.61,0,1,1-69.76,97.22A84.6,84.6,0,0,1,129,11.14Z"/></clipPath><mask id="mask" x="-153.87" y="-186.31" width="401.82" height="401.82" maskUnits="userSpaceOnUse"><path class="cls-1" d="M14.45-183.62c109.48-18,212.81,56.16,230.81,165.63S189.1,194.82,79.63,212.82-133.18,156.66-151.18,47.19-95-165.62,14.45-183.62Z"/></mask><radialGradient id="radial-gradient-3" cx="7192.72" cy="-9022.68" r="127.8" gradientTransform="matrix(-0.16, -0.99, 0.99, -0.16, 10176.42, 5776.63)" gradientUnits="userSpaceOnUse"><stop offset="0.07" stop-color="#fff"/><stop offset="0.37" stop-color="#fdfdfd"/><stop offset="0.53" stop-color="#f5f5f5"/><stop offset="0.66" stop-color="#e7e7e7"/><stop offset="0.77" stop-color="#d4d4d4"/><stop offset="0.87" stop-color="#bbb"/><stop offset="0.94" stop-color="#a3a3a3"/></radialGradient><radialGradient id="radial-gradient-4" cx="7235.25" cy="-8978.84" r="84.62" gradientTransform="matrix(-0.16, -0.99, 0.99, -0.16, 10176.42, 5776.63)" gradientUnits="userSpaceOnUse"><stop offset="0.9" stop-color="gray"/><stop offset="1" stop-color="#c4c4c3"/></radialGradient><radialGradient id="radial-gradient-5" cx="6412.55" cy="-1770.24" r="29.91" gradientTransform="matrix(-0.82, 0.57, 0.57, 0.82, 6436.66, -2070.75)" gradientUnits="userSpaceOnUse"><stop offset="0.11" stop-color="#fff"/><stop offset="1" stop-color="#393939"/></radialGradient><clipPath id="clip-path-2"><path class="cls-3" d="M2.91,9.93C-1-10,56.81,19.19,145,64s163.84,69.31,176.52,101.61c8.33,21.22-15.48,29.16-58.83,22.63-21.57-3.25-44.36-18.1-80.56-36.21C134.75,128.34,91.27,93.48,57.22,67,25.18,42,5.62,23.72,2.91,9.93Z"/></clipPath><mask id="mask-2" x="-71.45" y="-66.44" width="550.26" height="341.09" maskUnits="userSpaceOnUse"><path class="cls-2" d="M-68.62-34.23C-90.24-89.3,14.14-72,164.52,4.39S454.35,187.38,476,242.45s-82.76,37.78-233.14-38.62S-47,20.85-68.62-34.23Z"/></mask><radialGradient id="radial-gradient-6" cx="10311.69" cy="-6285.88" r="122.45" gradientTransform="matrix(-1.97, -1, -0.28, -0.72, 18781.59, 5949.4)" xlink:href="#radial-gradient-3"/><radialGradient id="radial-gradient-7" cx="10364.89" cy="-6242.27" r="75.73" gradientTransform="matrix(-1.97, -1, -0.28, -0.72, 18781.59, 5949.4)" xlink:href="#radial-gradient-4"/></defs><title>pag web full</title><g class="cls-4"><g id="Capa_2" data-name="Capa 2"><g class="cls-5"><circle class="cls-6" cx="143.37" cy="94.55" r="84.37"/><circle class="cls-6" cx="143.37" cy="94.55" r="84.37"/><path class="cls-7" d="M222.72,123.1a86.15,86.15,0,0,1-3.58,8.5c21.45,16.78,34,29,31.93,32.16-3.77,5.75-63.24-18.17-122.77-57.16s-96.55-78.29-92.78-84c2.1-3.2,18.95,3.74,43.73,17.24a85.18,85.18,0,0,1,6.29-6.6C41.45,9.55,8.8-2,3.61,6c-7.69,11.75,48,61.82,124.3,111.83s144.47,81,152.17,69.27C285.25,179.16,261.8,154,222.72,123.1Z"/></g><g class="cls-8"><g class="cls-9"><g class="cls-10"><path class="cls-11" d="M129,11.14a84.61,84.61,0,1,1-69.76,97.22A84.6,84.6,0,0,1,129,11.14Z"/><g class="cls-12"><path class="cls-13" d="M129,11.14a84.61,84.61,0,1,1-69.76,97.22A84.6,84.6,0,0,1,129,11.14Z"/></g><g class="cls-14"><path class="cls-15" d="M64.55,70.78c-.15.13-.29.86-.4,1-.06-.07-.88-.76-.79-.93-.09.23.32.46.27.63-.46.83-1.42,2-.5,2.19-.75,1.07.65.09,0,3.19.25,0-1.48,3.1-1.69,5.71-.21,1.16.29,1.68.53,2.51,1.64-.47,1.67-1.86,2.17-3.23,1.53.37,2.51.11,2.82-1.65-.32-.13-.23-.61-.42-.68A11.31,11.31,0,0,0,69,77.8c-1.87-.5-.14-1.91,0-3.38.09-.84-1.3-1.81-1.26-2.52s1.25-1.35,1.32-2.15a17.74,17.74,0,0,1,.76-4.58c.41-1.35,1.39-3.59,1.44-4.79-1.52,0-3.27,3.06-4.36,5.49,0-.05-1-.49-1-.53,0,.12,1,.64,1,.75s-.33.56-.43.81S65.23,66,65,65.73c-.07.45.5,1.88.29,2.58-.12,0-.35-.18-.5-.13C63.89,68.5,64.23,69.8,64.55,70.78Z"/><path class="cls-15" d="M64.73,85.4s.16,0,.13,0,.34-.37.33-.47c0-.79,1.45-1.47.14-2.22-.76,1.4-1,3.67-1.31,5.23,0,0-.92-.2-.92-.18s.43.32.4.43A9.6,9.6,0,0,0,63.28,92a12.34,12.34,0,0,1-2-.21c.08-.26.22-.64.29-.92-.2,0,0-.48-.13-.33a3,3,0,0,0-1,0c-.09.59,1.35,1.53,1.43,2.1-.16-.06-1.82-.5-1.9-.55-.07.49.83,2,1,3.37a2.33,2.33,0,0,0,0,.38,2.59,2.59,0,0,0,.21.61,6,6,0,0,0,.94,2.89s-.36.75-.36.74,0,.18,0,.27-.9.36-.89.34c.09.28.58.14.76.35.22-1.59,1.82-1.54,2.13.72.33-.8.12-.83.3-1.36.08,0-.41-1-.32-1s-.3.65-.28.68c-.3,1-.52,1.88-.2,2.38.06.44,1.63.11,1.9.26.24.67.16,1.13.29.79,0,0-.94.26-.92.32.2.55,1.39.84,1.57,1.33.33,1,2,4.76,2.85,5.07a14.62,14.62,0,0,0-.53-4.1,16.08,16.08,0,0,0-1.5-3.53c-.66-1.31-3.09-4.41-.49-5.19-.17-1.15.68-2-.92-2.07.18-1.47,1-3.73-.35-4.48.68-1.37-.36-1.68-.66-2.86.06-.45,1.07-1,1-1.2,0-.39.37-.84.28-1.24C65.92,85.33,64.73,85.49,64.73,85.4Z"/><path class="cls-15" d="M89.82,97.85c1.64-1.5,2-1,1.66-3.72-.28-2.3-1.45-2.3-2.74-3.79-1-1.21-.71-3.3-2.78-3.55s-1.38,1.57-2,2.47c-.21,0-.16-1.09-.37-1.08-.05-.35-1.12-1-1.17-1.24-.26.32-.81.78-1.12,1.08-.61.1-1.37,1.87-1.93,2-.25-.73.22-1.76.37-2.54-1.77.12-1.83.75-2.22,2a5.29,5.29,0,0,0-.68-.32,3.48,3.48,0,0,0,0,.91c-.06.13.13-.35,0-.23s0,.41-.12.55c-.6.23-1.41.3-1.54,1.57-.06.56,1.07,1.12,1.32,1.68-.79,1.36-2.84-.24-2.79,1.54-.51,4.6,3.72,2.68,4.53,2.2-1.4,2.8-2.2,5.43-.34,7.34.26.82,1.24,1.26,2.2,2,1.12.91,3.26,3.87,4.66,3.76.39-1.69-1.47-2-2.08-3.11,0,0,1.53-.38,1.53-.4s-.55,0-.54,0c-.06-.17.07-.36,0-.53-.13-.65-.67-1-1.43-1.38-.09-.21-.77-.64-.86-.86.4-1.2,1.82-3.25.62-3.7,0-1-.11-.48.49-1.46.61.26.91,2.59.92,2.69.06-.12.47.5,1.5,0,0,.42.19-.17.25,0s-.36.47-.44.73a3.31,3.31,0,0,0-.71,2.1,12.85,12.85,0,0,0-.39,1.57c.47,0,1.64-.83,1.67-.4.12,0-.49.06-.39,0,.61.61,1,.94,1.68.26.91-.92-1.54-3.85-.3-4.84.17,0,.68.68.84.63.47.39-.14,2,1.09,1.85a38.22,38.22,0,0,0,3.65-1.7C92.65,100.42,91.36,98.11,89.82,97.85Z"/><path class="cls-15" d="M76,79.48a2.58,2.58,0,0,1,.4,0c.24-.87-.31-1.78-.26-2.62,0,0,.59.12.6.16a21,21,0,0,1,1.21-2s-.63-.7-.62-.71c1.9-1.37,1.56.8,2.56,2.14,1.24-.9.1-2,.45-3.15.25-.84.86-1.78,1.17-2.73A10,10,0,0,1,83,71c-.11,2.77-.95,3-.07,3,.67.2.75,1.59,1.37,1.36a2.14,2.14,0,0,0,2.16,1.91c2.09,2,6.38,3.26,6.09,1.46a3.3,3.3,0,0,1,.8,1.32,1.31,1.31,0,0,0-.59.2c-.25.17-1.32,0-1.12.82.08-.09,1.32-.9,1.39-1,.46.77,1.79,2.2,2.63.87a9.91,9.91,0,0,1-.14-3.82c.27-.88-.06-1.72.38-2.31.13-.11.23-1,.39-1,.18.17.36.87.38.59,0,0,.64.4.69.41-.28.39-.9.52-1,1-.53.9-1.16,1.39.67,1,1.4-.33,2.39-2.46,2-3.78.06-.1.38.68.45.58a3.23,3.23,0,0,0,1.42-1.76c0-.06-1.55.12-1.51.08.18.4,1.56.24,1.69.61a8.9,8.9,0,0,1,.51,1.58c-.6,2.26-4.55,4.68-5.3,6.25,1.52,0,1.78-.17,1.18.48.13,0,5-.5,5.68-.68-.3.1-1.15,0-1.52.49a2.69,2.69,0,0,0-.86.78s1.54.84,1.57.84a24.53,24.53,0,0,0-1.16,2.17c-.08-.25-1.09-.78-1.19-.85-.7-.52-1.06.27-1.9-.25-.21.53-.41.75-.36,1.1,0,.18.27.58.72,1.27-1.54-.19.43-2.28-2,0-.15.11-.6,0-.7.1s-.48-.06-.54,0l.87.54c-.4.7.16,1.27.23,2.43.71.09,1.37-.71,2-1.14a12.59,12.59,0,0,1,.6,2.47A3.83,3.83,0,0,1,99,92c1,.43,2.59.18,3-.87.08,0-1,.39-.93.41a2.4,2.4,0,0,1,.39,1.63,4.92,4.92,0,0,0,.09,2.15s-.57-.36-.53-.38c-.19.72.56,1.72.18,2.64,1.61.47,1.65-1.21,1.82-1.18.57,1.77,3.15,1.46,3.27,1.69-.12,0,.58-2,.51-2.54.8,2.95,3-.62,3.16-1.28.54.72.61,1.92,1.12.52,1.28,2.11,2.47,1.79,3.5,2.64-.18,0,.07.24-.08.19-.81,1.16-1.7,2.8.67,2,.21.41-.1.19-.17.5-.26-.11-.14.74-.38,1.11-1.82-.35-1,2.46-1.09,3.68a7,7,0,0,0,1.89-.48c-.26.88-1.44,1.61-1.63,2.48,1.22.68-1,2-1.12,2.95-.16,1.48,1.18,1.94,2,3.3a5.24,5.24,0,0,1-2.35.25c-.66,1.63.49,1.18,1.24,1.95s.58,2.48,1.63,2.93c.15-.34.36-2,.49-2.29.08.1.17.13.17.26.43-.23,1.09.12,1.57.12,0,.89-1.61,1.52-2.47,1.67a1.8,1.8,0,0,0,2.17.09,6.1,6.1,0,0,1-.6,3c1,.35,1.49-2.76,2.15-.06-5.25,3.6.1,1.34,3.24-.62,0,.79-.17,1.83-.27,2.66a5.64,5.64,0,0,0,2-.08c-.07.33.31,1.73.2,2.05.78-.52,2.47-3.8,3.47-2.37S125.64,125,125,125.9c1.32.11,2.27,1.39,3.16,1.72-.58,1-2,2.1-.94,2.63.56-1.82,2.39-1.9,3.86-3,.05,0-.51.1-.46.06.54.25,1.32-.12,1.74.8.36-.32,1.51,0,2.54-1,.86.17,1.2-.95,1.61-1,1.11-.18.94-1.71,2.36-.41.68.64-.15,1.93,1.11,2.18,2.25.43-1-5.1-.55-6.18.93,0,3.08-.71,3.15-2,0,0-.53.11-.41.05s-.28.12-.35.16.5-.66.47-.69-.91-.37-.93-.51c.38-.42,2-.39,2.07-.55-.28,1.38.19-.59.21-.59-.41.53-.48-.37-1-1.2.93,0,2.68-.16,1.44,0a4.9,4.9,0,0,1-1.35-3.6l1.78.66c.55-1.35,1.81-.34,2.34-1.63s-1.61-2.12-2.48-2.5c1-2.2,1.94-4.08-.11-5.53,1.43.76,3.3-.65,5.44-.25.56-1.46.71-1.5-.53-3.26-2.5,1.8-3.27,1.49-4.52.54.12-.06-.22-.1-.09-.14.05-.84-.15-.29-.95-.42,0,0,.12-1.79.14-1.75a3,3,0,0,1,2.1-.1c.47-1.34-.1-2.92-.5-4.16-.34,1-1.24,2-2.09,1.35a1.91,1.91,0,0,1-1.25,2c-1.13-.58-1.6-2.13-3-2.6.22-1.5,5,2.91,1.64-2.83.87,0,.88-.48,1.41-.8.19.16.18.76.34,1-.23,1.08.1,1.59,1.29,1.4.06-.82.56-.92,1.13-1.33.17.32-.36.92-.07,1.27.25.66.73,1.12,1,1.8,0,.18.49.18.48.36.1,0,.82-.49.94-.46.09.2-.59.8-.49,1-.38.68.17,1.28.84,1.55-.55.08.06.84.37.69.06.1.1-.23.15-.14-.29.63-.94.56-1.25,1.17.5-.15,1.23,1.17,1.63.84.3-.09.06-1.13.31-1.22.91,1.36,1.58,2.66,2.34,2.75,0,.28.43-.53.35-.24,1.48.3,1.35,2.18,2.77,2.36-.64-.59-.79-.7-.44-1.64.19,0-.2.32,0,.33-.43-.62.44-1.19.3-1.78.25-.19.87-.7,1.18-1,.44.65,1.18,1.44,2,1.33,0-.65.25-1.49.09-1.79.06-.07-.31.39-.35.35.36-.17.43-.94.8-1.33.24.13-1.19-.66-1-1.22.49.06,1.38-.84,1.07-1.4.14.17-.29.9-.06,1.22,0,0-.3-.42-.34-.41-.2,0-.29.69,0,.62,0-.1.39-.27.38-.37a1.61,1.61,0,0,1,0,.61c.7-.06,1.26-1.12,1-2,.34-.2-.47.39-.23.41s0-.22.13-.13.92-.5.95-.32c.11,0,.19-.37.3-.4a19.43,19.43,0,0,0,1.77,1.18c-.21.3-.76,1.15-.57.44.16.08.26.53.43.59.12.38,1.14,0,1.05.44.68.15,1,.21,1.71.34.07.17.54,1.26.64,1.4-.73,1.28-3.29,1.71-3.92,3.06a26.69,26.69,0,0,0,4.91-.47s.38.71.37.74c-.48.29-1.84-.33-2.52.25-.23,0-.14.39-.29.48-.63,0-1,0-1.58,1-.62-2.17-1.83-.26-2.81.25s-2.41-.18-2,1.87c.42-.17,1,0,1.51-.35,0,.78-.2.83-.18,1.57-1.52.15-.61,2.45.83,2.42,2.11,0,.88-1.07,3.19.46,1.18.77,2.79,1.2,2.7,2.86-.11,2.1-1.75,1-3.28,1.58.56,2.82-.8,2-2.71,3.07-.34.21-.66.91-1,1.18a7.64,7.64,0,0,0-1.23,1c-.79.84-.08,1,.91,1.43l-.29,1.38c-1.22.08-1.39,1.19-.45,1.8,0,.64-1,1.92-1.36,2.43-.56.78-.76.37-.83,1.54,1.73-.26,2.48-1.14,3.27-2.78a18.27,18.27,0,0,1,1.82-2.06c.11.62-.35,1.24.22,1.3-.8.49-.49,1.31-.52,2.1-.14.11-2.24.8-2,.84,0-.1,1,1.78,1,1.74,0,1.72.92.46.91.76-.33,0-.41,2.22-1.43,2.95a9.81,9.81,0,0,0-1.66.56c-.13,0-.49-.66-.61-.7.06.06,0,.07,0,.12-.3.16.55.07.43.17,0-.32-.68.05-.61-.28-.6,1-.21,1.1.57,1.28,0,0,.66.37.66.39s-.65-.32-.53-.35.26-.43.42-.42c-.59,0-.94,1.27-1.13,2-.33,1.21.18.56,1.13.66-.14.17-.46.89-.59,1.06,2.83,1.57.15,4.48.91,6.74.53-.5,1.76-3.65,2.62-2.85-.13,0-.37.3-.55.32,0,.27.45.59.76.86-.42,1.24-1.93,4.08.31,3.9.1-.16-.65-1-.59-1.17-.27-.17,1-1.13.7-1.32.37-.2-.63-1-.42-1.44a14.84,14.84,0,0,0,1.72.48c0-.07-1.12-.36-1.16-.43.22-.5,1.06-.69,1.27-1.2.44-.6.76-2.35,1.9-.85a21.68,21.68,0,0,1-1.69,4c.64-.06.85.28,1.48.21a16.66,16.66,0,0,0-1.57,2.93c.65-.23.86-.26.49.69,1.19.56,5.79-1.09,4.85-.23,2.68,0-2.09-2.71-2.6-2.73.25-2,4.58.7,4.6,1,.23,0,.09-.47.27-.54.73,0,0,.27.36-.26-.11,0,.44.22.35.21.52-.41,1.51-1.11,2.05-1.55-.05.94-.3,1.64-.39,2.57.73-.69.69-.49,1.73-.18,0,1.29-1.09,2.51.36,3s1.26-1.78,1.67-2.65c.08-.16-.16.22-.07,0,.05.57,1.32.46,2.6.36a3.61,3.61,0,0,1-.16,1.49c-.19,0,.65.39.46.44-.18.88-.42,2.19.86,1.72.71-.26,1-1.84.78-2.15.46-.21.7-.71,1.24-1.17,1.24-.28,1.91-2.05,2.05-3.93a38.07,38.07,0,0,0,1-4.74,5.25,5.25,0,0,1,.77-.33c.47,1.78-2.15,5.32-.62,6.59.13-.94.66-3,1.41-3.65,1.16-1,.94-.2.58,1.1,3.21.66,1-2.18,1.3-3,.06-.15-.75-.2-.47-.3a4,4,0,0,0,3.13,1.86,5,5,0,0,0-.29-2.95c.44-.59-.39-2.29.2-2.78a9,9,0,0,1-.08,2c.12.06-.06.43,0,.54s1.21-.33,1.25-.21-.06.18,0,.17c.37.61.56,1.31,1.32,1.28,1.35-.06,1.16-2.44-.15-2.54,0-.12-.27.34-.32.37.14-.34,1.15-.31,1.54-.65-.24-.08-2.07-.17-2.33-.24a5.16,5.16,0,0,1,.69-2.47s.21.25.25.27c-.16.42.5.55.84,1.07.26,0-.41,1-.18,1a7.88,7.88,0,0,1,.46,1.15,2.37,2.37,0,0,1,1.77.08c.07.17-.24-.08-.18,0s.47-.38.45-.3c-1.62,1.28-2.18,3.68-2.94,5.74-.78.65-.5,1.47-.56,3.47-.95-.15-2.88-.48-3.42.4,1.41,1.14.42,3-.61,4.19,0,0,.38.17.38.18-.84-.77-1.76,1-2.62,1-.19-.05-.86,0-1.06-.09-1-.63.48-3-1.26-2.31.06-.29-.26-1.7-.19-2-2.65.9-.84,3.85-1.27,5.65s.55,2.51-1,2.76c-.85.13-3.13-1.14-3.13.57,1.07.63,2.65.25,3.74.29.1.21-.53-.05-.51,0a10.28,10.28,0,0,0,.93-.48c-3.63-1.05-3.05,4.94.93,3.67.73-.24,2.89-2.38,3.6-1.53,1,1.23-2.6,2.35-3.35,2.72.47,0,1.3.47,1.77.46-.12.09-.94.47-1.28.65.32.05.4.35.73.4-.22,1.48-1.55.85-2.54,1.63s-.89,3.43-1.71,4.19a24.53,24.53,0,0,0,3.68-2.61c.94-.8.59-2.25,1.73-2.85,2.21-1.16,4.64-1.44,5.92-3.58.05.21-.2.07-.17.28.8,0,1-.66,1.53-1.1,2.07-1.16,4.12-3.45,6.14-5.56.51-.3,1.36-.35,1.84-.68,1.23-.86.81-2,1.46-2.89.34-.37,1.52.06,1.77-.2s0-1.16.26-1.37l.84,1.27c.05,0-.12-.44-.06-.48s.41.08.55,0c1-.68,4-4.44,2.32-5.27.58-.71,0-2.15.94-2.62.05.13,1.26,1.14,1.28,1.34,0,0,0,.58,0,.59-.09.16-1.86.26-1.92.43-.09-.51.49-1.37.53.16.21,0,.24,1,.33.9s-.53-1.53-.54-1.46c.35-.25.8-.21,1.11-.61.19,0,1,.62,1.11.62.25-.64,0-1.71.21-2.53a4.27,4.27,0,0,0,.45-2.73s.14-.82-.21-.82l0,1.59s-.39-1.4-.44-1.4c-2.59,1.67-4.48,2.62-3.68.22-.15-.25.92-.66,1.59-1.57a3.66,3.66,0,0,0,1-1.83c.08-.14-.18-.32-.12-.46-.07.05-.15-.64-.24-.6s.77,1.17.75,1.14c.52-.69-.32-1.32-1.05-1-.06-.51.19-3.44,1.16-4.28.33,0,.71,1.35,1,2a19.67,19.67,0,0,1,.89,3.63c.21-.46-.18-.67.13-1.15-.64,2.46,1.44,3.09.53,5.76.36-.35.16-1.33.62-2,0,.06,1.13.89,1.18.94,0-.15-1.19-1.11-1.15-1.26,1.46-2,4-4.26,4.4-5.74a4.66,4.66,0,0,1-1,.16c0-.13.51-3.15,1.27-2.91-.1,1.27-.84.72-.79,1.49a2.17,2.17,0,0,0,1.37-.5l-.79-.9c1.9-1.63,3-5.58,3.88-8,.15-.46,2.57-1.7,2.5-2.11,0,0-1,.11-1,.07.29-.94.38-1.59.48-1.82-.59,0,0-.58.73-1.63.09.21-.41-.25-.3,0,0,.15-.61.39-.64.82.06-.24,1.21-.17,1.26-.38,0,.06-.31.56-.29.64,1.13-.42,1.41-2.47,1-3.42.09-.32,0-.21.1-.45.39-.94-.25-2.33,0-3.37s1.28-3.44-.41-1.55c0-.14-.67-.5-.71-.71s.33-.38.41-.6c-.09.07.32-.05.21,0-.06-.35-.18-.55-.22-1,.4-1.44,1-2.69.34-1.92.06-.2.09-.65.21-.7.15-.61-1.18-2.08-1.6-3.51,0-.2.78-.56.78-.78s-.44-.35-.5-.54c-.28-.9.23-1.53.41-2.32.2-.27.09-.52.59-.51.09-.86-1.23-1.63-1.25-2.45.1-.17.7-.44.63-.66.11-.42,1.09-.54,1.18-1,.3-1.5-.7-3-1.12-4.64-.07.26.39.72.25.94-.55-.16-.37-1-.87.18-.13.13-.88.7-1,.8a8.06,8.06,0,0,1,.6-4.48c.06,0,.41.62.45.61a6.07,6.07,0,0,0,.87.13c0-.06-1.37-1-1.38-1s.62.25.58,0,1-.46,1-.72a.47.47,0,0,0-.42.21c-.55-1.67-2.58-5.57-4-8.73l.4.33c.06-1,.72-2.66-1.56-2.33-.05.28.51-.69.45-.42-.22-.64-2.13-1-2.16-1.45-.15,1,1.69,3.12,1.21,4.23-.28,0-.88-.56-1-.62s.11-.24,0-.3c-.36-.82.09-1.82-.76-2.46-.06.09-.34-.23-.45-.16a6.37,6.37,0,0,0-.24-1c0,.1.7.24.7.41-.23.16-.95.82-1.13,1-.09-.68-.16-2-.21-2.64.11-.06,1.06-.18,1.19-.22.3.25.08.46.5.72a9.59,9.59,0,0,1,.5-2.49c-.09-.07,0-1.1,0-1.19s-.64,1.16-.68,1.15a14.42,14.42,0,0,0-.85-1.57c-.27-.52-1.49-2.46-2-3.14-.2,1.45,1.33,3.2,1,4.75-.08.12-.23.19-.34.35-.4-.47-.43.54-.81.29,0,.77-.57.71-.54,1.46-.69-.54-.71-1.68-1.25-2.31-.8.47-1.23,1.54-1.84,1.51,1.91-1.92-5.77-3.54-.8-4.15-.63-.62-6.06-4-2.52-4.47,1.44-.18,2.56,2.27,3.46-.13.3-.78-.3-1.92-.48-2.71,0-1.08-1.34-2.18-1.58-3.45-.16-2.09-.2-3.59-1.53-5.7-.7-1.11-.65-3.31-1.3-4.18s-2.07-.73-2.84-1.59a7.55,7.55,0,0,1,.45,1.56c-.34,0-.39-.91-.65-1.06a.55.55,0,0,0-.4-.22,16,16,0,0,0-3-2.14c-.25.79.58,2.59,1,3.24a1.18,1.18,0,0,0-1,2c-1.33.71-1.82-.75-2.84-.95-.64-.13-1.36.72-2.06.71.49.33,0,.38.37,1,.06.11-.91,1.07-.65,1.46s2.39-.39,2.67,0c1.92,2.5-.4,2.78-2.39,2.56-.33,1.55,5.2.69,6.13,2.76,1.67,3.72-2.26,2.42-3.92,2.94-.64,0-1.08-.45-1.42-.45s-.74-.09-.87-.26c-.22.58.61.68.87,1.27.07,0-.32.6-.26.63-.18,0-1.11-.62-1.27-.6,0,.34,1,1,1.21,1.34,0,0-.24.19-.27.23.16.13-.32.82-.23.9s.06-.06.2.09c0,.23.11,0,.09.23s-.08,1.12-.28,1.31c-.31-.87.15-1.7-.55-2.32a1.49,1.49,0,0,0-.56,1.93c-.13.11-.4.9-.58,1-1.38-.88-1.77-1.82-2.19-3.92-.32-1.62-.27-4.14,1.69-3.47,1.12-1.63-.66-.15-1.58-.46-1.54-.53-2-1.32-3-2.77-.49-.78-1.59-1.52.14-2,.35-.1,1.48-.92,1.83-.57.43,1,.05,1.73.54,1.77,0,0-.52,1.38-.53,1.34s.23-.83.3-.77c.53-1.45-.14-2-1-2.89-.18-.22.2-1,0-1.15s-1.2,0-1.32-.26c0-.43.72-1,.52-1.37.11.06,0,.31.1.36.13-.24.22-.82-.11-1-.09-.76-.7-.94-1.5-1.09-.29-.3-.15.19-.36.46,0,0,.24-.4.23-.41.12-.47-1.21-.56-1.07-1-1.15.34-2.08-.32-3.11-.35-.93-.25-2.07.26-3,.09-.25-.1-.29-1-.56-1.14-2-1-5.05-2.5-7.25-1.22,1-.09.37-.19.41.63-.39,0,0,.31-.17.33-.05,1.19-.41.85-.55,1.35a17.63,17.63,0,0,1-2.16,1.87c.52.47,2.47-.19,3.24-.63.77,1.86-2.91,3-3.83,4.29s-.59,3.38-.47,5.22c2.19.45,3.51-1.23,4.14,1.91.66-.5.67.28,1.37.68.45.38,1.54.86,1.82,1.15-.51-.09-4.36-.23-4.53,0-.66,1,.67,1.72,1.49,1.65,0,0,0,.16,0,.2.33,0,.74.68.7.6.18,0-.43-.42-.25-.54,0,.87-.45,1.77-.26,2.45.07.26,1,.42,1.16.52-.08,2-.71,3.94.34,5.19-.06,0,1.2-.18,1.14-.16-.32,1.1-.32,1.3.71,1.15,0,0,.81-.18.82-.17.28,1.3-.35,2.42,1.11,2.34a7.12,7.12,0,0,1,.77-2.12c.08-.11-.9-1-.82-1.07s.48.07.54,0c1-1,1.69.39,1.5-1.29-.1-.82.89-1.3.6-1.71,0-.5.12-.88.17-1.55a1.69,1.69,0,0,0,.25-1.11c0-.21-1.08-.4-1.25-.57.25-2.86.46-5.54,1-2.75-.58.52.78,1.29,1.25,2.21-.19.19-.48.41.23.65,0,0,.22.08.22,0,.4.59,1.34.92,1.79,1.45-.07.08-.18.08-.05.13A14.08,14.08,0,0,1,186,64.66c-2.2,2.58,6.41,4.27,4.42,8.36-1.36-.21-3-2.35-3.22-.4.13.07-.28.87-.2.95-1.95.45-.45,3,.4,4.79-1.79,1.68.13,1.92,1.13,3.15a5,5,0,0,0-.75-2.45c0-.16-.36-.26-.36-.56.45-.06,1-.09,1.42-.18a2.35,2.35,0,0,0,1.81,2.35c.21-.74-.53-2.18-.6-2.88,0-.05.45-.26.48-.31.47.34.88,2,1.26,2.08,1.12.23.65-1.82,0-2.34,1.92-.46,1.65,2.35,2.63,3.38.54.57,2.45-.41,3.08.23.47.48.39,2,.83,2.58s1.41,1.82,2,2.66c.11.24,0,.42,0,.66.07.75.34.61,0,.77-.1-.24-.4,0-.5,0,0,.22.08.24.1.38-.46.08-.75-.75-1.17-1.19-.09.32.37.9.38,1.24.33.08,1,.85,1.35.92-.36,1.11-2.22,1.08-3.21,1-.39,1.71,1.22,1.79,2.37,1.85,0,0,.35-1.13.36-1.13s-.11,1,0,1c.47.13.21-.57,1-.87.38-.14.7-.08.9-.36.26,0-.44-.36-.11-.92,0,0,1.09,1,1.13.95.63-.25,3-.82,3.41-.25,1.31,1.76-1.52,1.31-2.12,1.88,1.68,1.48,2.2.46,3.19,1.38.23.6,1.62.62,1.81,1.17-.34.62-3.06.49-3.38,1.52.68.58,2.28.49,3.13.53a15,15,0,0,1,.61,1.71c-2.8.14-1.47-.67-.72,0-.21.16-.1.18-.19.33.24.13.23.24.57.32,0,.13.18.29.08.43-.7-1.59-1.72-.43-2.9-1,.14.43.35,4.59-.07,5.37a12.57,12.57,0,0,0-2.32-2.78,12.37,12.37,0,0,0-2.5,3.49c-.76-3.72-.18-3.67,0-8,2.53-2.6-8.73-6.41-9.07-4.4.22,1.61,3.34.81,4,.48a4.46,4.46,0,0,0,1,1.89c-.58.08-1.82-.18-.88.24-.35,1.11-2.84-1.35-.87,1.57,2,.37.87-.45,2.64.42-.21.7-3.35,1.49-3.31,1.47.07.23,2.64,5.9,0,3.68-.3.64,2.23,4.55,2.3,4.92-1.78-4.21-3.34,2-3.11,3-.13-.22.36-.65.24-.84s-.3,0-.28,0-1,.59-1,.6a7.56,7.56,0,0,1-1.41-3.64c-2.17.25-2.7,2.49-3.85,2.58,0-.83-.06-1.05.35-.92,0,0-.08,1.27-.07,1.27-.32,0-1.18-1.38-1.67-1.78-.11,1-.3,1.24-.48.44-1.2,3.32,4.14-1.57.58,3.67.89-2,.26-.2,0,.4,0-1.74-.41-4.36-1.67-2.88a3.73,3.73,0,0,1-1.36-2.3c-3.92-3-1.09-.3-1.62,3-.68,0-.93-.11-.08.38.39-.14,1.41.6,1.62.49-.32,1.15-2.28,2.36-4.07,3.06.42-1.82,1.51-9.08.64-9.9a27.55,27.55,0,0,1,1.43-2.62c-.94-1.65-4.19,3.78-2.6,4.75.33-.19.33-2.07.38-2.2a15.28,15.28,0,0,0,2.3.72c-.14,1.42-2.18,3.56-3.23,4.43-1-1.87,1.91-2,0-3.12a52.89,52.89,0,0,0-1.82,6c-.36-1.84.14-4.4.77-4.72a17,17,0,0,0-1.55.81c-.61-.38,2.75-5,1.12-4.76.09-.41-2.37,1.73-3.92,3,0,0,.69,1.3.67,1.25s-.73-.73-.76-.57c-.54.39-.54,1-.89,1,.79-4.78.41-.14,1.36-2.83-1.42,0-.31-.8-.4-1.47-2.17,1.37-1.72-1.89-2.66-1.44-.51,1.21-.36,4.35-2.69,4.62-.19,0-.29.59-.36.69-.24,0,.25-.06,0-.13.38-.54,3.16-4.68,1.68-5.56.86-.14,1.23-.46,1.64-.21-.25-.33-.57.57-1,.53.06,0,.12-1.49.19-1.55s.7.83.9.86c-.06-.24-.57-.69-.56-.84s.34-.94.44-1.08c.53,0,2.3,1.84,2.79,2.1-.13-.8-.45-2.74-1.44-3.13-.82-.31-1.8.59-2.84.45-.09-.12-.56.89-.58.74-.27,0,.12-1.29-.14-1.39,0-.14.08.16.11,0s-.87-.49-.84-.6c.27-.72,1.67-.63,2.43-.68-.22-.22-1.35-.66-1.59-.91,0-.09,1.36.09,1.44,0,.37-.15.45-1.72.68-2,2,1.22,1.49-1.24.7-3.48,0-.13,0,.67,0,.63,4,.16,1.6-6.32,2.42-6.4.45.69,1.25.69,2.07.66a6.74,6.74,0,0,1-1.14-2.17c.54.12,2.75,0,3.22.1a3.31,3.31,0,0,1-.4,1.48c1.49.71.79,1,.24-.66.12.4.81.4,1.08.63,0,.48.91.7.71,1.13-.23.12-.72,0-.47.08a5.08,5.08,0,0,1-.13,1.18c-1.74-.07-5.06.36-3.86.38,0,.37.94.86,1.34,1.17.24,1.77-.1,3.75,1.83,4.61a4.49,4.49,0,0,1,.23-2c1.25.79,2.1.52,2.94,1.85,1.39-.52,2.12-2.43,1.28-3.43-.27-.84-2.65-.15-1.66-1.42.18,0,.48-1.07.65-1.09.12.17-.41,1-.44.83a4.33,4.33,0,0,0,.93.28c0-.57,1-1.07,1-1.78.13.14-.89.32-.75.39,1,.46,1.23,1,2.25,1,.34-2-2-2.15-1.67-4.27-.92.14-.63-.62-1-1.25,0-.23-1.18.31-1.28.24S182,81.18,182,81a2.2,2.2,0,0,0-.71-1s-1.19.22-1.22.19c0-1.09.5-2.37-.11-3-.24.49.07,1.22-.1,1.79,0,0-1.25-.1-1.29-.12-.36-.7-.52-1.13-1.33-1.34-.13.09-.48.1-.56.23-.15-.28,0-.71-.16-1-.5.7-.24,2-.15,2.81a2.65,2.65,0,0,1-2.58-2.86c-.48.09-.65.55-1,1,.23.38-.36.26-.24.55-2.25-.63-3.3.45-4.16,2.14-.09-.47-3-5.52-2.6-1.83.31,0,.07-.77.36-.82,0,.14-.65.73-.83.88s-.15.26-.22.39c-1.36,1-4.2,2.31-1.32,3.2.34.1,1-.56,1.22-.63a19.32,19.32,0,0,1,2.66,1.69c-.4-.17-1.17.24-.06.55.07.13.21.12.23.31-.36,1.16-1.3.75-1.72.44,0,.54.22,1.61.3,2.34-.13.28-.32.93-.45,1.16a3.76,3.76,0,0,1-1.42-1c-.48.46.22.89-.2,1.21-.18,1.24,1.87,1,3.22,1.27,0,.06-1.1.62-1.12.69s-.27.68-.33.77.82,0,.73,0c-.11-.2-1.13.28-1.17,0-.07.17.45-.35.37-.23-.56-.56-1-.28-2,.19-.09.26-.58-.39-.65,0-.37-.22-.66.62-1.11.33-2.06-1.27-1.21-.58-2.19,1.48-1-.4-1-2.83-1.31-3.88-.72.61-.84,3.38-1.07,4.61-.11-.08-.24-.14-.37-.25-.37-.48-1.26-.61-1.77-.84a22.94,22.94,0,0,1-2.89-5.13c-.14.31-3.4.45-3.42.24,2.18.22-3.18-2.09-3.18-1,.26.35.83.9,1,.45a5.32,5.32,0,0,1-2.52,1.62c.21-.16.14-.74.3-1.09-1.29-.67-1.74.14-1.93.86.08-.62.12-.94-1.3-1.15-.55,2.93-3.85,3.74-4.48,6.69a1.34,1.34,0,0,1,.78,1.7c-2.06-1.19-2.06.52-1.13,2.24,0,.08.3,0,.39,0,.49.79,1.09,2.32,2,2.17,0,0-.18.29-.07.26a5.6,5.6,0,0,0,1.62-.08l-.5-1.9c-.52.2-.28,1.32-.31,1.37s-.53,1.4-.3,2c-1.12-1-3.53-3.53-6.43-4.39-.17-.11-.3.49-.45.4.08-.56.71-1.68.55-2.18-.56-1.76-1.61-.22-1.89-.12-.58.22-.92,1.52-1.51,1.55-.07-.11-.12-.22-.55-.09a1.83,1.83,0,0,1-.13.16c-.64,0-1.25-.85-2-.91a3.48,3.48,0,0,1-.85-.33c.79-.07.16-.58-.63-1.21,1,.33,1.25-1.64,2.17-2.46a10.87,10.87,0,0,0,.55,1.13c-.54.88.47,1.94,2.11,1.61-.07-.69.46-2.26,0-3.46,1.16-1.18,1.66.9,1.72.89-.08-.68,2.87-1.63,2.89-1.68a11.06,11.06,0,0,1-2.4-3.65c1.49-.4.17-6.4-.35-6.21,1.22-.12.49-.26,2,.07.35-1.66-.88-.69.28-1.74.27.07-.45-1.08-.25-1.31a8.32,8.32,0,0,0,1.22-2.84c-.81.33-2,1.63-2.91,1.87-.08-1.62.21-2.17-.78-3.07a4.77,4.77,0,0,0-.39-1.94c-.42-.22-1.34.19-1.78,0,.13-.82.63-1.08-.49-1.77-.83-.52-2.2-.15-2.48-1.8-.15-.07.12-.11,0-.24.21-2.2-1.27-2.79-2-.74-.12.33-1.61.86-1.41,1.65A8.51,8.51,0,0,1,123.2,67c-.31,1-.14,3-.92,3.56.12-.74,1.36-4.36,1-5.73-.17-1.41-2.58-2.81-3.66-1-.36.6.14,1.68.2,2.47-.07.06-.63.33-.62.47s.23-.1.27-.1c0,.17-.2,0-.26.08s-.32-.31-.41-.21-.44,2-1.05,1.88c-.09-.3.24-1.74.14-2-1.34.35-1.72,2-1.67,3,0,.24.57.39.6.76-1.49,1.85-3.16,3.21-3.51,4.13-2.72,1.89-3.9-6-6.87-1.61-.56-.85-2.33-2.42-2.71-3.47-.94,2,2.07,2.66.1,3.93a2,2,0,0,0-.81-1.71,11.55,11.55,0,0,1-.75,1.5c-.2,0,0-.27-.2-.12,0-.25.57.15.71-.27s-.36-1.09-.57-1.15c.37-1.17.36-1.86-.2-2.29-.26-.2-.63-.75-1-.71a64.74,64.74,0,0,1,.76-6.79c.14-.25.68-.26.87-.55.59-.89,2.71-3,.76-3-.35,0-.57-.38-.86-.06-1.53-.23-3.08-.1-3.49-1.29.28-1.33,2.7-2.63,2.67-4.14-.77-.23-1.32,1.26-1.57,1.89-.07,0-1.08-.32-1.14-.3-.23-1-.94-2.23-1.35-3.39-1.12.53-2,2.17-1.58,3a12.26,12.26,0,0,1-.69,2.51c0-1,1.08-3.67-.78-3.62a31.22,31.22,0,0,1-4,5.22c-.24-.17.39-.47.26-.64a4.39,4.39,0,0,0-1-.75,1.34,1.34,0,0,0-2.23.67c-.35.84,1.1,2.49,1.25,3.71a10.36,10.36,0,0,1-2,1.18c-.18-.85,0-1.58-.47-2.26-.31.25-.7.93-1.1,1.17-.7.3-2.14.12-2.79,1-.21,0,.15.46.22.39a2.19,2.19,0,0,0-.4,2.74c-.43.91-1.7,1.81-2,2.8-.13.25.17.43,0,.65.1,0-.76.24-.65.19-.05.15,0-.57-.05-.42s-.29.86-.17,1c-.1.34.44.59.36.92a2,2,0,0,1-.72.4,1.38,1.38,0,0,0-2.3.85c-.14-.12.43-.33.42-.42-.4.4-.31,1.79-.58,2.88C75.43,75.17,76.07,78.3,76,79.48Zm65.75,40a1.22,1.22,0,0,0-.15.17s-.35-.54-.35-.57Zm2.84-29.58,0,.15-.51.19Zm-4.1,10.51s0,.22-.05.26a2.15,2.15,0,0,1-.39-.83C140.13,99.86,140.39,100.4,140.46,100.41Zm-6.57-22.36a3.92,3.92,0,0,1-.48,0A1.28,1.28,0,0,1,133.89,78.05Z"/></g><g class="cls-14"><path class="cls-15" d="M82.73,39.48c-1.29.43-7.18,7.91-7.63,12.39,6.81.6,14.65-13.08,17.61-19.66C91.37,31.72,86,36.71,86,34.9c.9.69.88,1.24,0,1.67A5.4,5.4,0,0,1,85,35c-.61,1-2.2,3.23-2.29,4.53C82.54,39.54,82.8,38.46,82.73,39.48Z"/><path class="cls-15" d="M77.49,53.11c.7.17,2.19-1.43,1.54-2.27-4.27,3.62-3.16,3.55-5.29,7.85-1.17-.92-1-2.29-2-2.37a13.83,13.83,0,0,0,.53,2.46L70.73,57.6c-1.88,3.38.75,6.15-2.33,8.31-.22,2.75,4-.28,3.12-.23.79,2.17-2.82,8.61.76,11.91,3.4-6.67,3.26-19.4,5.21-24.48C77.46,53.1,77.46,53.2,77.49,53.11Z"/><path class="cls-15" d="M95.83,73.6c4.76-1.88,3.18-13.48-2.23-10.08a3.38,3.38,0,0,0-.55-2.7,25.31,25.31,0,0,1-3.94,1.81C89.46,55.34,78,70.36,85.4,69c-2.78,2.53-4.27,12.9,1.1,14.53a4.28,4.28,0,0,0-.75-3.63l1.54.18c-2.29-1.88-.84-6.29,1.38-8-.9-.89,1.52,5.5,1.48,3.38-.94,1.21-2.13,2.23-3,3.54.07,0,3.36.66,2.74.94a24.08,24.08,0,0,1,1.52-4.6c.68.12.15,4.46,1.83,3,.5-.47,7.6-1.74,2.62-4.7C97.88,72.79,97.14,74.38,95.83,73.6Z"/><path class="cls-15" d="M90,51.62c-.13-.06,3.15-4.28,3.11-4.28q2.46.27,1.55,2.9c2-.53,1.84-7.16,4.88-4-2.95,6.61,5.91,8,6.13,12.06-.39-.05-1.83-.39-1.94.33,2.53-1.3,1.92,2.69,3.7,1.35,0,.4,2-6.54,3.24-6.44a1.57,1.57,0,0,0,.61,1.31,4.48,4.48,0,0,0-2.13,1.27c0-.06,6.06-2.16,6.49-2.82-.46-.16-.93-.32-1.4-.46.14,5.09-1.33,2.4-6,6.73q2,.09.9.87,2.7.8,5.44,1.38a3.19,3.19,0,0,0-2.64.34c1.65,1.45.95,1.31-.74,2.94A3.32,3.32,0,0,0,108.77,63a1.63,1.63,0,0,0-.54,2.33c-.64-.35-1.52-1.7-3-1.06.94,1.54,3.17,4.35,1.16,7.19a2.2,2.2,0,0,0,3,.24c-.91-.55-2.7,5.27-3.11,5.7,1.19.93,5,3.21,5.87.1-.33,2.72,2.8.77,3.37-.06.48,1.83,1.28,4.89,1.48,6s-2.63,5.86-.26,5.37c-3,3.81-4.69,2.74-3.93,7.84-2.27-.22-3.88,2.51-1.42,4.94,2.53-2.51,0-2,2.75-1a2.91,2.91,0,0,1-2.88.68c2.61.36,2.71,1.5.29,3.44,4.63,4.08-3.18-3.8-.71,1.66a16.51,16.51,0,0,0,5.89-.39c-1.46,3.31,1.86,2.77.06,5a3.58,3.58,0,0,1,4-1,3.26,3.26,0,0,1-3.21,2.13c9,4.35-1.93,2.14.43,4.82.52-.65,4.78-1.7,4.18-1.52,1.88,2,6.82,2.85,8.37,3.83-3.06-1.94,5.44-6.75,5.39-6.63a1.39,1.39,0,0,0-.78-.07c.93-.31.94-.74,0-1.28-.09,0,2.37-.06,2,.43.93-1.26-1.31-2.53,1.47-1.63-1.3.4-1.31-.87,0-3.79,1,.87,2.77,2,4.13.56-.37.39.66-8.27.6-8.37,1.9,2.23,6.79,2.77,5.79-1.52-3,.81-3.45-1-5.08-2,2.26-3,3.31,1.78,3.82-5-2.87,3.42-4.31-.06-6.07-1.56a5.29,5.29,0,0,1,2.49,1.1q-1.49-3.7,1.64-3.38c1.13,2.13-1.06,2.82,2.13,2,.26,2.6-.54,2.3,1.08,3.61.15,2.19-1,3-1.92,3.82.76,0,1.41.32,1.92.34.17.83,2.05,5.84,3.19,6.46-1.94-4.07,3.38-1.54,3.76-1.45.5-1.61,1.71-5,2-3.68-.79-.51.2-.21-.13.44q2.64-2.39,1.26-1.22c.4.69,3.65-.48,2.07,1.64a9,9,0,0,1,2.48,3.93q-2.38.63-4.72,1.44c3.26-.68,4.83,0,4.73,2.13-1.85.35-9.24-2.73-9.85.24-.9,0,2.77,5,2.77,5-.42,6.91,1.57.94-2.76,6.46-2.82,3.59-7.62,2.78-10.32,8.52,3.63.81,3.86-2.86,6.45-2.69-.54,2.59-5.21,9.09-7.3,7.41.42.94,0-.26-.15-.05a1.78,1.78,0,0,0,.51,2c-.54-.42-.47-.67.19-.76-1.5-.47-3.53,9-3.58,9.83a4.61,4.61,0,0,1,3.45-1.72c.19,0-3.4,4.31-1.4,4.91.35-.29.67-3.34,1.16-3.76.45.37.92.73,1.4,1.06-.15-.87,2.22-3.55,2.75-1.6-9.74,1.49,1.62,8.93,1.29,7.89a9.42,9.42,0,0,0-2.2-3.05c-.77,1.38,6,2.13,7.39,1.69-.13.27-1.24,4.94-.44,5.61,1.22,1,2.14-1.53,2.45-1.92.41-1.43,2.46,5.07,1.95,5.06,2.94.05,8.82-9.8,9.88-9.37a14.92,14.92,0,0,0-3,5.9q1-3.25,3.55-2.88-2,1.82.87,1.54s1.11-3.09.34-3.11c1.47,8.68,3-2.11,4.21-2.51-.06,1-1.07,3.69.93,4.37,0,0,1.25-1.95,2-2.24-1.35-1.09-3.88-.62-.5-3.09,1.35,1.47,0,2.68,1.54,4.44-.34,0-.23-.08.35-.15-5.87,1.85-8.11,9.38-11.71,10.43-.57-1.21-6.9-.09-3.42-5-2.61-.11-3.39,5.39-4.59,6.79-.39.46-9-2.49-.32,1.24-.82-.17-.64-.26.55-.26-7.41-5.73,4.66,7.76,3.34,3.6a3.75,3.75,0,0,1-4.06,1.33c2.43.79-2.8,4.66-5.48,5.72,10.3-1.82,20.67-8.26,29.69-10.49l.3,1.48c1.87-.53,5-6.31,6.53-6.45a1.75,1.75,0,0,1,.48,2.25c-.3.24-2.92-.54-1.47-.84,0,.62,0,1.23-.05,1.85-.16.28,6.08-5.72,4.73-6.23l-.62,1.46c.65-2.19-.46-2.53-3.33-1-1-.16,4.18-4.91,3.65-4.88-.15,2.73-.13-2.65,2.33-3.54,2.31,1-2.62,6.92.19,4.86a39.44,39.44,0,0,1-1.64,5.53q1.26-3,2-.29c.14-.26,6.94-7.72,6.85-7.79a8.29,8.29,0,0,1-1.27,1.1c-.35-.17,10.44-7.32,10.64-8.25-.24,1.1,1.14-3.74,1.19-3.22-1.12,1.63,0-.41-.09,1.12,3.32.06,10.11-26.14,11.07-26.87-.82-.65-.52-.19-2.1.23.89-6.4,1.71-4.11,3.13-2.79l-.87-1.45a1.4,1.4,0,0,0,1.7-.08c.43.24-2.21-13.82-2.11-14.11a18.32,18.32,0,0,1-.47,4.36c-1.54-.42-.08-4.07-.56-5.12.88.72.58,1.1-.91,1.15.43-1.64,4.86-2.63,3.93-4.71-2.12,1-1.37-2.39-1.88-4.56-.56,1-2.91,5.26-3.2,6.1-2.28-3.89-3.29-4.45-3.8-10.27.49,5.6,4.94-5.79,5-6.09,1.45-5.26.67-8.23-.94-12.67-.16,3.11-1.16-1.6-2.65-3a12.91,12.91,0,0,1-3.7,3.56c.3-.24-4.22-.85-3.75,1.47a20.25,20.25,0,0,0,2.45.94q.15,3.83-3.13,1.52c-.59.89,8,5.17,3.82,6.92-1.14.47-5.37-.91-5.74-2.31-1.94,2.15,2.44,1.93-1.08,1-.93,2.09,1.23,5.24-.5,1.73a6.45,6.45,0,0,1-2.12,2.28c-1.72-2.39-.29-7.93,2.52-7.72-2-.15-3.59-3.24-3.5-5.24a3.34,3.34,0,0,1,3-.37c.13,3.33-.6,1-1.14,2.89-1.21-3.29,1.7-5.57.23-8.64-.29-.61-10.05-9.13-12.55-8.72,2.11.58-4.3,3.07-3.81,3a4.31,4.31,0,0,0,3.2.56c0-2.27-7.27,9.91-6.22,7.75a61.4,61.4,0,0,1,4.1,5.63,19.36,19.36,0,0,0-4.15-1.6c-1.4.95,1.09,2.05,1.12,3.06-1.09-.1-2.36,10.81.37,11.7q2.22-1.12,1.14-3c4.81-2.59,2.72-3.93,5.6-8.24-2.63,3.94,7.32,15.15,3.21,19-4.72-2.74-6.2,2.88-4.86,7.21a6.18,6.18,0,0,0,.1-3.19c2.93.72-.33,1.94,2.14,3.16,3.85-5.06-1.33-2.45,1.46-.62,1.08-.31,1.37-1,.87-2.17,3.63.48,4.68,15.93,2.87,11.26a2.18,2.18,0,0,0,.78,2.62,3.08,3.08,0,0,1-3.31-.19c-2.05,3,3.67,1.76,4.38,1.21-.83.11,4,2.63,3.89,2.26-.43,1.33-1.31,1.66-2.63,1,.47.94,3.7,2.94,3.64,4.15a11.84,11.84,0,0,0-3.66.21c2.33.32,3.19,1.46,2.59,3.4-3.59-1.18.63.06-.64.93a2.84,2.84,0,0,0-2.29-1.94,17.69,17.69,0,0,1-2.05,5,12.33,12.33,0,0,0-1.1-3.42,12.78,12.78,0,0,0-3.57,2.35c.68-3.72,3.6-6.68,3-10-.21-1.12-5.63-6.43-6.68-4.69.1-.39,3.57,3.86,3.7,4a24.52,24.52,0,0,0-2.39-.55c-1.59.89,2.2,2.73,2.39,2.94-2.14,2.7-2.11-1.11-3.72,3-.68,1.71-.23,2.72-.89,6-.08-5.27-3.15,2.62-3.43,1-.55,1.82-1.5-2.82-1.35-3.82a16.46,16.46,0,0,0-4.48,1q1.31-1.65.14.43c.13,0-1.28-3.26-1.48-2-2.73,3.11,5.32-.65-.82,3.61q1.45-1.31-.19.36c.2-.52-.63-7.9-2.24-7.84,0,0-2.9,5.76-.12,5.53a7.06,7.06,0,0,1-4.86,1.38c2.59-3.75,3.61-7.65,6.53-10.88-.14-1-5.58,1.54-4.13,3.48a6.73,6.73,0,0,0,1.16-1.9,13.62,13.62,0,0,0,1.83,1.48,9.75,9.75,0,0,1-4.59,3,3.58,3.58,0,0,0,1.14-2.9c-1.22,1.68-2.73,3.12-3.88,4.88a6.35,6.35,0,0,1,2.46-4.11c-4.24-.82,2.38-3.56,1.07-3.82-1.15,1.68-4.65-.42-4.54,2.77-.28-1.06-.84-1.12-1.67-.17.1-.18,4.92-6.29.57-5.94a25.32,25.32,0,0,1-4.75,3.84c1,.43,4.3-4,4-4.18,2.55-1.06-.5-.51,1.85-2.08A16.33,16.33,0,0,1,171,106.2c.54-2.39-2.91-6.29-3.73-3.52.16.08-1.17-3,2.4-1.89-.33-.75,2.74-4.25,3.29-4.93,4.27,1.86,2-5.2,6.23-3.73a7,7,0,0,1-.24-2.41q1.44.65,2.91,1.23c-.38,1.21-.62,3.15-.45.71a2.65,2.65,0,0,1,1,2.27c-1.32.15-2.39.87-4.69-.07-.1.27.44,6.17.77,6.5.88-2.88,2.59-1,2.94,1,3.8,0,.7-5.82,2.45-5.41-.24-1.06-.36,5.23,1.59-.1q-2.33-.08.86,1.82c1.71-2.82-.84-5.16-1.65-6.3.11-1.27,2.22-2.06,1.15-4.88-2,1.81-2.61.46-3-1.61.82-.54-5.56,4.78-2.49-1-1.22-.23-5.22.54-6.25,1.47a9.46,9.46,0,0,0-.78-3.63c.56.72-2.55,1-4.39,1.89,6-3,.61,12.58-.82,6.54-2.52,1.06,1.79,3.35,1.85,3.38-.33,1.54-2.68-.58-1.2,1.09-.17-1.72-5.95-1.6-6.79-.81a7,7,0,0,1,.24-4.06,12.17,12.17,0,0,0-2.69,3.89c-.08-.13-7.22-12.72-8.07-10.58-1.63-6.18-17.52,13.26-9.68,8.9A11.85,11.85,0,0,0,140,94.79c-1.33-2.56-3.51-4.53-4.81-6.16q2.28-1.41.63-2.9c-4.41.37-3.74,1.24-5.84-2.48a4.33,4.33,0,0,0,2.89-1.51c-.61,1.3,0,3.25,1.42,3.49,1.83-6.38,2.38.61,5.82-2.3-1.06-1.21.81-10.13,1.12-10.13,2.24.63,3.52-1.6,5.11-4.25-6.65.16-1-7.59-5.36-11.61-1.73-1.6-4.2,4.9-3.23-.11a8.46,8.46,0,0,1-2.15,3c1-1.65,4.52-5,2.29-7.08-2.79-2.63-4.66,7.14-4.79,1.67-3.58-.38-2.13,6-8.07,5-1.73-.29-6-5-5.92-7.45a5.19,5.19,0,0,1-1.37,3.68c2.32-3.52-1.59-.9-1.48-.94.6-1.08,4.17-9.89,4.38-10.61,1.5-5.12-1.44-.32-1.19-5.37a23.09,23.09,0,0,0,4-2.9c-2.47-1.91-3.44,5.87-3.05-3.11-2.63.19-2.19,3.05-4.09,4.26a2.64,2.64,0,0,0,.63-3.64,32,32,0,0,1-5.63,3.41c.12.19.37-4.7-2.47-1.74a14.53,14.53,0,0,0-.24,3.89s-13.91,2.38-15,5.52c.06.11-2.73,5.49-3.59,7.19C90,51.66,90.49,50.56,90,51.62Zm45.35,60.52c-.24.08-.74-1.14,0,0C135.27,112.15,135.28,112.12,135.3,112.14Zm13.53-26.45c.35.66-1.73-.5,0,0ZM141.19,94c.16-.24-1-.57,0,0C141.17,94,141.13,94,141.19,94Zm2.26-23.1a2.52,2.52,0,0,1-.44-.16A1.56,1.56,0,0,1,143.45,70.89Z"/></g></g></g></g><polygon class="cls-16" points="164.54 137.52 165.58 126.63 162.72 137.37 145.74 116.82 159.11 139.88 148.06 138.83 158.63 141.64 138.28 158.46 161.32 145.09 160.26 156.35 163.12 145.58 179.92 165.92 166.69 143.1 177.78 144.15 166.85 141.25 187.38 124.27 164.54 137.52"/><g class="cls-17"><g class="cls-18"><g class="cls-19"><path class="cls-20" d="M.48,13.43C-12.2-18.87,49-8.73,137.21,36.08s170,107.31,182.65,139.61S271.32,197.85,183.13,153,13.17,45.73.48,13.43Z"/><g class="cls-12"><path class="cls-21" d="M.48,11.62C-12.2-20.68,49-10.54,137.21,34.27S265.39,138.74,278.07,171s-6.84,26.71-95-18.1S13.17,43.92.48,11.62Z"/></g><g class="cls-14"><path class="cls-15" d="M111.71,110.49c.23.22,1.63,1.06,1.94,1.3a9.64,9.64,0,0,1-1.8-.56c.44.29.88.31,1.21.52,1.57,1.12,3.81,2.89,4.16,2.59,2,1.52.19-.26,6.07,3.35,0-.15,5.85,4.06,10.84,6.94a38.42,38.42,0,0,0,4.79,2.37c-.84-1.37-3.47-2.85-6.06-4.55.75-.43.29-1.22-3.05-3.24-.25,0-1.17-.53-1.31-.5a38.24,38.24,0,0,0-3.24-3.12c-1,.46-3.66-2-6.45-3.59-1.59-.94-3.49-1.23-4.84-2s-2.53-2.08-4-3c-3.58-2.08-4.81-2.75-8.71-5.25-2.55-1.64-6.78-4.52-9.07-5.82,0,.83,5.71,5,10.29,8.09-.08,0-1,0-1.05,0,.24.14,1.27.14,1.47.26.48.33,1.06.78,1.54,1.09.19.19-1.85-.34-2.3-.46.87.51,3.62,1.72,4.94,2.58,0,.06-.36,0-.27.12C107.33,108.43,109.83,109.63,111.71,110.49Z"/><path class="cls-15" d="M139.58,125.87s0-.07,0-.05c-.17-.09-.69-.57-.88-.67-1.51-.84-2.75-2.32-4.23-2.43,2.65,1.9,7,4.4,9.92,6.23,0,0-.41.28-.38.3.2.12.64.12.84.24,3,2,5.72,3.26,7.14,4.09-.14,0-.12.88-.47.82l-1.75-1.13c.05.14-.92-.51-.64-.28a.46.46,0,0,0-.07.48c1.13.68,3,.91,4.05,1.47-.1,0-1,.43-1.1.43.93.55,3.86,1.68,6.45,3l.73.38c.42.23.79.36,1.17.54A42,42,0,0,0,166,141.9l1.39,1c.17.08.34.21.52.28,0,0,.64.85.62.83.52.24.27-.16.68,0-3-1.79-2.86-2.58,1.45-.36-1.5-1-1.56-.93-2.56-1.58-.06-.08-2-.86-2-.95s1.24.85,1.29.86a31.8,31.8,0,0,0,4.54,2.63c.83.43.26-.74.56-.72,1.28.57,2.16,1.11,1.52.68.1,0,.46.77.57.82,1.05.47,1.65.15,2.59.58,1.84.84,9.16,4,9.78,3.87-2.24-1.31-5.35-2.85-7.83-4.06s-4.6-2.05-6.8-3c-2.52-1-8.51-3-9.9-5.23-2.2-1.13-3.88-2.53-4-1.71-2.79-1.65-7.06-4.48-8.55-4.56-2.59-1.81-3.22-1.59-5.48-2.68-.86-.51-1.82-1.59-2.24-1.82-.75-.4-1.59-1.08-2.35-1.45C139.49,125.17,139.75,126,139.58,125.87Z"/><path class="cls-15" d="M164.29,125.84c-2.81-2.46-1.87-2.12-7-4.82-4.39-2.28-4.43-1.67-7.31-2.56-2.36-.73-6.32-3.12-6.89-2.3s3,2.4,4.63,3.7c0,.11-2.08-1.07-2.07-1-.67-.35-1.86-.43-2.4-.7.59.47,1.45,1.25,2,1.74.15.42,3.51,2.7,3.82,3.18a56.11,56.11,0,0,1-4.82-2.88c.16,1.06,1.36,1.75,3.64,3.24a2.76,2.76,0,0,0-.65,0c.35.2,1.49.86,1.74,1s-.66-.44-.44-.27.79.42,1.05.64c.42.57.51,1.06,2.93,2.48,1,.62,2.18.62,3.26,1.08,2.55,1.85-.57,1.24,2.82,3.09,8.74,5.14,5.26.89,4.37-.05,5.27,3.69,10.26,6.9,14,7.95a14.45,14.45,0,0,0,4,1c1.78.38,7.5,2.38,7.36,1.54-3.22-2-3.81-1.31-6-2.2,0,0-.68-1.21-.7-1.22l-.11.23c-.32-.15-.67-.41-1-.56a5.78,5.78,0,0,0-2.68-.71c-.39-.17-1.26-.27-1.66-.45-2.28-1.48-6.14-4.4-7.05-4.25a12.74,12.74,0,0,1-2.76-1.8c.52-.05,5,2.26,5.16,2.36-.21-.15,1,.29,0-.84.79.43-.32-.28-.06-.16.43.27.89.69,1.37,1a30.65,30.65,0,0,0,4,2.6c.95.63,3,1.86,3,1.86,0-.24-1.51-1.74-.7-1.3,0-.06.11.33,0,.23,1.19.32,1.83.46.56-.61-1.72-1.45-7.39-3.26-9.24-5-.06-.12,1.33.37,1.23.23.77.17,3.74,2.15,3.56,1.38,0,0-2.74-3.47-3.1-3.72C169.29,127.07,164.82,125.29,164.29,125.84Z"/><path class="cls-15" d="M128.74,113.69s0-.16.07-.17c-1.65-1-3.39-1.72-5-2.63.08,0,.24-.19.32-.16-.47-.26-1.94-1.44-3.73-2.73,0,0-1.36-.4-1.37-.42-2.54-2.45,1.59,0,4.18.92-1.67-1.6-3.83-2.18-6-3.57-1.61-1-3.37-2.34-5.17-3.51,0-.1.61-.4.72-.41,5.27,3,5.74,3.71,5.67,3.19.39-.15,3.06,1.29,2.64.72,2.41,1.26,3.62,1.35,3.72.87,3.93,1,6.47.1,3-1.66a17.24,17.24,0,0,1,2.55,1,1.25,1.25,0,0,0,.36.53c.31.31-.13.65,1.51,1.45-.17-.14-1.66-1.65-1.77-1.75,1.48.57,4.26,1.39,1.76-.46-1.33-.61-4.59-2.34-7.3-4-1.65-1.06-3.27-1.78-4.39-2.64-.19-.18-1.9-1.18-2-1.32.33.09,1.67.74,1.15.44,0,0,.78.08.79.06A18.34,18.34,0,0,0,122.36,99c1.71,1.23,2.61,2.08,1.85.66-.59-1.1-4.6-3.87-7.13-5-.19-.14,1.3.51,1.11.37a19,19,0,0,0-3.31-2.61c-.09-.09.18.94.1.87.78.34.53-.55,1.23-.24.5.23,2.26,1,3,1.41,4.29,2.71,8.75,7.35,11.7,9.4.08-.79-.25-1.12,1-.11a22.56,22.56,0,0,0-1.08-3.71c.17.26-.07.59.87,1.32a11.69,11.69,0,0,0,1.46,1.27s1.66.08,1.67.07c1.19.88,3,2.13,4.09,2.91a6.37,6.37,0,0,0-1.68-.28c-1-.18.47.84-.54.74a22.68,22.68,0,0,0,2.08,1.35,20.27,20.27,0,0,0,2.45,1c-.43.61-4.33-2.64,0,1.09.21.2-.08.29.17.48.1.09-.14.19,0,.28l1.07.12a42.51,42.51,0,0,0,4.63,2.44c.2-.28-1.3-1.47-2.08-2.24,1.22.49,3.75,1.82,4.72,2.29a37.55,37.55,0,0,1,3.79,2c.84-.1.44-1.17-1.56-2.48,0,0,.71,1,.76.93a19.78,19.78,0,0,1,3.12,1.52c1.41.9,3.28,1.82,4.09,2.23,0,0-.71-.09-.74-.13,1.37.87,3.3,1.53,5,2.7,1-.35-2.24-2.15-2.17-2.2,3.39,1.57,2.9-.12,3.34.06,0,.05-3.71-2.38-4.82-3,5.66,2.71-1.06-2.23-2.32-3,1.4.48,3.69,1.72,1,0,4.08,1.57,3.52.6,5.18,1,0,.09.46.22.35.24,2.18,1.65,5.29,3.86,3.89,1.8.79.32.38.26,1,.62-.21,0,1.4.85,2.09,1.37-.72.59,4.66,3.15,7,4.48a4.6,4.6,0,0,0-.85-1.52c1.67,1.08,3,2.47,4.66,3.49,1.34.07,3.7,2.6,5.58,3.71,2.83,1.65,3.74,1.43,6.37,2.45.38.63.7,1.24.39,1.5,3.07,2.07,2.27,1,3.76,1.4,1.26.36,4.76,2.33,5.65,2.25-.64-.43-3.7-2.25-4.35-2.68a2.1,2.1,0,0,1,.51.18c-.43-.47.27-.44.28-.7a8.06,8.06,0,0,1,3.1,3.07c1.18.38.91-.36.24-1a58.32,58.32,0,0,1,5.73,3.5c.7-.14-5.2-3.7,0-1.2,6.66,6.57,2.56,1.36-1.07-2.36,1.53.86,3.49,2,5.08,3,0-.35.39-.53-.09-1.15.63.4,3.31,1.68,3.93,2.07-1-1-7.16-5.33-4.39-4.33s4.21,3.19,5.92,4.51c.25-.58,2.74.28,3.39.15,1.87,1.36,3.93,3.27,5,3.28-3.44-2.21-3.53-3.26-5.56-5.2-.07-.06.17.38.1.31.49,0-.18-.83,1.58-.08-.59-.52,0-.81-1.82-2.4.36-.27-1.77-1.64-1.89-1.93-.31-.78-3.23-2.31-.68-1.67,1.23.31,3.67,2.12,4.19,1.72.91-.73-9.76-4.87-11.81-6.26,0-.49-1.22-2.36-3.62-3.73,0,0,.19.4.1.28-.35-.21.21.27.29.35s-1.24-1-1.31-1c-.28-.16-.74.08-1,0-.78-.64-.67-1.45-1-1.67,2.62,1.61-1.13-.72-1.13-.74,1,.78-.72-.14-2.32-.75.11-.44-.21-1.58.11-.73a34.46,34.46,0,0,1-6.92-3.1l1.34-.23c-2.57-1.73-.58-1.31-3-3a7.06,7.06,0,0,0-4.86-1.34c-4.16-2.85-7.7-5.34-10.54-5.8,1.49.05-1.12-2.42-.26-3.12a19.39,19.39,0,0,0-6.25-3.18c3.34,3.23,2.73,3.3.85,3-.09-.12-.19,0-.26-.1-1.59-.91-.56-.22-.84.06l-3.34-1.93c-.72-.72-.33-.94-.1-1.21a64.71,64.71,0,0,0-7.95-4.14c1.92,1.26,3.68,2.73,2.5,2.54a12,12,0,0,1,3.77,2.77c-1.15,0-4.13-1.41-5.09-1.18-2.85-1.71,5.76.43-5.32-3.86-.06-.51-.88-1-1.48-1.59.31.07,1.47.72,1.9.87,2.07,1.27,3,1.63,2.73.81a9.1,9.1,0,0,1-2.5-2c.62.25,1.74,1.17,2.43,1.39,1.25.56,2.15.79,3.47,1.35.33.2.36-.07.69.13,0-.05-.9-1-.83-1,.38.16,1.51,1.16,1.88,1.31a5.21,5.21,0,0,0,3,1.2c.13.38,1.59.85,1.33.54.18.07-.45-.3-.27-.23,1.2.82,1,1.08,2.19,1.9-.28-.43,2.27.59,1.66,0-.15-.25-2.16-1.23-2.31-1.45,2.62,1,5.13,2,5.32,1.67.54.3-1-.79-.45-.44.64-.46,4.22,1.6,4.62,1a7.46,7.46,0,0,1-3.15-1.51c.09-.05.6.45.64.35-1.2-.42-2.26-1.49-3.39-2l-1.78-1.64c1.26.46,2.78.91,2.61.38-1.24-.66-2.83-1.71-3.41-1.94a5.75,5.75,0,0,1,.64.55c-.3-.37-1.76-1.22-2.48-1.82a6.64,6.64,0,0,1-2.38-.78c.13-.19-1.54-1.61-2.63-2,.34.11,1.71,1.11,2.33,1.33,0,0-.81-.29-.8-.26s1.31.88,1.19.67-.51-.49-.7-.59c.23.08,1,.56,1.18.64-.1-.44-2.09-1.85-3.79-2.63-.36-.39.74.66.78.56s-.43-.25-.25-.22-.92-1-.56-.83c-.07-.1-.71-.49-.75-.57.6.1,1.77.28,2.31.31.56.42,2.16,1.61.82.76.15,0,1,.42,1.13.4.73.34,0-.63.89-.08a6.54,6.54,0,0,0,.7-.55c.34.15,2.44,1.06,2.71,1.15,2.39,1.73,3.12,3.54,5.68,5.3a6.84,6.84,0,0,0-.72-3.09c.05,0,1.37.56,1.42.59.55.57-.7.62.4,1.6,0,.12.72.48.9.66,0,.33,0,.54,1.75,1.83-4.17-2-.57.69.36,1.75s-.42,1.08,3.49,3c-.3-.4,0-.58-.6-1.16,1.47.83,1.56,1,3,1.76.22,1,4.65,2.9,4.64,2.12,0-1.16-2-1.6,1-1.2a9.79,9.79,0,0,1,5.56,1.6c4,2.29,1.74,1.93,2.9,3.41,5.38,2.68,3.69,2.49,5.75,4.68.37.39,1.7,1.3,2.2,1.78s1.08,1,1.91,1.73c1.57,1.31,1.92,1.11,2.76,1l2.63,1.62c.11.72,2.2,2,3.41,2.14a50.8,50.8,0,0,1,4.58,3.28,13.12,13.12,0,0,0,2.91,2.07c-.43-1.18-2.09-2.52-5.17-4.66-1.4-1.06-3.86-3.12-3.88-3.15,1.2.6,2.36,1.5,2.51,1.27a18.49,18.49,0,0,0,4,2.5c.21.19,1.43,2,1.52,2-.19-.09,3.42,1.36,3.35,1.31,3.28,1.81.91,0,1.48.32,0,.16,4.21,2.56,5.57,3.87a9.9,9.9,0,0,0,1,1.48c0,.06-1.29-.45-1.36-.42.11,0,.12.08.22.1.3.34.15-.21.34,0-.61-.33.06.41-.55,0,1.84,1.35,2.08,1.27,2.46,1,0,0,.73,0,.77.07a1.36,1.36,0,0,1-.7-.1c.06,0-.81-.59-.78-.66,0,.35,2.39,1.84,3.77,2.71,2.3,1.46,1.08.5,1.31.11.31.25,1.67,1.18,2,1.42,3.11.18,8.55,4.66,12.9,6.66-.94-.81-6.9-4.79-5.33-4.39,0,.1.56.51.59.63a6.33,6.33,0,0,0,1.66.5c2.35,1.54,7.7,5.33,7.45,4-.3-.22-1.91-.71-2.26-.93-.33,0-2.12-1.73-2.48-1.76-.38-.42-2-.77-2.76-1.3,0-.06,1.11-.29,1-.4s-.73.21-.86.15c-.95-.65-1.28-1.28-2.25-1.94-1.13-.87-4.45-2.88-1.55-1.9-.19-.2,7,4.62,7.52,5.1-.09-.4.58-.14.47-.55.88.71,4.55,3.29,5.53,3.93-.42-.59-.48-.73,1.33.47,1.11,0-1.86-4.2-.25-2.8.12-1.4-5.27-1.77-5.32-1.52-3.75-2.23,1.51-1.67,2.15-1.33-.05-.16-.9-.55-1-.72,0-.37.51.3-.48-.46,0,.06.43,0,.41,0-.75-.7-2.06-2-2.88-2.73,1.78,1,3.11,1.9,4.88,2.93-1.28-1.11-.9-.88-.27-1.1,2.46,1.37,4.75,3.23,5.74,3s-3.34-2.54-5-3.68c-.31-.21.42.32-.07,0,1.07.57.91-.21.79-1,.7.36,2.15,1.21,2.82,1.65.05.14.78.08.85.23,1.68,1,4.18,2.55,3.33,1.38a18.74,18.74,0,0,0-4.08-2.7c-.38-.46-1.32-1.12-2.18-1.89-.49-.95-3.84-3.17-7.42-5.24-3.51-2.31-7.47-4.55-9-5.52a8.82,8.82,0,0,1-.61-.76c3.43,1.64,10.07,6.77,12.55,7.3a68.46,68.46,0,0,1-6.91-4.6c-1.92-1.7-.34-.71,2.13.86,1.38-1-4.13-2.81-5.71-3.88-.29-.19-.42.18-.6-.08,1.71.65,3.71,1.07,3.68.33a48.1,48.1,0,0,0-5.64-3c-1.11-.85-4.39-2.22-5.3-3,.81.37,2.57,1.47,3.74,2.12.11,0,.81.48,1,.55s-.59-1-.35-.88c0-.05.35.23.31.18,1.19.45,2.53,1.09,2.5.66-.05-.78-4.61-3.19-4.84-2.61-.23-.12.64.51.69.56-.64-.43-.55-.93-1.19-1.5-.16,0-.39.92-.54,1a49.27,49.27,0,0,1-4.68-3s.49.16.53.16c.79.53,1.06.32,2.07.69,0-.14,2,1.32,1.94,1.18.57.27,1.62.65,2.21,1-.23-.46-.43-.87.21-.86.33.14-.17,0,.06.13s-.71-.65-.56-.55c2.38,2.21,6.94,5,10.84,7.62,1.2,1.1,2.78,1.82,6.59,4-.34.33-1,1,.62,2.22,2.24.47,5.82,3,8,4.75,0,0,.34,0,.35,0-1.5-.37,1.84,2,1.77,2.42-.1.05-.07.43-.21.46-1.24-.16-5.69-3.42-4.44-1.78-.56-.33-3.27-1.66-3.85-2,1.61,2.35,7.3,4.52,10.73,6.65s4.8,2.37,5.21,3.42c.22.59-2.29.45,1,2.27,1.23.09.58-1.13.69-1.67.4.17-.12.22.06.31s-.92-1-.88-1c-2.15.8,9.3,6.84,7,3.39-.42-.63-4.42-4-2.76-3.5,2.37.76,4.37,3.85,5.05,4.63,0-.27.95-.18.95-.44.15.15.84,1,1.19,1.36.1-.12.66.15.79,0,2.8,1.68,1.55,1.71,3,3.06,1.29,1.19,6.51,4.1,7.92,5.33-1.42-1.49-2.87-2.94-4.83-4.7-1.49-1.34-4.26-2.68-5.37-3.92-2.13-2.4-2.57-4-6.6-6.91.41.2.13.18.54.39.12-.37-1.22-1.23-2-2-2.14-2.32-6.43-5.82-10.37-9.12-.55-.58-.61-1.08-1.22-1.68-1.6-1.56-3.82-2.56-5.45-3.83-.7-.57.16-.75-.33-1.15s-2.2-1.19-2.6-1.58l2.46.9c-.07-.07-.85-.41-.92-.48s.17-.13,0-.3c-1.26-1.26-8.32-6.8-10-6.81-1.34-1-4.1-2.27-5-3.26.26.11,2.23.55,2.61.74l1.11.61c.3.22.43,1.26.76,1.47-1-.49-2.6-1.71.31-.11.08-.08,1.89.91,1.74.78.13.07-2.95-1.35-2.81-1.27-.45-.44-.37-.64-1.12-1.22.09,0,1.23.15,1.22.07-1.2-.81-3.25-1.81-4.81-2.79a41.7,41.7,0,0,0-5.17-3.12s-1.57-1-1.58-.76l3,1.7s-2.68-1.28-2.67-1.25c3.08,3.13,4.81,5.13.27,2.17-.49-.19-1.23-1.18-2.94-2.5a29.22,29.22,0,0,0-3.45-2.44c-.26-.19-.61-.24-.87-.43.09.09-1.23-.59-1.15-.5l2.18.8c-1.28-1-2.52-1.23-1.95-.51A69.33,69.33,0,0,1,229.63,96a31.53,31.53,0,0,1,3.82,1.58c1.78.75,4.85,2.33,7,3.37-.86-.6-1.28-.62-2.18-1.28,4.67,2.94,5.95,2.51,11,5.81-.64-.55-2.53-1.49-3.68-2.39.11,0,1.73.35,1.84.38-.3-.17-2.17-.55-2.44-.73-3.72-2.86-8-6.61-10.78-8.39,0,0,.4.69.26.68s-6-3.61-5.5-3.75c2.42,1.4,1.34,1.2,2.81,2,.06-.15-.25-.7-.89-1.24l-1.75-.54c-3-2.72-10.52-7.5-15.2-10.56-.86-.57-3.14-3.16-3.93-3.55-.09,0,.18.63.1.59-1.78-1.15-3-1.88-3.45-2.18.05.35-1.11-.61-3.08-2.11.41.18-.5,0-.11.11A13.29,13.29,0,0,0,205,75c-.45-.28-.26-.81-.68-1.06.13,0,1.07.76,1.21.82-.74-1-4.65-3.35-6.47-4.13-.61-.39-.4-.24-.86-.53-1.77-1.21-4.44-2.34-6.42-3.59-1.71-1.09-6.51-4.32-3-1.43-.25-.12-1-.17-1.38-.38s-.7-.57-1.11-.84c.13.12-.09-.23.05-.09-.67-.33-1.05-.48-1.81-.88-2.74-1.74-5.1-3.36-3.65-2.22a13.34,13.34,0,0,1-1.32-.84c-1.16-.73-4-1.59-6.76-2.87-.39-.22-1.05-1-1.45-1.24s-.69-.14-1-.31a40,40,0,0,1-4.41-2.67c-.5-.39-1-.6-1-.85-1.64-1-3.16-1.08-4.71-1.94A10.76,10.76,0,0,0,159,49c-.8-.5-1-1.14-1.83-1.66-2.84-1.74-5.66-2.76-8.88-4.32.48.31,1.38.56,1.79.86-.33.12-2-.91.32.65.24.21,1.29,1.21,1.48,1.39a78.71,78.71,0,0,1-8.52-5.06s1.2.45,1.18.41.26-.31.29-.31-1.93-.32-2-.37.51-.06.06-.28c-.29-.19-.83-1-1.32-1.29,0,0,.1.26.38.44-3.21-1.48-10.73-4.54-16.79-7.11l.64.14c-2-1.12-5-3.2-4.5-1.65.52.32-1.29-1-.8-.69-1.21-.55-2,.08-2.83-.39,1.82,1.1,6,2.41,8.11,3.84,0,.18-1.1-.13-1.23-.12s-.44-.31-.56-.32c-1.59-.68-3.47-2-4.72-2.2.16.12-.46-.07-.32.06-.45-.25-1.95-.95-2-1,.19.11.49-.11.82.07s1.52,1.36,1.83,1.64l-5-2.68a8.38,8.38,0,0,1-.36-.86,11.82,11.82,0,0,0,1.38.49c-2.75-1.5-4-2.5-4.72-2.89-.15,0-2.11-1.2-2.27-1.24.07.06,2.17,1.56,2.16,1.57-1-.45-2-.77-3-1.21s-4.75-1.83-6.06-2.29c2.76,1.64,6.16,2.69,9.08,4.52.23.17.36.32.66.55-.9-.28,1,.8.53.73,1.46.84,1.33,1.06,2.75,1.83-1-.2-3.22-1.4-4.45-1.78.87.92,2.9,2.28,2.83,2.57-3.61-3.05-7-.71-8-4-1.2-.33-8-1.09-8.63-3.41-.27-.94,4.44,1.06-.1-1.95a45.91,45.91,0,0,0-5.19-2.62c-2-1.16-4.2-1.6-6.63-2.82A85.92,85.92,0,0,0,73.57,11c-2.13-.8-6.32-3.16-8-3.73s-1.48.3-3.15-.2c.9.41,2,.92,3,1.42,0,.2-1.74-.76-2-.78s-.43-.09-.43,0a22.44,22.44,0,0,0-4.21-.67A43.48,43.48,0,0,0,65,10c.08.68,1.94,2,3.72,2.61,1.29,1.44-1.5.16-1.92.49-.27.2,1.33,1.48,1.28,1.83.64.09.72.39,1.85.83a27,27,0,0,0,2.75,1.89c1,.34-.64-1.67.09-1.42,4.83,1.63,5.27,3.15,4.77,4,3,1.82,1.53-2,5.51-.3,7.14,3.05,4.51,3.74,5.45,5.17-.13.28-.91.09-.92.27-.26,0-.19.3-.53.18,1.1.73,1.32.4,2.46.89,0,0,1.13.8,1.19.81s-1.23-.08-1.2,0a21,21,0,0,0,2.6.78c.08.06.37.34.44.39.25.06,1.56,1,1.7,1.07.31.1-.11-.09.18,0,.43.25,0-.06.44.19s2.13,1.23,2.49,1.54c-1.67-.76-3.23-1.88-4.44-2.17a12.63,12.63,0,0,0,3.66,2.34c.2.18,1.69,1.15,1.83,1.33-1.74-.2-3.54-1-7.57-3-3.09-1.54-7.9-4.24-6.55-4.56-3.06-2.31-.31.19-.94.34-1.06.26-2.6-.32-5.4-1.37-1.5-.56-2.94-.76-3.78-2.17-.17-.29-1.69-1.75-1-1.56,1.82.77,3.31,1.8,3.4,1.58-.08,0,2.6,1.74,2.53,1.7.17.05-1.57-1-1.46-1A15,15,0,0,0,72,20.12C71.59,20,70.21,19,69.83,18.9s-.08.61-.55.42c-.82-.47-1.87-1.43-2.58-1.72.12,0,.58.34.68.33a6.35,6.35,0,0,0-1.84-1c-1.47-.76-1.83-.63-2.15-.37-.59-.16.36.29.87.69l-.77-.56c-.9-.57-1.11,0-2-.52.59,1-.68.76-.78,1.27-.51.23.41,1.37.05,1.7-.2,0-2-.92-2.2-.92-1.91,0-5,0-2.59,2.53-.15-.61-.35-.39,1.2.45,0,.2.59.35.63.45a15.55,15.55,0,0,1,2.55,1.71c1.07.93,2.94,2.54,3.49,3.12.91.22-.28-1.51-1.08-2.37,3.56,1.55,5.59,4.69,8,6.54a76.63,76.63,0,0,0,9.94,5.78c.93-.68-2.21-3.15,3.8-.16-.92-.87.56,0,1.34,0s1.7.1,2.26.26c-.19.17-.6,2-.15,2.39,1.81,1.37,3.31,1.48,3.22,1l.37.2c0-.2,1.33.33,1.17.26s-.83-.22-1-.44c1.66.92,3.35,2.11,4.67,2.74.5.23.83-.08,1-.07,3.84,2.17,7.5,4.55,9.91,5.32,0,0-.29-.82-.27-.78,2.1,1.34,2.48,1.55,2.23.85,0,0-.31-.62-.29-.61,2.49,1.23,4.6,2.74,4.5,1.89-2.53-1.6-2.47-1.56-4-2.64-.22-.17-1.86-.54-2.08-.71s.14-.18,0-.28c-1.86-1.58.82-.48-2.4-2.16-1.56-.81-2.44-1.84-3.24-2.12-1-.55-1.67-1-3-1.74a17.1,17.1,0,0,0-2.11-1.3c-.39-.22-.79.15-1.14.05C90.15,35.23,85,32.28,90.38,35c1,.85,2.48,1,4.25,1.67.37.31.77.69,1.26.58,0,0,.15,0,.1-.07,1.15.42,1.8.27,2.84.59.14.12.14.19.23.16,1.81.56,5.49,2.1,5.65,2.18,4.83,3.88,8.38,1.14,16.1,6.52-.45.49-4.6-.93-.89,1.26.15,0,1.65,1.08,1.81,1.12.78,1.5,5.7,3.41,9.14,4.85,3.13,2.72,3.67,2,6,2.74a39.28,39.28,0,0,0-4.7-2.19,9.63,9.63,0,0,1-1.08-.41,8.64,8.64,0,0,0-.28-.93c2,1.18,4.35,1.92,4.53,1.53-1.39-.89-4.17-2-5.5-2.73-.1-.07-.49-.52-.58-.58.68.11,3.85,1.65,4,1.53.48-.34-3.45-2.26-4.46-2.48-.81-1.5,4.54,1.62,6.54,2.2,1.12.32-.68-1.73.56-1.38.94.26,3.83,1.92,4.94,2.29,1.36.46,3.53,1.18,5.16,1.77.46.2.79.46,1.25.68,1.43.75,1.18.46,1.47.83-.46-.2.06.25,0,.26.42.21.47.21.74.35.12.32-1.46-.4-2.33-.65.62.39,1.74.76,2.38,1.11.16-.09,1.67.37,1.81.27,2.1,1.36,2,2.3,1.83,2.77,3.26,2,3.47,1.26,3.64.72l-2.15-1.39c.12,0,1.85,1.09,1.83,1,.26-.11-1.07-.71-1.62-1.47-.26-.35-.13-.45-.64-.85a13.83,13.83,0,0,1-1.76-.91s1.89.45,1.85.4c-.45-.59-1.45-2.43-.35-2.06,3.41,1.18,2.44,2.19,3.51,3.11,2.87.67.95-.68,2.75-.22,1.14.51,1.24-.2,2.29.28,1.18.84.82,2.13,2.77,3.39,1.14.26,1-.68,1.13-1.09,1.08.53,2.84,1.22,3.29,1.49.16,1.63-1.34.06,0,.39a5,5,0,0,0,.63.45c.26,0,.48.14.63,0a6.48,6.48,0,0,1,.83.42c-3.06-1.32-.89.44-2,.49.84.39,8.77,4.68,10.24,5.72a44.14,44.14,0,0,0-5.4-1.72c-.45-.23,5.24,4.21,6.56,5-7.11-3.53-7-3.78-15.24-8.46-4.86-4.08-12.55-2.18-8.74.12,3.08,1.59,1.68-.9,1.07-1.61A26,26,0,0,0,162,65.53c.13.39-.42.76.42.71,2.12,1.37-2.69.07,3,2.13.77-.66-.83-.94.9-1a11.46,11.46,0,0,1,2.67,3.3c.45.21,11.34,4.85,7,3.88,1.19.83,8.75,3.63,9.45,4-8.1-3.51,3.67,3.87,5.6,4.82-.42-.16-1.23-.88-1.58-1-.12-.07,0,.17-.08.11s1.09,1.15,1.11,1.18a55.5,55.5,0,0,1-7-3.11c.4,1.41,4.65,4.06,4.77,4.76-1.59-.87-2-1.08-1.75-1.17l2.43,1.39c0,.18-2.69-.85-3.46-1,1.8,1.07,2.35,1.47.82.72,6.28,4.14-2.84-3.85,7,3.58-3.81-2.6-.36-.35.77.45-3.31-1.83-8.34-4.41-5.55-2.17A19.13,19.13,0,0,1,184,85.4c-6-1.17-.61.25,5.68,4,0,.38-.24.37.72.43-.26-.35,1.2-.1,1-.32a24.19,24.19,0,0,1,5.66,5.38c-3.44-2.15-17.24-10.41-18.84-10.81-3.47-2.35-3.59-2.63-4.94-3.53-3.18-1.25,7,6.2,8.95,6.39-.34-.36-3.92-2.36-4.17-2.53,0-.06,1.54-.2,1.45-.45a64.48,64.48,0,0,1,8.33,6.39c-3.6-1.45-3.68-3.09-5.95-3.29-1.48-.93,7.69,5.06,11.3,7.27-3.54-1.76-8.4-4.74-9-5.4.11.25,1.13,1.22,1.48,1.67-.74-.08-9.51-6.79-9-5.63-.77-.48,3.22,3.08,5.54,5.23-.07,0,2.49,1,2.41,1,.12.16-1.43-.38-1.12-.2.73.7,2,1.39,1.9,1.54-9.1-5.48-.27-.37-5.35-3.71,0,.75-1.53-.68-2.83-1.35,2.54,2.59-3.66-1.09-2.84-.13,2.29,1.56,8.27,4.8,8.71,6.31-.12,0,1.11.78,1.29.91,0,.13-.1-.19-.24-.11-1-.77-8.8-6.61-10.54-6.77-.23-.6-.83-1.13-.33-1.08-.65-.22,1.07.91,1,1.1-.1-.09-2.83-1.64-2.95-1.74s1.61.51,1.68.44c-.46-.22-1.33-.43-1.62-.59s-1.78-1.18-2.06-1.39c0-.3,3.61.75,4.11.76-1.52-.78-5.24-2.67-6-2.55s1.05,1.57.73,2c-.22-.08,1.69,1.24,1.4,1.09,0,.13-2.47-1.44-2.66-1.4-.26-.14.31.13.08,0s-1-.07-1.18-.2c-1.35-.9-1.13-1.54-1.2-2-.42-.11-1.32,0-1.8-.13-.16-.11.23-.61,0-.78-.26-.35-3.26-2.06-3.79-2.48,2.41.26-2.3-2.1-6.6-4l1.2.65c.46-2-12-7.53-12.1-8,1.33.49,1.36.07,1.33-.4a37.3,37.3,0,0,1-4.18-1.69c.25-.16.17-1.41.32-1.59a27.83,27.83,0,0,1,2.79,1.77c1.42,0,2,.68-1.23-.82.76.36.78,0,1.23.09.92.51,1.37.26,2.19.83.23.25-.13.32.12.33.07,0,2.27,1.3,2.27,1.33-.22.83.49,3,.57,2.43a7.3,7.3,0,0,0,2.27.52c3.38,1.75,7.16,4,8.87,3.92a43.66,43.66,0,0,1-3.81-2.23c1.55.17,1.06-.56,3.64.4a18.54,18.54,0,0,0-6.48-4.3c-1.62-.75-.39,1.24-2.78-.62.08-.06-2-1.39-2.06-1.51a7.69,7.69,0,0,1,1.58,1.12c.08,0,.27-.06.56-.2-1.09-.6-2-1.66-3.35-2.4.27.08.57.81.7.8.92,0,1.93.4,2-.12-3.79-2.29-4.17-1.2-8.2-3.63.24.63-1.2-.33-2.43-.81-.42-.22.55,1,.42.93-.3-.14-1.83-1.75-2.11-1.88a9.63,9.63,0,0,0-1.93-.68c-.08,0,.38.87.31.84-2.07-1.17-4.5-2.77-5.78-3.14.92.64,2.33,1.25,3.4,1.94,0,0-.23.55-.26.56-1.36-.56-2.18-.92-2.62-.73.17.16.18.36.43.55-.54-.22-1.36-.77-1.88-1A44.82,44.82,0,0,0,132.76,61c.15.85-2.72,0-5.53-1.66A8.16,8.16,0,0,0,129,60.81c.73.28.48.47,1,.71-1.29.52.73,2.21,3.93,4.46-.9-.45-10.65-4.3-3.59-.57,0-.16-1.46-.85-1.56-1.06.27.15,1.37,1.12,1.66,1.37a5.19,5.19,0,0,0,.73.53c1.79,1.74,4.24,4.66,6,4.07.21-.07-1-1.08-1.14-1.3a21.77,21.77,0,0,1,3.32.39c-.35,0,.4.87,1,.61a3.46,3.46,0,0,1,.6.2c2.22,1.43,1.38,1.48.79,1.38,1,.58,3.07,1.58,4.47,2.32.53.37,1.76,1.15,2.19,1.46a5.21,5.21,0,0,1-2-.33c.86.74,1.72.83,2.31,1.39,2.35,1.4,2,.08,2.54-.36.11.06,1.15,1.24,1.28,1.33s1.29.86,1.45,1c0,0,.09-.39,0-.4-.39-.15.48.89-.12.57.3.21-.67-.61-.43-.44-1.1-.3-.58.23.29,1.25.48.32-.77-.11-.06.33-.42,0,1.16,1,.6.94-2.51-.26-1.15,0,2.73,2.71-.79.1-5.43-2.49-7.44-3.41,1.13,1,6.4,4,8.74,5.44-.16,0-.27,0-.48-.07-.93-.31-1.22,0-1.67,0-3.09-.92-9.44-3.74-9.89-3.91.58.4.72,2.27.31,2,.51-.91-4.11-.54-2,.66.66.22,1.74.51.87-.06.27.07,3.22,2.87,3,3.05-.29-.28-1.4-.86-2.06-1.32-1.32,0,.21,1.07,1.57,1.93-1.19-.7-1.79-1.06-2.24-.53,5.56,3.39,7,6,12.58,9.44.19-.24,2.23.66,3.27,1.39-2.35-.18.91,1.63,4.22,3,.16.08,0-.18.11-.15,1.52.57,4.46,1.87,4.22,1.22,0,0,.54.4.49.32.14-.07.07-.54-.09-1L167,99.72a14.4,14.4,0,0,0,2.61,1.61c.06,0,2.65,1.76,3.71,2.23-1.87-.43-6.88-1.89-8.63-1.27-.21,0,.92.67.75.66-1.07-.64-3.17-2.15-4.14-2.6-3.36-1.56-.48.61-.29.87.4.54,2.86,2.1,2.89,2.44-.2-.08-.42-.17-.2.19l.31.23c-.06.33-1.67-.23-1.81.08a1.48,1.48,0,0,1-.66.09c-.11-.49-1.09-.69-2.34-1,.67-.18-3.07-2.39-4.6-3.74.33.19,2,.82,2.17.9,1.67,1.22,3.71,1.8,3.15.6-1.32-.7-4.28-2.63-6.58-3.67-2.21-1.86,1.77.07,1.75,0-1.29-.68-3-3.23-3.09-3.3a53.37,53.37,0,0,1-7.05-2.6c-.7-1.2-12.2-6.87-11.85-6.39-.17-.76-.48-.53.21-1-3.15-1.94-1.35-.27-3.31-2,.14-.07-2.07-.9-2.51-1.25-1-.83-3.92-2.78-5.36-3.65.6.78,3,2.76,3.45,3.51-3.08-1.67-4.12-2.41-5.88-2.84A36.07,36.07,0,0,0,116,76.1c-.44,0,.32.91,0,1-1.57-.94-2-1.48-3.41-1.63-1-.11-.37,1-3.52-.59-.13,0-.21-.19-.46-.26-4.18-2.44-5.37-2.28-1.49.25.64.42,1.58,1.75,3.11,2.49-.63-.24-2.61-1.29-3.47-1.72,1.79,1.16,5.62,3.2,6.74,4.24-1.41-.84-8.25-5.31-10.88-6.58s-5.45-1.61-2.08.85a47.38,47.38,0,0,0,4.72,2.51,5.61,5.61,0,0,0,.85.82s-.17-.22-.17-.24c.32.17-.1.05.14.21s-.59-.15-.4,0,3.71,2.31,3.53,2.54c-.57-.27-3.31-2-3.78-2.17.64,1.08,3.82,3.06,5.68,4.07.47.25.78.11,1.47.48,3.48,2.75,6,5.06,7.74,6.22,3.5,3.44-11.55-4.28-3.32,1.92-1.66-.61-4.71-1.33-6.72-2.25,3.79,2.62,5.14,1.72,7.5,4.11A12.54,12.54,0,0,0,114.45,91c.26.15,1.35.93,2.84,2,.09.16-.51-.28-.24,0-.47-.28.31-.13-.48-.65a4.58,4.58,0,0,0-2.23-.92A15.71,15.71,0,0,0,110,89c-.39-.07-1.46-.46-1.39-.23q-7.12-4.07-12.92-7.59c-.47-.33-.47-.63-1-1-1.67-1.26-5.56-4.58-5.61-3.54,0,.19-.76-.1-.15.4-.49.56-.32,1.5-2.6.46-2.53-1.55-4.9-4.2-7.79-5.79-.45.17,2.35,2,3.54,2.83.06.07-.65.23-.6.29-2-1-4.29-1.87-6.52-2.88a20.59,20.59,0,0,0,5.57,4c1.86,1.14,4.29,2.66,4.74,3-1.86-1-6.95-4.45-6.93-3.42,2.08,1.49,6.36,4.78,9.8,7.65-.33,0-.88-.7-1.21-.82a6.4,6.4,0,0,0-1.47-.24c-1.25-.22-.91.46,1.2,1.88C88.22,85,91.42,86,93.75,87.23a24.64,24.64,0,0,1,2.18,2.33,44.22,44.22,0,0,0-4.34-2.15c.47.44,1.74,1.36,2.2,1.83.54.68.14,1.25,1.84,2.55,0,.13.89.41.77.3a19.78,19.78,0,0,0,5.2,3.11c1.72,1.19,3.38,2.81,5.26,4,.47.33.82.37,1.23.69,0-.08.43.65.34.54.29.19-1.09-.6-.81-.42a11.64,11.64,0,0,0,1.84,1.12c.65.41,1.15.39,1.79.79a5,5,0,0,1,.73.8c-1.84-.54-.06,1.25,1.52,2.11-.23,0-.61-.58-.78-.67.75.64,3.4,2.06,5.47,3.36C120.5,109.41,126.48,112.38,128.74,113.69Zm78.76,7.71.31.26c-.06,0-1-.39-1.09-.42ZM151.23,88.61s.28.13.28.14l.35.47Zm19.87,13.27.49.3a12.72,12.72,0,0,1-1.59-.66S171.08,101.91,171.1,101.88Zm-42.88-20.2a.45.45,0,0,1,0,.26A.24.24,0,0,1,128.22,81.68Z"/></g><g class="cls-14"><path class="cls-15" d="M52.73,67.8c.77,1.13,14.8,12.14,23.33,17.12C77.47,82,51.68,63.37,39.27,54.85c-1,.19,8.31,8.32,4.87,6.4A5.16,5.16,0,0,1,47.31,63a28.47,28.47,0,0,1-3.12-1.23c2,1.42,6.07,4.58,8.54,6C52.84,68,50.79,66.68,52.73,67.8Z"/><path class="cls-15" d="M78.52,85c.35-.18-2.64-2.67-4.26-3.21C81,87.85,80.9,87.2,89,92.86c-1.79-.35-4.39-1.9-4.59-1.45,1.6.83,3.16,1.6,4.7,2.31-.76-.13-1.53-.28-2.31-.43,6.38,4.57,11.76,6.12,15.76,10,5.23,3-.38-2.4-.32-1.88,4.17,1.88,16.32,10.6,22.73,12.2C112.41,104.79,88.14,91.39,78.52,85,78.51,85,78.68,85.09,78.52,85Z"/><path class="cls-15" d="M118.28,97c-3.4-4.5-25.56-15.93-19.31-9.5A28,28,0,0,0,93.81,85a41.27,41.27,0,0,1,3.31,4c-13.88-7.9,14.3,14,12.06,8.73,4.71,4.14,24.42,15.89,27.73,14.79A35.52,35.52,0,0,0,130,109l.39-.63c-3.66-.78-12-6.21-15.22-9.21-1.75-.47,10.53,5,6.49,2.8,2.27,1.77,4.17,3.48,6.62,5.34.07,0,1.4-1.07,1.91-.45q-4.51-2.79-8.71-5.67c.25-.23,8.51,4.65,5.68,2.16-.86-.76-3-5.84-8.85-6.35C116.81,95.07,119.82,97.14,118.28,97Z"/><path class="cls-15" d="M76.15,76.84c-.12,0-8-6.18-8-6.16q.6-1,5.58,2.25c-.93-1.59-13.58-8.54-7.5-6.83,12.48,8.54,15.51,5.37,23.22,9.53-.11.15-.81.56.57,1.38-2.38-2.71,5.18,1.83,2.7-.53.77.44-12.39-8-12.15-8.52A9.42,9.42,0,0,0,83.06,69a11.13,11.13,0,0,0,2.36,2.47c-.13-.08-3.89-5.48-5.14-6.41l-.93.25c9.72,5.32,4.54,3.25,12.6,10.26.17-.63.73-.49,1.7.45a12.32,12.32,0,0,0,2.84-1.4q-.84.3.54,1.74c2.83.67,2.53.89,5.58,3.51-2.14-1-3.51-1.28-4.13-1a13.42,13.42,0,0,0,4.41,2.74c-.68,0-3.29-1-2.13.49a50.43,50.43,0,0,1,13.75,7c1.71.44,1.9,0,.57-1.33-1.07-.09,10,7,10.74,7.67,1.82.36,6.32.75.43-3,5.18,3,1.57-.66,0-1.83,3.5,1.68,9.37,4.5,11.55,5.6,2,1,11.06,7.58,10.23,5.82,7.13,5.59,5,5.36,14.78,10.35-.51,1,4.64,4.71,9.37,6-4.69-4-3.83-2.13-1.77-2.48,1.4,1.24,1.8,2,1.18,2.23q1.19-1.49,6.57,3.49c8,1.88-7.36-2.35,3.14,2.13q.77-1.2-.51-3.51c6.25,4.27,5.35,1.95,9.53,5.26q-3.36-2.85-1.69-3.16,4,2.7,3.93,3.94c8.65-.12,4,3.29,9.21,4.89a16.07,16.07,0,0,1-2.73-3.81c3.79,1.07,5.68-.58,7.62-.36-3.82-.44-12.66-10-12.44-9.85-.2,0-.25.14-.16.33a3.11,3.11,0,0,0-2.44-1.36c.09.1,0-1.32.9-.6-2.37-1.83-4.88-2-3.06-2.51q1.08,1.66-7.23-4c1.71.38,3.92.66,1.24-1.57.73.61-15.75-9.11-15.94-9.18,4.33,1.36,5.55-.64-2.66-4.65,1.42,2.46-2.1.73-4,.56-5.7-4.4,3.52.15-9.31-7.25,6.41,5.12-.27,2.21-3.21,1.54.32-.33,1-.38,2.21-.14q-7.14-3.16-6.4-4.45c4.1,1.66,5.34,3.54,3.84,1,5,2.62,4.36,2.72,6.92,3.25a30.72,30.72,0,0,1,7.22,5.06c.13-.34.66-.4.73-.65,1.58.79,11.2,5.1,12.43,5.16-7.85-3.3-2.81-3.41-2.62-3.52-3.06-2-9.54-6.23-6.93-5-1-.13-.4-.33.82.53q-4.46-3.93-2.27-2c1.34.52-.77-2.43,3.2.63a45.38,45.38,0,0,1,7.59,2.86q1.11,1.92,2.57,4c-1.18-2.43.23-2.52,4.23-.24.6,1.35-5.55,2,.09,5.45,0,.48,9.62,3.82,9.69,3.86,13.16,7.54,1.85.16,12.21,8.29,6.73,5.28,5,7,15.84,14.45,1.69-1.06-5.31-5.06-4.88-6.24,4.92,3,17.13,12.36,13.84,11.68,1.82.77-.49-.27-.09,0a13.36,13.36,0,0,0,3.8,1.83c-.82-.16-1.3-.46-1.43-.9-1,.29,17,11.35,18.59,12.28q-3.06-2.44-3.13-3.63c.06-.06,8.07,6.35,9.29,5.93-.52-.49-6.33-3.88-7.12-4.59.73.16,1.42.29,2.07.38-1.66-.83-6.66-4.92-2.93-3.13,2.47,6.7,17.08,8.6,15.08,7.66a40.53,40.53,0,0,0-5.89-2.06c2.6,1.86,4.29-.92,3.5-2.1.52.35,9.37,5.87,10.69,6.17,2,.46-2.85-2.75-3.58-3.33-2.71-1.73,9.77,4.08,9.73,4.33.21-1.49-18.36-15-17.49-15.12a121.82,121.82,0,0,0,11.13,7.83q-6.15-4-5.36-4.92,3.39,3,3,1.18s-5.85-3.86-5.91-3.47c16.6,8.41-3.91-3.83-4.63-4.87,1.95,1.11,7,4.46,8.37,4.13a48.31,48.31,0,0,1-4.19-3.43c-2.13-.45-1.34,1.38-5.92-3,2.87.85,5.11,2.83,8.53,3.89-.07.15-.16,0-.27-.34,3.29,5,17.56,14.19,19.43,17.2-2.33-1-.45,3.53-9.67-3.5-.3,1.26,10.14,7.49,12.77,9.61.86.69-5.09,2.11,2.35,1.47-.36.25-.52.07-.47-.56-11.21-2.16,15,5.77,7,2.05q3.61,2.88,2.39,3.55c1.59-.45,8.78,6.4,10.7,8.94-3.07-7.35-15-19.62-18.86-26.73l2.84,1.41c-1-1.55-11.84-9.29-12.06-10.27a13.61,13.61,0,0,1,4.31,2.13c.45.41-1.15,1-1.65-.12l3.52,2c.53.38-10.67-9.26-11.7-9.08l2.76,1.87q-6.21-4-2.11.65c-.34.35-9.21-7.4-9.16-7.08,5.21,3-5.06-2.75-6.67-5,2-.16,13.1,8.71,9.28,5q5.37,3.3,10.49,6.71-5.76-3.89-.49-1.37c-.49-.34-14.44-11.82-14.58-11.85.77.64,1.45,1.25,2.05,1.84-.34,0-13.55-13.24-15.33-14.34,2.09,1.29-7.08-4.56-6.08-4,3.06,2.32-.78-.45,2.14,1.24.22-1.7-49.45-33-50.82-34.27-1.25-.25-.38.07.37,1.35-12.16-7.24-7.76-5.25-5.19-4.6l-2.8-1.07c.7.09.67-.23-.09-1,.47,0-26.44-13.47-27-13.82q4.2,2.31,8.29,4.85c-.87.37-7.76-4.26-9.78-5.12,1.4.3,2.12.86,2.15,1.69-3.11-2-4.82-5.33-8.82-7,1.9,2.22-4.6-1.8-8.76-3.83,1.87,1.35,9.91,7.1,11.5,8.14-7.5-2.92-8.62-3-19.73-8.87,10.69,5.66-10.83-8.72-11.41-9.08a165.21,165.21,0,0,0-24.19-12.92c5.92,3.37-3.09-1.08-5.86-1.8a57.35,57.35,0,0,1,6.65,5.72c-.45-.42-1.79,1.31,2.66,3.52a7.22,7.22,0,0,0,1.89-.29q7.29,4,2.77,3.25c1.67,1.26,10.15,1.25,13.33,5.31.86,1.1-1.93,1.87-4.62.58,4,3.3,3.78.77,1.8,1.6,3.94,2.69,10,4.88,3.26,2.08A34.26,34.26,0,0,1,127.6,43c-4.63-1.63-15.13-8.23-14.63-9.5-.35.89-6.3-1.53-10.12-3.7-1.13-1.14-1.32-1.8-.59-2,6.35,3.45,1.81,1.33,5.47,3.66-6.31-2.84-10.55-6.79-16.46-9.26-1.18-.5-17.8-4.38-17.11-2.63,1.19-.49,5.7,5.52,5.57,5.18,1.19.12,1.59-.24,1.2-1.09C76.6,21.29,99.54,38,95.45,35.16c-.08-.06,9.24,3.07,10.89,3.8a7.43,7.43,0,0,0-3.21.48c1.76,1.75,4,1.61,5.88,2.65-.22.48,20.52,12.69,22.32,12.19a14.06,14.06,0,0,0-5.63-3.75c-4.76-5.27-7.38-5.59-15.5-11.67,7.41,5.55,29.17,12.19,36.25,18.37-5.4-.42,5.25,6.31,13.56,10.19A59.72,59.72,0,0,0,153.94,64c1.48-.79,3.67,2.22,6.1,2.21-9.49-7.37-4.72-1.88-1.12-1.42q-.82-1.35-4.11-2.76c1.05-1.4,30.54,14.39,21.56,10.41a15.5,15.5,0,0,0,5,2.36c1.06,1.22.9,1.73-.49,1.54,5.67,4.28,3.5-.06,2.47-1,.18.55,5.17.68,4.46.34,2.52,1.64,3.11,2.45,1.8,2.44,1.8.74,5.74,1.16,8,2.47a2.39,2.39,0,0,0,.26,2.14q1.06-1.32,6.6,2.25c-2.4.63.13-.27,1.74,1.31-2.08-.94-3.34-1.22-3.79-.84q5,3.12,9.39,6.33-3.44-1.74-6.55-3a36.7,36.7,0,0,0,4.34,4.37c-7.07-4.3-12.59-9-19-12.19-2.14-1.08-12.48-3.85-9.2-1.45-.73-.46,7.5,2.2,7.73,2.27-.08,0-1.24.56-1.14.67,1.64,1.78,5.29,1.73,5.7,1.86,5.06,4-2.19-.06,5.53,5.1,3.23,2.17,5.17,3,11.44,6.84-10-5.53,4.88,4.43,1.76,2.85,3.46,2.23-5.44-2.19-7.33-3.33a9.13,9.13,0,0,0,1.78,3.45q-3.12-2.44.82.38c.09,0-6.27-2.78-3.89-1.35,5.83,4.73-1-3.49,6.84,4.25q-2.43-2.16.69.48c-1-.65-15.09-8-15-7.11,0,0,10.86,7.61,10.53,5.91,2,1.88,2.78,3.22,2.45,4-7-5.33-14.44-10-20.49-14.95-2-1,2.73,4.57,6.48,5.86q-1.6-1.29-3.58-2.63a24.55,24.55,0,0,0,2.89.6,26.49,26.49,0,0,1,5.49,5.56,31.47,31.47,0,0,0-5.5-3.67c3.17,2.43,5.86,4.75,9.17,7.21A45.25,45.25,0,0,1,196,98.08c-1.73,1.37-6.7-5-7.25-4.61,3.16,2.39-1,2,5.12,5.33q-3.06-1.47-.4.69c-.35-.25-11.8-9.24-11.3-6.58a95.2,95.2,0,0,1,7.14,6.57c.86-.08-7.55-6.55-7.81-6.55-1.92-2.47-1-.29-3.89-3.18,1.76.6,3.66,1.32,5.67,2.17-4.55-2.82-12.11-5.13-6.86-1.76.15,0-5.75-2.55-3.51-3.26-1.45-.63-8-5.94-9.26-7,3.7-.28-9.86-6.54-6.88-7.23q-2.25-1.06-4.62-2.43c.87,0,1.69-.12,2.47-.22,2.28,1.47,6,3.66,1.34,1a16.79,16.79,0,0,1,4.37,1.89c.23.85,1.56,2.18-.31,2.4.51.33,11.76,6.28,12.41,6.47-5.46-3.52-1.77-2.41,2-.52.2-2-11.08-6.53-10.23-7-2-1,10,5.73-.12-.94-.15.77,1,1.26,3.5,1.48A39.12,39.12,0,0,0,155.54,69c-2.43-1.4-3.85-3.35-9.27-5.77,3.37,2.95.78,1.86-3.19-.14-1-1,8.91,8-2,.24-.49.39.83,3.32,2.56,4.84q-3.62-2-7-3.43c1.39.47,1.75,2.36,3.43,4.3-5.45-6.28,24,13,12.45,7.37,1.92,2.45,6.44,2.59,6.51,2.6,2.92,1.8-1.22.79,2,1.78-3.28-1.73-3.27,1.44-1.79,2.72a68.49,68.49,0,0,1-7.74-4.42,83.79,83.79,0,0,0,7.32,5.53c-.26-.09-24.54-9.66-20.48-6.95C126.53,72,163,100.94,155,92.2c0,.1,4.84,3.66,5.4,4-4.92-2-8.76-2.93-11.92-4a11.53,11.53,0,0,0-5.51-3.4c.54,2.72,2.22,3.28-4.95.45-.19-.73-1.11-1.77-2.77-3.12,2.46,1.69,6.19,3.43,6.71,2.94-12.1-7.71,1.25-.61-4.16-5.49-2.35-.73-19.29-11.15-19.27-11.31,1.29-.51-2.92-3.55-7.91-7.19,0,3.67-14.51-7.49-22.34-9.46-3.12-.79,9.18,7.39-.33,1.58a56.71,56.71,0,0,1,5.58,4.27c-3.11-2.25-9.31-7.64-13.4-8.69-5.14-1.32,13.42,10,3,4.28-.85,1.49,11.39,7.49,9.29,9.58-.61.61-9.83-2.16-14.43-4.76a45.53,45.53,0,0,1,7,4.61c-6.62-4.94-1.78-.11-1.84-.21-2-1.46-18.7-12.66-20-13.53-9.71-6.21-.67.42-10.3-5.07-1.51-1.62-3.3-3.33-5.37-5.15-3.73-.72,11,8-6-1.69.27,1.59,5.74,4.39,8,6.66a23,23,0,0,0-6.91-4.18,78.59,78.59,0,0,1,6.28,6.57c.37.14-8.94-5.16-3.4-.53q3.67,2.25,7.41,4.24s4,9.84,9.94,13.76c.21.08,10.37,7.25,13.56,9.49C76.23,76.84,74.15,75.44,76.15,76.84ZM193.26,117c.15.2-2.2-.83,0,0ZM143.37,81.91c1.26.51-1,.38,0,0ZM158.89,94.7c-.46-.33-1.11-.08,0,0C158.94,94.75,158.82,94.7,158.89,94.7ZM114.94,69.07a.89.89,0,0,1-.32.07S114.82,69.06,114.94,69.07Z"/></g></g></g></g></g></g></svg>