<svg xmlns="http://www.w3.org/2000/svg" xmlns:xlink="http://www.w3.org/1999/xlink" viewBox="0 0 170 169"><defs><style>.cls-1{fill:url(#radial-gradient);}.cls-2{fill:none;}.cls-3{isolation:isolate;}.cls-13,.cls-4{opacity:0.75;}.cls-4{fill:url(#Degradado_sin_nombre_83);}.cls-5{opacity:0.5;mix-blend-mode:color-burn;}.cls-6{clip-path:url(#clip-path);}.cls-7{mask:url(#mask);}.cls-8{fill:url(#radial-gradient-2);}.cls-9{mix-blend-mode:overlay;}.cls-10{fill:url(#radial-gradient-3);}.cls-11{opacity:0.72;mix-blend-mode:multiply;}.cls-12{fill:#ddd;}.cls-13{fill:url(#Degradado_sin_nombre_6);}</style><radialGradient id="radial-gradient" cx="90.86" cy="83.13" r="81.19" gradientUnits="userSpaceOnUse"><stop offset="0.65" stop-color="#fff"/><stop offset="0.67" stop-color="#fbfbfb"/><stop offset="0.69" stop-color="#f0f0f0"/><stop offset="0.71" stop-color="#dedede"/><stop offset="0.73" stop-color="#c4c4c4"/><stop offset="0.75" stop-color="#a2a2a2"/><stop offset="0.77" stop-color="#797979"/><stop offset="0.78" stop-color="#484848"/><stop offset="0.8" stop-color="#101010"/><stop offset="0.81"/></radialGradient><radialGradient id="Degradado_sin_nombre_83" cx="125.06" cy="91.28" fx="94.43419037582133" r="87.54" gradientUnits="userSpaceOnUse"><stop offset="0" stop-color="#a2806b"/><stop offset="0.3" stop-color="#9d7d67"/><stop offset="0.86" stop-color="#6d4139"/><stop offset="1" stop-color="#653933"/></radialGradient><clipPath id="clip-path"><path class="cls-2" d="M126.91,121.84a59.29,59.29,0,1,1-6.19-83.62A59.28,59.28,0,0,1,126.91,121.84Z"/></clipPath><mask id="mask" x="9.67" y="1.94" width="162.38" height="162.38" maskUnits="userSpaceOnUse"><path class="cls-1" d="M152.35,136.14a81.19,81.19,0,1,1-8.48-114.5A81.19,81.19,0,0,1,152.35,136.14Z"/></mask><radialGradient id="radial-gradient-2" cx="-2791.36" cy="4515.48" r="89.56" gradientTransform="matrix(0.76, 0.65, -0.65, 0.76, 5141.82, -1557.15)" gradientUnits="userSpaceOnUse"><stop offset="0.07" stop-color="#fff"/><stop offset="0.37" stop-color="#fdfdfd"/><stop offset="0.53" stop-color="#f5f5f5"/><stop offset="0.66" stop-color="#e7e7e7"/><stop offset="0.77" stop-color="#d4d4d4"/><stop offset="0.87" stop-color="#bbb"/><stop offset="0.94" stop-color="#a3a3a3"/></radialGradient><radialGradient id="radial-gradient-3" cx="-2761.55" cy="4546.2" r="59.3" gradientTransform="matrix(0.76, 0.65, -0.65, 0.76, 5141.82, -1557.15)" gradientUnits="userSpaceOnUse"><stop offset="0.9" stop-color="gray"/><stop offset="1" stop-color="#c4c4c3"/></radialGradient><radialGradient id="Degradado_sin_nombre_6" cx="84.33" cy="84.12" r="79.66" gradientUnits="userSpaceOnUse"><stop offset="0" stop-color="#b0896a"/><stop offset="1" stop-color="#a1775d"/></radialGradient></defs><title>pag web full</title><g class="cls-3"><g id="Capa_2" data-name="Capa 2"><circle class="cls-4" cx="84.33" cy="83.25" r="57.89"/><g class="cls-5"><g class="cls-6"><g class="cls-7"><path class="cls-8" d="M126.91,121.84a59.29,59.29,0,1,1-6.19-83.62A59.28,59.28,0,0,1,126.91,121.84Z"/><g class="cls-9"><path class="cls-10" d="M126.91,121.84a59.29,59.29,0,1,1-6.19-83.62A59.28,59.28,0,0,1,126.91,121.84Z"/></g><g class="cls-11"><path class="cls-12" d="M134.77,60.79c0-.13-.23-.59-.24-.73s.81,0,.84.15c-.06-.17-.38-.11-.43-.22-.13-.66-.15-1.73-.72-1.41-.07-.91-.39.25-1.45-1.69-.13.12-.59-2.33-1.66-3.84-.41-.71-.91-.77-1.41-1.1-.67,1-.07,1.74.28,2.7-1,.5-1.39,1.07-.77,2.16.23-.07.4.23.53.18a8.55,8.55,0,0,0-.51,2c1.24-.57.94,1,1.51,1.83.33.49,1.51.39,1.81.79s-.06,1.28.26,1.74a12.46,12.46,0,0,1,1.65,2.81,19.13,19.13,0,0,0,1.38,3.22c.8-.7.38-3.11-.13-4.91,0,0,.75-.18.78-.16s-.84.11-.88,0-.08-.45-.14-.63,1.1-.06,1.32,0c-.16-.28-1.11-.79-1.31-1.26.06-.05.27-.06.32-.15C136.15,61.72,135.38,61.18,134.77,60.79Z"/><path class="cls-12" d="M128.1,53s-.09.06-.08,0,0,.34,0,.4c.36.42-.12,1.43.92,1.25a15.65,15.65,0,0,0-1.64-3.4s.58-.31.57-.32-.38,0-.41,0a6.77,6.77,0,0,0-1.57-2.11c.16-.07.95-.77,1.16-.78.08.17.17.44.26.62.1-.11.22.26.22.12a1.92,1.92,0,0,0,.52-.42c-.22-.36-1.41-.21-1.71-.48.11,0,1.2-.55,1.27-.57-.19-.29-1.35-.7-2-1.37a1.7,1.7,0,0,0-.19-.19,2.22,2.22,0,0,0-.39-.23,4.11,4.11,0,0,0-1.81-1.13s-.14-.57-.14-.56,0-.12-.13-.14.32-.59.33-.58c-.17-.11-.38.19-.57.15.6,1-.28,1.65-1.46.57.18.58.3.5.44.87,0,.05.68.36.65.42s-.13-.49-.16-.49c-.28-.66-.56-1.25-1-1.37-.23-.21-.93.67-1.14.71-.42-.25-.59-.53-.51-.29,0,0,.39-.56.35-.59-.35-.2-1.12.18-1.44,0-.61-.36-3.23-1.64-3.81-1.44a10.6,10.6,0,0,0,2.12,2,12,12,0,0,0,2.4,1.22c.94.41,3.64,1,2.6,2.57.6.54.55,1.4,1.42.7.56.87,1.13,2.46,2.21,2.25.25,1,.94.74,1.64,1.24.17.27-.14,1,0,1.12s.18.61.41.79C127.49,53.59,128.06,53,128.1,53Z"/><path class="cls-12" d="M109,57.6c-.2,1.55-.6,1.44.79,2.75,1.18,1.11,1.81.58,3.17.8,1.11.18,1.87,1.45,3.1.66s0-1.46,0-2.25c.11-.09.57.52.68.42.18.16,1,0,1.18.14,0-.29.09-.78.12-1.09.29-.32-.1-1.62.12-2,.46.27.67,1,.94,1.52.9-.85.65-1.22.32-2l.51-.13a2.33,2.33,0,0,0-.41-.5c0-.09.09.25.08.15s-.2-.21-.18-.35c.22-.4.62-.8.12-1.54-.22-.32-1.08-.12-1.47-.31-.18-1.08,1.64-1.15.81-2.08-1.79-2.7-3.21.23-3.42.85-.51-2.13-1.26-3.9-3.12-4.1-.5-.32-1.23-.12-2.1-.11s-3.49-.61-4.2.07c.55,1.09,1.68.4,2.52.74,0,0-.65.9-.64.9l.31-.22c.1.07.12.22.24.29.35.29.78.21,1.38.1.14.07.71,0,.85.07.33.83.48,2.57,1.33,2.27.46.51.27.21.4,1-.45.13-1.66-1-1.71-1s-.48-.06-.79.7c-.19-.21,0,.18-.12.13s0-.41-.08-.59a2.32,2.32,0,0,0-.57-1.45,8.35,8.35,0,0,0-.5-1c-.25.21-.5,1.18-.71,1-.07,0,.23-.25.19-.18-.6-.06-1-.06-1,.61-.08.9,2.55,1.38,2.33,2.47-.07.09-.67-.06-.73,0-.43,0-.81-1.11-1.42-.5a26.39,26.39,0,0,0-1.2,2.56A2.15,2.15,0,0,0,109,57.6Z"/><path class="cls-12" d="M124.72,61.25a1.6,1.6,0,0,1-.23.16c.26.57,1,.82,1.31,1.29,0,0-.37.2-.39.19a13.22,13.22,0,0,1,.24,1.6s.66.1.65.11c-.4,1.59-1.2.26-2.34,0-.26,1,.85,1.12,1.18,1.89.24.57.33,1.35.59,2a7.59,7.59,0,0,1-1,.47c-1.18-1.54-.85-2-1.29-1.63-.45.2-1.12-.52-1.35-.11a1.51,1.51,0,0,0-2-.06c-2-.14-4.9,1.12-3.93,2a2.44,2.44,0,0,1-1-.35c.11-.15.22-.26.23-.38s.73-.57.24-.94c0,.08-.31,1.07-.32,1.14-.59-.21-2-.38-1.8.71a7.13,7.13,0,0,1,1.79,2c.25.59.8.89.83,1.41,0,.11.33.64.27.74s-.59-.31-.48-.15-.52.07-.55.09c0-.33.25-.68.09-1-.12-.72,0-1.27-.79-.21a2.36,2.36,0,0,0,.63,2.93c0,.08-.51-.2-.51-.11a2.29,2.29,0,0,0,0,1.59s.77-.77.76-.72c-.27-.14-.94.56-1.17.42a5.88,5.88,0,0,1-1-.62c-.7-1.48.34-4.56,0-5.74-.82.68-.88.9-.85.27-.08,0-2.48,2.54-2.75,2.92.12-.18.63-.51.6-.94a2,2,0,0,0,.11-.81l-1.22.25c-.08-.51-.23-1.24-.35-1.69.16.11.93-.06,1-.07.61,0,.45-.62,1.13-.72-.12-.38-.12-.59-.3-.76s-.4-.18-1-.35c.92-.59.8,1.42,1.08-.93,0-.13.34-.25.34-.37s.28-.18.29-.24l-.71.1c-.11-.55-.66-.61-1.21-1.2-.43.28-.42,1-.57,1.5a8.41,8.41,0,0,1-1.43-1,2.65,2.65,0,0,1-1-1c-.75.25-1.47,1.07-1.19,1.8,0,0,.36-.66.31-.64a1.66,1.66,0,0,1-.94-.7,3.64,3.64,0,0,0-1-1.12s.46-.06.45,0c-.22-.48-1.08-.67-1.28-1.34-1.08.47-.35,1.4-.45,1.45-1.1-.69-2.35.64-2.51.56a17.89,17.89,0,0,0,.86,1.6c-1.76-1.23-1.34,1.68-1.13,2.11-.61-.15-1.18-.76-.83.22-1.64-.56-2.13.15-3.07.16.1-.09-.15-.1,0-.14-.08-1-.35-2.27-1.27-.79-.3-.13,0-.15-.14-.35.19-.06-.25-.46-.29-.76,1.13-.64-.55-1.8-1.07-2.48a5.33,5.33,0,0,0-.8,1.11c-.25-.59,0-1.51-.24-2.06-1,.18-.33-1.51-.72-2.09-.58-.87-1.51-.51-2.55-.88A3.45,3.45,0,0,1,90,59.29c-.38-1.18-.8-.42-1.54-.49S87,57.72,86.24,58c.07.25.68,1.21.77,1.45-.09,0-.15,0-.21-.06-.13.32-.64.43-.9.64-.39-.48.19-1.54.58-2-.56-.1-1.06.47-1.21.92a4.2,4.2,0,0,1-1-1.89c-.68.25.44,2.15-1.13,1,1.21-4.29-.66-.67-1.46,1.79-.34-.44-.73-1.06-1.05-1.55-.33.29-.81.51-1,1-.11-.22-.94-.8-1-1-.17.63.39,3.16-.79,2.83s-.17-1.9-.21-2.7c-.76.54-1.85.28-2.47.5-.14-.79.12-2-.68-1.83.51,1.22-.43,2.09-.73,3.34,0,0,.23-.28.22-.24-.4.11-.65.66-1.29.36,0,.33-.81.68-.92,1.68-.53.29-.21,1.05-.4,1.27-.51.6.26,1.35-1.09,1.28-.65,0-.78-1.1-1.57-.67-1.41.78,2.83,2.29,3.07,3.08-.49.42-1.34,1.76-.81,2.47,0,0,.24-.3.19-.22s.1-.19.12-.24,0,.58.06.58.66-.21.73-.14c0,.39-.89,1.09-.87,1.22-.47-.86.17.41.16.42,0-.47.42,0,1.06.2-.51.39-1.37,1.29-.78.63a3.44,3.44,0,0,1,2.34,1.33l-1.26.44c.32,1-.82,1-.52,1.93s1.82.42,2.46.23c.46,1.63.79,3.07,2.54,2.93-1.11.23-1.48,1.83-2.81,2.58.36,1,.29,1.12,1.75,1.51.53-2.09,1.08-2.27,2.19-2.32,0,.08.16,0,.11,0,.35.47.21.08.7-.21,0,0,.74,1,.71,1-.13.47-.66.73-1.08,1a4.76,4.76,0,0,0,2.13,2c-.27-.7-.21-1.61.52-1.67a1.35,1.35,0,0,1-.23-1.64c.87-.19,1.82.43,2.78.06.56.9-4,.69.39,2.26-.45.42-.26.65-.4,1.06-.17,0-.44-.33-.62-.38-.37-.69-.77-.81-1.33-.17.33.46.11.75,0,1.22-.23-.09-.22-.66-.53-.71-.43-.25-.9-.28-1.37-.51-.07-.1-.35.13-.42,0s-.22.63-.3.66,0-.69-.18-.75c-.1-.54-.67-.61-1.16-.46.26-.29-.4-.42-.51-.2-.07,0,.06.17,0,.15-.13-.48.25-.73.14-1.2-.19.31-1.18-.07-1.25.28-.12.19.48.64.38.8-1.1-.33-2-.72-2.49-.42-.12-.17,0,.47-.08.28-.93.5-1.7-.57-2.55,0,.61,0,.74,0,1,.68-.12.06,0-.26-.15-.18.51.14.3.84.64,1.1-.05.21-.15.76-.21,1-.52-.15-1.27-.24-1.65.17.32.33.54.91.76,1,0,.07,0-.35,0-.34-.12.25.19.69.17,1.07-.19,0,.94-.18,1.08.21-.29.19-.36,1.07.06,1.23-.16,0-.25-.61-.52-.68,0,0,.35.09.37.07s-.16-.51-.27-.35c0,0-.08.32,0,.37s-.27-.28-.29-.32a1.07,1.07,0,0,0,.38,1.51c-.09.26.08-.42-.06-.32s.09.13,0,.13-.27.68-.37.59c0,.07.07.29,0,.35a12.91,12.91,0,0,0-1.48.17c0-.26-.11-1,.1-.5-.12,0-.37-.16-.49-.12-.23-.15-.6.53-.76.23-.44.23-.64.35-1.07.59-.12-.06-.86-.44-1-.47-.18-1,1-2.39.73-3.4a18.23,18.23,0,0,0-2.42,2.46s-.53-.21-.53-.23c.12-.38,1.14-.65,1.24-1.27.12-.11-.1-.27-.07-.39.35-.28.56-.46.43-1.22,1.31.89,1.1-.68,1.4-1.4s1.37-1,.25-1.92c-.15.28-.55.49-.65.86-.33-.42-.26-.53-.61-.92.75-.76-.78-1.59-1.53-.93-1.12,1,0,1-1.92,1.19-1,.12-2,.61-2.74-.32-.88-1.18.52-1.3,1.05-2.33-1.56-1.26-.45-1.41.08-2.87.09-.26-.06-.78,0-1.09a6,6,0,0,0,.2-1.1c0-.81-.41-.58-1.13-.37l-.47-.87c.62-.59.21-1.26-.57-1.17a4.49,4.49,0,0,1-.36-1.91c0-.68.24-.54-.25-1.21a2.79,2.79,0,0,0-.5,3,13.63,13.63,0,0,1,0,1.93c-.34-.28-.37-.82-.71-.6.21-.62-.32-.92-.67-1.36,0-.12.85-1.43.73-1.37.06,0-1.33-.51-1.33-.48-.78-.92-.7.17-.83,0,.18-.14-.78-1.37-.56-2.23a6,6,0,0,0,.64-1c.07,0,.56.14.65.1-.06,0,0,0-.07,0,.09-.23-.32.2-.3.09.14.17.34-.33.45-.12-.12-.8-.38-.68-.89-.43,0,0-.52.1-.53.08s.5-.11.45,0,0,.34,0,.41c.3-.28-.07-1.1-.29-1.58-.37-.8-.35-.23-.91.15,0-.15-.15-.69-.15-.83-2.23.42-2.1-2.34-3.52-3.22-.07.51.69,2.76-.13,2.71.06-.08.06-.33.15-.42-.12-.15-.5-.12-.8-.12-.33-.86-.79-3.06-1.92-2,0,.13.8.24.85.37.22,0,0,1.06.22,1-.11.28.8.27.87.58-.06,0-1.13.45-1.14.52s.76-.31.81-.29c.11.37-.26.85-.14,1.22s.65,1.6-.64,1.31a15.85,15.85,0,0,1-.88-2.9c-.31.32-.58.23-.89.55a11.66,11.66,0,0,0-.47-2.28c-.25.41-.34.53-.58-.15-.89.23-2.62,3.18-2.5,2.3-1.45,1.2,2.35.52,2.63.3.75,1.18-2.78,1.68-2.94,1.52-.11.12.17.29.09.41-.39.32-.1-.16-.07.3.06,0-.33.08-.28,0-.1.45-.31,1.28-.41,1.76-.39-.53-.57-1-.94-1.56-.08.7-.16.58-.85.88C41,67.75,41,66.61,40,67s.12,1.52.28,2.18c0,.12,0-.19.06,0-.28-.28-.91.35-1.56,1a2.55,2.55,0,0,1-.58-.87c.09-.1-.53.08-.45,0-.3-.55-.76-1.37-1.23-.54-.27.46.29,1.43.55,1.51-.16.31-.06.69-.14,1.18-.55.71-.11,2,.66,3a27.2,27.2,0,0,0,1.61,3,3.3,3.3,0,0,1-.27.53c-1-.75-1.23-3.83-2.63-3.83a5.5,5.5,0,0,1,.89,2.6c-.16,1.07-.42.53-.81-.33-2,1.08.47,1.6.66,2.21,0,.11.49-.23.38,0a2.77,2.77,0,0,0-2.52.4,3.59,3.59,0,0,0,1.49,1.46c0,.51,1.24,1.06,1.14,1.59-.27-.17-.56-.77-.84-1.1-.09,0-.16-.25-.26-.27s-.5.73-.58.68,0-.13-.07-.09c-.48-.17-.89-.46-1.29-.1-.7.64.47,1.83,1.22,1.3.07,0,0-.31,0-.34.07.24-.48.68-.54,1,.17-.07,1.19-.84,1.36-.92a3.51,3.51,0,0,1,.74,1.64,2.34,2.34,0,0,1-.26,0c-.1-.29-.51-.07-.93-.19-.14.12-.24-.75-.36-.63-.18-.13-.62-.25-.76-.42a1.69,1.69,0,0,1-1,.76c-.11-.06.16-.06.08-.1s-.08.42-.1.36c.29-1.41-.49-3-1-4.4.13-.7-.39-1-1.25-2.12.58-.34,1.76-1,1.66-1.75-1.27,0-1.59-1.45-1.56-2.53l-.28.08c.79,0,.49-1.33,1-1.71.13-.06.47-.38.62-.43.79-.09,1.08,1.83,1.71.68.1.18.91.79,1,1,1-1.67-1.27-2.44-1.85-3.6s-1.43-1.11-.72-1.92c.39-.45,2.19-.8,1.42-1.72-.86.15-1.54,1.06-2.14,1.53-.15-.07.31-.21.25-.25s-.27.69-.28.68c2.43-1.07-.58-4-2.15-1.56-.29.46-.48,2.58-1.25,2.44-1.09-.2.35-2.43.58-3-.24.23-.91.33-1.16.55,0-.1.3-.67.4-.93-.2.13-.37,0-.57.12-.55-.9.45-1.15.63-2s-1.07-2.24-1-3a16.93,16.93,0,0,0-.81,3.06c-.14.85.7,1.47.35,2.31-.66,1.62-1.84,2.86-1.57,4.59-.12-.1.08-.13,0-.23-.45.33-.24.8-.32,1.27a21.57,21.57,0,0,0-.81,5.76c-.14.39-.57.79-.68,1.19-.27,1,.47,1.44.51,2.2,0,.36-.84.66-.86.91s.55.6.48.85l-1-.3s.26.19.25.23-.26.14-.29.26c-.24.82-.15,4.18,1.12,3.87,0,.65,1,1.16.67,1.84a11.6,11.6,0,0,1-1.29-.15l-.27-.31c0-.12.88-1,.83-1.09.28.23.36,1-.35.15-.13.08-.57-.42-.59-.33s1,.58,1,.54c-.08.29-.33.47-.32.82-.12.07-.8.1-.87.17.15.46.76.92,1,1.45a3,3,0,0,0,1,1.67s.3.51.48.35l-.69-.87s.84.58.86.55C26.38,88.4,27,87,27.62,88.69c.2.07-.19.77-.14,1.56a2.56,2.56,0,0,0,.3,1.42c0,.11.24.09.27.19,0-.06.37.28.4.21s-.94-.27-.91-.27c0,.6.76.57,1,.07.26.25,1.44,1.94,1.3,2.82-.18.15-1-.4-1.43-.61a14.79,14.79,0,0,1-2.11-1.55c.1.34.4.28.45.67-.77-1.61-2.17-1-2.88-2.86,0,.35.52.79.54,1.33,0,0-1,0-1.05,0s1.14.07,1.18.16c.1,1.72-.23,4.09.22,5.07,0,0,.35-.51.45-.52s1.14,1.92.63,2.13c-.52-.73.12-.76-.25-1.16a1.61,1.61,0,0,0-.52.89l.83.13c-.28,1.72.88,4.36,1.54,6.07.12.31-.62,2.07-.39,2.26,0,0,.47-.5.49-.48.27.63.51,1,.56,1.19.3-.28.27.31.35,1.2-.15-.07.33,0,.18-.1s.15-.48,0-.73c.07.15-.58.63-.51.77-.05,0-.09-.44-.13-.47-.42.72.35,2,1,2.28.1.22.08.12.15.29.21.68,1.18,1.14,1.49,1.83s.86,2.42.92.65c.08,0,.59,0,.71.06s0,.35,0,.51c0-.08-.15.17-.12.08a5.93,5.93,0,0,1,.54.41c.44,1,.69,1.88.68,1.18.06.13.25.39.21.47.18.4,1.56.59,2.43,1.17.09.11-.16.65-.07.77s.4,0,.51.07c.56.35.57.92.83,1.43,0,.23.19.32-.09.54.34.5,1.39.32,1.77.75,0,.14-.18.55,0,.64.13.27-.34.78-.19,1.06.51.94,1.7,1.27,2.68,2-.07-.17-.53-.21-.55-.39.37-.16.67.39.38-.49,0-.13.17-.77.2-.89a5.52,5.52,0,0,1,1.69,2.68s-.5-.16-.51-.13a4.15,4.15,0,0,0-.53.32s1.18-.09,1.2-.06-.45.14-.32.24-.31.68-.21.84a.34.34,0,0,0,.13-.31c1.05.66,3.89,1.85,6.09,2.89h-.36c.42.58.81,1.75,1.88.55-.1-.17,0,.6,0,.43.4.25,1.59-.42,1.81-.19-.35-.59-2.31-.92-2.55-1.73.14-.14.72-.09.83-.13s.05.18.13.17c.56.28.77,1,1.51,1,0-.08.29,0,.31-.12a3.68,3.68,0,0,0,.6.45c-.05-.06-.49.18-.56.09s.13-.86.16-1c.35.33,1,1,1.3,1.33,0,.08-.49.57-.54.65-.27,0-.25-.21-.6-.16.68.75.65,1.37.85,1.56.08,0,.48.62.56.62s-.18-.9-.15-.92a9.67,9.67,0,0,0,1.16.46c.38.16,1.91.66,2.48.81-.55-.87-2.16-1.13-2.65-2.12,0-.11,0-.21,0-.34.42.06,0-.49.3-.53-.32-.43,0-.64-.36-1,.61,0,1.13.58,1.71.67.22-.61,0-1.38.31-1.64-.16,1.9,4.69-.68,2.29,1.88.62.05,5.08-.55,3.37,1.27-.7.74-2.4-.07-1.81,1.62.2.56,1,.9,1.48,1.25.47.58,1.7.56,2.4,1.14a7.33,7.33,0,0,0,3.39,2.37c.87.28,1.84,1.49,2.58,1.67s1.44-.54,2.24-.42a5.56,5.56,0,0,1-.94-.64c.16-.17.61.31.82.27a.33.33,0,0,0,.31-.06,10.55,10.55,0,0,0,2.6-.21c-.22-.54-1.48-1.13-2-1.29a.83.83,0,0,0-.37-1.5c.41-1,1.32-.42,2-.77.4-.22.4-1,.79-1.31-.42,0-.19-.19-.63-.35-.09,0,0-1-.31-1.08s-1.11,1.29-1.43,1.21c-2.16-.48-1-1.67.14-2.44-.53-1-3.11,2-4.54,1.26-2.57-1.24.13-2.31.78-3.34.37-.26.79-.24,1-.39s.44-.29.58-.25c-.14-.42-.63-.1-1-.3,0,0-.1-.46-.15-.46s.88-.16,1-.24c-.15-.19-1-.09-1.26-.17,0,0,0-.22,0-.25-.15,0-.2-.59-.29-.59s0,.06-.14,0-.06,0-.15-.08-.47-.64-.45-.83c.57.32.69,1,1.34,1a1,1,0,0,0-.56-1.29c0-.12-.19-.66-.13-.78,1.14-.15,1.77.18,2.94,1.12.9.73,2,2.1.66,2.63.12,1.38.42-.22,1-.46a3.62,3.62,0,0,1,2.84.15c.62.2,1.54.1.82,1.13-.14.21-.38,1.16-.73,1.13-.65-.32-.8-.91-1.08-.71,0,0-.34-1-.32-1s.25.55.18.55c.37,1,1,1,1.86,1.09.19,0,.32.61.51.62s.66-.53.83-.45c.18.24.06.85.33,1-.08,0-.12-.17-.21-.14,0,.19.25.53.49.47.4.37.81.19,1.3-.09.3,0,0-.17,0-.41,0,0,0,.33.06.33.15.3.9-.25,1,.06.47-.7,1.27-.76,1.83-1.21.62-.28,1-1.07,1.6-1.42.18,0,.62.42.82.37,1.49-.37,3.83-.93,4.44-2.61-.48.49-.11.27-.5-.15.21-.17-.12-.19-.06-.26-.51-.66-.16-.64-.31-1a13.23,13.23,0,0,1,.32-2c-.49,0-1.24,1.22-1.46,1.8-1.24-.65.22-2.92.13-4s-1.2-2.09-2.09-3c-1.38.75-1.34,2.24-3.08.84-.13.56-.49.15-1,.25s-1.22.23-1.5.2a14.34,14.34,0,0,0,2.43-2c-.08-.82-1.13-.63-1.55-.22a.94.94,0,0,0-.1-.1c-.16.16-.7,0-.64,0s.42,0,.38.17c-.4-.46-.55-1.15-1-1.43-.15-.11-.72.22-.85.24-.86-1.12-1.39-2.44-2.51-2.64,0,0-.57.63-.55.6-.32-.74-.41-.84-.89-.3,0,0-.36.46-.37.46-.74-.57-.9-1.46-1.65-.76a4.88,4.88,0,0,1,.54,1.49c0,.09.91.11.92.21s-.29.17-.29.24c-.09,1-1.09.55-.23,1.36.42.4.11,1.1.45,1.19.21.29.33.53.61.91a1.21,1.21,0,0,0,.36.72c.09.1.76-.28.93-.26,1.15,1.65,2.24,3.18.71,1.91.08-.54-1-.34-1.66-.62,0-.2.07-.44-.42-.25,0,0-.15.06-.14.07-.48-.14-1.13.11-1.61,0,0-.08.06-.13,0-.09a10.19,10.19,0,0,1-2.26-.79c0-2.38-5.37.59-6.13-2.51.82-.5,2.65-.07,1.91-1.23-.1,0-.24-.6-.32-.6.84-1.12-1.11-1.82-2.37-2.39.21-1.71-.93-1-2-1.19a3.53,3.53,0,0,0,1.5,1c.07.08.31,0,.44.14-.21.23-.47.48-.68.73a1.64,1.64,0,0,0-2-.45c.22.49,1.26.94,1.61,1.28,0,0-.12.35-.11.38-.41,0-1.38-.68-1.62-.55-.7.38.47,1.27,1.05,1.27-.83,1.11-1.94-.53-2.93-.64-.56-.06-1.14,1.32-1.76,1.26s-1.11-.9-1.61-1-1.58-.35-2.27-.54c-.16-.08-.16-.24-.31-.34-.38-.37-.46-.17-.33-.43.16.08.2-.2.28-.22-.12-.1-.16-.09-.23-.16.21-.25.74.07,1.17.12-.1-.22-.61-.32-.77-.5-.21.11-.93,0-1.14.11-.3-.76.71-1.57,1.27-2-.57-1.1-1.46-.42-2.11.06,0,0,.32.77.31.78s-.38-.58-.45-.5c-.31.14.14.4-.17.94-.14.25-.34.36-.33.6-.15.09.41,0,.48.44,0,0-1,0-1,0-.22.41-1.23,1.78-1.72,1.66-1.49-.35.23-1.38.3-2-1.57,0-1.39.75-2.34.69-.39-.21-1.15.4-1.5.19-.09-.49,1.43-1.64,1.14-2.34-.63,0-1.45.76-1.92,1.12-.33-.24-1-.49-1.1-.64,1.44-1.34,1.09-.3.38-.33,0-.18,0-.14,0-.26-.19,0-.24,0-.45.08-.06-.07-.23-.07-.24-.19,1.09.53,1.12-.55,2-.78a12,12,0,0,1-2.38-2.92,9,9,0,0,0,2.5.45,8.56,8.56,0,0,0-.23-3c2.08,1.65,1.75,1.89,3.61,4.29-.2,2.54,7.57-.48,6.85-1.71-.85-.76-2.17,1.07-2.38,1.55a3,3,0,0,0-1.38-.57c.27-.3,1.06-.72.36-.52-.31-.76,2.14-.55-.24-1.24-1.22.69-.26.63-1.61,1-.2-.47,1.14-2.3,1.13-2.27s-4.07-2-1.68-2c-.12-.48-3.25-1.44-3.45-1.61,2.85,1.47.9-2.57.33-3,.16.06.1.51.24.56s.16-.14.17-.11.27-.77.28-.78a5.24,5.24,0,0,1,2.39,1.32c1.06-1.12.33-2.55.92-3.12.39.43.5.54.22.66,0,0-.53-.72-.54-.72.17-.15,1.26.21,1.71.2-.37-.55-.4-.79.06-.45-.85-2.32-1.52,2.71-2-1.71.43,1.48-.06.23-.17-.23.79.92,2.19,2.16,2.2.79a2.71,2.71,0,0,1,1.77.63c3.48-.12.72-.33-.49-2.35.36-.32.55-.36-.13-.23-.14.25-1,.3-1.09.46-.34-.77.17-2.3.82-3.48.59,1.17,3.26,5.56,4.1,5.61a21,21,0,0,1,.41,2.06c1.25.46.55-3.92-.74-3.72-.09.24.75,1.25.79,1.35a9.3,9.3,0,0,0-1.56.65c-.57-.83-.43-2.9-.26-3.84,1.37.56-.14,1.92,1.41,1.67a34.56,34.56,0,0,0-1.7-4c1,.84,1.91,2.44,1.71,2.89a10.79,10.79,0,0,0,.47-1.13c.5-.07.79,4,1.54,3.06.13.26.49-2,.76-3.37,0,0-.95-.38-.92-.36s.73.06.67,0c.12-.46-.18-.81,0-.94,1.73,2.92-.15.26.55,2.13.76-.64.52.29.87.61.55-1.71,1.77.24,2.08-.42-.27-.88-1.76-2.5-.63-3.69.13-.06-.11-.45-.12-.53s-.11.14.07,0c0,.46.41,3.93,1.6,3.74-.39.46-.45.8-.78.85.28.07,0-.56.31-.75,0,.06.6.86.6.92s-.76-.12-.88-.06c.14.11.62.12.68.2s.24.66.25.79c-.27.25-2.07,0-2.44.12.43.37,1.47,1.27,2.18,1s.7-1.12,1.33-1.51c.1,0-.1-.74,0-.66.15-.12.52.75.71.68s-.12,0-.08,0,.69-.13.72,0c.18.5-.62,1.08-1,1.45.21,0,1-.24,1.26-.22,0,.06-.77.56-.76.66s.53,1.13.53,1.38c-1.6.22-.24,1.34,1.19,2.19.06.07-.31-.36-.3-.33-2.23,1.73,2,4.12,1.58,4.53-.55-.17-1,.19-1.41.58a4.6,4.6,0,0,1,1.59.65c-.35.18-1.49,1.22-1.78,1.39a2.24,2.24,0,0,1-.45-1c-1.12.29-.89-.2.16.46-.24-.16-.61.15-.85.15-.23-.25-.81,0-.9-.29.07-.17.41-.29.22-.25a3.84,3.84,0,0,1-.46-.7c1-.74,2.56-2.47,1.91-1.94-.18-.2-.9,0-1.25,0-.92-.85-1.64-2.06-3.06-1.66a3.12,3.12,0,0,1,.78,1.18c-1,.14-1.36.67-2.41.33A1.68,1.68,0,0,0,63,104c.52.33,1.49-1.12,1.53,0-.11.06.22.79.14.88s-.23-.73-.14-.64a2.44,2.44,0,0,0-.62.27c.26.3-.06,1,.27,1.39-.13,0,.34-.57.23-.54-.72.18-1.1,0-1.66.47.71,1.22,2.07.24,2.82,1.54.43-.49.61,0,1.09.23.12.11.5-.69.58-.7s-.28,1.13-.18,1.19a1.53,1.53,0,0,0,.83.21s.54-.65.57-.65c.46.61.8,1.5,1.42,1.58-.09-.37-.59-.62-.75-1,0,0,.72-.51.75-.52.5.22.78.37,1.31.12,0-.1.22-.27.2-.38.21.09.31.4.53.47,0-.61-.78-1.2-1.18-1.58a1.84,1.84,0,0,1,2.67.37c.22-.27.1-.58.09-.94-.29-.11.08-.31-.12-.41,1.5-.67,1.58-1.72,1.28-3,.26.21,4.07,1.64,2.22-.19-.17.14.31.45.17.61a3.21,3.21,0,0,1,0-.85c0-.06,0-.2,0-.31.3-1.13,1.22-3.13-.73-2.31-.23.1-.26.72-.38.89a12.3,12.3,0,0,1-2.19.28c.3-.08.53-.65-.21-.32-.09,0-.16,0-.26-.06-.33-.79.36-1,.72-1a15.47,15.47,0,0,0-1.21-1.12c0-.22-.25-.65-.28-.83A2.5,2.5,0,0,1,73.73,97c0-.46-.53-.38-.44-.74-.46-.75-1.46.3-2.3.77,0,0,.31-.84.29-.88s-.16-.49-.17-.56-.45.35-.38.33.48-.65.64-.5c0-.12-.08.39-.09.29.55.05.67-.3,1-1-.07-.18.49,0,.36-.28.29-.05.07-.63.45-.68,1.68-.24.9-.23.51-1.78.7-.22,1.78,1.09,2.44,1.5.12-.65-1.06-2.2-1.49-3a2.72,2.72,0,0,1,.31,0c.41.09,1-.24,1.32-.35A16.31,16.31,0,0,1,80,91.59c-.06-.23,1.64-1.77,1.74-1.66-1.27.86,2.65-.31,2.14-.92-.29-.06-.85-.1-.73.21a3.66,3.66,0,0,1,.63-2c0,.18.25.46.32.72,1-.22.88-.86.65-1.33.24.37.37.56,1.22,0-1-1.82.39-3.74-.6-5.61-.38.24-1.08-.15-1.18-.56,1.64-.29.87-1.21-.4-1.71,0,0-.16.14-.23.14-.62-.2-1.63-.75-2.07-.24,0,0,0-.24-.08-.18a4,4,0,0,0-.84.78l1.13.79c.19-.34-.45-.83-.45-.88s-.35-1-.72-1.18c1,0,3.49.31,5.43-.52.14,0-.06-.4.06-.42.21.34.38,1.22.69,1.42,1.09.69,1-.61,1.06-.79.22-.38-.18-1.23.12-1.51.09,0,.16.06.34-.2a.61.61,0,0,0,0-.14c.36-.28,1.06-.11,1.46-.39a2.31,2.31,0,0,1,.61-.21c-.39.39.17.38.88.37-.68.27.07,1.44-.06,2.3a6.69,6.69,0,0,0-.8-.36c-.11-.72-1.13-.83-1.86.08.35.34.77,1.42,1.54,1.87-.09,1.15-1.29.26-1.32.3.35.32-.81,2.16-.8,2.2a7.58,7.58,0,0,1,2.94.88c-.63.88,2.78,3.52,3,3.18-.6.61-.15.36-1.1.86.56,1,.78,0,.63,1.06-.18.09.73.38.73.59a5.53,5.53,0,0,0,.62,2.08c.28-.55.33-1.77.72-2.32.77.84.86,1.26,1.8,1.3.51.54,1.14,1,1.08.87.33-.07.63-.71.94-.82.3.5.15.87,1.06.74.68-.1,1.26-.91,2.14-.15.12,0,0,.11.11.13.87,1.28,1.94.93,1.39-.48-.09-.23.47-1.19,0-1.52a5.89,5.89,0,0,1,1,.8c-.26-.64-1.25-1.65-1.1-2.32.27.45,1.23,2.95,2,3.52s2.65.35,2.42-1.09c-.07-.49-.82-.84-1.22-1.24,0-.07.2-.46.13-.53s-.08.16-.1.17.13-.06.1-.15.32,0,.32-.08-.64-1.25-.28-1.48c.18.12.65,1,.82,1.13a2,2,0,0,0-.46-2.37c-.12-.13-.48,0-.66-.14,0-1.67.25-3.15,0-3.8.61-2.24,4.78,1.46,4.41-2.22a18.07,18.07,0,0,1,3,.64c-.4-1.5-2.31-.49-1.82-2.07a1.37,1.37,0,0,0,1.2.56,8.64,8.64,0,0,1-.27-1.14c.09-.12.13.13.16,0,.1.15-.37.18-.26.47s.68.42.83.36c.32.79.64,1.16,1.13,1.14.23,0,.68.12.85-.06a45.75,45.75,0,0,1,2.65,4c0,.2-.25.45-.22.68.08.75-.12,2.82.92,1.94.19-.16.48,0,.49-.36.92-.56,1.7-1.32,2.45-.87.45.84-.27,2.63.43,3.43.52-.23.15-1.27,0-1.73,0,0,.72-.31.74-.35.59.45,1.51.78,2.25,1.22.37-.79.1-2.07-.47-2.3a8.24,8.24,0,0,1-.76-1.66c.44.53,1.07,2.46,2.05,1.6a20.94,20.94,0,0,1-.18-4.63c.2,0,0,.43.15.47a3.37,3.37,0,0,0,.89-.06,1,1,0,0,0,.9-1.37c-.2-.61-1.72-.84-2.34-1.43a7.38,7.38,0,0,1,.56-1.55c.49.37.7.87,1.28,1a8.83,8.83,0,0,1,.06-1.13c.24-.47,1.1-1,1-1.8.1-.1-.29-.18-.3-.11a1.55,1.55,0,0,0-1-1.66c-.18-.68.1-1.73-.17-2.41,0-.2-.28-.16-.29-.36,0,.06.31-.47.27-.39,0-.11.26.31.22.2s-.23-.59-.35-.6c-.1-.22-.5-.11-.61-.33a1.48,1.48,0,0,1,.21-.54,1,1,0,0,0,.86-1.49c.12,0-.09.37,0,.42,0-.4-.63-1.11-1-1.81C126.94,63.32,125.19,61.93,124.72,61.25Zm-53.33,8s0-.14,0-.16.42.14.44.15ZM83.16,86.48l-.08-.07.18-.33ZM80.64,79s-.08-.14-.09-.16.56.23.59.26S80.68,79,80.64,79Zm13.59,9.07a1.79,1.79,0,0,1,.25-.23A1.1,1.1,0,0,1,94.23,88.06Z"/></g><g class="cls-11"><path class="cls-12" d="M139.07,85.79c.5-.8.3-7.47-1.47-10.08-3.93,2.73-2,13.61-.63,18.48.94-.34,1.61-5.46,2.4-4.47-.79,0-1-.28-.71-.92a3.57,3.57,0,0,1,1.21.46c-.14-.84-.26-2.73-.8-3.47C139.14,85.68,139.49,86.37,139.07,85.79Z"/><path class="cls-12" d="M135.76,76.11c-.46.22-.54,1.76.19,1.91.67-3.86.1-3.33-.68-6.59,1,0,1.55.78,2.13.37A9.75,9.75,0,0,0,136,70.72l1.36-.06c-.51-2.66-3.17-3-2.48-5.52-1.12-1.57-2,2-1.58,1.53-1.39-.81-2.35-5.9-5.75-6.06,1.16,5.11,7,11.89,8.2,15.5C135.77,76.1,135.74,76.05,135.76,76.11Z"/><path class="cls-12" d="M116.69,73.34C115,76.49,121,82,122.42,77.76a2.35,2.35,0,0,0,1.5,1.2,18.81,18.81,0,0,1,1.31-2.75c3.08,4.08,2.5-9.14-.88-5.11.35-2.6-3.51-8.85-7.13-7.31a3,3,0,0,0,2,1.61l-.91.6c2.07,0,3.28,3,2.86,4.93.89.08-3.29-2.27-2.31-1.15,0-1.07.14-2.15,0-3.26-.06,0-2.11,1.15-1.9.72a16.9,16.9,0,0,1,1.25,3.16c-.42.24-2.09-2.34-2.3-.77-.07.48-3.32,4.36.7,3.71C116,74.7,115.63,73.51,116.69,73.34Z"/><path class="cls-12" d="M129.73,82.51c.1,0,.23,3.72.25,3.7-1,.64-1.68.35-2.14-.86-.81,1.16,2.23,4.67-.81,4.36-1.39-4.88-6.78-1.66-8.72-3.73.24-.15,1.16-.61.9-1-.78,1.84-2.24-.58-2.6.94-.17-.23,1.89,4.39,1.16,4.92a1.1,1.1,0,0,0-.92-.43,3.07,3.07,0,0,0,.57-1.65c0,.05-2.29,3.89-2.22,4.44l1-.38c-2.37-2.68-.37-1.89.18-6.3-.74.57-1,.55-.88-.06-1.2.52-2.38,1.09-3.54,1.7a2.24,2.24,0,0,0,1.27-1.37c-1.54,0-1.1-.27-.93-1.91a2.31,2.31,0,0,0,2.25,0,1.12,1.12,0,0,0-.75-1.49c.5-.1,1.58.23,2.11-.8-1.2-.41-3.66-.91-3.85-3.35a1.56,1.56,0,0,0-1.73,1.23c.73-.12-.92-4-.89-4.46-1.06,0-4.14.53-3.21,2.58-1-1.61-1.85.85-1.78,1.54-1.08-.76-2.88-2-3.5-2.57s-1.22-4.33-2.28-3c-.11-3.39,1.29-3.58-1.41-6,1.32-.91,1-3.1-1.46-3.3-.23,2.49.89,1.09-1,1.76A2,2,0,0,1,96,65.39c-1.57,1-2.13.4-1.7-1.72-4.33-.12,3.41.61-.37-1.21a11.41,11.41,0,0,0-3,2.85c-.7-2.44-2.24-.65-2.28-2.66A2.51,2.51,0,0,1,86.89,65a2.3,2.3,0,0,1,.77-2.59c-6.78,1.7.08-2-2.39-2.4a11.13,11.13,0,0,1-1.57,2.7c-1.89-.21-4.94,1.53-6.22,1.7,2.52-.33.11,6.07.09,6a.93.93,0,0,0,.44-.32c-.36.59-.17.82.57.7,0-.06-1.25,1.1-1.28.68.07,1.09,1.85.77,0,1.53Q78,71.78,79,75c-.95,0-2.38.17-2.47,1.55,0-.37,3.36,4.75,3.44,4.78-2-.35-4.9,1.56-2.43,3.41,1.27-1.8,2.32-1,3.63-1.21.14,2.65-2.58.53.17,4.38,0-3.12,2.34-1.9,4-1.89a3.64,3.64,0,0,1-1.84.53c1.64.89,1.86,1.74.64,2.56-1.56-.64-.7-2-2-.1-1.31-1.28-.75-1.48-2.2-1.46a2.86,2.86,0,0,1-.69-2.92c-.43.32-.9.46-1.19.68-.46-.37-3.72-2.22-4.62-2,2.88,1.33-1.12,2.35-1.36,2.47.45,1.1,1.34,3.48.55,2.9.66-.08,0,.2-.12-.29-.23,1.65-.28,2-.13,1.21-.53-.19-1.75,1.9-1.85.06a6.36,6.36,0,0,1-3.1-1c.66-.94,1.29-1.91,1.89-2.9-1.45,1.83-2.61,2.16-3.5,1,.83-1,6.19-2.7,5.19-4.57.47-.4-3.74-1.44-3.75-1.46-2.88-3.9-1.27.21-1.42-4.71-.1-3.19,2.84-4.92,1.71-9.21C65.14,68,66.67,70,65.2,71.11c-.88-1.64-1.29-7.23.59-7.27-.65-.31.12.14.1,0A1.27,1.27,0,0,0,64.73,63c.47,0,.55.15.24.5,1-.42-2.14-6.41-2.5-6.9A3.23,3.23,0,0,1,61.39,59c-.12.06-.11-3.84-1.45-3.27-.07.31,1.14,2.1,1.06,2.54q-.61,0-1.23.06c.48.4.4,2.91-.76,2.1,4.57-5.18-4.88-4.08-4.24-3.66a6.53,6.53,0,0,0,2.56.64c-.21-1.08-4.2,1.57-4.74,2.42-.05-.2-1.55-3.21-2.28-3.22-1.13,0-.46,1.79-.46,2.14.42,1-3.6-1.62-3.32-1.84-1.61,1.29-.34,9.23-1.1,9.48a10.57,10.57,0,0,0-1-4.53c.61,1.47.4,2.52-.61,3.14.15-1.23-.24-1.37-1.17-.43,0,0,.8,2.16,1.22,1.82-4.7-4-.68,2.5-1.14,3.24-.43-.58-1.08-2.46-2.46-1.93a6.27,6.27,0,0,1-.08,2.11c1.21,0,2.36-1.41,1.66,1.44-1.39-.18-1.21-1.44-2.83-1.69.2-.14.16-.07-.12.23C41.2,66.2,39,61.14,40.48,59c.85.4,3.75-3.05,4.09,1.16C46,59,44,55.7,44,54.4c0-.42,6-2.72-.38-.81.51-.27.46-.15-.18.39,6.56-.25-6-2.08-3.42-.43A2.63,2.63,0,0,1,41.59,51c-1.66.67-.59-3.76.38-5.54-4.73,5.61-7.4,13.73-11.25,19l-.83-.66c-.77,1.12.16,5.62-.61,6.4a1.23,1.23,0,0,1-1.27-1c0-.27,1.81-1,1.17-.21l-.81-1c0-.22-.7,5.81.26,5.48-.11-.36-.22-.71-.32-1.07q.95,2.2,2.26-.94c.6-.35,0,4.53.22,4.27-1.14-1.54,1.27,1.37.35,3-1.7.51-1.71-4.9-2.29-2.53a27.72,27.72,0,0,1-1.61-3.71c.46,1.47.14,1.82-.95,1.06.05.2-.26,7.27-.18,7.27a6.53,6.53,0,0,1,.19-1.16c.27-.07-2.32,8.62-2,9.22-.36-.7,1.07,2.52.8,2.26-.13-1.38.16.24-.45-.64C22.83,91.89,31,109,30.77,109.85c.73,0,.37-.13,1-1.07,2.4,3.84.93,3-.43,2.91l1.13.38a1,1,0,0,0-.88.81c-.34.07,7.4,6.45,7.47,6.64A12.92,12.92,0,0,1,37.37,117c1-.47,1.88,2.15,2.61,2.5-.8,0-.81-.33,0-1,.51,1.08-1.43,3.6,0,4.3.68-1.51,1.81.67,3.07,1.6-.15-.78-.8-4.13-1-4.71,3,1.07,3.78.91,6.67,3.81-2.78-2.79-.06,5.33,0,5.53,1.59,3.48,3.34,4.73,6.2,6.39-1.31-1.74,1.34.34,2.78.44a9.24,9.24,0,0,1,.39-3.59c-.05.27,2.66-1.43,1.36-2.47a12.75,12.75,0,0,0-1.74.6q-1.8-2,1-2.23c-.09-.74-6.63.83-5.17-2,.4-.77,3.3-1.93,4.13-1.34.08-2-2.18.06.15-1-.44-1.54-3-2.26-.51-1.15a4.58,4.58,0,0,1,.11-2.18c2,.51,3.73,4.13,2.12,5.28,1.13-.81,3.38.13,4.23,1.24a2.34,2.34,0,0,1-1.46,1.57c-1.57-1.73-.11-.79-.69-2.07,2.13,1.22,1.59,3.76,3.76,4.75.43.2,9.51.4,10.67-1-1.4.63.93-3.59.7-3.32a3,3,0,0,0-2,1.13c1,1.21-.55-8.59-.14-7a42.38,42.38,0,0,1-4.74-1.19,13.33,13.33,0,0,0,2.95-1c.33-1.14-1.51-.61-2-1.14.62-.44-3.6-6.88-5.46-6.13-.46,1.07-.22,1.78.73,2.12-1.43,3.55.29,3.33.69,6.94-.36-3.29-10.75-4.85-10.25-8.74,3.77-.65,2-4.34-.62-6.06a4.18,4.18,0,0,0,1.37,1.75c-1.9.94-.69-1.18-2.57-.73.21,4.45,1.82.72-.5,1-.45.65-.28,1.17.5,1.56-2.16,1.37-9.67-6.46-6.59-4.76a1.53,1.53,0,0,0-1.6-1.06,2.15,2.15,0,0,1,1.86-1.39c-.25-2.54-2.77.7-2.9,1.32.4-.43-3.33.38-3.11.53-.36-.91,0-1.48,1-1.71-.68-.3-3.31.08-3.82-.6a8,8,0,0,0,1.87-1.75c-1.39.87-2.37.65-2.92-.67,2.46-1-.36.25-.07-.78a2,2,0,0,0,2.1,0A12.61,12.61,0,0,1,39.4,95a8.92,8.92,0,0,0,2.12,1.34,9,9,0,0,0,.87-2.87c1.31,2.31,1.07,5.21,2.92,6.73.62.51,5.92.93,5.7-.48.12.25-3.65-.47-3.78-.48.11,0,1.51-.71,1.54-.77.45-1.2-2.41-.49-2.61-.52-.06-2.41,1.63-.35.67-3.27-.41-1.22-1.1-1.56-2.23-3.63C47,93.87,45.11,88.25,46,89c-.52-1.23,2.08.85,2.44,1.45a11.27,11.27,0,0,0,2-2.56c0,1-.06.92-.26-.17-.1,0,2.15,1.17,1.7.41.06-2.9-2.58,2.74-1.18-2.31-.14.91-.16.82-.07-.27.13.36,3.9,4,4.73,3.2,0,0-1-4.4-2.42-3a5,5,0,0,1,2-2.93c.29,3.18,1.5,5.73,1.39,8.78.53.49,2.3-3.33.65-3.73a4.78,4.78,0,0,0,.23,1.55,9.1,9.1,0,0,0-1.65,0,6.86,6.86,0,0,1,1.13-3.66,2.49,2.49,0,0,0,.7,2.07c-.11-1.46.06-2.91-.12-4.37a4.4,4.4,0,0,1,.53,3.31c2.65-1.46.32,3,1.15,2.54-.14-1.42,2.68-1.87,1.19-3.53.62.44,1,.23,1-.66,0,.15.18,5.59,2.36,3.45a17.19,17.19,0,0,1,.83-4.2c-.74.22-.5,4.11-.3,4.06-.89,1.72.5,0-.06,2a10.41,10.41,0,0,1-2.28-.78c.79,1.54,4.4,2.08,3.59.22-.12,0,2,1.08-.44,2.1.52.25.44,3.51.44,4.12-3.12.92,1.29,3.68-1.67,4.81a4.76,4.76,0,0,1,1.22,1.19c-.71.2-1.42.41-2.12.64-.34-.81-1.08-2-.08-.58a1.85,1.85,0,0,1-1.55-.78c.64-.67.89-1.54,2.55-2.07a24.4,24.4,0,0,0-3.33-3.15c.82,2-1,1.7-2,.8-2,1.69,2.25,3.45,1.12,4,.61.46-2.16-3-.81.77.85-.67.43-.87-1.28-.59.35,2.28,2.77,2.39,3.72,2.64.51.73-.27,2.11,1.58,3.14.24-1.86,1.19-1.42,2.32-.47-.2.66.84-5.07,1.8-.57a8.44,8.44,0,0,0,2.7-3.6,6.54,6.54,0,0,0,2,1.6c-.63-.13.93-1.67,1.51-3-1.87,4.28-6-6.49-2.5-3.88.88-1.71-2.47-1-2.52-1-.51-1,1.71-.89.16-1.12.86.84,3.92-1.82,4-2.62a4.86,4.86,0,0,1,1.7,2.29,8.56,8.56,0,0,0-.3-3.3c.1,0,9.6,3.59,9.09,2.06,3.66,2.59,3.46-15,1.21-9.14a8.52,8.52,0,0,0-.33-2.34A26.2,26.2,0,0,0,88.76,83c-.39,1.19-.07,1.81,1,1.85,2.2-2.19,1.46-2.35,4.25-1.29a3,3,0,0,0-.87,2.11,1.77,1.77,0,0,0-2.34-1.24c1.89,4.25-1.55.74-2.09,3.85,1.12.17,4.12,5.81,3.95,6-1.49.67-1.17,2.45-.84,4.58,3.51-3.07,4,3.62,8.11,3.83,1.65.09,0-4.52,1.78-1.39a6.16,6.16,0,0,1-.18-2.56c.23,1.32-.19,4.71,2,4.83,2.69.17-.7-5.93,1.83-3,2.09-1.41-1.56-4.2,2.07-6.34,1.06-.63,5.5,0,6.53,1.34a3.69,3.69,0,0,1-.92-2.59c.34,2.93,1.27-.23,1.22-.16.16.85,2.21,7.19,2.42,7.67,1.49,3.42.92-.48,3.05,2.36a15.85,15.85,0,0,0-.83,3.34c2.19-.09-.78-4.71,3,.3,1.32-1.29-.2-2.63.28-4.13a1.86,1.86,0,0,0,1.3,2.24,22.21,22.21,0,0,1,1.49-4.36c-.15,0,1.92,2.69,2.11-.19a10.18,10.18,0,0,0-1.62-2.19S131.83,90.19,131,88c-.08,0-1-4.18-1.3-5.48C129.66,82.53,129.92,83.33,129.73,82.51ZM78.15,70.36c.08-.15.9.28,0,0C78.16,70.34,78.16,70.36,78.15,70.36Zm4.61,20.3c-.48-.2,1.15-.51,0,0Zm.38-7.89c0,.2.77-.14,0,0C83.13,82.74,83.18,82.76,83.14,82.77ZM92.3,96.2a1.45,1.45,0,0,1,.31-.11A.87.87,0,0,1,92.3,96.2Z"/></g></g></g></g><path class="cls-13" d="M148.89,24.05C122.52-4.3,72.24-.37,36.58,32.8S-6.6,115.85,19.77,144.19s76.66,24.42,112.31-8.75S175.27,52.39,148.89,24.05ZM127.22,130.21C95.2,160,50,163.53,26.35,138.08S9.42,67.83,41.45,38s77.18-33.32,100.87-7.87S159.24,100.41,127.22,130.21Z"/></g></g></svg>